<svg width="195" height="251" viewBox="0 0 195 251" fill="none" xmlns="http://www.w3.org/2000/svg">
<path d="M194.149 11.6417L13.0254 2.14941L0.497252 241.201L181.621 250.693L194.149 11.6417Z" fill="#263238"/>
<path d="M183.497 1H1.72461V240.379H183.497V1Z" fill="white" stroke="#263238" stroke-linecap="round" stroke-linejoin="round"/>
<path d="M135.68 72.9027H11.5508V45.0049H172.624V72.9027H138.677" stroke="#263238" stroke-linecap="round" stroke-linejoin="round"/>
<path d="M21.6056 105.901H11.5508V91.4814H99.473" stroke="#263238" stroke-linecap="round" stroke-linejoin="round"/>
<path d="M103.286 91.4814H172.622V105.901H24.3301" stroke="#263238" stroke-linecap="round" stroke-linejoin="round"/>
<path d="M147.389 135.085H11.5508V120.665H172.624V135.085H150.386" stroke="#263238" stroke-linecap="round" stroke-linejoin="round"/>
<path d="M53.1947 222.301H11.5508V148.867H172.624V222.301H57.2723" stroke="#263238" stroke-linecap="round" stroke-linejoin="round"/>
<path d="M172.624 148.867H11.5508V161.698H172.624V148.867Z" fill="#005598" stroke="#263238" stroke-linecap="round" stroke-linejoin="round"/>
<path d="M88.1163 73.4418V91.5054H11.5508V72.9014" stroke="#263238" stroke-linecap="round" stroke-linejoin="round"/>
<path d="M172.624 54.9043H11.5508V63.0026H172.624V54.9043Z" fill="#005598" stroke="#263238" stroke-linecap="round" stroke-linejoin="round"/>
<path d="M119.146 45.7578V54.9452" stroke="#263238" stroke-linecap="round" stroke-linejoin="round"/>
<path d="M139.855 47.2959H128.883V52.6593H139.855V47.2959Z" fill="#005598" stroke="#263238" stroke-linecap="round" stroke-linejoin="round"/>
<path d="M93.5098 63.2568V72.9928" stroke="#263238" stroke-linecap="round" stroke-linejoin="round"/>
<path d="M127.189 63.2568V72.9928" stroke="#263238" stroke-linecap="round" stroke-linejoin="round"/>
<path d="M41.1797 91.5052V73.0322" stroke="#263238" stroke-linecap="round" stroke-linejoin="round"/>
<path d="M59.9336 91.5052V73.0322" stroke="#263238" stroke-linecap="round" stroke-linejoin="round"/>
<path d="M80.377 91.5957V105.647" stroke="#263238" stroke-linecap="round" stroke-linejoin="round"/>
<path d="M118.781 91.4004V134.84" stroke="#263238" stroke-linecap="round" stroke-linejoin="round"/>
<path d="M11.5508 105.9V120.68H118.838" stroke="#263238" stroke-linecap="round" stroke-linejoin="round"/>
<path d="M51.9551 106.008V120.223" stroke="#263238" stroke-linecap="round" stroke-linejoin="round"/>
<path d="M163.184 173.652H172.707" stroke="#263238" stroke-linecap="round" stroke-linejoin="round"/>
<path d="M11.7715 173.652H159.638" stroke="#263238" stroke-linecap="round" stroke-linejoin="round"/>
<path d="M11.7715 185.247H172.706" stroke="#263238" stroke-linecap="round" stroke-linejoin="round"/>
<path d="M61.3574 196.793H172.705" stroke="#263238" stroke-linecap="round" stroke-linejoin="round"/>
<path d="M11.7715 196.793H57.2719" stroke="#263238" stroke-linecap="round" stroke-linejoin="round"/>
<path d="M42.4199 176.846H36.9746V182.291H42.4199V176.846Z" fill="#005598" stroke="#263238" stroke-linecap="round" stroke-linejoin="round"/>
<path d="M73.6562 176.846H68.2109V182.291H73.6562V176.846Z" fill="#005598" stroke="#263238" stroke-linecap="round" stroke-linejoin="round"/>
<path d="M52.0781 187.957H46.6328V193.402H52.0781V187.957Z" fill="#005598" stroke="#263238" stroke-linecap="round" stroke-linejoin="round"/>
<path d="M81.9414 187.957H76.4961V193.402H81.9414V187.957Z" fill="#005598" stroke="#263238" stroke-linecap="round" stroke-linejoin="round"/>
<path d="M110.484 187.957H105.039V193.402H110.484V187.957Z" fill="#005598" stroke="#263238" stroke-linecap="round" stroke-linejoin="round"/>
<path d="M139.471 187.957H134.025V193.402H139.471V187.957Z" fill="#005598" stroke="#263238" stroke-linecap="round" stroke-linejoin="round"/>
<path d="M44.1133 185.345V196.899" stroke="#263238" stroke-linecap="round" stroke-linejoin="round"/>
<path d="M73.3203 185.345V196.899" stroke="#263238" stroke-linecap="round" stroke-linejoin="round"/>
<path d="M102.518 185.345V196.899" stroke="#263238" stroke-linecap="round" stroke-linejoin="round"/>
<path d="M131.715 185.345V196.899" stroke="#263238" stroke-linecap="round" stroke-linejoin="round"/>
<path d="M11.7715 208.567H172.706" stroke="#263238" stroke-linecap="round" stroke-linejoin="round"/>
<path d="M32.0996 199.732H26.6543V205.178H32.0996V199.732Z" fill="#005598" stroke="#263238" stroke-linecap="round" stroke-linejoin="round"/>
<path d="M81.9414 199.732H76.4961V205.178H81.9414V199.732Z" fill="#005598" stroke="#263238" stroke-linecap="round" stroke-linejoin="round"/>
<path d="M110.484 199.732H105.039V205.178H110.484V199.732Z" fill="#005598" stroke="#263238" stroke-linecap="round" stroke-linejoin="round"/>
<path d="M147.266 199.732H141.82V205.178H147.266V199.732Z" fill="#005598" stroke="#263238" stroke-linecap="round" stroke-linejoin="round"/>
<path d="M24.1328 197.12V208.551" stroke="#263238" stroke-linecap="round" stroke-linejoin="round"/>
<path d="M73.3203 197.12V208.551" stroke="#263238" stroke-linecap="round" stroke-linejoin="round"/>
<path d="M102.518 197.12V208.551" stroke="#263238" stroke-linecap="round" stroke-linejoin="round"/>
<path d="M139.51 197.12V208.551" stroke="#263238" stroke-linecap="round" stroke-linejoin="round"/>
<path d="M76.3836 20.3418V22.3234H71.8882V30.7902H69.6855V11.2363H77.4563V13.2179H71.8718V20.3418H76.3836Z" fill="#263238"/>
<path d="M79.0332 15.9599C79.0332 12.9711 80.5071 11.0469 83.4959 11.0469C86.4846 11.0469 87.9913 12.9793 87.9913 15.9599V26.0644C87.9913 29.0286 86.5174 30.9774 83.4959 30.9774C80.4744 30.9774 79.0332 29.0204 79.0332 26.0644V15.9599ZM81.1458 26.179C81.1458 27.9641 81.8991 29.004 83.4631 29.004C85.0271 29.004 85.7804 27.9641 85.7804 26.179V15.8453C85.7804 14.0848 85.0598 13.0203 83.4631 13.0203C81.8664 13.0203 81.1458 14.0848 81.1458 15.8453V26.179Z" fill="#263238"/>
<path d="M94.4179 11.2363C97.4885 11.2363 98.7741 12.8003 98.7741 15.7072V17.2957C98.7741 19.4493 98.0208 20.7922 96.3176 21.3244C98.1027 21.8485 98.7741 23.306 98.7741 25.4186V28.4647C98.7103 29.2684 98.8453 30.0755 99.1671 30.8148H96.9645C96.6534 30.0641 96.527 29.2497 96.596 28.4401V25.3449C96.596 23.134 95.5643 22.438 93.7464 22.438H92.2152V30.7902H90.0371V11.2363H94.4179ZM93.8611 20.4564C95.5888 20.4564 96.6206 19.8996 96.6206 17.7707V15.9201C96.6206 14.1596 95.9819 13.2343 94.3606 13.2343H92.2398V20.4728L93.8611 20.4564Z" fill="#263238"/>
<path d="M108.267 30.7574H106.179L102.904 15.1995V30.7574H101.004V11.2363H104.075L107.284 26.8516L110.388 11.2363H113.426V30.7902H111.362V15.1012L108.267 30.7574Z" fill="#263238"/>
<path d="M60.5391 40.3613H78.2742" stroke="#263238" stroke-miterlimit="10"/>
<path d="M12.1543 40.3613H57.5483" stroke="#263238" stroke-miterlimit="10"/>
<path d="M92.2754 40.3613H131.365" stroke="#263238" stroke-miterlimit="10"/>
<path d="M141.984 40.3613H172.869" stroke="#263238" stroke-miterlimit="10"/>
</svg>
