<svg width="333" height="157" viewBox="0 0 333 157" fill="none" xmlns="http://www.w3.org/2000/svg">
<rect x="3.99023" y="0.833984" width="328.828" height="149.799" transform="rotate(1 3.99023 0.833984)" fill="#263238"/>
<rect x="0.5" y="2.53809" width="327.828" height="148.799" fill="white" stroke="#263238"/>
<rect x="0.5" y="28.1133" width="327.828" height="101.302" fill="#005598" stroke="#263238"/>
<circle cx="34.7103" cy="14.8255" r="9.13411" fill="#BFBFBF"/>
<path d="M226.525 9.34473V20.3057" stroke="#263238" stroke-linecap="round"/>
<path d="M237.486 9.34473V20.3057" stroke="#263238" stroke-linecap="round"/>
<path d="M248.447 9.34473V20.3057" stroke="#263238" stroke-linecap="round"/>
<path d="M259.408 9.34473V20.3057" stroke="#263238" stroke-linecap="round"/>
<path d="M270.369 9.34473V20.3057" stroke="#263238" stroke-linecap="round"/>
<path d="M281.33 9.34473V20.3057" stroke="#263238" stroke-linecap="round"/>
<path d="M292.291 9.34473V20.3057" stroke="#263238" stroke-linecap="round"/>
<path d="M303.252 9.34473V20.3057" stroke="#263238" stroke-linecap="round"/>
<path d="M314.213 9.34473V20.3057" stroke="#263238" stroke-linecap="round"/>
<path d="M226.525 20.3057H274.023" stroke="#263238" stroke-linecap="round"/>
<path d="M286.811 20.3057L314.213 20.3057" stroke="#263238" stroke-linecap="round"/>
<path d="M233.832 9.34473L314.212 9.34473" stroke="#263238" stroke-linecap="round"/>
<path d="M210.998 67.8037V86.0719" stroke="#263238"/>
<path d="M14.6152 93.3789V107.993" stroke="#263238"/>
<path d="M225.613 67.8037V86.0719" stroke="#263238"/>
<path d="M29.2285 93.3789V107.993" stroke="#263238"/>
<path d="M314.213 67.8037V86.0719" stroke="#263238" stroke-linecap="round"/>
<path d="M117.83 93.3789V107.993" stroke="#263238" stroke-linecap="round"/>
<path d="M14.6152 49.5352H314.214" stroke="#263238" stroke-linecap="round"/>
<path d="M186.336 67.8037L314.213 67.8037" stroke="#263238" stroke-linecap="round"/>
<path d="M14.6152 93.3789L117.831 93.3789" stroke="#263238" stroke-linecap="round"/>
<path d="M14.6152 67.8037H179.029" stroke="#263238" stroke-linecap="round"/>
<path d="M14.6152 86.0723H314.214" stroke="#263238" stroke-linecap="round"/>
<path d="M14.6152 107.994L117.831 107.994" stroke="#263238" stroke-linecap="round"/>
<rect x="14.6152" y="38.5742" width="17.3548" height="7.30729" rx="3.65364" fill="#263238"/>
<rect x="14.6152" y="56.8428" width="21.9219" height="7.30729" rx="3.65364" fill="#263238"/>
<rect x="40.1895" y="56.8428" width="29.2291" height="7.30729" rx="3.65364" fill="#263238"/>
<rect x="47.498" y="9.3457" width="53.8912" height="10.9609" rx="5.48046" fill="#BFBFBF"/>
<rect x="232.92" y="122.608" width="53.8912" height="3.65364" rx="1.82682" fill="white"/>
<rect x="129.705" y="95.2061" width="86.774" height="7.30729" rx="3.65364" fill="#263238"/>
<rect x="82" y="137" width="54" height="8" rx="4" fill="#263238"/>
<rect x="193" y="137" width="54" height="8" rx="4" fill="#263238"/>
<rect x="174.461" y="76.9375" width="29.2291" height="5.48046" rx="2.74023" fill="#263238"/>
<rect x="14.6152" y="111.647" width="103.215" height="14.6146" fill="white"/>
<path d="M145.442 138.909H146.77L148.172 142.33H148.232L149.634 138.909H150.961V144H149.917V140.686H149.875L148.557 143.975H147.846L146.529 140.674H146.487V144H145.442V138.909ZM152.924 138.909V144H151.848V138.909H152.924ZM158.301 140.691H157.213C157.193 140.551 157.152 140.425 157.091 140.316C157.03 140.205 156.951 140.111 156.855 140.033C156.759 139.955 156.648 139.895 156.522 139.854C156.397 139.812 156.262 139.792 156.116 139.792C155.853 139.792 155.623 139.857 155.428 139.988C155.232 140.117 155.081 140.306 154.973 140.555C154.865 140.802 154.811 141.102 154.811 141.455C154.811 141.817 154.865 142.122 154.973 142.369C155.082 142.616 155.235 142.803 155.43 142.929C155.626 143.055 155.852 143.118 156.109 143.118C156.253 143.118 156.387 143.098 156.509 143.06C156.634 143.022 156.744 142.967 156.84 142.894C156.936 142.819 157.016 142.729 157.078 142.623C157.143 142.517 157.188 142.396 157.213 142.26L158.301 142.265C158.273 142.499 158.203 142.724 158.09 142.941C157.979 143.156 157.829 143.35 157.64 143.52C157.453 143.689 157.229 143.824 156.969 143.923C156.711 144.021 156.418 144.07 156.092 144.07C155.638 144.07 155.232 143.967 154.874 143.761C154.517 143.556 154.236 143.258 154.028 142.869C153.823 142.48 153.72 142.008 153.72 141.455C153.72 140.899 153.825 140.427 154.033 140.038C154.242 139.648 154.526 139.352 154.884 139.148C155.241 138.942 155.644 138.839 156.092 138.839C156.387 138.839 156.66 138.881 156.912 138.964C157.165 139.047 157.39 139.168 157.586 139.327C157.781 139.484 157.94 139.677 158.063 139.906C158.187 140.135 158.267 140.396 158.301 140.691ZM159.073 144V138.909H161.082C161.466 138.909 161.794 138.978 162.066 139.115C162.34 139.251 162.548 139.444 162.69 139.695C162.834 139.943 162.906 140.236 162.906 140.572C162.906 140.91 162.834 141.201 162.688 141.445C162.542 141.687 162.331 141.872 162.054 142.001C161.779 142.131 161.446 142.195 161.055 142.195H159.71V141.33H160.881C161.086 141.33 161.257 141.302 161.393 141.246C161.528 141.189 161.63 141.105 161.696 140.992C161.764 140.879 161.798 140.739 161.798 140.572C161.798 140.403 161.764 140.261 161.696 140.145C161.63 140.029 161.528 139.941 161.39 139.881C161.254 139.82 161.083 139.789 160.876 139.789H160.15V144H159.073ZM161.823 141.683L163.088 144H161.9L160.662 141.683H161.823ZM169.779 140.691H168.69C168.67 140.551 168.63 140.425 168.568 140.316C168.507 140.205 168.428 140.111 168.332 140.033C168.236 139.955 168.125 139.895 167.999 139.854C167.875 139.812 167.74 139.792 167.594 139.792C167.331 139.792 167.101 139.857 166.905 139.988C166.71 140.117 166.558 140.306 166.451 140.555C166.343 140.802 166.289 141.102 166.289 141.455C166.289 141.817 166.343 142.122 166.451 142.369C166.56 142.616 166.712 142.803 166.908 142.929C167.103 143.055 167.33 143.118 167.587 143.118C167.731 143.118 167.864 143.098 167.987 143.06C168.111 143.022 168.221 142.967 168.317 142.894C168.414 142.819 168.493 142.729 168.556 142.623C168.621 142.517 168.665 142.396 168.69 142.26L169.779 142.265C169.751 142.499 169.68 142.724 169.568 142.941C169.457 143.156 169.307 143.35 169.118 143.52C168.931 143.689 168.707 143.824 168.447 143.923C168.188 144.021 167.896 144.07 167.569 144.07C167.115 144.07 166.709 143.967 166.351 143.761C165.995 143.556 165.713 143.258 165.506 142.869C165.3 142.48 165.198 142.008 165.198 141.455C165.198 140.899 165.302 140.427 165.511 140.038C165.72 139.648 166.003 139.352 166.361 139.148C166.719 138.942 167.122 138.839 167.569 138.839C167.864 138.839 168.138 138.881 168.389 138.964C168.643 139.047 168.868 139.168 169.063 139.327C169.259 139.484 169.418 139.677 169.54 139.906C169.665 140.135 169.744 140.396 169.779 140.691ZM172.256 144.075C171.87 144.075 171.536 143.993 171.254 143.828C170.974 143.663 170.758 143.432 170.606 143.137C170.453 142.841 170.377 142.497 170.377 142.106C170.377 141.711 170.453 141.367 170.606 141.072C170.758 140.775 170.974 140.545 171.254 140.381C171.536 140.215 171.87 140.132 172.256 140.132C172.642 140.132 172.975 140.215 173.255 140.381C173.537 140.545 173.754 140.775 173.907 141.072C174.059 141.367 174.135 141.711 174.135 142.106C174.135 142.497 174.059 142.841 173.907 143.137C173.754 143.432 173.537 143.663 173.255 143.828C172.975 143.993 172.642 144.075 172.256 144.075ZM172.261 143.254C172.437 143.254 172.583 143.205 172.701 143.105C172.819 143.004 172.907 142.866 172.967 142.692C173.028 142.518 173.059 142.32 173.059 142.098C173.059 141.876 173.028 141.678 172.967 141.504C172.907 141.33 172.819 141.193 172.701 141.092C172.583 140.991 172.437 140.94 172.261 140.94C172.084 140.94 171.935 140.991 171.814 141.092C171.694 141.193 171.604 141.33 171.543 141.504C171.483 141.678 171.453 141.876 171.453 142.098C171.453 142.32 171.483 142.518 171.543 142.692C171.604 142.866 171.694 143.004 171.814 143.105C171.935 143.205 172.084 143.254 172.261 143.254ZM176.231 144.062C175.941 144.062 175.678 143.988 175.443 143.838C175.209 143.688 175.024 143.466 174.886 143.175C174.75 142.881 174.682 142.522 174.682 142.096C174.682 141.658 174.753 141.295 174.894 141.005C175.034 140.713 175.222 140.495 175.455 140.351C175.691 140.205 175.948 140.132 176.228 140.132C176.442 140.132 176.62 140.169 176.763 140.241C176.907 140.313 177.023 140.402 177.111 140.51C177.2 140.616 177.268 140.72 177.315 140.823H177.347V138.909H178.403V144H177.359V143.388H177.315C177.265 143.495 177.195 143.6 177.103 143.704C177.014 143.807 176.897 143.892 176.753 143.96C176.61 144.028 176.436 144.062 176.231 144.062ZM176.566 143.219C176.737 143.219 176.881 143.173 176.999 143.08C177.118 142.986 177.209 142.854 177.272 142.685C177.337 142.516 177.369 142.318 177.369 142.091C177.369 141.864 177.338 141.667 177.275 141.499C177.212 141.332 177.121 141.203 177.002 141.112C176.882 141.02 176.737 140.975 176.566 140.975C176.392 140.975 176.246 141.022 176.127 141.116C176.007 141.211 175.917 141.342 175.856 141.509C175.794 141.677 175.764 141.871 175.764 142.091C175.764 142.313 175.794 142.509 175.856 142.68C175.919 142.849 176.009 142.982 176.127 143.078C176.246 143.172 176.392 143.219 176.566 143.219ZM181.014 144.075C180.621 144.075 180.283 143.995 180 143.836C179.718 143.675 179.501 143.448 179.349 143.155C179.196 142.86 179.12 142.511 179.12 142.108C179.12 141.716 179.196 141.371 179.349 141.074C179.501 140.778 179.716 140.546 179.993 140.381C180.271 140.215 180.597 140.132 180.972 140.132C181.224 140.132 181.458 140.173 181.675 140.254C181.894 140.333 182.085 140.454 182.247 140.614C182.411 140.775 182.539 140.977 182.63 141.221C182.721 141.463 182.767 141.746 182.767 142.071V142.362H179.543V141.706H181.77C181.77 141.553 181.737 141.418 181.67 141.3C181.604 141.183 181.512 141.091 181.395 141.025C181.279 140.957 181.143 140.923 180.989 140.923C180.829 140.923 180.686 140.96 180.562 141.034C180.439 141.107 180.343 141.206 180.273 141.33C180.204 141.453 180.168 141.59 180.167 141.74V142.364C180.167 142.553 180.201 142.717 180.271 142.854C180.342 142.992 180.442 143.098 180.572 143.172C180.701 143.247 180.854 143.284 181.032 143.284C181.149 143.284 181.257 143.268 181.355 143.234C181.453 143.201 181.536 143.152 181.606 143.085C181.675 143.019 181.728 142.938 181.765 142.842L182.744 142.906C182.695 143.142 182.593 143.347 182.439 143.523C182.286 143.697 182.089 143.833 181.847 143.93C181.607 144.027 181.329 144.075 181.014 144.075Z" fill="#263238"/>
<path d="M110.519 11.9091V17H109.442V11.9091H110.519ZM111.404 17V11.9091H114.775V12.7965H112.481V14.0096H114.551V14.897H112.481V17H111.404ZM118.261 13.3732C118.241 13.1727 118.156 13.0169 118.005 12.9059C117.854 12.7949 117.649 12.7393 117.391 12.7393C117.215 12.7393 117.067 12.7642 116.946 12.8139C116.825 12.862 116.732 12.9291 116.667 13.0153C116.604 13.1014 116.573 13.1992 116.573 13.3086C116.57 13.3997 116.589 13.4793 116.63 13.5472C116.673 13.6152 116.732 13.674 116.807 13.7237C116.881 13.7718 116.967 13.814 117.065 13.8505C117.163 13.8853 117.267 13.9151 117.378 13.94L117.836 14.0494C118.058 14.0991 118.262 14.1654 118.447 14.2482C118.633 14.3311 118.794 14.433 118.93 14.554C119.065 14.675 119.171 14.8175 119.245 14.9815C119.321 15.1456 119.36 15.3337 119.362 15.5458C119.36 15.8574 119.281 16.1275 119.123 16.3562C118.968 16.5832 118.742 16.7597 118.447 16.8857C118.154 17.0099 117.8 17.0721 117.386 17.0721C116.975 17.0721 116.617 17.0091 116.312 16.8832C116.009 16.7572 115.772 16.5708 115.601 16.3239C115.432 16.0753 115.343 15.7679 115.335 15.4016H116.377C116.388 15.5723 116.437 15.7148 116.523 15.8292C116.611 15.9419 116.728 16.0272 116.874 16.0852C117.021 16.1416 117.188 16.1697 117.373 16.1697C117.556 16.1697 117.714 16.1432 117.848 16.0902C117.984 16.0372 118.089 15.9634 118.164 15.869C118.238 15.7745 118.276 15.666 118.276 15.5433C118.276 15.429 118.242 15.3329 118.174 15.255C118.108 15.1771 118.01 15.1108 117.881 15.0561C117.753 15.0014 117.596 14.9517 117.411 14.907L116.856 14.7678C116.427 14.6634 116.088 14.5001 115.84 14.2781C115.591 14.056 115.468 13.7569 115.469 13.3807C115.468 13.0724 115.55 12.8031 115.715 12.5728C115.883 12.3424 116.112 12.1626 116.404 12.0334C116.696 11.9041 117.027 11.8395 117.398 11.8395C117.776 11.8395 118.106 11.9041 118.388 12.0334C118.671 12.1626 118.891 12.3424 119.049 12.5728C119.206 12.8031 119.287 13.07 119.292 13.3732H118.261ZM124.578 13.6914H123.489C123.469 13.5505 123.429 13.4254 123.367 13.3161C123.306 13.205 123.227 13.1106 123.131 13.0327C123.035 12.9548 122.924 12.8951 122.798 12.8537C122.674 12.8123 122.539 12.7915 122.393 12.7915C122.129 12.7915 121.9 12.857 121.704 12.9879C121.509 13.1172 121.357 13.3061 121.249 13.5547C121.142 13.8016 121.088 14.1016 121.088 14.4545C121.088 14.8175 121.142 15.1224 121.249 15.3693C121.359 15.6162 121.511 15.8027 121.707 15.9286C121.902 16.0546 122.129 16.1175 122.385 16.1175C122.53 16.1175 122.663 16.0985 122.786 16.0604C122.91 16.0223 123.02 15.9667 123.116 15.8938C123.212 15.8192 123.292 15.7289 123.355 15.6229C123.419 15.5168 123.464 15.3958 123.489 15.2599L124.578 15.2649C124.55 15.4986 124.479 15.724 124.367 15.9411C124.256 16.1565 124.106 16.3496 123.917 16.5202C123.729 16.6893 123.506 16.8235 123.245 16.9229C122.987 17.0207 122.694 17.0696 122.368 17.0696C121.914 17.0696 121.508 16.9669 121.15 16.7614C120.794 16.5559 120.512 16.2584 120.305 15.869C120.099 15.4795 119.997 15.008 119.997 14.4545C119.997 13.8994 120.101 13.4271 120.31 13.0376C120.519 12.6482 120.802 12.3516 121.16 12.1477C121.518 11.9422 121.921 11.8395 122.368 11.8395C122.663 11.8395 122.936 11.8809 123.188 11.9638C123.442 12.0466 123.666 12.1676 123.862 12.3267C124.057 12.4841 124.217 12.6772 124.339 12.9059C124.464 13.1346 124.543 13.3964 124.578 13.6914ZM131.462 13.6914H130.373C130.353 13.5505 130.312 13.4254 130.251 13.3161C130.19 13.205 130.111 13.1106 130.015 13.0327C129.919 12.9548 129.808 12.8951 129.682 12.8537C129.558 12.8123 129.422 12.7915 129.277 12.7915C129.013 12.7915 128.784 12.857 128.588 12.9879C128.393 13.1172 128.241 13.3061 128.133 13.5547C128.025 13.8016 127.972 14.1016 127.972 14.4545C127.972 14.8175 128.025 15.1224 128.133 15.3693C128.243 15.6162 128.395 15.8027 128.591 15.9286C128.786 16.0546 129.012 16.1175 129.269 16.1175C129.413 16.1175 129.547 16.0985 129.669 16.0604C129.794 16.0223 129.904 15.9667 130 15.8938C130.096 15.8192 130.176 15.7289 130.239 15.6229C130.303 15.5168 130.348 15.3958 130.373 15.2599L131.462 15.2649C131.433 15.4986 131.363 15.724 131.25 15.9411C131.139 16.1565 130.989 16.3496 130.8 16.5202C130.613 16.6893 130.389 16.8235 130.129 16.9229C129.871 17.0207 129.578 17.0696 129.252 17.0696C128.798 17.0696 128.392 16.9669 128.034 16.7614C127.677 16.5559 127.396 16.2584 127.189 15.869C126.983 15.4795 126.88 15.008 126.88 14.4545C126.88 13.8994 126.985 13.4271 127.194 13.0376C127.402 12.6482 127.686 12.3516 128.044 12.1477C128.402 11.9422 128.804 11.8395 129.252 11.8395C129.547 11.8395 129.82 11.8809 130.072 11.9638C130.326 12.0466 130.55 12.1676 130.746 12.3267C130.941 12.4841 131.1 12.6772 131.223 12.9059C131.347 13.1346 131.427 13.3964 131.462 13.6914ZM133.939 17.0746C133.553 17.0746 133.219 16.9925 132.937 16.8285C132.657 16.6628 132.441 16.4324 132.288 16.1374C132.136 15.8408 132.059 15.4969 132.059 15.1058C132.059 14.7114 132.136 14.3667 132.288 14.0717C132.441 13.7751 132.657 13.5447 132.937 13.3807C133.219 13.215 133.553 13.1321 133.939 13.1321C134.325 13.1321 134.658 13.215 134.938 13.3807C135.22 13.5447 135.437 13.7751 135.589 14.0717C135.742 14.3667 135.818 14.7114 135.818 15.1058C135.818 15.4969 135.742 15.8408 135.589 16.1374C135.437 16.4324 135.22 16.6628 134.938 16.8285C134.658 16.9925 134.325 17.0746 133.939 17.0746ZM133.944 16.2543C134.119 16.2543 134.266 16.2045 134.384 16.1051C134.501 16.004 134.59 15.8665 134.65 15.6925C134.711 15.5185 134.742 15.3204 134.742 15.0984C134.742 14.8763 134.711 14.6783 134.65 14.5043C134.59 14.3303 134.501 14.1927 134.384 14.0916C134.266 13.9905 134.119 13.94 133.944 13.94C133.766 13.94 133.617 13.9905 133.496 14.0916C133.377 14.1927 133.287 14.3303 133.225 14.5043C133.166 14.6783 133.136 14.8763 133.136 15.0984C133.136 15.3204 133.166 15.5185 133.225 15.6925C133.287 15.8665 133.377 16.004 133.496 16.1051C133.617 16.2045 133.766 16.2543 133.944 16.2543ZM137.914 17.0621C137.624 17.0621 137.361 16.9876 137.126 16.8384C136.892 16.6876 136.706 16.4664 136.569 16.1747C136.433 15.8814 136.365 15.5218 136.365 15.0959C136.365 14.6584 136.435 14.2946 136.576 14.0046C136.717 13.7129 136.904 13.495 137.138 13.3509C137.373 13.205 137.631 13.1321 137.911 13.1321C138.125 13.1321 138.303 13.1686 138.445 13.2415C138.59 13.3127 138.706 13.4022 138.794 13.5099C138.883 13.616 138.951 13.7204 138.997 13.8232H139.03V11.9091H140.086V17H139.042V16.3885H138.997C138.948 16.4946 138.877 16.5998 138.786 16.7042C138.697 16.8069 138.58 16.8923 138.436 16.9602C138.293 17.0282 138.119 17.0621 137.914 17.0621ZM138.249 16.2195C138.42 16.2195 138.564 16.1731 138.682 16.0803C138.801 15.9858 138.892 15.854 138.955 15.685C139.02 15.516 139.052 15.3179 139.052 15.0909C139.052 14.8639 139.021 14.6667 138.958 14.4993C138.895 14.3319 138.803 14.2027 138.684 14.1115C138.565 14.0204 138.42 13.9748 138.249 13.9748C138.075 13.9748 137.928 14.022 137.809 14.1165C137.69 14.2109 137.599 14.3419 137.538 14.5092C137.477 14.6766 137.446 14.8705 137.446 15.0909C137.446 15.313 137.477 15.5094 137.538 15.68C137.601 15.8491 137.691 15.9817 137.809 16.0778C137.928 16.1722 138.075 16.2195 138.249 16.2195ZM142.697 17.0746C142.304 17.0746 141.966 16.995 141.683 16.8359C141.401 16.6752 141.184 16.4482 141.031 16.1548C140.879 15.8598 140.803 15.511 140.803 15.1083C140.803 14.7156 140.879 14.3709 141.031 14.0742C141.184 13.7776 141.398 13.5464 141.675 13.3807C141.954 13.215 142.28 13.1321 142.655 13.1321C142.906 13.1321 143.141 13.1727 143.358 13.2539C143.577 13.3335 143.767 13.4536 143.93 13.6143C144.094 13.7751 144.221 13.9773 144.313 14.2209C144.404 14.4628 144.449 14.7462 144.449 15.071V15.3619H141.225V14.7056H143.453C143.453 14.5531 143.419 14.4181 143.353 14.3004C143.287 14.1828 143.195 14.0908 143.077 14.0245C142.961 13.9566 142.826 13.9226 142.672 13.9226C142.511 13.9226 142.369 13.9599 142.244 14.0344C142.122 14.1074 142.026 14.206 141.956 14.3303C141.886 14.4529 141.851 14.5896 141.849 14.7404V15.3643C141.849 15.5533 141.884 15.7165 141.954 15.854C142.025 15.9916 142.125 16.0977 142.254 16.1722C142.384 16.2468 142.537 16.2841 142.714 16.2841C142.832 16.2841 142.94 16.2675 143.037 16.2344C143.135 16.2012 143.219 16.1515 143.288 16.0852C143.358 16.0189 143.411 15.9377 143.448 15.8416L144.427 15.9062C144.377 16.1416 144.275 16.3471 144.121 16.5227C143.969 16.6967 143.772 16.8326 143.53 16.9304C143.289 17.0265 143.012 17.0746 142.697 17.0746Z" fill="#263238"/>
<path d="M39.2546 97.8395C39.5165 97.8395 39.7683 97.8834 40.0103 97.9712C40.2539 98.0591 40.471 98.1991 40.6616 98.3913C40.8538 98.5836 41.0054 98.8388 41.1165 99.157C41.2292 99.4735 41.2863 99.8621 41.288 100.323C41.288 100.755 41.2391 101.141 41.1413 101.481C41.0452 101.819 40.9068 102.107 40.7262 102.344C40.5456 102.581 40.3277 102.761 40.0724 102.886C39.8172 103.008 39.5322 103.07 39.2173 103.07C38.8776 103.07 38.5777 103.004 38.3175 102.873C38.0573 102.741 37.8477 102.561 37.6886 102.334C37.5311 102.105 37.4358 101.848 37.4027 101.563H38.4641C38.5056 101.749 38.5926 101.893 38.7251 101.996C38.8577 102.097 39.0218 102.147 39.2173 102.147C39.5488 102.147 39.8007 102.003 39.973 101.715C40.1454 101.425 40.2324 101.028 40.234 100.524H40.1992C40.123 100.673 40.0202 100.802 39.891 100.909C39.7617 101.016 39.6134 101.098 39.446 101.156C39.2803 101.214 39.1038 101.243 38.9165 101.243C38.6166 101.243 38.349 101.172 38.1136 101.031C37.8783 100.89 37.6927 100.696 37.5568 100.45C37.4209 100.203 37.353 99.9209 37.353 99.6044C37.3513 99.263 37.43 98.9589 37.5891 98.6921C37.7482 98.4253 37.9703 98.2165 38.2553 98.0657C38.542 97.9132 38.8751 97.8378 39.2546 97.8395ZM39.2621 98.6847C39.0947 98.6847 38.9455 98.7244 38.8146 98.804C38.6854 98.8835 38.5826 98.9904 38.5064 99.1246C38.4318 99.2589 38.3954 99.4089 38.397 99.5746C38.397 99.742 38.4335 99.8928 38.5064 100.027C38.581 100.16 38.6821 100.266 38.8097 100.345C38.9389 100.423 39.0864 100.462 39.2521 100.462C39.3764 100.462 39.4916 100.439 39.5977 100.392C39.7037 100.346 39.7957 100.282 39.8736 100.201C39.9531 100.118 40.0153 100.023 40.06 99.9151C40.1048 99.8074 40.1271 99.6931 40.1271 99.5721C40.1255 99.4113 40.0874 99.2638 40.0128 99.1296C39.9382 98.9954 39.8355 98.8877 39.7045 98.8065C39.5736 98.7253 39.4261 98.6847 39.2621 98.6847ZM43.9329 103.07C43.5501 103.07 43.2095 103.007 42.9112 102.883C42.6146 102.757 42.3817 102.586 42.2127 102.369C42.0437 102.152 41.9592 101.905 41.9592 101.63C41.9592 101.418 42.0072 101.223 42.1033 101.046C42.2011 100.867 42.3337 100.719 42.5011 100.601C42.6684 100.482 42.8557 100.406 43.0629 100.373V100.338C42.7911 100.283 42.5707 100.151 42.4016 99.9425C42.2326 99.732 42.1481 99.4876 42.1481 99.2092C42.1481 98.9457 42.2251 98.7112 42.3793 98.5057C42.5334 98.2985 42.7447 98.1361 43.0131 98.0185C43.2833 97.8991 43.5898 97.8395 43.9329 97.8395C44.2759 97.8395 44.5817 97.8991 44.8501 98.0185C45.1203 98.1378 45.3324 98.301 45.4865 98.5082C45.6406 98.7137 45.7185 98.9473 45.7202 99.2092C45.7185 99.4892 45.6323 99.7337 45.4616 99.9425C45.291 100.151 45.0722 100.283 44.8054 100.338V100.373C45.0092 100.406 45.194 100.482 45.3597 100.601C45.5271 100.719 45.6597 100.867 45.7575 101.046C45.8569 101.223 45.9074 101.418 45.9091 101.63C45.9074 101.905 45.8221 102.152 45.6531 102.369C45.484 102.586 45.2504 102.757 44.9521 102.883C44.6554 103.007 44.3157 103.07 43.9329 103.07ZM43.9329 102.279C44.1036 102.279 44.2527 102.248 44.3803 102.187C44.5079 102.124 44.6074 102.038 44.6786 101.929C44.7515 101.818 44.788 101.69 44.788 101.546C44.788 101.398 44.7507 101.268 44.6761 101.156C44.6016 101.041 44.5005 100.952 44.3729 100.887C44.2453 100.821 44.0986 100.788 43.9329 100.788C43.7688 100.788 43.6222 100.821 43.4929 100.887C43.3636 100.952 43.2617 101.041 43.1871 101.156C43.1142 101.268 43.0778 101.398 43.0778 101.546C43.0778 101.69 43.1134 101.818 43.1847 101.929C43.2559 102.038 43.3562 102.124 43.4854 102.187C43.6147 102.248 43.7638 102.279 43.9329 102.279ZM43.9329 100.005C44.0754 100.005 44.2022 99.9756 44.3132 99.9176C44.4242 99.8596 44.5112 99.7792 44.5742 99.6765C44.6372 99.5737 44.6687 99.4553 44.6687 99.321C44.6687 99.1884 44.6372 99.0724 44.5742 98.973C44.5112 98.8719 44.4251 98.7932 44.3157 98.7369C44.2063 98.6789 44.0787 98.6499 43.9329 98.6499C43.7887 98.6499 43.6611 98.6789 43.5501 98.7369C43.439 98.7932 43.352 98.8719 43.2891 98.973C43.2277 99.0724 43.1971 99.1884 43.1971 99.321C43.1971 99.4553 43.2286 99.5737 43.2915 99.6765C43.3545 99.7792 43.4415 99.8596 43.5526 99.9176C43.6636 99.9756 43.7904 100.005 43.9329 100.005ZM46.863 103L48.9735 98.8239V98.7891H46.515V97.9091H50.0871V98.8015L47.9742 103H46.863ZM51.8638 97.9091L52.8904 99.6442H52.9302L53.9618 97.9091H55.1774L53.6238 100.455L55.2122 103H53.9743L52.9302 101.262H52.8904L51.8464 103H50.6135L52.2069 100.455L50.6433 97.9091H51.8638ZM56.8677 97.9091L57.8944 99.6442H57.9341L58.9657 97.9091H60.1813L58.6277 100.455L60.2161 103H58.9782L57.9341 101.262H57.8944L56.8503 103H55.6174L57.2108 100.455L55.6472 97.9091H56.8677ZM61.8716 97.9091L62.8983 99.6442H62.938L63.9696 97.9091H65.1852L63.6316 100.455L65.22 103H63.9821L62.938 101.262H62.8983L61.8542 103H60.6213L62.2147 100.455L60.6511 97.9091H61.8716ZM66.8755 97.9091L67.9022 99.6442H67.9419L68.9735 97.9091H70.1891L68.6355 100.455L70.2239 103H68.986L67.9419 101.262H67.9022L66.8581 103H65.6252L67.2186 100.455L65.655 97.9091H66.8755ZM71.8794 97.9091L72.9061 99.6442H72.9458L73.9775 97.9091H75.193L73.6394 100.455L75.2278 103H73.9899L72.9458 101.262H72.9061L71.862 103H70.6291L72.2225 100.455L70.6589 97.9091H71.8794ZM76.8833 97.9091L77.91 99.6442H77.9498L78.9814 97.9091H80.1969L78.6433 100.455L80.2317 103H78.9938L77.9498 101.262H77.91L76.8659 103H75.633L77.2264 100.455L75.6628 97.9091H76.8833ZM81.8873 97.9091L82.9139 99.6442H82.9537L83.9853 97.9091H85.2008L83.6472 100.455L85.2356 103H83.9977L82.9537 101.262H82.9139L81.8699 103H80.6369L82.2303 100.455L80.6667 97.9091H81.8873Z" fill="white"/>
<path d="M18.32 103H17.1665L18.924 97.9091H20.3111L22.0661 103H20.9126L19.6374 99.0724H19.5977L18.32 103ZM18.2479 100.999H20.9723V101.839H18.2479V100.999ZM26.9314 99.6914H25.8426C25.8227 99.5505 25.7821 99.4254 25.7208 99.3161C25.6595 99.205 25.5808 99.1106 25.4846 99.0327C25.3885 98.9548 25.2775 98.8951 25.1515 98.8537C25.0273 98.8123 24.8922 98.7915 24.7464 98.7915C24.4829 98.7915 24.2533 98.857 24.0578 98.9879C23.8622 99.1172 23.7106 99.3061 23.6029 99.5547C23.4952 99.8016 23.4413 100.102 23.4413 100.455C23.4413 100.817 23.4952 101.122 23.6029 101.369C23.7123 101.616 23.8647 101.803 24.0603 101.929C24.2558 102.055 24.482 102.118 24.7389 102.118C24.8831 102.118 25.0165 102.098 25.1391 102.06C25.2634 102.022 25.3736 101.967 25.4697 101.894C25.5658 101.819 25.6454 101.729 25.7084 101.623C25.773 101.517 25.8177 101.396 25.8426 101.26L26.9314 101.265C26.9032 101.499 26.8328 101.724 26.7201 101.941C26.609 102.156 26.4591 102.35 26.2702 102.52C26.0829 102.689 25.8592 102.824 25.599 102.923C25.3405 103.021 25.048 103.07 24.7215 103.07C24.2674 103.07 23.8614 102.967 23.5035 102.761C23.1472 102.556 22.8654 102.258 22.6583 101.869C22.4528 101.48 22.3501 101.008 22.3501 100.455C22.3501 99.8994 22.4545 99.4271 22.6633 99.0376C22.8721 98.6482 23.1555 98.3516 23.5134 98.1477C23.8714 97.9422 24.2741 97.8395 24.7215 97.8395C25.0165 97.8395 25.2899 97.8809 25.5418 97.9638C25.7954 98.0466 26.0199 98.1676 26.2155 98.3267C26.411 98.4841 26.5701 98.6772 26.6927 98.9059C26.817 99.1346 26.8966 99.3964 26.9314 99.6914Z" fill="white"/>
</svg>
