<svg width="370" height="360" viewBox="0 0 370 360" fill="none" xmlns="http://www.w3.org/2000/svg">
<path d="M159.612 360C237.441 360 300.535 356.06 300.535 351.198C300.535 346.337 237.441 342.396 159.612 342.396C81.7826 342.396 18.6895 346.337 18.6895 351.198C18.6895 356.06 81.7826 360 159.612 360Z" fill="#005598"/>
<path opacity="0.8" d="M159.612 360C237.441 360 300.535 356.06 300.535 351.198C300.535 346.337 237.441 342.396 159.612 342.396C81.7826 342.396 18.6895 346.337 18.6895 351.198C18.6895 356.06 81.7826 360 159.612 360Z" fill="white"/>
<path d="M265.503 16.4941H123.805C114.022 16.4941 106.092 24.4453 106.092 34.2535V334.18C106.092 343.988 114.022 351.939 123.805 351.939H265.503C275.285 351.939 283.216 343.988 283.216 334.18V34.2535C283.216 24.4453 275.285 16.4941 265.503 16.4941Z" fill="#263238"/>
<path d="M275.339 53.3291H113.959V315.104H275.339V53.3291Z" fill="white" stroke="#263238" stroke-width="1.33739" stroke-miterlimit="10"/>
<g style="mix-blend-mode:multiply">
<path d="M275.339 53.6768H113.959V63.8132H275.339V53.6768Z" fill="#005598"/>
</g>
<path d="M212.202 35.0033H177.103C176.47 35.0033 175.862 34.751 175.414 34.3019C174.966 33.8528 174.715 33.2437 174.715 32.6086V32.6086C174.715 31.9735 174.966 31.3644 175.414 30.9153C175.862 30.4662 176.47 30.2139 177.103 30.2139H212.202C212.835 30.2139 213.443 30.4662 213.891 30.9153C214.339 31.3644 214.59 31.9735 214.59 32.6086V32.6086C214.59 33.2437 214.339 33.8528 213.891 34.3019C213.443 34.751 212.835 35.0033 212.202 35.0033V35.0033Z" fill="#005598" stroke="#263238" stroke-width="1.33739" stroke-linecap="round" stroke-linejoin="round"/>
<path d="M204.221 329.893C204.223 327.995 203.662 326.138 202.611 324.558C201.56 322.978 200.065 321.747 198.316 321.019C196.566 320.292 194.641 320.101 192.783 320.471C190.926 320.841 189.219 321.755 187.88 323.098C186.541 324.441 185.629 326.152 185.26 328.014C184.891 329.877 185.081 331.807 185.807 333.561C186.532 335.315 187.761 336.814 189.336 337.868C190.912 338.922 192.764 339.483 194.658 339.482C197.193 339.479 199.624 338.468 201.417 336.671C203.21 334.873 204.218 332.436 204.221 329.893Z" fill="white"/>
<path d="M199.51 325.03H189.811V334.755H199.51V325.03Z" fill="white" stroke="#263238" stroke-width="1.33739" stroke-linecap="round" stroke-linejoin="round"/>
<path d="M230.45 180C230.45 176.555 235.133 172.502 234.286 169.309C233.404 166.008 227.306 164.866 225.64 161.972C223.973 159.078 225.989 153.182 223.613 150.799C221.236 148.416 215.402 150.472 212.47 148.772C209.538 147.073 208.462 140.987 205.158 140.103C201.974 139.253 197.949 143.95 194.496 143.95C191.043 143.95 187.018 139.253 183.834 140.103C180.542 140.987 179.402 147.102 176.516 148.772C173.63 150.443 167.75 148.422 165.373 150.805C162.997 153.188 165.047 159.038 163.352 161.978C161.657 164.917 155.588 165.997 154.706 169.309C153.841 172.502 158.542 176.555 158.542 180C158.542 183.445 153.858 187.498 154.706 190.691C155.588 193.992 161.686 195.134 163.352 198.028C165.018 200.922 163.003 206.818 165.379 209.201C167.755 211.584 173.59 209.528 176.522 211.228C179.454 212.927 180.53 219.013 183.834 219.897C187.018 220.747 191.043 216.05 194.496 216.05C197.949 216.05 201.974 220.747 205.158 219.897C208.45 219.013 209.59 212.898 212.476 211.228C215.361 209.557 221.242 211.578 223.618 209.195C225.995 206.812 223.945 200.962 225.64 198.022C227.335 195.083 233.404 194.003 234.286 190.691C235.151 187.498 230.45 183.445 230.45 180Z" fill="#005598"/>
<path d="M193.998 194.446L178.463 177.956C178.106 177.576 177.915 177.068 177.931 176.546C177.947 176.024 178.169 175.53 178.549 175.172C178.928 174.814 179.434 174.622 179.955 174.638C180.476 174.654 180.969 174.877 181.326 175.258L193.522 188.211L208.925 165.819C209.065 165.592 209.25 165.396 209.468 165.243C209.686 165.089 209.932 164.982 210.193 164.927C210.453 164.872 210.722 164.871 210.983 164.924C211.244 164.977 211.492 165.082 211.711 165.233C211.93 165.385 212.116 165.58 212.258 165.806C212.4 166.031 212.494 166.284 212.536 166.547C212.577 166.811 212.565 167.08 212.499 167.339C212.434 167.598 212.317 167.841 212.155 168.052L193.998 194.446Z" fill="white"/>
<path d="M310.21 219.531C310.21 219.531 297.501 187.157 308.815 183.309C320.594 179.296 320.074 200.675 319.618 211.095C318.661 233.361 316.209 237.501 314.376 232.063L310.21 219.531ZM306.39 244.786C309.882 249.356 310.866 244.621 304.567 223.242C301.613 213.188 295.195 192.851 285.349 200.483C275.895 207.795 298.395 234.302 298.395 234.302L306.39 244.786ZM299.644 263.34C302.971 266.302 303.035 262.563 295.131 247.126C291.421 239.896 283.572 225.262 277.144 232.501C270.973 239.485 292.004 256.458 292.004 256.458L299.644 263.34ZM292.351 285.405C295.678 288.375 295.742 284.628 287.838 269.199C284.128 261.969 276.278 247.327 269.851 254.575C263.716 261.576 284.684 278.55 284.684 278.55L292.351 285.405ZM313.41 240.49C308.086 242.574 312.316 244.841 334.551 244.777C344.98 244.777 366.276 244.301 361.736 232.684C357.388 221.524 325.717 235.737 325.717 235.737L313.41 240.49ZM307.347 255.334C301.713 256.312 305.415 259.383 327.221 263.752C337.441 265.808 358.4 269.601 356.257 257.354C354.206 245.544 320.347 253.167 320.347 253.167L307.347 255.334ZM300.565 273.459C295.769 274.153 298.832 276.831 317.166 281.036C325.763 283.01 343.403 286.712 341.871 276.265C340.413 266.21 311.605 271.896 311.605 271.896L300.565 273.459ZM295.414 290.249C290.719 291.446 294.046 293.786 312.735 296.017C321.487 297.059 339.419 298.868 336.803 288.64C334.277 278.824 306.235 287.516 306.235 287.516L295.414 290.249ZM322.891 222.274C320.156 228.416 325.836 227.483 345.144 210.592C354.188 202.668 372.33 186.088 357.962 177.834C344.169 169.9 329.336 208.179 329.336 208.179L322.891 222.274ZM296.125 312.122C293.235 313.813 296.07 314.471 309.326 311.82C315.543 310.586 328.188 307.844 323.912 302.433C319.773 297.223 302.816 308.191 302.816 308.191L296.125 312.122Z" fill="#005598"/>
<path opacity="0.3" d="M310.21 219.531C310.21 219.531 297.501 187.157 308.815 183.309C320.594 179.296 320.074 200.675 319.618 211.095C318.661 233.361 316.209 237.501 314.376 232.063L310.21 219.531ZM306.39 244.786C309.882 249.356 310.866 244.621 304.567 223.242C301.613 213.188 295.195 192.851 285.349 200.483C275.895 207.795 298.395 234.302 298.395 234.302L306.39 244.786ZM299.644 263.34C302.971 266.302 303.035 262.563 295.131 247.126C291.421 239.896 283.572 225.262 277.144 232.501C270.973 239.485 292.004 256.458 292.004 256.458L299.644 263.34ZM292.351 285.405C295.678 288.375 295.742 284.628 287.838 269.199C284.128 261.969 276.278 247.327 269.851 254.575C263.716 261.576 284.684 278.55 284.684 278.55L292.351 285.405ZM313.41 240.49C308.086 242.574 312.316 244.841 334.551 244.777C344.98 244.777 366.276 244.301 361.736 232.684C357.388 221.524 325.717 235.737 325.717 235.737L313.41 240.49ZM307.347 255.334C301.713 256.312 305.415 259.383 327.221 263.752C337.441 265.808 358.4 269.601 356.257 257.354C354.206 245.544 320.347 253.167 320.347 253.167L307.347 255.334ZM300.565 273.459C295.769 274.153 298.832 276.831 317.166 281.036C325.763 283.01 343.403 286.712 341.871 276.265C340.413 266.21 311.605 271.896 311.605 271.896L300.565 273.459ZM295.414 290.249C290.719 291.446 294.046 293.786 312.735 296.017C321.487 297.059 339.419 298.868 336.803 288.64C334.277 278.824 306.235 287.516 306.235 287.516L295.414 290.249ZM322.891 222.274C320.156 228.416 325.836 227.483 345.144 210.592C354.188 202.668 372.33 186.088 357.962 177.834C344.169 169.9 329.336 208.179 329.336 208.179L322.891 222.274ZM296.125 312.122C293.235 313.813 296.07 314.471 309.326 311.82C315.543 310.586 328.188 307.844 323.912 302.433C319.773 297.223 302.816 308.191 302.816 308.191L296.125 312.122Z" fill="white"/>
<path d="M315.815 234.605L313.6 197.651ZM308.805 246.798L294.802 215.017ZM344.942 237.557L311.385 242.383ZM301.548 263.926L283.379 240.555ZM304.739 256.76L329.772 258.022ZM298.813 274.684L317.958 276.585ZM294.191 286.073L284.682 271.732ZM293.097 291.137L315.605 291.347ZM288.539 333.474C288.689 333.462 288.83 333.391 288.929 333.277C289.028 333.162 289.077 333.013 289.067 332.862C287.636 311.309 295.95 276.01 309.288 247.035C317.812 228.517 351.224 192.121 351.579 191.755C351.687 191.647 351.747 191.501 351.747 191.349C351.747 191.196 351.687 191.05 351.579 190.942C351.527 190.889 351.464 190.847 351.395 190.818C351.326 190.789 351.253 190.774 351.178 190.774C351.103 190.774 351.03 190.789 350.961 190.818C350.892 190.847 350.829 190.889 350.777 190.942C350.44 191.307 316.891 227.841 308.294 246.523C294.71 276.202 286.506 310.861 287.964 332.935C287.976 333.08 288.041 333.216 288.147 333.316C288.253 333.416 288.393 333.472 288.539 333.474V333.474ZM315.806 235.171C315.957 235.162 316.098 235.093 316.198 234.98C316.299 234.867 316.351 234.719 316.344 234.568L314.165 197.596C314.162 197.521 314.143 197.447 314.111 197.379C314.079 197.311 314.033 197.25 313.977 197.2C313.921 197.149 313.856 197.111 313.785 197.086C313.714 197.062 313.638 197.052 313.563 197.057C313.413 197.066 313.272 197.135 313.171 197.248C313.07 197.36 313.018 197.509 313.026 197.66L315.241 234.614C315.248 234.759 315.311 234.896 315.416 234.997C315.521 235.097 315.661 235.153 315.806 235.153V235.171ZM309.005 247.319C309.142 247.257 309.249 247.143 309.303 247.003C309.358 246.863 309.355 246.707 309.297 246.569L295.285 214.789C295.224 214.65 295.112 214.542 294.971 214.487C294.831 214.432 294.675 214.436 294.537 214.496C294.399 214.557 294.291 214.67 294.237 214.81C294.182 214.951 294.185 215.107 294.246 215.246L308.248 247.026C308.292 247.128 308.365 247.215 308.457 247.277C308.549 247.338 308.657 247.372 308.768 247.373C308.862 247.378 308.956 247.359 309.042 247.319H309.005ZM311.43 242.931L344.97 238.124C345.051 238.122 345.13 238.103 345.204 238.068C345.277 238.033 345.342 237.984 345.394 237.922C345.447 237.86 345.486 237.788 345.509 237.71C345.532 237.632 345.538 237.55 345.527 237.47C345.516 237.389 345.488 237.312 345.445 237.243C345.402 237.174 345.345 237.115 345.278 237.07C345.211 237.024 345.135 236.994 345.055 236.98C344.975 236.967 344.893 236.97 344.815 236.99L311.275 241.798C311.125 241.808 310.985 241.877 310.886 241.99C310.787 242.103 310.737 242.251 310.746 242.401C310.756 242.551 310.825 242.692 310.938 242.791C311.051 242.891 311.198 242.941 311.348 242.931H311.43ZM301.867 264.383C301.986 264.29 302.063 264.152 302.082 264.002C302.101 263.851 302.06 263.699 301.967 263.579L283.789 240.162C283.696 240.041 283.559 239.961 283.407 239.942C283.256 239.922 283.103 239.963 282.982 240.057C282.861 240.15 282.782 240.288 282.763 240.439C282.743 240.591 282.784 240.744 282.877 240.866L301.092 264.319C301.145 264.388 301.213 264.443 301.29 264.481C301.367 264.519 301.453 264.539 301.539 264.539C301.675 264.532 301.804 264.477 301.903 264.383H301.867ZM330.274 258.049C330.279 257.898 330.224 257.751 330.122 257.64C330.02 257.528 329.878 257.462 329.727 257.455L304.739 256.185C304.598 256.194 304.466 256.255 304.368 256.356C304.269 256.457 304.211 256.59 304.204 256.731C304.198 256.872 304.243 257.011 304.331 257.121C304.42 257.23 304.545 257.304 304.684 257.327L329.718 258.598C329.869 258.602 330.015 258.548 330.126 258.445C330.237 258.343 330.303 258.2 330.31 258.049H330.274ZM318.486 276.64C318.495 276.565 318.489 276.489 318.468 276.416C318.447 276.343 318.411 276.276 318.364 276.217C318.316 276.158 318.257 276.109 318.191 276.074C318.124 276.038 318.051 276.016 317.976 276.01L298.831 274.118C298.757 274.11 298.682 274.117 298.61 274.139C298.539 274.161 298.472 274.196 298.415 274.244C298.357 274.292 298.309 274.35 298.275 274.416C298.24 274.482 298.218 274.555 298.211 274.629C298.198 274.779 298.245 274.928 298.34 275.045C298.436 275.161 298.573 275.235 298.722 275.251L317.866 277.152H317.921C318.068 277.162 318.213 277.114 318.326 277.019C318.438 276.923 318.509 276.787 318.523 276.64H318.486ZM294.464 286.548C294.591 286.464 294.679 286.334 294.71 286.185C294.741 286.036 294.711 285.88 294.628 285.753L285.166 271.412C285.079 271.289 284.948 271.203 284.8 271.174C284.652 271.145 284.499 271.175 284.372 271.257C284.246 271.341 284.157 271.471 284.127 271.62C284.096 271.769 284.125 271.924 284.208 272.052L293.671 286.393C293.725 286.471 293.798 286.535 293.882 286.58C293.966 286.625 294.059 286.648 294.154 286.649C294.278 286.655 294.4 286.62 294.501 286.548H294.464ZM316.18 291.347C316.178 291.196 316.118 291.053 316.012 290.945C315.907 290.838 315.765 290.776 315.615 290.771L293.106 290.561C292.956 290.561 292.812 290.62 292.706 290.727C292.6 290.833 292.541 290.977 292.541 291.127C292.538 291.203 292.551 291.278 292.579 291.349C292.606 291.419 292.647 291.483 292.7 291.537C292.753 291.591 292.816 291.633 292.886 291.662C292.956 291.69 293.031 291.705 293.106 291.703L315.615 291.914C315.692 291.917 315.768 291.905 315.841 291.879C315.913 291.852 315.979 291.811 316.035 291.758C316.091 291.705 316.136 291.642 316.167 291.571C316.199 291.5 316.215 291.424 316.216 291.347H316.18ZM285.977 325.092C286.022 324.992 289.861 314.389 301.402 311.857C301.551 311.825 301.68 311.734 301.762 311.605C301.844 311.477 301.872 311.321 301.84 311.172C301.803 311.026 301.711 310.9 301.584 310.819C301.456 310.739 301.303 310.712 301.156 310.742C288.985 313.411 284.947 324.608 284.901 324.718C284.854 324.862 284.865 325.019 284.931 325.155C284.998 325.292 285.114 325.397 285.257 325.449H285.439C285.56 325.459 285.682 325.43 285.785 325.366C285.889 325.302 285.969 325.206 286.013 325.092H285.977ZM288.539 333.474C288.689 333.462 288.83 333.391 288.929 333.277C289.028 333.162 289.077 333.013 289.067 332.862C287.636 311.309 295.95 276.01 309.288 247.035C317.812 228.517 351.224 192.121 351.579 191.755C351.687 191.647 351.747 191.501 351.747 191.349C351.747 191.196 351.687 191.05 351.579 190.942C351.527 190.889 351.464 190.847 351.395 190.818C351.326 190.789 351.253 190.774 351.178 190.774C351.103 190.774 351.03 190.789 350.961 190.818C350.892 190.847 350.829 190.889 350.777 190.942C350.44 191.307 316.891 227.841 308.294 246.523C294.71 276.202 286.506 310.861 287.964 332.935C287.976 333.08 288.041 333.216 288.147 333.316C288.253 333.416 288.393 333.472 288.539 333.474V333.474ZM315.806 235.171C315.957 235.162 316.098 235.093 316.198 234.98C316.299 234.867 316.351 234.719 316.344 234.568L314.165 197.596C314.162 197.521 314.143 197.447 314.111 197.379C314.079 197.311 314.033 197.25 313.977 197.2C313.921 197.149 313.856 197.111 313.785 197.086C313.714 197.062 313.638 197.052 313.563 197.057C313.413 197.066 313.272 197.135 313.171 197.248C313.07 197.36 313.018 197.509 313.026 197.66L315.241 234.614C315.248 234.759 315.311 234.896 315.416 234.997C315.521 235.097 315.661 235.153 315.806 235.153V235.171ZM309.005 247.319C309.142 247.257 309.249 247.143 309.303 247.003C309.358 246.863 309.355 246.707 309.297 246.569L295.285 214.789C295.224 214.65 295.112 214.542 294.971 214.487C294.831 214.432 294.675 214.436 294.537 214.496C294.399 214.557 294.291 214.67 294.237 214.81C294.182 214.951 294.185 215.107 294.246 215.246L308.248 247.026C308.292 247.128 308.365 247.215 308.457 247.277C308.549 247.338 308.657 247.372 308.768 247.373C308.862 247.378 308.956 247.359 309.042 247.319H309.005ZM311.43 242.931L344.97 238.124C345.051 238.122 345.13 238.103 345.204 238.068C345.277 238.033 345.342 237.984 345.394 237.922C345.447 237.86 345.486 237.788 345.509 237.71C345.532 237.632 345.538 237.55 345.527 237.47C345.516 237.389 345.488 237.312 345.445 237.243C345.402 237.174 345.345 237.115 345.278 237.07C345.211 237.024 345.135 236.994 345.055 236.98C344.975 236.967 344.893 236.97 344.815 236.99L311.275 241.798C311.125 241.808 310.985 241.877 310.886 241.99C310.787 242.103 310.737 242.251 310.746 242.401C310.756 242.551 310.825 242.692 310.938 242.791C311.051 242.891 311.198 242.941 311.348 242.931H311.43ZM301.867 264.383C301.986 264.29 302.063 264.152 302.082 264.002C302.101 263.851 302.06 263.699 301.967 263.579L283.789 240.162C283.743 240.102 283.685 240.051 283.62 240.014C283.554 239.976 283.482 239.951 283.407 239.942C283.332 239.932 283.256 239.937 283.183 239.957C283.11 239.977 283.042 240.01 282.982 240.057C282.922 240.103 282.872 240.16 282.834 240.226C282.797 240.292 282.772 240.364 282.763 240.439C282.753 240.514 282.758 240.591 282.778 240.664C282.797 240.737 282.831 240.806 282.877 240.866L301.092 264.319C301.145 264.388 301.213 264.443 301.29 264.481C301.367 264.519 301.453 264.539 301.539 264.539C301.675 264.532 301.804 264.477 301.903 264.383H301.867ZM330.274 258.049C330.279 257.898 330.224 257.751 330.122 257.64C330.02 257.528 329.878 257.462 329.727 257.455L304.739 256.185C304.598 256.194 304.466 256.255 304.368 256.356C304.269 256.457 304.211 256.59 304.204 256.731C304.198 256.872 304.243 257.011 304.331 257.121C304.42 257.23 304.545 257.304 304.684 257.327L329.718 258.598C329.869 258.602 330.015 258.548 330.126 258.445C330.237 258.343 330.303 258.2 330.31 258.049H330.274ZM318.486 276.64C318.495 276.565 318.489 276.489 318.468 276.416C318.447 276.343 318.411 276.276 318.364 276.217C318.316 276.158 318.257 276.109 318.191 276.074C318.124 276.038 318.051 276.016 317.976 276.01L298.831 274.118C298.757 274.11 298.682 274.117 298.61 274.139C298.539 274.161 298.472 274.196 298.415 274.244C298.357 274.292 298.309 274.35 298.275 274.416C298.24 274.482 298.218 274.555 298.211 274.629C298.198 274.779 298.245 274.928 298.34 275.045C298.436 275.161 298.573 275.235 298.722 275.251L317.866 277.152H317.921C318.068 277.162 318.213 277.114 318.326 277.019C318.438 276.923 318.509 276.787 318.523 276.64H318.486ZM294.464 286.548C294.591 286.464 294.679 286.334 294.71 286.185C294.741 286.036 294.711 285.88 294.628 285.753L285.166 271.412C285.079 271.289 284.948 271.203 284.8 271.174C284.652 271.145 284.499 271.175 284.372 271.257C284.246 271.341 284.157 271.471 284.127 271.62C284.096 271.769 284.125 271.924 284.208 272.052L293.671 286.393C293.725 286.471 293.798 286.535 293.882 286.58C293.966 286.625 294.059 286.648 294.154 286.649C294.278 286.655 294.4 286.62 294.501 286.548H294.464ZM316.18 291.347C316.178 291.196 316.118 291.053 316.012 290.945C315.907 290.838 315.765 290.776 315.615 290.771L293.106 290.561C292.956 290.561 292.812 290.62 292.706 290.727C292.6 290.833 292.541 290.977 292.541 291.127C292.538 291.203 292.551 291.278 292.579 291.349C292.606 291.419 292.647 291.483 292.7 291.537C292.753 291.591 292.816 291.633 292.886 291.662C292.956 291.69 293.031 291.705 293.106 291.703L315.615 291.914C315.692 291.917 315.768 291.905 315.841 291.879C315.913 291.852 315.979 291.811 316.035 291.758C316.091 291.705 316.136 291.642 316.167 291.571C316.199 291.5 316.215 291.424 316.216 291.347H316.18ZM285.977 325.092C286.022 324.992 289.861 314.389 301.402 311.857C301.551 311.825 301.68 311.734 301.762 311.605C301.844 311.477 301.872 311.321 301.84 311.172C301.803 311.026 301.711 310.9 301.584 310.819C301.456 310.739 301.303 310.712 301.156 310.742C288.985 313.411 284.947 324.608 284.901 324.718C284.854 324.862 284.865 325.019 284.931 325.155C284.998 325.292 285.114 325.397 285.257 325.449H285.439C285.56 325.459 285.682 325.43 285.785 325.366C285.889 325.302 285.969 325.206 286.013 325.092H285.977Z" fill="#005598"/>
<path opacity="0.2" d="M315.815 234.605L313.6 197.651ZM308.805 246.798L294.802 215.017ZM344.942 237.557L311.385 242.383ZM301.548 263.926L283.379 240.555ZM304.739 256.76L329.772 258.022ZM298.813 274.684L317.958 276.585ZM294.191 286.073L284.682 271.732ZM293.097 291.137L315.605 291.347ZM288.539 333.474C288.689 333.462 288.83 333.391 288.929 333.277C289.028 333.162 289.077 333.013 289.067 332.862C287.636 311.309 295.95 276.01 309.288 247.035C317.812 228.517 351.224 192.121 351.579 191.755C351.687 191.647 351.747 191.501 351.747 191.349C351.747 191.196 351.687 191.05 351.579 190.942C351.527 190.889 351.464 190.847 351.395 190.818C351.326 190.789 351.253 190.774 351.178 190.774C351.103 190.774 351.03 190.789 350.961 190.818C350.892 190.847 350.829 190.889 350.777 190.942C350.44 191.307 316.891 227.841 308.294 246.523C294.71 276.202 286.506 310.861 287.964 332.935C287.976 333.08 288.041 333.216 288.147 333.316C288.253 333.416 288.393 333.472 288.539 333.474V333.474ZM315.806 235.171C315.957 235.162 316.098 235.093 316.198 234.98C316.299 234.867 316.351 234.719 316.344 234.568L314.165 197.596C314.162 197.521 314.143 197.447 314.111 197.379C314.079 197.311 314.033 197.25 313.977 197.2C313.921 197.149 313.856 197.111 313.785 197.086C313.714 197.062 313.638 197.052 313.563 197.057C313.413 197.066 313.272 197.135 313.171 197.248C313.07 197.36 313.018 197.509 313.026 197.66L315.241 234.614C315.248 234.759 315.311 234.896 315.416 234.997C315.521 235.097 315.661 235.153 315.806 235.153V235.171ZM309.005 247.319C309.142 247.257 309.249 247.143 309.303 247.003C309.358 246.863 309.355 246.707 309.297 246.569L295.285 214.789C295.224 214.65 295.112 214.542 294.971 214.487C294.831 214.432 294.675 214.436 294.537 214.496C294.399 214.557 294.291 214.67 294.237 214.81C294.182 214.951 294.185 215.107 294.246 215.246L308.248 247.026C308.292 247.128 308.365 247.215 308.457 247.277C308.549 247.338 308.657 247.372 308.768 247.373C308.862 247.378 308.956 247.359 309.042 247.319H309.005ZM311.43 242.931L344.97 238.124C345.051 238.122 345.13 238.103 345.204 238.068C345.277 238.033 345.342 237.984 345.394 237.922C345.447 237.86 345.486 237.788 345.509 237.71C345.532 237.632 345.538 237.55 345.527 237.47C345.516 237.389 345.488 237.312 345.445 237.243C345.402 237.174 345.345 237.115 345.278 237.07C345.211 237.024 345.135 236.994 345.055 236.98C344.975 236.967 344.893 236.97 344.815 236.99L311.275 241.798C311.125 241.808 310.985 241.877 310.886 241.99C310.787 242.103 310.737 242.251 310.746 242.401C310.756 242.551 310.825 242.692 310.938 242.791C311.051 242.891 311.198 242.941 311.348 242.931H311.43ZM301.867 264.383C301.986 264.29 302.063 264.152 302.082 264.002C302.101 263.851 302.06 263.699 301.967 263.579L283.789 240.162C283.696 240.041 283.559 239.961 283.407 239.942C283.256 239.922 283.103 239.963 282.982 240.057C282.861 240.15 282.782 240.288 282.763 240.439C282.743 240.591 282.784 240.744 282.877 240.866L301.092 264.319C301.145 264.388 301.213 264.443 301.29 264.481C301.367 264.519 301.453 264.539 301.539 264.539C301.675 264.532 301.804 264.477 301.903 264.383H301.867ZM330.274 258.049C330.279 257.898 330.224 257.751 330.122 257.64C330.02 257.528 329.878 257.462 329.727 257.455L304.739 256.185C304.598 256.194 304.466 256.255 304.368 256.356C304.269 256.457 304.211 256.59 304.204 256.731C304.198 256.872 304.243 257.011 304.331 257.121C304.42 257.23 304.545 257.304 304.684 257.327L329.718 258.598C329.869 258.602 330.015 258.548 330.126 258.445C330.237 258.343 330.303 258.2 330.31 258.049H330.274ZM318.486 276.64C318.495 276.565 318.489 276.489 318.468 276.416C318.447 276.343 318.411 276.276 318.364 276.217C318.316 276.158 318.257 276.109 318.191 276.074C318.124 276.038 318.051 276.016 317.976 276.01L298.831 274.118C298.757 274.11 298.682 274.117 298.61 274.139C298.539 274.161 298.472 274.196 298.415 274.244C298.357 274.292 298.309 274.35 298.275 274.416C298.24 274.482 298.218 274.555 298.211 274.629C298.198 274.779 298.245 274.928 298.34 275.045C298.436 275.161 298.573 275.235 298.722 275.251L317.866 277.152H317.921C318.068 277.162 318.213 277.114 318.326 277.019C318.438 276.923 318.509 276.787 318.523 276.64H318.486ZM294.464 286.548C294.591 286.464 294.679 286.334 294.71 286.185C294.741 286.036 294.711 285.88 294.628 285.753L285.166 271.412C285.079 271.289 284.948 271.203 284.8 271.174C284.652 271.145 284.499 271.175 284.372 271.257C284.246 271.341 284.157 271.471 284.127 271.62C284.096 271.769 284.125 271.924 284.208 272.052L293.671 286.393C293.725 286.471 293.798 286.535 293.882 286.58C293.966 286.625 294.059 286.648 294.154 286.649C294.278 286.655 294.4 286.62 294.501 286.548H294.464ZM316.18 291.347C316.178 291.196 316.118 291.053 316.012 290.945C315.907 290.838 315.765 290.776 315.615 290.771L293.106 290.561C292.956 290.561 292.812 290.62 292.706 290.727C292.6 290.833 292.541 290.977 292.541 291.127C292.538 291.203 292.551 291.278 292.579 291.349C292.606 291.419 292.647 291.483 292.7 291.537C292.753 291.591 292.816 291.633 292.886 291.662C292.956 291.69 293.031 291.705 293.106 291.703L315.615 291.914C315.692 291.917 315.768 291.905 315.841 291.879C315.913 291.852 315.979 291.811 316.035 291.758C316.091 291.705 316.136 291.642 316.167 291.571C316.199 291.5 316.215 291.424 316.216 291.347H316.18ZM285.977 325.092C286.022 324.992 289.861 314.389 301.402 311.857C301.551 311.825 301.68 311.734 301.762 311.605C301.844 311.477 301.872 311.321 301.84 311.172C301.803 311.026 301.711 310.9 301.584 310.819C301.456 310.739 301.303 310.712 301.156 310.742C288.985 313.411 284.947 324.608 284.901 324.718C284.854 324.862 284.865 325.019 284.931 325.155C284.998 325.292 285.114 325.397 285.257 325.449H285.439C285.56 325.459 285.682 325.43 285.785 325.366C285.889 325.302 285.969 325.206 286.013 325.092H285.977ZM288.539 333.474C288.689 333.462 288.83 333.391 288.929 333.277C289.028 333.162 289.077 333.013 289.067 332.862C287.636 311.309 295.95 276.01 309.288 247.035C317.812 228.517 351.224 192.121 351.579 191.755C351.687 191.647 351.747 191.501 351.747 191.349C351.747 191.196 351.687 191.05 351.579 190.942C351.527 190.889 351.464 190.847 351.395 190.818C351.326 190.789 351.253 190.774 351.178 190.774C351.103 190.774 351.03 190.789 350.961 190.818C350.892 190.847 350.829 190.889 350.777 190.942C350.44 191.307 316.891 227.841 308.294 246.523C294.71 276.202 286.506 310.861 287.964 332.935C287.976 333.08 288.041 333.216 288.147 333.316C288.253 333.416 288.393 333.472 288.539 333.474V333.474ZM315.806 235.171C315.957 235.162 316.098 235.093 316.198 234.98C316.299 234.867 316.351 234.719 316.344 234.568L314.165 197.596C314.162 197.521 314.143 197.447 314.111 197.379C314.079 197.311 314.033 197.25 313.977 197.2C313.921 197.149 313.856 197.111 313.785 197.086C313.714 197.062 313.638 197.052 313.563 197.057C313.413 197.066 313.272 197.135 313.171 197.248C313.07 197.36 313.018 197.509 313.026 197.66L315.241 234.614C315.248 234.759 315.311 234.896 315.416 234.997C315.521 235.097 315.661 235.153 315.806 235.153V235.171ZM309.005 247.319C309.142 247.257 309.249 247.143 309.303 247.003C309.358 246.863 309.355 246.707 309.297 246.569L295.285 214.789C295.224 214.65 295.112 214.542 294.971 214.487C294.831 214.432 294.675 214.436 294.537 214.496C294.399 214.557 294.291 214.67 294.237 214.81C294.182 214.951 294.185 215.107 294.246 215.246L308.248 247.026C308.292 247.128 308.365 247.215 308.457 247.277C308.549 247.338 308.657 247.372 308.768 247.373C308.862 247.378 308.956 247.359 309.042 247.319H309.005ZM311.43 242.931L344.97 238.124C345.051 238.122 345.13 238.103 345.204 238.068C345.277 238.033 345.342 237.984 345.394 237.922C345.447 237.86 345.486 237.788 345.509 237.71C345.532 237.632 345.538 237.55 345.527 237.47C345.516 237.389 345.488 237.312 345.445 237.243C345.402 237.174 345.345 237.115 345.278 237.07C345.211 237.024 345.135 236.994 345.055 236.98C344.975 236.967 344.893 236.97 344.815 236.99L311.275 241.798C311.125 241.808 310.985 241.877 310.886 241.99C310.787 242.103 310.737 242.251 310.746 242.401C310.756 242.551 310.825 242.692 310.938 242.791C311.051 242.891 311.198 242.941 311.348 242.931H311.43ZM301.867 264.383C301.986 264.29 302.063 264.152 302.082 264.002C302.101 263.851 302.06 263.699 301.967 263.579L283.789 240.162C283.743 240.102 283.685 240.051 283.62 240.014C283.554 239.976 283.482 239.951 283.407 239.942C283.332 239.932 283.256 239.937 283.183 239.957C283.11 239.977 283.042 240.01 282.982 240.057C282.922 240.103 282.872 240.16 282.834 240.226C282.797 240.292 282.772 240.364 282.763 240.439C282.753 240.514 282.758 240.591 282.778 240.664C282.797 240.737 282.831 240.806 282.877 240.866L301.092 264.319C301.145 264.388 301.213 264.443 301.29 264.481C301.367 264.519 301.453 264.539 301.539 264.539C301.675 264.532 301.804 264.477 301.903 264.383H301.867ZM330.274 258.049C330.279 257.898 330.224 257.751 330.122 257.64C330.02 257.528 329.878 257.462 329.727 257.455L304.739 256.185C304.598 256.194 304.466 256.255 304.368 256.356C304.269 256.457 304.211 256.59 304.204 256.731C304.198 256.872 304.243 257.011 304.331 257.121C304.42 257.23 304.545 257.304 304.684 257.327L329.718 258.598C329.869 258.602 330.015 258.548 330.126 258.445C330.237 258.343 330.303 258.2 330.31 258.049H330.274ZM318.486 276.64C318.495 276.565 318.489 276.489 318.468 276.416C318.447 276.343 318.411 276.276 318.364 276.217C318.316 276.158 318.257 276.109 318.191 276.074C318.124 276.038 318.051 276.016 317.976 276.01L298.831 274.118C298.757 274.11 298.682 274.117 298.61 274.139C298.539 274.161 298.472 274.196 298.415 274.244C298.357 274.292 298.309 274.35 298.275 274.416C298.24 274.482 298.218 274.555 298.211 274.629C298.198 274.779 298.245 274.928 298.34 275.045C298.436 275.161 298.573 275.235 298.722 275.251L317.866 277.152H317.921C318.068 277.162 318.213 277.114 318.326 277.019C318.438 276.923 318.509 276.787 318.523 276.64H318.486ZM294.464 286.548C294.591 286.464 294.679 286.334 294.71 286.185C294.741 286.036 294.711 285.88 294.628 285.753L285.166 271.412C285.079 271.289 284.948 271.203 284.8 271.174C284.652 271.145 284.499 271.175 284.372 271.257C284.246 271.341 284.157 271.471 284.127 271.62C284.096 271.769 284.125 271.924 284.208 272.052L293.671 286.393C293.725 286.471 293.798 286.535 293.882 286.58C293.966 286.625 294.059 286.648 294.154 286.649C294.278 286.655 294.4 286.62 294.501 286.548H294.464ZM316.18 291.347C316.178 291.196 316.118 291.053 316.012 290.945C315.907 290.838 315.765 290.776 315.615 290.771L293.106 290.561C292.956 290.561 292.812 290.62 292.706 290.727C292.6 290.833 292.541 290.977 292.541 291.127C292.538 291.203 292.551 291.278 292.579 291.349C292.606 291.419 292.647 291.483 292.7 291.537C292.753 291.591 292.816 291.633 292.886 291.662C292.956 291.69 293.031 291.705 293.106 291.703L315.615 291.914C315.692 291.917 315.768 291.905 315.841 291.879C315.913 291.852 315.979 291.811 316.035 291.758C316.091 291.705 316.136 291.642 316.167 291.571C316.199 291.5 316.215 291.424 316.216 291.347H316.18ZM285.977 325.092C286.022 324.992 289.861 314.389 301.402 311.857C301.551 311.825 301.68 311.734 301.762 311.605C301.844 311.477 301.872 311.321 301.84 311.172C301.803 311.026 301.711 310.9 301.584 310.819C301.456 310.739 301.303 310.712 301.156 310.742C288.985 313.411 284.947 324.608 284.901 324.718C284.854 324.862 284.865 325.019 284.931 325.155C284.998 325.292 285.114 325.397 285.257 325.449H285.439C285.56 325.459 285.682 325.43 285.785 325.366C285.889 325.302 285.969 325.206 286.013 325.092H285.977Z" fill="black"/>
<path d="M303.43 317.358H277.621V322.715H279.873L284.531 351.936H296.52L301.178 322.715H303.43V317.358Z" fill="#005598"/>
<path opacity="0.3" d="M303.43 317.358H277.621V322.715H279.873L284.531 351.936H296.52L301.178 322.715H303.43V317.358Z" fill="white"/>
<path d="M71.067 155.395L41.0465 145.569L38.3753 138.495L32.2764 138.303L21.209 136.201L22.54 138.495L36.47 148.631L39.9069 150.35L71.3041 166.793L71.067 155.395Z" fill="white" stroke="#263238" stroke-width="1.00396" stroke-miterlimit="10"/>
<path d="M38.3735 138.495L35.511 136.776L29.7949 138.879L30.743 140.021L38.3735 138.495Z" fill="white" stroke="#263238" stroke-width="1.00396" stroke-linejoin="round"/>
<path d="M71.067 155.395L41.0465 145.569L38.3753 138.495L32.2764 138.303L21.209 136.201L22.54 138.495L36.47 148.631L39.9069 150.35L71.3041 166.793L71.067 155.395Z" fill="white"/>
<path opacity="0.5" d="M71.0651 155.397L41.0445 145.571L38.3734 138.496L32.2744 138.304L21.207 136.202L22.538 138.496L36.468 148.633L39.9049 150.351L71.3021 166.794L71.0651 155.397Z" fill="#005598" stroke="#263238" stroke-width="1.00396" stroke-miterlimit="10"/>
<path d="M71.067 155.395L41.0465 145.569L38.3753 138.495L32.2764 138.303L21.209 136.201L22.54 138.495L36.47 148.631L39.9069 150.35L71.3041 166.793L71.067 155.395Z" stroke="#263238" stroke-width="1.00396" stroke-miterlimit="10"/>
<path d="M38.3735 138.495L35.511 136.776L29.7949 138.879L30.743 140.021L38.3735 138.495Z" fill="white"/>
<path opacity="0.5" d="M38.3696 138.495L35.507 136.777L29.791 138.879L30.7391 140.022L38.3696 138.495Z" fill="#005598" stroke="#263238" stroke-width="1.00396" stroke-linejoin="round"/>
<path d="M38.3735 138.495L35.511 136.776L29.7949 138.879L30.743 140.021L38.3735 138.495Z" stroke="#263238" stroke-width="1.00396" stroke-linejoin="round"/>
<path d="M77.4439 91.6245C77.4439 91.6245 76.9789 95.7376 78.1367 98.3791C79.2945 101.021 85.7217 109.969 85.7217 109.969L73.7244 119.612C73.7244 119.612 68.7468 109.558 67.7987 107.931C66.8505 106.304 65.711 99.3023 68.8015 94.2843C71.892 89.2664 76.3408 87.9136 77.4439 91.6245Z" fill="white"/>
<g style="mix-blend-mode:multiply" opacity="0.5">
<path d="M71.2773 104.841L76.4828 115.663L73.7114 119.621L68.4785 110.252L71.2773 104.841Z" fill="#005598"/>
</g>
<path d="M77.4439 91.6245C77.4439 91.6245 76.9789 95.7376 78.1367 98.3791C79.2945 101.021 85.7217 109.969 85.7217 109.969L73.7244 119.612C73.7244 119.612 68.7468 109.558 67.7987 107.931C66.8505 106.304 65.711 99.3023 68.8015 94.2843C71.892 89.2664 76.3408 87.9136 77.4439 91.6245Z" stroke="#263238" stroke-width="1.00396" stroke-miterlimit="10"/>
<path d="M81.1598 84.0924C80.4214 79.5223 75.1976 70.2267 66.9108 70.5832C61.532 70.8209 59.0159 71.9085 56.6821 73.2339C54.7797 74.3576 53.0065 75.6879 51.3945 77.2007C47.3468 82.0724 45.9246 83.4069 46.7086 87.1361C46.6443 88.6235 46.8768 90.1089 47.3924 91.5051C48.6322 94.823 49.48 96.9892 50.5558 98.5705C50.2276 100.115 49.3706 104.192 49.3251 105.124C49.2795 106.056 52.06 105.407 53.4639 105.051C56.0713 110.901 60.8483 114.959 62.3343 115.425C64.9234 116.238 69.0167 111.97 71.1864 108.661C73.3561 105.352 71.7151 101.632 71.7243 100.152C71.7334 98.671 76.6016 95.4171 78.4066 94.3843C80.2117 93.3514 81.8891 88.6534 81.1598 84.0924Z" fill="white"/>
<g style="mix-blend-mode:multiply" opacity="0.5">
<path d="M46.744 87.1369C46.6797 88.6243 46.9121 90.1097 47.4277 91.5059C48.6676 94.8238 49.5154 96.99 50.5911 98.5713C50.263 100.116 49.406 104.192 49.3604 105.125C49.3148 106.057 52.0954 105.408 53.4993 105.052C56.1066 110.901 60.8837 114.96 62.3696 115.426C64.9587 116.239 69.052 111.971 71.2217 108.662C71.7638 107.836 72.1157 106.899 72.2519 105.92C72.1334 105.49 72.0513 105.225 72.0513 105.225C72.0513 105.225 70.8297 109.933 68.4048 109.32C65.9798 108.708 62.2694 103.836 60.1999 102.154C58.1305 100.472 58.9783 98.2605 58.5681 95.7561C58.1578 93.2517 52.0315 91.0489 51.6213 89.6139C51.2111 88.1789 52.6424 82.2377 52.6424 82.2377C52.6424 82.2377 54.9671 79.1301 54.4656 80.4097C54.1113 81.5192 53.9827 82.6888 54.0876 83.8491C54.1926 85.0094 54.5288 86.1367 55.0765 87.1643C55.4607 87.9751 56.0704 88.6574 56.8321 89.1292C57.5938 89.601 58.4751 89.8423 59.3703 89.8241L61.5947 78.7736L56.8997 74.8799L51.4299 77.1649C47.3457 82.0732 45.9509 83.4077 46.744 87.1369Z" fill="#005598"/>
</g>
<path d="M81.1598 84.0924C80.4214 79.5223 75.1976 70.2267 66.9108 70.5832C61.532 70.8209 59.0159 71.9085 56.6821 73.2339C54.7797 74.3576 53.0065 75.6879 51.3945 77.2007C47.3468 82.0724 45.9246 83.4069 46.7086 87.1361C46.6443 88.6235 46.8768 90.1089 47.3924 91.5051C48.6322 94.823 49.48 96.9892 50.5558 98.5705C50.2276 100.115 49.3706 104.192 49.3251 105.124C49.2795 106.056 52.06 105.407 53.4639 105.051C56.0713 110.901 60.8483 114.959 62.3343 115.425C64.9234 116.238 69.0167 111.97 71.1864 108.661C73.3561 105.352 71.7151 101.632 71.7243 100.152C71.7334 98.671 76.6016 95.4171 78.4066 94.3843C80.2117 93.3514 81.8891 88.6534 81.1598 84.0924Z" stroke="#263238" stroke-miterlimit="10"/>
<path d="M51.6875 95.8105L52.5991 98.4246C52.5991 98.4246 54.5592 99.0736 56.9477 96.4595" stroke="#263238" stroke-miterlimit="10" stroke-linecap="round"/>
<path d="M58.4219 108.021C58.4219 108.021 60.5916 107.802 61.4668 104.749" stroke="#263238" stroke-miterlimit="10" stroke-linecap="round"/>
<path d="M50.1621 93.6268C50.1621 93.6268 50.8094 91.6616 54.7204 91.6616" stroke="#263238" stroke-miterlimit="10" stroke-linecap="round"/>
<path d="M70.2079 66.9458C67.3661 66.5361 64.5002 66.3163 61.6293 66.2877C61.6293 66.2877 53.0416 61.3246 44.7912 66.6168C36.5408 71.909 40.5064 81.1771 40.5064 83.4896C40.5064 85.8021 37.8626 85.8112 39.5127 88.7909C41.1628 91.7706 46.7421 90.1254 46.7421 90.1254C46.8011 89.0015 47.0973 87.903 47.6112 86.9025C48.1251 85.902 48.8449 85.0222 49.7232 84.3213C52.6952 82.0089 55.0654 81.5062 56.05 82.1734C56.05 82.1734 55.3936 87.1365 56.3782 89.1199C56.3782 89.1199 59.6784 90.7743 60.6721 90.7743C61.6658 90.7743 60.0248 92.1728 63.3159 93.4158C63.9154 93.6317 64.5568 93.7053 65.1895 93.6308C65.8222 93.5562 66.4291 93.3356 66.9625 92.9862C67.4456 90.9754 68.5031 87.95 70.4723 88.6538C73.3622 89.6866 75.9969 96.816 72.0859 99.2473C76.79 100.106 82.4878 91.7615 82.8251 84.1568C83.1624 76.5522 75.0944 67.805 70.2079 66.9458Z" fill="#263238"/>
<path d="M56.1992 78.91C56.1992 78.91 58.6242 77.603 61.5962 80.3999C64.5681 83.1968 70.348 86.9351 78.0058 84.8786" stroke="white" stroke-width="0.5" stroke-linecap="round" stroke-linejoin="round"/>
<path d="M55.8594 76.6707C55.8594 76.6707 57.5277 74.0566 60.3173 74.0566C63.107 74.0566 69.6253 77.9778 74.8308 77.9778" stroke="white" stroke-width="0.5" stroke-linecap="round" stroke-linejoin="round"/>
<path d="M53.9613 81.7077C53.9613 81.7077 50.7979 77.7957 47.8259 80.9674C44.8539 84.139 46.741 87.137 46.741 87.137" stroke="white" stroke-width="0.5" stroke-linecap="round" stroke-linejoin="round"/>
<path d="M41.3184 84.3213C43.1312 82.6822 44.2581 80.4159 44.4727 77.978C44.8464 73.874 50.4348 70.3276 53.9629 73.6912" stroke="white" stroke-width="0.5" stroke-linecap="round" stroke-linejoin="round"/>
<path d="M47.082 69.3955C47.082 69.3955 52.6704 63.9845 57.3198 70.8853" stroke="white" stroke-width="0.5" stroke-linecap="round" stroke-linejoin="round"/>
<path d="M92.564 335.439C92.564 335.439 96.0009 340.796 95.618 344.241L95.2442 347.687C95.2442 347.687 82.6361 351.151 79.965 351.151C77.2939 351.151 63.1542 349.808 63.1542 349.808L62.5434 347.377C62.5007 347.197 62.5208 347.008 62.6005 346.842C62.6802 346.675 62.8145 346.541 62.981 346.463L75.5891 340.567L79.5639 336.207L92.564 335.439Z" fill="white" stroke="#263238" stroke-width="1.00396" stroke-miterlimit="10"/>
<path d="M81.8777 348.454C85.2964 348.72 91.7873 346.626 95.5524 345.292L95.288 347.687C95.288 347.687 82.6344 351.151 79.9632 351.151C77.2921 351.151 63.1524 349.807 63.1524 349.807L62.7148 348.071C64.9757 348.08 77.3559 348.107 81.8777 348.454Z" fill="#005598" stroke="#263238" stroke-width="1.00396" stroke-miterlimit="10"/>
<path d="M75.6089 340.566L57.2575 348.572C57.2575 348.572 55.6894 352.512 57.2575 353.298C58.8255 354.084 93.0123 353.298 93.0123 353.298C93.0123 353.298 95.3735 347.073 91.6448 342.896C87.9162 338.719 75.6089 340.566 75.6089 340.566Z" fill="white" stroke="#263238" stroke-width="1.00396" stroke-miterlimit="10"/>
<path d="M93.0079 353.298C93.0079 353.298 58.821 354.084 57.253 353.298C56.4963 352.914 56.469 351.808 56.6422 350.757H93.6096C93.4887 351.621 93.2873 352.472 93.0079 353.298Z" fill="#005598" stroke="#263238" stroke-width="1.00396" stroke-miterlimit="10"/>
<path d="M66.9252 201.444C66.9252 201.444 62.1299 222.75 60.3157 236.076C58.5015 249.403 57.4349 276.101 57.8178 279.163C58.2007 282.225 77.2906 333.529 77.2906 333.529L79.196 338.099L92.5607 335.421C92.5607 335.421 86.4527 315.898 84.1644 305.176C81.8762 294.455 76.8712 276.842 76.8712 273.78C76.8712 270.718 88.7227 212.239 89.5705 208.4C90.4183 204.561 94.2655 198.666 94.2655 198.666L68.6755 198.145L66.9252 201.444Z" fill="#005598" stroke="#263238" stroke-width="1.00396" stroke-miterlimit="10"/>
<path d="M66.9281 201.444C66.9281 201.444 64.1202 220.903 65.278 234.431C66.4358 247.958 68.9246 276.759 68.9246 281.046C68.9246 285.332 75.8258 310.934 76.2178 318.977C76.8286 330.595 75.9716 336.344 75.9716 336.344L75.5614 340.557C75.5614 340.557 83.6112 341.709 85.3707 342.212C87.4029 342.737 89.5001 342.964 91.5973 342.888C91.5973 342.888 94.5237 329.973 94.5237 318.968C94.5237 307.963 92.0896 285.314 90.8771 276.137C89.6646 266.961 93.4844 231.561 95.6541 224.952C97.8238 218.344 102.564 204.35 99.3736 197.203C96.1829 190.055 66.9281 201.444 66.9281 201.444Z" fill="#005598" stroke="#263238" stroke-width="1.00396" stroke-miterlimit="10"/>
<path d="M102.918 193.62L102.627 202.322C102.627 202.322 97.4303 203.354 90.4289 204.57C84.649 205.575 70.1356 204.305 65.2491 203.83C64.8038 203.79 64.3921 203.576 64.1036 203.234C63.8151 202.891 63.6731 202.448 63.7085 202.002L64.1825 194.141L102.918 193.62Z" fill="#263238"/>
<path d="M82.6069 106.879C82.6069 106.879 74.402 115.772 71.3115 121.302C68.221 126.832 66.9994 135.305 65.8416 141.977C64.6839 148.65 67.8199 164.316 66.9356 171.509L64.1369 194.168C64.1369 194.168 63.5352 195.703 65.5499 197.385C67.5647 199.067 77.4014 199.679 86.2899 200.127C89.5354 200.292 99.2262 198.199 100.812 198.098C102.727 197.979 102.791 195.539 102.873 193.619C103.256 184.598 104.878 160.55 105.945 150.075C108.142 128.715 96.1175 108.095 82.6069 106.879Z" fill="white" stroke="#263238" stroke-width="1.00396" stroke-miterlimit="10"/>
<g style="mix-blend-mode:multiply">
<path d="M104.943 162.223C105.308 157.479 105.672 153.174 105.991 150.075C106.083 149.161 106.137 148.247 106.183 147.333L84.3854 150.989L65.6602 144.591C65.6622 148.476 65.8813 152.358 66.3165 156.218L84.6863 161.373L104.943 162.223Z" fill="#CCDDEA"/>
</g>
<g style="mix-blend-mode:multiply">
<path d="M81.7981 107.775C80.5583 109.156 78.0968 111.962 75.7539 114.941L89.5927 129.045L94.151 127.217L81.7981 107.775Z" fill="#CCDDEA"/>
</g>
<path d="M82.6063 106.879C82.6063 106.879 74.4015 115.772 71.311 121.302C70.3946 122.983 69.6523 124.753 69.0957 126.585L85.5965 107.473C84.6217 107.177 83.6201 106.978 82.6063 106.879V106.879Z" fill="#263238"/>
<g style="mix-blend-mode:multiply">
<path d="M66.4785 138.377L84.3833 144.282L106.126 141.777C105.785 136.347 104.582 131.006 102.562 125.955L85.0306 133.003L69.3593 125.882C68.0779 129.966 67.1147 134.144 66.4785 138.377V138.377Z" fill="#CCDDEA"/>
</g>
<g style="mix-blend-mode:multiply">
<path d="M97.3063 184.598C88.2251 186.127 78.9071 185.364 70.1939 182.377L65.8271 180.878L64.4688 191.847L69.4463 193.245C78.909 195.898 88.799 196.662 98.5553 195.494L102.576 195.009C102.785 194.565 102.903 194.083 102.922 193.592C103.031 191.152 103.223 187.606 103.469 183.538L97.3063 184.598Z" fill="#CCDDEA"/>
</g>
<g style="mix-blend-mode:multiply">
<path d="M99.7329 169.663C90.6513 171.198 81.3311 170.431 72.6205 167.433L67.0594 165.522C67.1973 167.514 67.1699 169.513 66.9773 171.5L66.3301 176.774L71.8729 178.328C81.3319 180.983 91.2189 181.75 100.973 180.585L103.708 180.256C103.936 176.6 104.2 172.707 104.483 168.859L99.7329 169.663Z" fill="#CCDDEA"/>
</g>
<path d="M14.2069 131.01L31.834 145.22L32.5937 144.272L14.9667 130.063L14.2069 131.01Z" fill="#263238"/>
<path d="M91.0919 116.742C91.0919 116.742 97.5555 121.156 97.7013 131.585C97.7651 136.155 97.2911 140.424 96.2427 147.91C95.1943 155.396 88.6851 179.772 83.6164 182.734C78.5476 185.695 70.6801 180.101 70.6801 180.101L32.6279 154.774L23.4293 147.325L18.8711 138.696L20.3024 135.954L31.5248 144.583L25.4805 138.98L26.6657 137.472L28.8536 138.998L35.2352 141.393L36.63 150.533L38.5992 151.886L75.0013 165.221C75.0013 165.221 74.5455 145.579 74.8828 141.822C75.2201 138.066 75.685 128.624 79.6963 121.778" fill="white"/>
<g style="mix-blend-mode:multiply" opacity="0.5">
<path d="M74.7473 150.378C74.7473 157.16 74.9752 165.221 74.9752 165.221L38.6096 151.941L36.6404 150.588L35.2456 141.448L28.864 139.053L26.6852 137.499L25.5001 139.007L31.5261 144.583L20.3037 135.955L18.9453 138.651L23.5036 147.279L32.7021 154.774L35.0177 156.319L85.2951 172.561L74.7473 150.378Z" fill="#005598"/>
</g>
<path d="M91.0919 116.742C91.0919 116.742 97.5555 121.156 97.7013 131.585C97.7651 136.155 97.2911 140.424 96.2427 147.91C95.1943 155.396 88.6851 179.772 83.6164 182.734C78.5476 185.695 70.6801 180.101 70.6801 180.101L32.6279 154.774L23.4293 147.325L18.8711 138.696L20.3024 135.954L31.5248 144.583L25.4805 138.98L26.6657 137.472L28.8536 138.998L35.2352 141.393L36.63 150.533L38.5992 151.886L75.0013 165.221C75.0013 165.221 74.5455 145.579 74.8828 141.822C75.2201 138.066 75.685 128.624 79.6963 121.778" stroke="#263238" stroke-width="1.00396" stroke-miterlimit="10"/>
<path d="M75.0088 165.221L88.9024 175.275L92.5034 168.877C92.5034 168.877 94.9922 166.912 95.3568 165.431C95.7215 163.95 95.2565 161.546 95.6303 160.066C96.0041 158.585 97.8639 157.196 98.0371 153.613C98.2103 150.03 98.0371 147.041 98.0371 147.041C98.0371 147.041 101.046 134.638 100.717 129.245C100.389 123.852 95.2019 114.319 91.0447 114.109C86.8876 113.898 81.4815 114.529 77.288 120.891C73.0944 127.252 73.9513 145.825 73.2949 146.986C72.6386 148.147 73.5502 153.878 73.5502 153.878C73.1859 154.15 72.8836 154.497 72.6635 154.896C72.4434 155.295 72.3106 155.736 72.2739 156.19C72.201 157.68 73.8055 161.345 73.8055 161.345L75.0088 165.221Z" fill="white" stroke="#263238" stroke-width="1.00396" stroke-miterlimit="10"/>
<g style="mix-blend-mode:multiply">
<path d="M73.6557 142.215C73.6843 143.81 73.5653 145.404 73.3001 146.977C72.7167 148.019 73.3822 152.727 73.5281 153.686C81.3425 156.12 89.6057 156.745 97.6959 155.514C97.8697 154.879 97.9736 154.226 98.0058 153.567C98.1881 149.994 98.0058 146.996 98.0058 146.996C98.0058 146.996 98.2702 145.89 98.6349 144.208C90.2563 144.742 81.8446 144.071 73.6557 142.215V142.215Z" fill="#CCDDEA"/>
</g>
<g style="mix-blend-mode:multiply">
<path d="M76.7219 121.905C75.4182 124.529 74.6889 128.468 74.2695 132.462C82.5456 135.629 91.4686 136.718 100.261 135.634C100.611 133.52 100.767 131.378 100.726 129.236C100.568 127.542 100.169 125.88 99.5404 124.3C91.8635 124.48 84.1952 123.675 76.7219 121.905V121.905Z" fill="#CCDDEA"/>
</g>
<path d="M73.7988 161.446L74.9749 165.221L88.8684 175.275L92.4694 168.877C92.4694 168.877 94.9582 166.912 95.3228 165.431C95.3879 165.173 95.4276 164.91 95.4414 164.645C88.1198 164.518 80.8453 163.443 73.7988 161.446V161.446Z" fill="#263238"/>
<path d="M83.8578 342.094C83.8578 342.094 84.1677 334.178 85.6811 322.607C87.1944 311.035 83.5569 294.601 82.9461 291.859C82.3353 289.117 83.2561 283.03 82.6453 280.891C82.0345 278.752 79.0807 269.63 80.822 259.046C82.5632 248.462 83.9763 220.484 83.9763 220.484C83.9763 220.484 79.5912 216.91 78.3058 212.257C77.0204 207.605 78.005 206.143 78.005 206.143" stroke="#263238" stroke-width="1.00396" stroke-miterlimit="10"/>
<path d="M85.8897 206.572L84.2031 215.931" stroke="#263238" stroke-width="1.00396" stroke-miterlimit="10"/>
</svg>
