<svg width="253" height="166" viewBox="0 0 253 166" fill="none" xmlns="http://www.w3.org/2000/svg">
<path d="M244.319 15.1075L18.2876 0.557988C13.5002 0.24982 9.36819 3.89864 9.05862 8.70785L0.560481 140.729C0.250913 145.538 3.88098 149.686 8.66845 149.995L234.7 164.544C239.487 164.852 243.619 161.203 243.929 156.394L252.427 24.3734C252.736 19.5642 249.106 15.4157 244.319 15.1075Z" fill="#263238"/>
<path d="M239.744 7.67871H13.245C8.44765 7.67871 4.55859 11.5854 4.55859 16.4046V148.699C4.55859 153.518 8.44765 157.425 13.245 157.425H239.744C244.541 157.425 248.43 153.518 248.43 148.699V16.4046C248.43 11.5854 244.541 7.67871 239.744 7.67871Z" fill="#005598" stroke="#263238" stroke-linecap="round" stroke-linejoin="round"/>
<path opacity="0.1" fill-rule="evenodd" clip-rule="evenodd" d="M4.56055 81.7791L186.257 7.67773L239.746 7.67773C244.543 7.67773 248.432 11.5844 248.432 16.4036V32.563L4.56055 133.145L4.56055 81.7791Z" fill="white"/>
<path d="M193.975 93.2111L235.745 94.301L234.432 144.625L192.662 143.535L193.975 93.2111Z" fill="white" stroke="#263238"/>
<path opacity="0.2" d="M219.597 46.1836H208.812C199.976 46.1836 192.812 53.347 192.812 62.1836V72.9681C192.812 81.8047 199.976 88.9681 208.812 88.9681H219.597C228.434 88.9681 235.597 81.8047 235.597 72.9681V62.1836C235.597 53.347 228.434 46.1836 219.597 46.1836Z" fill="white"/>
<path opacity="0.2" d="M202.438 67.5763C202.438 74.0743 207.705 79.342 214.203 79.342C220.701 79.342 225.969 74.0743 225.969 67.5763C225.969 61.0782 220.701 55.8105 214.203 55.8105C207.705 55.8105 202.438 61.0782 202.438 67.5763Z" fill="white"/>
<path d="M229.805 130.516C229.068 129.898 228.284 129.339 227.46 128.843L227.257 128.708L226.987 128.527L226.619 128.274L226.402 128.121C226.196 127.978 225.987 127.829 225.768 127.668C222.746 125.462 217.964 121.058 217.964 121.058L215.772 120.972L215.77 120.842L213.999 120.899L212.222 120.826L212.204 120.953L210.007 121.037C210.007 121.037 205.189 125.402 202.158 127.589C201.954 127.737 201.759 127.875 201.566 128.009C199.915 129.149 198.884 129.716 198.22 130.377C198.212 130.432 198.22 131.208 198.219 132.375L229.65 132.516C229.693 131.724 229.727 131.048 229.805 130.516Z" fill="#263238"/>
<path d="M229.151 136.165H198.605C198.765 137.308 198.44 139.431 198.605 140.59H229.151C228.987 139.427 229.3 137.312 229.151 136.165Z" fill="#263238"/>
<path d="M213.848 128.977L213.923 136.494L215.803 136.502L215.103 128.877C215.103 128.877 214.059 128.562 213.848 128.977Z" fill="white"/>
<path d="M213.91 136.643C213.875 136.637 213.843 136.62 213.82 136.593C213.796 136.567 213.782 136.533 213.781 136.498L213.706 128.981C213.703 128.956 213.707 128.932 213.716 128.909C213.974 128.396 215.028 128.696 215.148 128.734C215.176 128.742 215.201 128.759 215.22 128.782C215.238 128.805 215.249 128.833 215.251 128.862L215.959 136.488C215.962 136.509 215.96 136.531 215.953 136.551C215.947 136.571 215.936 136.589 215.922 136.605C215.907 136.62 215.89 136.632 215.87 136.641C215.851 136.649 215.83 136.653 215.809 136.653L213.93 136.645L213.91 136.643ZM214.008 129.021L214.082 136.327L215.649 136.334L214.974 128.98C214.608 128.906 214.129 128.86 214 129.02L214.008 129.021Z" fill="#263238"/>
<path d="M214.797 131.163C214.798 131.124 214.79 131.085 214.775 131.049C214.761 131.012 214.739 130.979 214.711 130.952C214.684 130.924 214.651 130.902 214.615 130.887C214.579 130.872 214.54 130.864 214.501 130.864C214.442 130.864 214.385 130.881 214.336 130.914C214.287 130.946 214.249 130.993 214.227 131.047C214.204 131.101 214.198 131.16 214.209 131.218C214.221 131.275 214.249 131.328 214.29 131.37C214.331 131.412 214.384 131.44 214.442 131.452C214.499 131.463 214.559 131.458 214.613 131.436C214.667 131.413 214.714 131.376 214.746 131.327C214.779 131.279 214.797 131.221 214.797 131.163V131.163Z" fill="white"/>
<path d="M214.437 131.591C214.341 131.577 214.252 131.531 214.184 131.461C214.101 131.377 214.054 131.264 214.052 131.146C214.053 131.087 214.065 131.028 214.088 130.974C214.112 130.92 214.145 130.871 214.188 130.829C214.25 130.765 214.33 130.722 214.417 130.704C214.505 130.686 214.596 130.695 214.678 130.729C214.76 130.763 214.83 130.822 214.879 130.896C214.928 130.971 214.953 131.059 214.952 131.148C214.953 131.207 214.942 131.265 214.919 131.32C214.896 131.375 214.863 131.424 214.82 131.465C214.779 131.506 214.73 131.539 214.676 131.561C214.622 131.583 214.564 131.594 214.506 131.593L214.437 131.591ZM214.523 131L214.504 130.997C214.484 130.996 214.465 130.999 214.447 131.006C214.429 131.014 214.413 131.025 214.4 131.039C214.386 131.052 214.375 131.068 214.367 131.085C214.36 131.103 214.356 131.122 214.357 131.142C214.356 131.161 214.359 131.18 214.366 131.198C214.373 131.216 214.384 131.232 214.398 131.245C214.426 131.272 214.463 131.288 214.501 131.289C214.521 131.29 214.54 131.286 214.558 131.279C214.576 131.272 214.592 131.261 214.605 131.247C214.632 131.22 214.648 131.183 214.648 131.144C214.645 131.111 214.631 131.08 214.608 131.056C214.585 131.032 214.555 131.017 214.522 131.012L214.523 131Z" fill="#263238"/>
<path d="M215.082 134.774C215.085 134.733 215.08 134.692 215.067 134.653C215.053 134.614 215.032 134.578 215.005 134.548C214.977 134.518 214.943 134.494 214.906 134.477C214.868 134.461 214.828 134.452 214.787 134.452C214.746 134.452 214.705 134.46 214.667 134.477C214.63 134.493 214.596 134.517 214.568 134.547C214.54 134.577 214.519 134.613 214.505 134.652C214.492 134.69 214.487 134.731 214.49 134.772C214.489 134.811 214.496 134.85 214.511 134.886C214.525 134.922 214.547 134.955 214.574 134.983C214.601 135.011 214.634 135.033 214.669 135.048C214.705 135.063 214.744 135.07 214.783 135.07C214.822 135.071 214.861 135.063 214.897 135.048C214.933 135.034 214.966 135.012 214.994 134.984C215.022 134.957 215.044 134.924 215.059 134.888C215.074 134.852 215.082 134.813 215.082 134.774V134.774Z" fill="white"/>
<path d="M214.721 135.215C214.612 135.2 214.512 135.144 214.442 135.059C214.372 134.973 214.337 134.865 214.343 134.755C214.34 134.696 214.351 134.638 214.373 134.583C214.396 134.529 214.43 134.481 214.474 134.441C214.536 134.377 214.616 134.334 214.703 134.316C214.791 134.298 214.882 134.307 214.964 134.341C215.046 134.375 215.116 134.434 215.165 134.508C215.214 134.583 215.239 134.671 215.238 134.76C215.239 134.819 215.228 134.878 215.205 134.932C215.182 134.987 215.149 135.036 215.106 135.077C215.022 135.159 214.909 135.205 214.792 135.205L214.721 135.215ZM214.807 134.628L214.787 134.625C214.763 134.624 214.738 134.63 214.717 134.641C214.695 134.652 214.676 134.668 214.662 134.689C214.648 134.709 214.639 134.732 214.636 134.756C214.633 134.781 214.637 134.805 214.646 134.828C214.655 134.851 214.669 134.871 214.688 134.887C214.707 134.903 214.729 134.914 214.753 134.919C214.777 134.924 214.802 134.923 214.826 134.916C214.849 134.909 214.87 134.896 214.888 134.879C214.902 134.866 214.913 134.85 214.921 134.832C214.928 134.814 214.932 134.795 214.931 134.776V134.776C214.933 134.74 214.921 134.705 214.898 134.678C214.875 134.651 214.842 134.633 214.807 134.628V134.628Z" fill="#263238"/>
<path d="M210.653 118.837C210.653 118.837 209.393 119.143 208.766 121.127C208.139 123.11 207.691 128.22 207.374 129.365C207.056 130.51 207.37 130.722 208.205 130.415C209.041 130.108 209.988 128.649 211.24 128.65C212.333 128.721 213.416 128.9 214.473 129.184C214.473 129.184 216.464 128.045 217.717 128.038C218.97 128.031 220.525 130.345 221.027 130.346C221.529 130.346 220.94 125.875 220.223 122.933C219.507 119.991 217.734 118.641 215.543 118.633C213.351 118.624 210.653 118.837 210.653 118.837Z" fill="white"/>
<path d="M207.545 130.689C207.446 130.677 207.353 130.635 207.279 130.569C207.064 130.372 207.051 129.989 207.234 129.326C207.356 128.878 207.504 127.785 207.672 126.521C207.924 124.633 208.24 122.283 208.627 121.08C209.277 119.043 210.567 118.705 210.622 118.692L210.645 118.696C210.673 118.7 213.39 118.498 215.565 118.508C217.995 118.519 219.691 120.084 220.39 122.923C220.957 125.227 221.715 129.828 221.247 130.42C221.224 130.451 221.195 130.477 221.16 130.494C221.126 130.512 221.088 130.521 221.05 130.521C220.795 130.52 220.491 130.237 219.931 129.693C219.293 129.068 218.412 128.214 217.715 128.213C216.52 128.209 214.571 129.314 214.549 129.327C214.515 129.346 214.475 129.352 214.437 129.343C213.392 129.061 212.321 128.883 211.24 128.81C210.519 128.81 209.88 129.353 209.315 129.834C209.006 130.133 208.65 130.379 208.26 130.563C208.035 130.662 207.79 130.705 207.545 130.689V130.689ZM210.683 118.989C210.564 119.029 209.48 119.405 208.915 121.162C208.538 122.323 208.227 124.673 207.972 126.549C207.786 127.822 207.656 128.934 207.523 129.397C207.339 130.075 207.419 130.273 207.483 130.336C207.547 130.398 207.717 130.426 208.158 130.264C208.511 130.09 208.837 129.865 209.123 129.595C209.725 129.083 210.411 128.498 211.245 128.503C212.33 128.569 213.406 128.745 214.455 129.029C214.791 128.839 216.541 127.9 217.723 127.886C218.533 127.891 219.431 128.756 220.144 129.456C220.399 129.745 220.696 129.995 221.024 130.197C221.283 129.785 220.86 126.059 220.099 122.973C219.439 120.283 217.833 118.795 215.565 118.787C213.485 118.791 210.905 118.969 210.684 118.985L210.683 118.989Z" fill="#263238"/>
<path d="M200.17 131.935C199.542 130.327 198.771 130.417 198.23 130.84C198.228 132.437 198.205 137.633 198.182 141.306L198.297 141.323C199.26 141.334 200.536 141.339 202.027 141.342L202.1 141.316C201.613 138.136 200.859 133.73 200.17 131.935Z" fill="white"/>
<path d="M198.157 141.462C198.121 141.456 198.088 141.437 198.065 141.409C198.041 141.381 198.029 141.346 198.029 141.309C198.051 137.839 198.077 132.509 198.077 130.843C198.077 130.82 198.082 130.797 198.092 130.776C198.102 130.755 198.117 130.736 198.135 130.722C198.273 130.602 198.437 130.516 198.614 130.471C198.791 130.427 198.976 130.425 199.154 130.466C199.601 130.596 199.989 131.074 200.304 131.887C200.993 133.657 201.743 137.974 202.248 141.282C202.254 141.321 202.246 141.36 202.223 141.393C202.201 141.425 202.168 141.447 202.13 141.455L202.066 141.475L202.03 141.469C200.535 141.465 199.258 141.469 198.296 141.45L198.173 141.432L198.157 141.462ZM198.378 130.92C198.373 132.646 198.351 137.749 198.329 141.171L201.926 141.186C201.424 137.915 200.693 133.711 200.029 131.992C199.749 131.27 199.429 130.855 199.076 130.75C198.954 130.724 198.828 130.726 198.707 130.755C198.587 130.784 198.474 130.841 198.378 130.92V130.92Z" fill="#263238"/>
<path d="M225.974 141.387C227.154 141.321 228.337 141.318 229.518 141.378C229.532 138.093 229.538 133.98 229.71 131.48C227.021 132.157 226.212 137.599 225.974 141.387Z" fill="white"/>
<path d="M225.959 141.518C225.927 141.513 225.898 141.497 225.876 141.474C225.861 141.46 225.849 141.442 225.841 141.423C225.833 141.403 225.83 141.383 225.832 141.362C226.093 137.165 226.972 132.016 229.68 131.318C229.703 131.311 229.727 131.308 229.75 131.312C229.774 131.315 229.796 131.324 229.815 131.338C229.833 131.354 229.847 131.375 229.856 131.397C229.866 131.419 229.87 131.443 229.869 131.467C229.705 133.839 229.69 137.736 229.678 140.863L229.676 141.349C229.676 141.37 229.672 141.39 229.663 141.409C229.655 141.428 229.643 141.445 229.627 141.459C229.613 141.473 229.596 141.484 229.578 141.491C229.559 141.498 229.54 141.501 229.52 141.5C228.345 141.441 227.167 141.444 225.992 141.511L225.959 141.518ZM229.552 131.672C227.093 132.577 226.359 137.925 226.13 141.207C227.147 141.153 228.209 141.15 229.373 141.199L229.377 140.871C229.388 137.833 229.403 134.07 229.552 131.672Z" fill="#263238"/>
<path d="M220.2 109.644C220.2 109.644 220.843 106.358 222.085 108.87C223.326 111.382 220.024 114.502 219.731 113.876C219.438 113.249 220.2 109.644 220.2 109.644Z" fill="white"/>
<path d="M219.807 114.103C219.758 114.097 219.712 114.079 219.672 114.051C219.632 114.022 219.6 113.984 219.579 113.94C219.269 113.287 219.97 109.997 220.054 109.616C220.082 109.425 220.414 107.873 221.133 107.78C221.505 107.733 221.865 108.065 222.232 108.804C222.951 110.259 222.204 111.763 221.687 112.526C221.089 113.423 220.264 114.133 219.834 114.107L219.807 114.103ZM221.227 108.077L221.164 108.068C220.775 108.121 220.446 109.179 220.35 109.667C220.044 111.037 219.642 113.374 219.851 113.797C219.919 113.807 220.313 113.658 220.857 113.073C221.816 112.058 222.661 110.358 221.95 108.925C221.69 108.408 221.434 108.107 221.227 108.077V108.077Z" fill="#263238"/>
<path d="M220.11 111.581L220.082 111.577C220.063 111.571 220.046 111.561 220.031 111.548C220.015 111.535 220.003 111.519 219.995 111.501C219.986 111.483 219.981 111.464 219.98 111.444C219.979 111.424 219.982 111.404 219.989 111.385C220.102 111.053 220.707 109.387 221.207 109.176C221.275 109.142 221.351 109.125 221.427 109.126C221.503 109.127 221.577 109.147 221.644 109.183C221.735 109.254 221.81 109.342 221.865 109.443C221.92 109.544 221.954 109.655 221.964 109.769C221.967 109.809 221.954 109.848 221.928 109.878C221.902 109.909 221.866 109.928 221.827 109.931C221.807 109.934 221.787 109.933 221.768 109.927C221.749 109.922 221.732 109.913 221.716 109.9C221.701 109.888 221.688 109.872 221.679 109.855C221.67 109.837 221.665 109.818 221.664 109.798C221.653 109.707 221.606 109.502 221.504 109.447C221.504 109.447 221.445 109.41 221.341 109.455C221.064 109.573 220.557 110.714 220.29 111.486C220.276 111.521 220.251 111.549 220.218 111.567C220.184 111.584 220.146 111.589 220.11 111.581V111.581Z" fill="#263238"/>
<path d="M221.104 111.715C221.08 111.712 221.057 111.703 221.037 111.689C221.017 111.675 221.001 111.656 220.99 111.634C220.974 111.598 220.972 111.557 220.985 111.519C220.998 111.482 221.025 111.451 221.06 111.433C221.149 111.385 221.22 111.31 221.265 111.22C221.31 111.129 221.327 111.027 221.313 110.927C221.311 110.908 221.306 110.89 221.296 110.874C221.286 110.858 221.273 110.844 221.257 110.834C221.012 110.759 220.749 110.763 220.506 110.846C220.487 110.851 220.467 110.852 220.448 110.85C220.428 110.848 220.41 110.842 220.392 110.832C220.375 110.822 220.36 110.809 220.348 110.794C220.336 110.778 220.328 110.761 220.322 110.742C220.317 110.723 220.315 110.703 220.317 110.683C220.319 110.664 220.325 110.645 220.335 110.628C220.344 110.61 220.357 110.595 220.373 110.583C220.389 110.572 220.407 110.563 220.426 110.558C220.75 110.452 221.101 110.46 221.42 110.582C221.473 110.615 221.518 110.659 221.551 110.711C221.584 110.764 221.604 110.824 221.61 110.886C221.633 111.048 221.606 111.214 221.531 111.36C221.457 111.507 221.34 111.627 221.195 111.704C221.166 111.716 221.135 111.72 221.104 111.715V111.715Z" fill="#263238"/>
<path d="M207.735 109.596C207.735 109.596 207.119 106.299 205.857 108.802C204.595 111.304 207.867 114.45 208.185 113.828C208.504 113.206 207.735 109.596 207.735 109.596Z" fill="white"/>
<path d="M207.979 114.054C207.889 114.038 207.802 114.007 207.721 113.964C206.8 113.5 204.63 110.905 205.726 108.735C206.097 107.999 206.462 107.667 206.831 107.721C207.537 107.825 207.849 109.378 207.882 109.565C207.964 109.95 208.65 113.24 208.323 113.894C208.292 113.955 208.241 114.004 208.179 114.033C208.117 114.062 208.046 114.069 207.979 114.054V114.054ZM206.791 108.02C206.569 107.987 206.29 108.291 205.994 108.872C205.274 110.302 206.115 112.006 207.055 113.031C207.593 113.621 207.99 113.788 208.064 113.754C208.27 113.339 207.883 111 207.589 109.632C207.473 108.987 207.148 108.072 206.791 108.02Z" fill="#263238"/>
<path d="M207.773 111.531C207.745 111.527 207.719 111.515 207.698 111.497C207.676 111.479 207.66 111.455 207.651 111.428C207.387 110.652 206.89 109.509 206.612 109.387C206.509 109.344 206.465 109.366 206.453 109.364C206.352 109.418 206.302 109.622 206.292 109.714C206.288 109.753 206.268 109.789 206.237 109.814C206.206 109.839 206.166 109.851 206.127 109.847C206.107 109.846 206.088 109.84 206.07 109.831C206.053 109.821 206.037 109.808 206.025 109.793C206.012 109.778 206.003 109.76 205.998 109.741C205.992 109.722 205.991 109.702 205.993 109.682C206.001 109.569 206.032 109.459 206.085 109.36C206.138 109.26 206.211 109.172 206.301 109.103C206.367 109.065 206.441 109.045 206.517 109.044C206.593 109.043 206.668 109.062 206.735 109.098C207.235 109.312 207.825 110.984 207.941 111.3C207.953 111.338 207.95 111.378 207.932 111.414C207.915 111.449 207.885 111.476 207.848 111.49C207.827 111.51 207.801 111.524 207.773 111.531Z" fill="#263238"/>
<path d="M206.775 111.655C206.759 111.657 206.743 111.655 206.728 111.648C206.583 111.57 206.466 111.449 206.393 111.302C206.319 111.155 206.293 110.989 206.317 110.826C206.325 110.765 206.347 110.707 206.381 110.655C206.414 110.603 206.459 110.559 206.511 110.527C206.831 110.408 207.182 110.402 207.506 110.51C207.525 110.515 207.543 110.524 207.558 110.537C207.574 110.549 207.587 110.564 207.596 110.581C207.606 110.598 207.612 110.617 207.614 110.637C207.616 110.657 207.614 110.676 207.609 110.695C207.604 110.715 207.595 110.733 207.583 110.748C207.571 110.764 207.556 110.777 207.539 110.787C207.521 110.797 207.502 110.803 207.482 110.804C207.462 110.806 207.443 110.804 207.424 110.798C207.181 110.714 206.918 110.708 206.672 110.781C206.657 110.791 206.644 110.804 206.634 110.819C206.624 110.835 206.617 110.852 206.615 110.87C206.599 110.97 206.615 111.073 206.659 111.164C206.704 111.256 206.775 111.331 206.864 111.381C206.9 111.399 206.927 111.431 206.94 111.469C206.953 111.507 206.95 111.549 206.931 111.585C206.915 111.611 206.892 111.631 206.864 111.644C206.836 111.656 206.805 111.66 206.775 111.655V111.655Z" fill="#263238"/>
<path d="M210.043 116.641C210.043 116.641 210.882 122.9 211.052 124.06C211.259 125.416 213.121 128.87 214.378 128.563C215.634 128.257 216.377 124.706 216.691 123.665C217.006 122.625 217.556 116.675 217.556 116.675L210.043 116.641Z" fill="white"/>
<path d="M214.079 128.721C213.87 128.685 213.673 128.6 213.503 128.475C212.332 127.691 211.077 125.218 210.904 124.078C210.73 122.938 209.9 116.725 209.889 116.662C209.883 116.642 209.882 116.62 209.885 116.599C209.888 116.578 209.895 116.557 209.907 116.539C209.921 116.523 209.939 116.51 209.958 116.501C209.978 116.492 209.999 116.487 210.02 116.487L217.538 116.521C217.559 116.52 217.579 116.524 217.599 116.532C217.618 116.541 217.635 116.554 217.648 116.57C217.662 116.585 217.673 116.603 217.679 116.623C217.686 116.643 217.687 116.664 217.684 116.684C217.649 116.926 217.134 122.659 216.815 123.703C216.767 123.862 216.712 124.073 216.643 124.326C216.11 126.307 215.453 128.444 214.381 128.701C214.283 128.726 214.18 128.733 214.079 128.721ZM210.211 116.786C210.351 117.8 211.051 122.989 211.203 124.028C211.354 125.068 212.583 127.473 213.67 128.219C213.762 128.295 213.87 128.351 213.985 128.383C214.1 128.415 214.221 128.423 214.339 128.407C215.319 128.165 216.031 125.517 216.375 124.246C216.444 123.993 216.501 123.774 216.548 123.615C216.829 122.695 217.301 117.779 217.393 116.82L210.211 116.786Z" fill="#263238"/>
<path d="M207.905 102.232C207.905 102.232 207.41 108.024 208.019 112.26C208.627 116.495 211.747 120.267 213.628 120.433C215.508 120.598 219.755 116.226 219.926 113.56C220.098 110.894 221.53 104.323 220.599 101.654C219.668 98.9843 217.951 98.198 214.191 98.0247C210.431 97.8514 207.602 99.5654 207.905 102.232Z" fill="white"/>
<path d="M213.515 120.57C211.483 120.273 208.452 116.389 207.874 112.283C207.295 108.178 207.728 102.563 207.755 102.235C207.696 101.759 207.744 101.276 207.897 100.821C208.049 100.367 208.301 99.9518 208.634 99.6073C209.768 98.3952 211.794 97.7635 214.197 97.876C218.183 98.0541 219.832 99.0006 220.744 101.606C221.42 103.549 220.877 107.426 220.441 110.544C220.263 111.766 220.109 112.817 220.075 113.57C219.967 115.305 218.201 117.685 216.514 119.129C215.846 119.704 214.58 120.657 213.616 120.573L213.515 120.57ZM216.054 98.3423C215.498 98.261 214.878 98.2067 214.182 98.1737C211.903 98.0713 209.908 98.6832 208.854 99.8259C208.549 100.14 208.318 100.519 208.18 100.934C208.041 101.35 207.997 101.791 208.052 102.226C208.053 102.235 208.052 102.244 208.048 102.253C208.04 102.313 207.564 108.084 208.162 112.249C208.759 116.478 211.922 120.151 213.636 120.292C214.257 120.347 215.234 119.845 216.31 118.92C217.951 117.511 219.664 115.217 219.768 113.566C219.815 112.803 219.966 111.743 220.137 110.515C220.569 107.429 221.106 103.593 220.452 101.718C219.729 99.6542 218.59 98.7134 216.054 98.3423V98.3423Z" fill="#263238"/>
<path d="M207.452 109.121C207.452 109.121 208.116 108.991 208.121 107.926C208.127 106.861 207.997 106.197 208.403 106.001C208.809 105.805 209.4 105.673 209.54 104.546C209.681 103.42 208.349 102.548 208.822 101.422C209.111 100.835 209.592 100.364 210.185 100.088C210.779 99.8125 211.448 99.7478 212.084 99.9051C213.408 100.245 213.466 102.369 215.453 103.774C217.44 105.18 220.03 105.121 220.03 105.121C219.888 105.286 219.804 105.494 219.791 105.712C219.778 105.93 219.837 106.146 219.959 106.327C220.185 106.685 220.299 107.102 220.286 107.525C220.286 107.525 220.143 109.782 220.544 109.784C220.945 109.786 221.494 104.675 221.497 103.877C221.501 103.079 222.11 99.9131 219.854 98.4887C217.598 97.0643 214.08 96.8697 211.887 97.2581C209.695 97.6465 208.442 98.6427 207.688 100.498C206.935 102.354 207.452 109.121 207.452 109.121Z" fill="#263238"/>
<path d="M207.43 109.267C207.406 109.269 207.381 109.266 207.359 109.257C207.326 109.228 207.305 109.189 207.298 109.146C207.278 108.868 206.802 102.313 207.546 100.444C208.289 98.5753 209.633 97.5074 211.855 97.1151C214.202 96.6966 217.729 96.9939 219.929 98.3614C221.952 99.6262 221.758 102.204 221.665 103.447C221.639 103.625 221.637 103.775 221.638 103.88C221.639 104.286 221.493 105.784 221.309 107.152C220.927 109.933 220.699 109.936 220.533 109.936C220.496 109.937 220.46 109.929 220.426 109.913C220.393 109.898 220.363 109.875 220.339 109.847C220.027 109.514 220.098 107.98 220.129 107.518C220.132 107.124 220.024 106.738 219.818 106.403C219.717 106.235 219.658 106.046 219.645 105.851C219.632 105.656 219.665 105.461 219.743 105.281C218.183 105.233 216.665 104.758 215.356 103.91C214.515 103.272 213.834 102.448 213.365 101.503C212.955 100.786 212.629 100.216 212.035 100.068C211.435 99.9192 210.803 99.9795 210.242 100.238C209.681 100.497 209.225 100.94 208.949 101.493C208.718 102.043 208.978 102.543 209.249 103.069C209.543 103.507 209.697 104.024 209.689 104.552C209.559 105.635 209.012 105.879 208.613 106.06L208.47 106.124C208.255 106.231 208.255 106.591 208.273 107.275C208.277 107.47 208.282 107.681 208.28 107.916C208.275 109.087 207.522 109.248 207.493 109.256C207.473 109.265 207.452 109.269 207.43 109.267V109.267ZM216.092 97.3825C214.705 97.1732 213.295 97.18 211.91 97.4028C209.771 97.7829 208.552 98.7231 207.827 100.546C207.184 102.167 207.509 107.73 207.585 108.901C207.724 108.787 207.832 108.64 207.9 108.474C207.968 108.308 207.994 108.127 207.976 107.949C207.977 107.718 207.972 107.506 207.968 107.311C207.946 106.574 207.936 106.091 208.334 105.885L208.482 105.818C208.855 105.65 209.276 105.464 209.385 104.548C209.392 104.073 209.254 103.607 208.989 103.213C208.699 102.648 208.395 102.064 208.677 101.38C209.183 100.169 210.758 99.435 212.114 99.7793C212.833 99.9615 213.208 100.612 213.633 101.359C214.08 102.265 214.732 103.054 215.537 103.665C217.462 105.024 220.001 104.986 220.025 104.986C220.055 104.984 220.085 104.991 220.11 105.008C220.136 105.024 220.155 105.047 220.166 105.076C220.18 105.102 220.185 105.133 220.181 105.163C220.176 105.193 220.163 105.22 220.142 105.242C220.025 105.384 219.958 105.561 219.95 105.744C219.942 105.928 219.994 106.109 220.098 106.261C220.34 106.647 220.46 107.097 220.44 107.552C220.369 108.234 220.405 108.923 220.547 109.594C220.868 108.948 221.356 104.727 221.362 103.881C221.378 103.774 221.373 103.615 221.388 103.426C221.479 102.224 221.666 99.7869 219.793 98.6212C218.656 97.9627 217.397 97.5413 216.092 97.3825Z" fill="#263238"/>
<path d="M210.492 111.998C209.737 111.889 209.054 111.49 208.586 110.887C208.119 110.283 207.905 109.522 207.988 108.763C208.072 108.004 208.447 107.308 209.034 106.82C209.621 106.333 210.375 106.092 211.136 106.15C211.897 106.207 212.606 106.558 213.113 107.128C213.621 107.699 213.887 108.444 213.855 109.206C213.824 109.969 213.497 110.689 212.945 111.216C212.392 111.742 211.657 112.034 210.893 112.028C210.759 112.027 210.625 112.017 210.492 111.998V111.998ZM211.305 106.443C211.179 106.424 211.052 106.414 210.925 106.411C210.311 106.408 209.714 106.619 209.237 107.006C208.761 107.394 208.433 107.934 208.31 108.536C208.188 109.138 208.278 109.764 208.565 110.307C208.852 110.85 209.319 111.277 209.885 111.515C210.452 111.752 211.083 111.786 211.672 111.61C212.261 111.434 212.77 111.059 213.113 110.55C213.457 110.041 213.613 109.428 213.555 108.816C213.497 108.205 213.229 107.632 212.796 107.196C212.395 106.795 211.874 106.535 211.312 106.456L211.305 106.443Z" fill="#263238"/>
<path d="M216.937 112.025C216.198 111.916 215.528 111.53 215.062 110.946C214.597 110.362 214.369 109.623 214.427 108.878C214.485 108.133 214.823 107.438 215.373 106.932C215.923 106.427 216.644 106.148 217.391 106.154C217.779 106.155 218.163 106.233 218.521 106.382C218.879 106.532 219.204 106.751 219.477 107.026C219.75 107.301 219.966 107.628 220.114 107.986C220.261 108.345 220.335 108.73 220.334 109.118V109.118C220.334 109.541 220.242 109.959 220.066 110.344C219.889 110.729 219.631 111.071 219.311 111.347C218.99 111.624 218.613 111.827 218.206 111.945C217.799 112.062 217.372 112.09 216.953 112.028L216.937 112.025ZM217.75 106.47C217.627 106.452 217.503 106.442 217.378 106.44C216.686 106.432 216.018 106.694 215.515 107.169C215.012 107.644 214.713 108.297 214.681 108.988C214.649 109.679 214.887 110.356 215.345 110.876C215.802 111.395 216.443 111.717 217.133 111.773C217.823 111.828 218.508 111.614 219.043 111.175C219.578 110.736 219.922 110.107 220.002 109.419C220.082 108.732 219.892 108.04 219.472 107.49C219.052 106.94 218.435 106.574 217.75 106.47V106.47Z" fill="#263238"/>
<path d="M211.57 109.237C211.568 109.695 211.376 110.068 211.137 110.066C210.898 110.063 210.706 109.69 210.708 109.233C210.71 108.775 210.906 108.403 211.145 108.405C211.384 108.408 211.572 108.78 211.57 109.237Z" fill="#263238"/>
<path d="M217.016 109.272C217.014 109.729 216.822 110.099 216.583 110.1C216.343 110.101 216.151 109.725 216.153 109.267C216.155 108.809 216.348 108.436 216.587 108.439C216.825 108.441 217.02 108.798 217.016 109.272Z" fill="#263238"/>
<path d="M214.567 107.354C214.363 108.74 214.247 110.138 214.219 111.539C214.277 112.804 214.408 113.593 213.609 113.598C212.81 113.602 213.018 112.267 213.018 112.267" fill="white"/>
<path d="M213.501 113.739C213.343 113.718 213.198 113.638 213.097 113.514C212.751 113.107 212.874 112.266 212.878 112.242C212.884 112.203 212.905 112.169 212.937 112.146C212.968 112.122 213.007 112.112 213.046 112.116V112.116C213.086 112.122 213.122 112.144 213.146 112.176C213.17 112.209 213.18 112.249 213.175 112.289C213.104 112.641 213.159 113.005 213.328 113.321C213.363 113.362 213.408 113.395 213.458 113.417C213.508 113.439 213.562 113.45 213.617 113.448C213.68 113.454 213.743 113.447 213.804 113.427C213.864 113.407 213.919 113.375 213.966 113.333C214.163 113.127 214.128 112.587 214.091 111.901L214.074 111.545C214.102 110.137 214.218 108.731 214.422 107.337C214.428 107.297 214.45 107.261 214.482 107.237C214.514 107.212 214.555 107.202 214.595 107.208C214.615 107.21 214.633 107.217 214.65 107.226C214.667 107.236 214.682 107.249 214.694 107.265C214.706 107.281 214.714 107.299 214.719 107.318C214.723 107.337 214.724 107.357 214.72 107.376C214.519 108.753 214.403 110.141 214.376 111.533L214.393 111.884C214.436 112.672 214.47 113.241 214.183 113.543C214.108 113.615 214.019 113.67 213.922 113.706C213.825 113.741 213.721 113.756 213.618 113.748L213.501 113.739Z" fill="#263238"/>
<path d="M211.219 114.182C211.219 114.182 213.269 115.986 216.399 114.203Z" fill="white"/>
<path d="M213.041 115.089C212.346 114.997 211.687 114.725 211.13 114.299C211.115 114.286 211.103 114.27 211.094 114.252C211.085 114.234 211.08 114.215 211.078 114.195C211.077 114.175 211.08 114.155 211.086 114.137C211.093 114.118 211.103 114.101 211.117 114.086C211.129 114.071 211.145 114.058 211.162 114.05C211.179 114.041 211.198 114.035 211.218 114.034C211.237 114.033 211.257 114.035 211.276 114.042C211.294 114.048 211.311 114.059 211.325 114.072C211.408 114.141 213.341 115.777 216.334 114.075C216.352 114.066 216.37 114.059 216.39 114.057C216.409 114.054 216.429 114.056 216.448 114.061C216.467 114.066 216.485 114.075 216.501 114.087C216.516 114.099 216.529 114.114 216.539 114.132C216.549 114.149 216.555 114.168 216.557 114.187C216.56 114.207 216.558 114.227 216.553 114.246C216.548 114.265 216.539 114.282 216.527 114.298C216.515 114.313 216.5 114.326 216.483 114.336C215.455 114.972 214.24 115.238 213.041 115.089Z" fill="#263238"/>
<path d="M213.811 108.963C213.775 108.958 213.742 108.941 213.718 108.913C213.694 108.886 213.682 108.85 213.683 108.814C213.683 108.794 213.687 108.775 213.695 108.757C213.702 108.738 213.714 108.722 213.728 108.708C213.742 108.694 213.759 108.684 213.777 108.676C213.795 108.669 213.815 108.666 213.834 108.666L214.644 108.671C214.665 108.67 214.685 108.673 214.704 108.68C214.723 108.688 214.74 108.699 214.754 108.713C214.769 108.727 214.78 108.745 214.787 108.763C214.794 108.782 214.797 108.803 214.796 108.823C214.795 108.862 214.779 108.9 214.751 108.928C214.722 108.955 214.685 108.971 214.645 108.971L213.835 108.966L213.811 108.963Z" fill="#263238"/>
<path d="M207.364 109.003C207.328 108.995 207.297 108.974 207.275 108.944C207.254 108.915 207.243 108.879 207.246 108.842C207.249 108.806 207.265 108.772 207.291 108.746C207.317 108.72 207.351 108.705 207.388 108.702L207.987 108.705C208.025 108.709 208.06 108.727 208.085 108.755C208.11 108.784 208.124 108.821 208.123 108.858C208.123 108.896 208.108 108.933 208.082 108.96C208.056 108.988 208.021 109.005 207.983 109.008L207.388 109.006L207.364 109.003Z" fill="#263238"/>
<path d="M220.184 109.054C220.149 109.048 220.117 109.03 220.093 109.003C220.07 108.976 220.057 108.942 220.056 108.906C220.056 108.865 220.072 108.827 220.101 108.798C220.129 108.77 220.168 108.754 220.208 108.754L220.808 108.756C220.845 108.76 220.88 108.778 220.905 108.807C220.931 108.835 220.944 108.872 220.944 108.91C220.943 108.948 220.929 108.984 220.903 109.012C220.877 109.039 220.842 109.057 220.804 109.06L220.208 109.058L220.184 109.054Z" fill="#263238"/>
<path d="M209.332 106.669C209.266 106.658 209.203 106.632 209.149 106.593C209.107 106.561 209.072 106.521 209.045 106.476C209.019 106.43 209.001 106.38 208.994 106.328C208.987 106.275 208.991 106.222 209.004 106.171C209.018 106.12 209.041 106.073 209.073 106.031C209.574 105.375 210.958 104.446 212.675 105.622C212.763 105.682 212.824 105.774 212.843 105.879C212.863 105.984 212.84 106.092 212.78 106.18C212.72 106.268 212.627 106.328 212.522 106.348C212.418 106.368 212.309 106.345 212.221 106.285C210.699 105.251 209.763 106.464 209.712 106.513C209.668 106.571 209.61 106.616 209.543 106.643C209.476 106.67 209.404 106.679 209.332 106.669V106.669Z" fill="#263238"/>
<path d="M215.712 106.694C215.643 106.684 215.578 106.657 215.523 106.614C215.468 106.571 215.425 106.515 215.398 106.45C215.372 106.386 215.362 106.316 215.371 106.246C215.38 106.177 215.407 106.112 215.449 106.056C215.95 105.4 217.338 104.472 219.051 105.647C219.136 105.708 219.193 105.799 219.212 105.902C219.23 106.005 219.207 106.111 219.149 106.197C219.09 106.284 219 106.344 218.898 106.365C218.796 106.386 218.689 106.367 218.601 106.311C217.079 105.277 216.143 106.49 216.087 106.538C216.044 106.596 215.987 106.64 215.921 106.667C215.855 106.695 215.783 106.704 215.712 106.694Z" fill="#263238"/>
<path d="M210.482 110.609C210.447 110.598 210.418 110.575 210.399 110.545C210.379 110.514 210.372 110.478 210.377 110.442C210.382 110.406 210.4 110.373 210.427 110.349C210.454 110.326 210.489 110.312 210.525 110.312L211.853 110.319C211.873 110.319 211.893 110.323 211.911 110.33C211.93 110.337 211.947 110.349 211.96 110.363C211.974 110.377 211.985 110.394 211.992 110.413C211.999 110.431 212.002 110.451 212.001 110.471C212.001 110.491 211.997 110.51 211.99 110.528C211.982 110.546 211.971 110.563 211.957 110.577C211.943 110.59 211.926 110.601 211.908 110.608C211.889 110.616 211.87 110.619 211.85 110.619L210.521 110.615L210.482 110.609Z" fill="#263238"/>
<path d="M215.927 110.632C215.892 110.627 215.859 110.61 215.835 110.582C215.812 110.555 215.799 110.52 215.799 110.484C215.799 110.444 215.815 110.405 215.844 110.376C215.872 110.348 215.911 110.332 215.951 110.332L217.279 110.34C217.319 110.34 217.356 110.355 217.384 110.383C217.412 110.41 217.428 110.448 217.428 110.487C217.428 110.527 217.412 110.566 217.383 110.595C217.355 110.623 217.316 110.639 217.276 110.639L215.948 110.631L215.927 110.632Z" fill="#263238"/>
<path d="M32.9261 21.3486H31.6683V29.1525H31.3987L30.128 28.4337V21.3486H27.6636V29.1525H27.3941L26.1362 28.4337V25.9822H26.0977C25.9437 26.0335 25.7683 26.0592 25.5715 26.0592C25.3148 26.0592 25.0666 26.0121 24.827 25.918C24.596 25.8153 24.3307 25.6442 24.0312 25.4046L23.9414 25.4302C24.0526 25.7041 24.1082 26.0121 24.1082 26.3544C24.1082 27.0133 23.9072 27.5438 23.505 27.946C23.1114 28.3396 22.5937 28.5364 21.9519 28.5364C21.0449 28.5364 20.2534 28.2112 19.5774 27.5609C18.9099 26.902 18.3067 26.1148 17.7676 25.1992L18.204 24.8526C18.6661 25.5115 19.1666 26.0549 19.7057 26.4827C20.2448 26.9106 20.7796 27.1245 21.3101 27.1245C21.7465 27.1245 22.1059 26.9962 22.3883 26.7394C22.6707 26.4742 22.8119 26.1661 22.8119 25.8153C22.8119 25.3447 22.6835 24.9553 22.4268 24.6473C21.8706 24.8184 21.2545 24.9468 20.5785 25.0323L19.9881 23.9413L20.1293 23.6205C20.5571 23.5862 20.9294 23.5434 21.246 23.4921C21.5711 23.4322 21.8407 23.3424 22.0546 23.2226C22.4653 23.0001 22.675 22.6578 22.6835 22.1957C22.6835 21.9219 22.5808 21.6866 22.3755 21.4898C22.1701 21.293 21.9006 21.1946 21.5668 21.1946C21.1989 21.1946 20.8566 21.2801 20.54 21.4513C20.232 21.6139 19.8982 21.862 19.5389 22.1957L18.8201 20.8095C19.1538 20.5614 19.5303 20.3517 19.9496 20.1806C20.3774 20.0094 20.7539 19.9239 21.0791 19.9239C21.4299 19.9324 21.8107 20.0865 22.2214 20.3859C22.6407 20.6854 22.9916 21.0534 23.2739 21.4898C23.5649 21.9176 23.7103 22.3241 23.7103 22.7091C23.7103 23.2739 23.505 23.7873 23.0943 24.2494C23.3595 24.3949 23.659 24.5147 23.9927 24.6088C24.3264 24.7029 24.6302 24.75 24.904 24.75C25.3747 24.75 25.7811 24.6302 26.1234 24.3906V21.3229H24.3521L23.813 20.2833V20.0266H32.3485L32.9133 21.0791L32.9261 21.3486Z" fill="white"/>
<path d="M41.5045 21.3229H40.2466V29.1268H39.9899L38.7064 28.408L38.7449 26.7651L38.7064 26.7394C38.4668 26.8849 38.1929 27.0133 37.8849 27.1245C37.5768 27.2357 37.2602 27.2914 36.9351 27.2914C36.1906 27.2914 35.5146 27.0218 34.9071 26.4827C34.3081 25.9437 33.8503 25.1992 33.5337 24.2494C34.1327 24.0611 34.599 23.8387 34.9328 23.5819C35.2665 23.3167 35.4333 22.9958 35.4333 22.6193C35.4333 22.3883 35.3863 22.1786 35.2922 21.9904C35.2066 21.7936 35.0568 21.5711 34.8429 21.3229H32.8919L32.3529 20.2833V20.0266H40.9525L41.5045 21.0791V21.3229ZM36.3061 26.0207C36.7768 26.0207 37.2217 25.9223 37.641 25.7255C38.0689 25.5201 38.4325 25.2848 38.732 25.0195L38.7192 21.3229H35.9468V21.3358C36.2206 21.6524 36.4516 21.9647 36.6399 22.2727C36.8367 22.5722 36.9351 22.8289 36.9351 23.0429C36.9351 23.4279 36.734 23.7959 36.3318 24.1467C35.9296 24.4975 35.4761 24.7714 34.9713 24.9682C35.0055 25.3019 35.151 25.5629 35.4077 25.7511C35.6729 25.9308 35.9724 26.0207 36.3061 26.0207Z" fill="white"/>
<path d="M48.114 21.2973V23.5306C48.6958 23.0685 49.2392 22.8375 49.7441 22.8375C50.2061 22.8375 50.6126 22.953 50.9634 23.1841C51.3228 23.4065 51.6009 23.7146 51.7977 24.1082C51.9945 24.4933 52.0929 24.9211 52.0929 25.3917C52.0929 25.7597 52.0288 26.2046 51.9004 26.7266C51.7806 27.24 51.6137 27.7192 51.3998 28.1642L50.0778 27.1887C50.343 26.8378 50.5998 26.4314 50.8479 25.9693C51.0961 25.4987 51.2201 25.1307 51.2201 24.8655C51.2201 24.6173 51.1346 24.4162 50.9634 24.2622C50.7923 24.0996 50.5612 24.0183 50.2703 24.0183C49.928 24.0183 49.5772 24.121 49.2178 24.3264C48.867 24.5318 48.499 24.8013 48.114 25.135V29.114H47.8573L46.5352 28.3695L46.6379 26.3929L46.6122 26.3801C46.2528 26.6539 45.9148 26.8635 45.5982 27.009C45.2902 27.1545 44.9436 27.2272 44.5586 27.2272C44.1136 27.2272 43.7072 27.1288 43.3392 26.932C42.9713 26.7352 42.6761 26.4485 42.4536 26.072C42.2397 25.6955 42.1327 25.2505 42.1327 24.7371C42.1327 24.3435 42.2097 23.9713 42.3637 23.6205C42.5263 23.2611 42.7616 22.9701 43.0697 22.7476C43.3777 22.5252 43.7457 22.4139 44.1735 22.4139C44.7212 22.4139 45.1832 22.568 45.5597 22.876C45.9362 23.1841 46.27 23.5905 46.5609 24.0954V21.3229H41.4781L40.939 20.2833V20.0266H52.1314L52.6705 21.0791V21.3229L48.114 21.2973ZM44.0837 25.9437C44.5286 25.9437 44.9608 25.8495 45.38 25.6613C45.7993 25.4645 46.1929 25.212 46.5609 24.904V24.8141C46.3898 24.5917 46.1159 24.382 45.7394 24.1852C45.3715 23.9798 44.9993 23.8729 44.6228 23.8643C44.3489 23.8643 44.0666 23.9071 43.7756 23.9927C43.4932 24.0782 43.2537 24.2109 43.0568 24.3906C42.86 24.5617 42.7616 24.7756 42.7616 25.0323C42.7616 25.2891 42.8943 25.503 43.1595 25.6741C43.4248 25.8452 43.7286 25.9308 44.0708 25.9308L44.0837 25.9437Z" fill="white"/>
<path d="M58.4094 21.3486H56.3686C56.4285 21.6652 56.4756 22.0075 56.5098 22.3754C56.544 22.7434 56.5611 23.0685 56.5611 23.3509C56.5611 23.9071 56.4328 24.3991 56.1761 24.827C55.9194 25.2548 55.5985 25.6527 55.2134 26.0207L57.9089 28.6134L57.1131 29.2038L54.1609 25.8281C54.0497 25.6912 53.9898 25.6185 53.9812 25.6099C53.7673 25.3789 53.6133 25.1906 53.5192 25.0452C53.4336 24.8997 53.3908 24.7414 53.3908 24.5703C53.3908 24.3649 53.4678 24.1638 53.6218 23.967C53.7844 23.7616 53.9513 23.6076 54.1224 23.5049L54.8669 23.967C54.9268 23.8472 54.9867 23.659 55.0466 23.4023C55.1065 23.1455 55.1364 22.8931 55.1364 22.645C55.1364 22.2599 55.1022 21.8192 55.0337 21.3229H52.6464L52.1073 20.2833V20.0266H57.8575L58.4094 21.0791V21.3486Z" fill="white"/>
<path d="M64.9554 16.8947C64.4163 16.9033 63.9756 17.0359 63.6333 17.2926C63.291 17.5493 63.1242 17.9173 63.1327 18.3965C63.1327 18.6703 63.1755 18.9569 63.2611 19.2564C63.3552 19.5559 63.4622 19.8126 63.582 20.0266H64.7243L65.2762 21.0791V21.3229H64.0312V29.1268H63.7745L62.5038 28.408L62.491 21.3229H61.2203L60.6812 20.2833V20.0266H62.645C61.8834 19.0939 61.4984 18.2852 61.4898 17.6007C61.4898 17.2071 61.6053 16.8562 61.8364 16.5482C62.076 16.2316 62.4097 15.9834 62.8375 15.8037C63.2739 15.624 63.766 15.5342 64.3136 15.5342C65.2292 15.5342 66.2346 15.8893 67.3299 16.5995C68.4337 17.3012 69.5804 18.1697 70.7698 19.2051L70.3847 19.6928C69.3579 18.8714 68.3781 18.1997 67.4454 17.6777C66.5213 17.1472 65.687 16.8862 64.9425 16.8947H64.9554Z" fill="white"/>
<path d="M73.8561 21.0919V21.3358H72.5982V29.1397H72.3543L71.0195 28.3952L71.0965 26.5597L71.058 26.5341C70.5873 26.8507 70.1723 27.086 69.8129 27.24C69.4621 27.394 69.0771 27.4711 68.6578 27.4711C68.2128 27.4711 67.785 27.3727 67.3742 27.1758C66.9635 26.9705 66.6255 26.6795 66.3602 26.303C66.1035 25.918 65.9752 25.4645 65.9752 24.9425C65.9752 24.3777 66.0864 23.8857 66.3089 23.4664C66.5399 23.0386 66.8394 22.7134 67.2074 22.4909C67.5753 22.2599 67.9647 22.1444 68.3754 22.1444C68.8631 22.1444 69.3423 22.3112 69.8129 22.645C70.2836 22.9701 70.7029 23.3552 71.0708 23.8001H71.0965V21.3229H65.2436L64.7045 20.2833V20.0266H73.3298L73.8561 21.0919ZM68.0288 26.303C68.5166 26.303 69.0514 26.1405 69.6332 25.8153C70.2151 25.4901 70.6986 25.1136 71.0836 24.6858C70.8184 24.3692 70.5018 24.1082 70.1338 23.9028C69.7659 23.6975 69.4193 23.5948 69.0942 23.5948C68.6407 23.5948 68.2214 23.6804 67.8363 23.8515C67.4512 24.0226 67.1475 24.2366 66.925 24.4933C66.7025 24.75 66.5913 25.0024 66.5913 25.2505C66.5913 25.5586 66.7239 25.811 66.9892 26.0078C67.263 26.2046 67.6138 26.303 68.0417 26.303H68.0288Z" fill="white"/>
<path d="M83.8664 21.0791V21.3229H82.6085V29.1268H82.3518L81.0939 28.408V25.9565H78.4627C78.3771 26.7694 78.022 27.1758 77.3973 27.1758C77.0379 27.1758 76.7385 27.0175 76.4989 26.7009C76.2678 26.3758 76.1138 26.0121 76.0368 25.6099C75.9854 25.3875 75.9598 25.165 75.9598 24.9425C75.9598 24.8227 75.9641 24.7329 75.9726 24.673H76.9738V23.8643C76.2464 23.5734 75.6432 23.2097 75.164 22.7733C74.6934 22.3369 74.458 21.8449 74.458 21.2973C74.458 20.8523 74.6078 20.5143 74.9073 20.2833C75.2068 20.0437 75.5961 19.9239 76.0753 19.9239C76.4604 19.9239 76.8369 19.9966 77.2048 20.1421C77.5728 20.279 77.8765 20.51 78.1161 20.8352C78.3643 21.1603 78.4883 21.5796 78.4883 22.093V24.673H81.0939V21.3229H79.1815L78.6424 20.2833V20.0266H83.3144L83.8664 21.0791ZM75.7929 21.7208C75.7929 22.0203 75.9084 22.2941 76.1395 22.5423C76.3705 22.7819 76.67 22.983 77.0379 23.1455C77.0807 22.9487 77.115 22.7134 77.1406 22.4396C77.1749 22.1658 77.192 21.9433 77.192 21.7722C77.192 21.5497 77.1235 21.3529 76.9866 21.1817C76.8583 21.0106 76.7 20.925 76.5117 20.925C76.2978 20.925 76.1224 20.9892 75.9854 21.1176C75.8571 21.2459 75.7929 21.447 75.7929 21.7208Z" fill="white"/>
<path d="M87.9133 21.0791V21.3229H86.6683V29.1268H86.4116L85.1409 28.408L85.128 21.3229H83.8573L83.3182 20.2833V20.0266H87.3614L87.9133 21.0791Z" fill="white"/>
<path d="M96.352 21.0791V21.3229H95.0813V29.1268H94.8245L93.541 28.408V21.3229H90.8841C91.0638 22.9402 91.1536 24.1553 91.1536 24.9682C91.1536 25.3532 91.0681 25.7041 90.8969 26.0207C90.7258 26.3287 90.3921 26.4827 89.8958 26.4827C89.562 26.4827 89.2797 26.3886 89.0486 26.2004C88.8262 26.0121 88.655 25.7811 88.5352 25.5073C88.424 25.2334 88.3684 24.981 88.3684 24.75C88.3684 24.4933 88.394 24.2836 88.4454 24.121L89.7161 24.2879L89.8188 21.3229H87.8935L87.3544 20.2833V20.0266H95.7872L96.352 21.0791Z" fill="white"/>
<path d="M19.4877 40.5442L19.4459 41.2963L17.7245 41.3381L17.6994 40.5609H18.1925L18.1841 36.2908L17.666 36.3076L17.7078 35.497H19.3624L19.4292 36.2491L18.9445 36.2908L18.9028 40.5609L19.4877 40.5442Z" fill="white"/>
<path d="M24.4514 36.1655L23.9667 36.2073L23.8414 41.4049L23.1144 41.4216L21.2342 36.8758L21.276 40.5609L21.8442 40.5442V41.2963L20.0559 41.3381L20.0309 40.5609H20.5239L20.4737 36.2908L19.9557 36.3076L19.9974 35.497H21.4013L23.1729 39.9342V36.2073L22.6464 36.224L22.6882 35.4134H24.3929L24.4514 36.1655Z" fill="white"/>
<path d="M28.7048 35.3382L28.6128 37.4691L27.9527 37.444C27.936 37.3465 27.9137 37.2449 27.8858 37.139C27.8608 37.0332 27.8273 36.9301 27.7856 36.8298C27.7466 36.7296 27.6992 36.6349 27.6435 36.5457C27.5878 36.4538 27.5223 36.3744 27.4471 36.3076C27.3719 36.2379 27.287 36.1836 27.1923 36.1446C27.0976 36.1028 26.9917 36.0819 26.8747 36.0819C26.6992 36.0819 26.546 36.1195 26.4151 36.1948C26.287 36.27 26.177 36.3702 26.085 36.4956C25.9931 36.6209 25.9165 36.7644 25.8552 36.9259C25.7967 37.0847 25.7508 37.2477 25.7174 37.4148C25.6839 37.5819 25.6603 37.7476 25.6463 37.912C25.6352 38.0735 25.6296 38.2184 25.6296 38.3465C25.6296 38.4663 25.6352 38.607 25.6463 38.7685C25.6575 38.9273 25.6784 39.0916 25.709 39.2615C25.7424 39.4314 25.787 39.6 25.8427 39.7671C25.8984 39.9314 25.9694 40.0791 26.0558 40.21C26.1449 40.3381 26.2508 40.4426 26.3733 40.5233C26.4959 40.6041 26.6407 40.6445 26.8079 40.6445C27.0112 40.6445 27.1811 40.5999 27.3176 40.5108C27.4569 40.4217 27.5697 40.3075 27.656 40.1682C27.7424 40.0261 27.8051 39.8688 27.8441 39.6961C27.8858 39.5206 27.9137 39.3465 27.9276 39.1738H28.5878C28.5878 39.4607 28.5516 39.7392 28.4791 40.0094C28.4095 40.2796 28.3009 40.5192 28.1532 40.7281C28.0056 40.937 27.8176 41.1055 27.5892 41.2336C27.3636 41.359 27.0948 41.4216 26.7828 41.4216C26.5432 41.4216 26.3288 41.3729 26.1394 41.2754C25.9499 41.1779 25.7828 41.0484 25.638 40.8868C25.4959 40.7225 25.3747 40.5359 25.2745 40.327C25.1742 40.1153 25.092 39.8966 25.028 39.671C24.9639 39.4454 24.9165 39.2211 24.8859 38.9983C24.858 38.7727 24.8441 38.5666 24.8441 38.3799C24.8441 38.1682 24.8567 37.9454 24.8817 37.7114C24.9096 37.4775 24.9528 37.2477 25.0112 37.022C25.0725 36.7936 25.1519 36.5764 25.2494 36.3702C25.3497 36.1641 25.4736 35.9831 25.6213 35.8271C25.7689 35.6711 25.943 35.5471 26.1435 35.4552C26.3441 35.3605 26.5739 35.3132 26.8329 35.3132C27.0948 35.3132 27.3148 35.3744 27.4931 35.497C27.6714 35.6196 27.8273 35.7895 27.961 36.0067L27.9694 35.3215L28.7048 35.3382Z" fill="white"/>
<path d="M32.837 38.1209C32.837 38.3465 32.83 38.5875 32.8161 38.8437C32.8022 39.1 32.7715 39.3535 32.7242 39.6041C32.6796 39.8548 32.6127 40.0972 32.5236 40.3311C32.4373 40.5623 32.3203 40.7657 32.1726 40.9412C32.0278 41.1166 31.8481 41.2573 31.6337 41.3632C31.4192 41.469 31.1629 41.5219 30.8649 41.5219C30.6309 41.5219 30.4276 41.4787 30.2549 41.3924C30.0822 41.3088 29.9331 41.196 29.8078 41.054C29.6852 40.9119 29.5836 40.7476 29.5028 40.5609C29.422 40.3743 29.3579 40.1807 29.3106 39.9802C29.2632 39.7768 29.2298 39.5721 29.2103 39.366C29.1936 39.1599 29.1852 38.9677 29.1852 38.7894C29.1852 38.5638 29.1936 38.32 29.2103 38.0582C29.227 37.7964 29.2605 37.5359 29.3106 37.2769C29.3607 37.0179 29.4304 36.7686 29.5195 36.529C29.6114 36.2895 29.7312 36.0778 29.8788 35.8939C30.0292 35.7101 30.2117 35.5638 30.4262 35.4552C30.6406 35.3438 30.8955 35.2881 31.1908 35.2881C31.4247 35.2881 31.6281 35.334 31.8008 35.426C31.9763 35.5151 32.1239 35.6363 32.2437 35.7895C32.3662 35.9399 32.4651 36.1126 32.5403 36.3076C32.6183 36.5025 32.6796 36.7059 32.7242 36.9176C32.7687 37.1265 32.798 37.3354 32.8119 37.5443C32.8286 37.7504 32.837 37.9426 32.837 38.1209ZM32.018 38.171C32.018 38.0763 32.0153 37.9593 32.0097 37.8201C32.0041 37.678 31.9916 37.5304 31.9721 37.3772C31.9526 37.2212 31.9233 37.0652 31.8843 36.9092C31.8454 36.7532 31.791 36.614 31.7214 36.4914C31.6545 36.3661 31.5696 36.2658 31.4665 36.1906C31.3663 36.1126 31.2437 36.0736 31.0989 36.0736C30.915 36.0736 30.759 36.1237 30.6309 36.224C30.5055 36.3215 30.4011 36.451 30.3175 36.6126C30.234 36.7741 30.1685 36.9566 30.1212 37.1599C30.0738 37.3605 30.039 37.5638 30.0167 37.7699C29.9944 37.976 29.9805 38.1752 29.9749 38.3674C29.9721 38.5568 29.9707 38.7198 29.9707 38.8562C29.9707 38.9593 29.9735 39.0777 29.9791 39.2114C29.9847 39.3423 29.9972 39.4774 30.0167 39.6167C30.039 39.7532 30.071 39.8883 30.1128 40.022C30.1546 40.1529 30.2089 40.2699 30.2757 40.3729C30.3454 40.476 30.4317 40.5596 30.5348 40.6236C30.6379 40.6877 30.7618 40.7197 30.9067 40.7197C31.0877 40.7197 31.2409 40.6738 31.3663 40.5818C31.4916 40.4899 31.5947 40.3701 31.6754 40.2225C31.759 40.0721 31.8231 39.9036 31.8676 39.717C31.915 39.5303 31.9498 39.3437 31.9721 39.1571C31.9944 38.9677 32.0069 38.7866 32.0097 38.6139C32.0153 38.4412 32.018 38.2936 32.018 38.171Z" fill="white"/>
<path d="M38.8243 35.4301L38.7992 36.2324L38.2561 36.2073L38.1725 40.6278H38.5987L38.6154 41.4216H36.9107L36.9274 40.6278H37.4371L37.4539 36.6585L36.401 40.9704L35.582 40.9955L34.7631 36.6669L34.7046 40.5609H35.1976L35.2144 41.3381L33.2757 41.2963V40.5442L33.9525 40.5609L33.9943 36.3326L33.259 36.2908L33.2757 35.5388H35.3146L36.0082 39.6919L37.011 35.4552L38.8243 35.4301Z" fill="white"/>
<path d="M42.7518 37.0346L42.1334 37.0763L42.0498 36.2156L40.529 36.2491L40.5123 38.1125H41.7824V38.7142L40.5039 38.7894L40.4872 40.6529L42.0498 40.5944V39.6752H42.6682L42.71 41.3381L39.309 41.4216L39.2839 40.6529H39.7769L39.7686 36.2491L39.2505 36.2658L39.2923 35.4552L42.71 35.4134L42.7518 37.0346Z" fill="white"/>
<path d="M46.6667 37.185L46.0233 37.2685L45.9815 36.1404L45.2879 36.1655L45.2462 40.5609L45.8311 40.5442L45.7893 41.2963L44.0679 41.3381L44.0428 40.5609H44.5359L44.5275 36.2073L43.7754 36.2574L43.8172 37.3103H43.1236L43.1654 35.497L46.5832 35.3716L46.6667 37.185Z" fill="white"/>
<path d="M50.6652 40.6946L50.6068 41.4885L48.9104 41.4467L48.8686 40.6362L49.3867 40.6529L49.1695 39.4328L48.0664 39.483L47.8909 40.5693L48.3756 40.6111L48.3088 41.3632H46.6124L46.5706 40.5526L47.0887 40.5693L47.9996 36.107L47.5734 36.1237L47.5316 35.4134L49.6625 35.3716L49.6207 36.0402L49.2029 36.0569L50.1472 40.6529L50.6652 40.6946ZM49.0525 38.781L48.6012 36.2156L48.1834 38.781H49.0525Z" fill="white"/>
<path d="M54.7766 36.2073L54.2585 36.2491L53.1053 38.4217L54.1833 40.6946L54.7766 40.6696L54.7264 41.4216L52.9632 41.4634L52.9382 40.6946H53.4312L52.6875 39.0735L51.9856 40.6529L52.5371 40.6278L52.4953 41.3799L50.7237 41.4216L50.6987 40.6529H51.1917L52.2947 38.4468L51.2001 36.2491L50.682 36.2658L50.7237 35.4552H52.4201L52.4869 36.2073L52.0023 36.2491L52.7126 37.8284L53.4981 36.2491L52.98 36.2658L53.0217 35.4552L54.7181 35.4134L54.7766 36.2073Z" fill="white"/>
<path d="M60.3711 38.4301C60.3711 38.6724 60.3544 38.9259 60.321 39.1905C60.2904 39.4523 60.2333 39.7072 60.1497 39.9551C60.0689 40.2002 59.9575 40.4286 59.8155 40.6403C59.6762 40.852 59.4965 41.0289 59.2765 41.171C59.1428 41.2601 58.9979 41.3283 58.8419 41.3757C58.6887 41.423 58.5328 41.4467 58.374 41.4467H58.3489L56.6693 41.4216L56.6442 40.6529H57.1372L57.1289 36.2491L56.6526 36.2658L56.6108 35.4552C56.8559 35.4385 57.0982 35.4274 57.3378 35.4218C57.5801 35.4162 57.8252 35.4134 58.0732 35.4134H58.5495C58.8029 35.4134 59.0244 35.4608 59.2138 35.5555C59.4032 35.6502 59.5648 35.7769 59.6985 35.9357C59.835 36.0945 59.9464 36.2769 60.0327 36.483C60.1191 36.6892 60.1873 36.905 60.2374 37.1307C60.2876 37.3535 60.3224 37.5777 60.3419 37.8033C60.3614 38.0262 60.3711 38.2351 60.3711 38.4301ZM59.6024 38.3298V38.2546C59.6024 38.1599 59.5954 38.0443 59.5815 37.9078C59.5703 37.7685 59.5508 37.6223 59.523 37.4691C59.4951 37.3159 59.4561 37.1641 59.406 37.0137C59.3559 36.8633 59.2946 36.7282 59.2222 36.6084C59.1497 36.4858 59.062 36.3869 58.9589 36.3117C58.8586 36.2365 58.7417 36.1989 58.608 36.1989H58.3406C58.2653 36.1989 58.1901 36.1989 58.1149 36.1989C58.0397 36.1989 57.9645 36.2017 57.8893 36.2073L57.8475 40.6946C57.9032 40.7002 57.9576 40.7044 58.0105 40.7072C58.0634 40.71 58.1177 40.7114 58.1734 40.7114C58.3211 40.7114 58.4659 40.703 58.608 40.6863C58.7639 40.6612 58.8963 40.6027 59.0049 40.5108C59.1163 40.4161 59.2082 40.3019 59.2806 40.1682C59.3559 40.0317 59.4143 39.8813 59.4561 39.717C59.4979 39.5526 59.5299 39.3883 59.5522 39.2239C59.5745 39.0568 59.5884 38.8952 59.594 38.7393C59.5996 38.5833 59.6024 38.4468 59.6024 38.3298Z" fill="white"/>
<path d="M64.4114 37.0346L63.7931 37.0763L63.7095 36.2156L62.1887 36.2491L62.1719 38.1125H63.4421V38.7142L62.1636 38.7894L62.1469 40.6529L63.7095 40.5944V39.6752H64.3279L64.3697 41.3381L60.9686 41.4216L60.9436 40.6529H61.4366L61.4282 36.2491L60.9101 36.2658L60.9519 35.4552L64.3697 35.4134L64.4114 37.0346Z" fill="white"/>
<path d="M68.5771 37.1098C68.5771 37.4552 68.5214 37.7449 68.41 37.9788C68.2985 38.2128 68.1439 38.4008 67.9462 38.5429C67.7512 38.6849 67.52 38.788 67.2526 38.8521C66.988 38.9133 66.6997 38.9454 66.3877 38.9482H66.1537L66.137 40.5609L66.722 40.5442L66.6802 41.2963L64.9588 41.3381L64.9337 40.5609H65.4267L65.4184 36.1822L64.9421 36.1989L64.9003 35.3884C65.2123 35.3744 65.5214 35.3661 65.8278 35.3633C66.1342 35.3577 66.4434 35.3549 66.7554 35.3549C67.0089 35.3549 67.247 35.3981 67.4699 35.4845C67.6927 35.568 67.8849 35.6878 68.0465 35.8438C68.2108 35.997 68.3403 36.1808 68.435 36.3953C68.5297 36.6098 68.5771 36.8479 68.5771 37.1098ZM67.8083 37.1432C67.8083 37.0011 67.7818 36.8688 67.7289 36.7463C67.6788 36.6237 67.6091 36.5179 67.52 36.4287C67.4309 36.3396 67.325 36.27 67.2025 36.2198C67.0799 36.1669 66.9476 36.1404 66.8055 36.1404H66.1788L66.1621 38.2379H66.3627C66.5548 38.2379 66.7373 38.2267 66.91 38.2045C67.0855 38.1794 67.2401 38.1292 67.3738 38.054C67.5075 37.9788 67.6133 37.8688 67.6913 37.724C67.7693 37.5791 67.8083 37.3855 67.8083 37.1432Z" fill="white"/>
<path d="M72.4335 40.6946L72.375 41.4885L70.6787 41.4467L70.6369 40.6362L71.155 40.6529L70.9378 39.4328L69.8347 39.483L69.6592 40.5693L70.1439 40.6111L70.0771 41.3632H68.3807L68.3389 40.5526L68.857 40.5693L69.7679 36.107L69.3417 36.1237L69.2999 35.4134L71.4308 35.3716L71.389 36.0402L70.9712 36.0569L71.9154 40.6529L72.4335 40.6946ZM70.8208 38.781L70.3695 36.2156L69.9517 38.781H70.8208Z" fill="white"/>
<path d="M76.3736 40.5024L76.3318 41.2963L74.8193 41.4216L74.719 40.6529H75.0365L74.4683 38.6975H73.9001L73.8834 40.6529L74.3848 40.6278L74.343 41.4216H72.7469L72.6801 40.6529H73.1731L73.1647 36.1822L72.6884 36.1989L72.6466 35.3884C72.9586 35.3744 73.2692 35.3661 73.5784 35.3633C73.8903 35.3577 74.2037 35.3549 74.5185 35.3549C74.7664 35.3549 75.0003 35.3898 75.2204 35.4594C75.4404 35.5262 75.6312 35.6279 75.7928 35.7644C75.9571 35.9009 76.0867 36.0708 76.1814 36.2741C76.2761 36.4775 76.3234 36.7142 76.3234 36.9844C76.3234 37.1627 76.2984 37.3396 76.2482 37.5151C76.1981 37.6905 76.1243 37.8535 76.0268 38.0039C75.9293 38.1515 75.8095 38.2797 75.6675 38.3883C75.5254 38.4969 75.3624 38.5721 75.1786 38.6139L75.7886 40.5192L76.3736 40.5024ZM75.5546 37.0179C75.5546 36.8758 75.5296 36.7504 75.4794 36.6418C75.4321 36.5332 75.3652 36.4413 75.2789 36.3661C75.1925 36.2908 75.0909 36.2351 74.9739 36.1989C74.8569 36.1599 74.7301 36.1404 74.5937 36.1404H73.9252L73.9084 37.9872H74.109C74.2928 37.9872 74.4711 37.9802 74.6438 37.9663C74.8193 37.9496 74.9739 37.9092 75.1076 37.8451C75.2413 37.7811 75.3485 37.685 75.4293 37.5568C75.5129 37.4259 75.5546 37.2463 75.5546 37.0179Z" fill="white"/>
<path d="M80.2593 37.185L79.6158 37.2685L79.574 36.1404L78.8805 36.1655L78.8387 40.5609L79.4236 40.5442L79.3818 41.2963L77.6604 41.3381L77.6354 40.5609H78.1284L78.12 36.2073L77.368 36.2574L77.4097 37.3103H76.7162L76.758 35.497L80.1757 35.3716L80.2593 37.185Z" fill="white"/>
<path d="M86.1129 35.4301L86.0878 36.2324L85.5447 36.2073L85.4611 40.6278H85.8873L85.904 41.4216H84.1993L84.216 40.6278H84.7257L84.7424 36.6585L83.6895 40.9704L82.8706 40.9955L82.0517 36.6669L81.9932 40.5609H82.4862L82.5029 41.3381L80.5643 41.2963V40.5442L81.2411 40.5609L81.2829 36.3326L80.5476 36.2908L80.5643 35.5388H82.6032L83.2968 39.6919L84.2996 35.4552L86.1129 35.4301Z" fill="white"/>
<path d="M90.0404 37.0346L89.422 37.0763L89.3384 36.2156L87.8176 36.2491L87.8009 38.1125H89.071V38.7142L87.7925 38.7894L87.7758 40.6529L89.3384 40.5944V39.6752H89.9568L89.9986 41.3381L86.5976 41.4216L86.5725 40.6529H87.0655L87.0572 36.2491L86.5391 36.2658L86.5808 35.4552L89.9986 35.4134L90.0404 37.0346Z" fill="white"/>
<path d="M94.9873 36.1655L94.5027 36.2073L94.3773 41.4049L93.6503 41.4216L91.7701 36.8758L91.8119 40.5609L92.3802 40.5442V41.2963L90.5919 41.3381L90.5668 40.5609H91.0599L91.0097 36.2908L90.4916 36.3076L90.5334 35.497H91.9373L93.7088 39.9342V36.2073L93.1824 36.224L93.2241 35.4134H94.9288L94.9873 36.1655Z" fill="white"/>
<path d="M98.8354 37.185L98.192 37.2685L98.1502 36.1404L97.4566 36.1655L97.4149 40.5609L97.9998 40.5442L97.958 41.2963L96.2366 41.3381L96.2115 40.5609H96.7046L96.6962 36.2073L95.9441 36.2574L95.9859 37.3103H95.2923L95.3341 35.497L98.7519 35.3716L98.8354 37.185Z" fill="white"/>
<path d="M193.128 39.1571C193.128 39.4301 193.089 39.7016 193.011 39.9718C192.935 40.2392 192.821 40.4816 192.668 40.6988C192.515 40.9133 192.324 41.0874 192.096 41.2211C191.87 41.3548 191.607 41.4216 191.306 41.4216C191.066 41.4216 190.852 41.3729 190.662 41.2754C190.473 41.1779 190.306 41.0484 190.161 40.8868C190.019 40.7225 189.898 40.5359 189.798 40.327C189.697 40.1153 189.615 39.8966 189.551 39.671C189.487 39.4454 189.44 39.2211 189.409 38.9983C189.381 38.7727 189.367 38.5666 189.367 38.3799C189.367 38.1766 189.378 37.9593 189.401 37.7281C189.423 37.4969 189.461 37.2685 189.513 37.0429C189.569 36.8145 189.643 36.5972 189.735 36.3911C189.83 36.1822 189.947 35.9984 190.086 35.8396C190.228 35.678 190.396 35.5499 190.591 35.4552C190.786 35.3605 191.013 35.3132 191.272 35.3132C191.406 35.3132 191.523 35.3299 191.623 35.3633C191.724 35.3939 191.814 35.4399 191.895 35.5012C191.976 35.5597 192.05 35.6321 192.116 35.7184C192.183 35.8048 192.25 35.9009 192.317 36.0067L192.325 35.3215L193.061 35.3382L192.969 37.4691L192.309 37.444C192.286 37.3075 192.253 37.1599 192.208 37.0011C192.167 36.8396 192.108 36.692 192.033 36.5583C191.958 36.4218 191.86 36.309 191.74 36.2198C191.623 36.1279 191.479 36.0819 191.306 36.0819C191.133 36.0819 190.984 36.1209 190.859 36.1989C190.736 36.2741 190.632 36.3758 190.545 36.5039C190.462 36.6293 190.394 36.7727 190.341 36.9343C190.288 37.0931 190.247 37.2574 190.22 37.4273C190.192 37.5944 190.174 37.7588 190.165 37.9203C190.157 38.0791 190.153 38.2212 190.153 38.3465C190.153 38.4663 190.158 38.607 190.169 38.7685C190.181 38.9273 190.201 39.0916 190.232 39.2615C190.265 39.4314 190.31 39.6 190.366 39.7671C190.421 39.9314 190.493 40.0791 190.579 40.21C190.668 40.3381 190.774 40.4426 190.896 40.5233C191.019 40.6041 191.164 40.6445 191.331 40.6445C191.465 40.6445 191.584 40.618 191.69 40.5651C191.796 40.5122 191.888 40.4426 191.966 40.3562C192.047 40.2671 192.114 40.1654 192.167 40.0512C192.222 39.937 192.267 39.8186 192.3 39.6961C192.334 39.5735 192.357 39.4509 192.371 39.3284C192.388 39.203 192.395 39.0874 192.392 38.9816V38.898L191.214 38.8646V38.288L193.077 38.2462C193.091 38.3966 193.102 38.5485 193.111 38.7017C193.122 38.8549 193.128 39.0067 193.128 39.1571Z" fill="white"/>
<path d="M197.331 38.1209C197.331 38.3465 197.324 38.5875 197.31 38.8437C197.296 39.1 197.265 39.3535 197.218 39.6041C197.173 39.8548 197.107 40.0972 197.017 40.3311C196.931 40.5623 196.814 40.7657 196.666 40.9412C196.522 41.1166 196.342 41.2573 196.127 41.3632C195.913 41.469 195.657 41.5219 195.359 41.5219C195.125 41.5219 194.921 41.4787 194.749 41.3924C194.576 41.3088 194.427 41.196 194.302 41.054C194.179 40.9119 194.077 40.7476 193.997 40.5609C193.916 40.3743 193.852 40.1807 193.804 39.9802C193.757 39.7768 193.724 39.5721 193.704 39.366C193.687 39.1599 193.679 38.9677 193.679 38.7894C193.679 38.5638 193.687 38.32 193.704 38.0582C193.721 37.7964 193.754 37.5359 193.804 37.2769C193.855 37.0179 193.924 36.7686 194.013 36.529C194.105 36.2895 194.225 36.0778 194.373 35.8939C194.523 35.7101 194.706 35.5638 194.92 35.4552C195.134 35.3438 195.389 35.2881 195.685 35.2881C195.919 35.2881 196.122 35.334 196.295 35.426C196.47 35.5151 196.618 35.6363 196.737 35.7895C196.86 35.9399 196.959 36.1126 197.034 36.3076C197.112 36.5025 197.173 36.7059 197.218 36.9176C197.263 37.1265 197.292 37.3354 197.306 37.5443C197.322 37.7504 197.331 37.9426 197.331 38.1209ZM196.512 38.171C196.512 38.0763 196.509 37.9593 196.504 37.8201C196.498 37.678 196.485 37.5304 196.466 37.3772C196.446 37.2212 196.417 37.0652 196.378 36.9092C196.339 36.7532 196.285 36.614 196.215 36.4914C196.148 36.3661 196.063 36.2658 195.96 36.1906C195.86 36.1126 195.738 36.0736 195.593 36.0736C195.409 36.0736 195.253 36.1237 195.125 36.224C194.999 36.3215 194.895 36.451 194.811 36.6126C194.728 36.7741 194.662 36.9566 194.615 37.1599C194.568 37.3605 194.533 37.5638 194.511 37.7699C194.488 37.976 194.474 38.1752 194.469 38.3674C194.466 38.5568 194.465 38.7198 194.465 38.8562C194.465 38.9593 194.467 39.0777 194.473 39.2114C194.478 39.3423 194.491 39.4774 194.511 39.6167C194.533 39.7532 194.565 39.8883 194.607 40.022C194.648 40.1529 194.703 40.2699 194.77 40.3729C194.839 40.476 194.926 40.5596 195.029 40.6236C195.132 40.6877 195.256 40.7197 195.4 40.7197C195.582 40.7197 195.735 40.6738 195.86 40.5818C195.985 40.4899 196.088 40.3701 196.169 40.2225C196.253 40.0721 196.317 39.9036 196.361 39.717C196.409 39.5303 196.444 39.3437 196.466 39.1571C196.488 38.9677 196.501 38.7866 196.504 38.6139C196.509 38.4412 196.512 38.2936 196.512 38.171Z" fill="white"/>
<path d="M201.659 36.1237L201.141 36.1655L200.063 41.4467L199.119 41.3966L198.083 36.2491L197.565 36.2658L197.607 35.4552H199.303L199.37 36.2073L198.885 36.2491L199.595 40.5192L200.381 36.1655L199.863 36.1822L199.905 35.3716L201.601 35.3299L201.659 36.1237Z" fill="white"/>
<path d="M205.303 37.185L204.659 37.2685L204.618 36.1404L203.924 36.1655L203.882 40.5609L204.467 40.5442L204.425 41.2963L202.704 41.3381L202.679 40.5609H203.172L203.164 36.2073L202.411 36.2574L202.453 37.3103H201.76L201.801 35.497L205.219 35.3716L205.303 37.185Z" fill="white"/>
<path d="M206.539 40.8952C206.539 40.9676 206.526 41.0359 206.498 41.0999C206.47 41.164 206.431 41.2197 206.381 41.2671C206.333 41.3144 206.276 41.352 206.209 41.3799C206.145 41.4077 206.077 41.4216 206.005 41.4216C205.932 41.4216 205.864 41.4077 205.8 41.3799C205.736 41.352 205.68 41.3144 205.633 41.2671C205.585 41.2197 205.548 41.164 205.52 41.0999C205.492 41.0359 205.478 40.9676 205.478 40.8952C205.478 40.8228 205.492 40.7545 205.52 40.6905C205.548 40.6236 205.585 40.5665 205.633 40.5192C205.68 40.469 205.736 40.43 205.8 40.4022C205.864 40.3743 205.932 40.3604 206.005 40.3604C206.077 40.3604 206.145 40.3743 206.209 40.4022C206.276 40.43 206.333 40.469 206.381 40.5192C206.431 40.5665 206.47 40.6236 206.498 40.6905C206.526 40.7545 206.539 40.8228 206.539 40.8952Z" fill="white"/>
<path d="M212.172 38.1209C212.172 38.3465 212.165 38.5875 212.151 38.8437C212.137 39.1 212.106 39.3535 212.059 39.6041C212.014 39.8548 211.947 40.0972 211.858 40.3311C211.772 40.5623 211.655 40.7657 211.507 40.9412C211.362 41.1166 211.183 41.2573 210.968 41.3632C210.754 41.469 210.498 41.5219 210.2 41.5219C209.966 41.5219 209.762 41.4787 209.59 41.3924C209.417 41.3088 209.268 41.196 209.142 41.054C209.02 40.9119 208.918 40.7476 208.837 40.5609C208.757 40.3743 208.693 40.1807 208.645 39.9802C208.598 39.7768 208.565 39.5721 208.545 39.366C208.528 39.1599 208.52 38.9677 208.52 38.7894C208.52 38.5638 208.528 38.32 208.545 38.0582C208.562 37.7964 208.595 37.5359 208.645 37.2769C208.695 37.0179 208.765 36.7686 208.854 36.529C208.946 36.2895 209.066 36.0778 209.214 35.8939C209.364 35.7101 209.546 35.5638 209.761 35.4552C209.975 35.3438 210.23 35.2881 210.525 35.2881C210.759 35.2881 210.963 35.334 211.135 35.426C211.311 35.5151 211.459 35.6363 211.578 35.7895C211.701 35.9399 211.8 36.1126 211.875 36.3076C211.953 36.5025 212.014 36.7059 212.059 36.9176C212.103 37.1265 212.133 37.3354 212.147 37.5443C212.163 37.7504 212.172 37.9426 212.172 38.1209ZM211.353 38.171C211.353 38.0763 211.35 37.9593 211.344 37.8201C211.339 37.678 211.326 37.5304 211.307 37.3772C211.287 37.2212 211.258 37.0652 211.219 36.9092C211.18 36.7532 211.126 36.614 211.056 36.4914C210.989 36.3661 210.904 36.2658 210.801 36.1906C210.701 36.1126 210.578 36.0736 210.434 36.0736C210.25 36.0736 210.094 36.1237 209.966 36.224C209.84 36.3215 209.736 36.451 209.652 36.6126C209.569 36.7741 209.503 36.9566 209.456 37.1599C209.409 37.3605 209.374 37.5638 209.351 37.7699C209.329 37.976 209.315 38.1752 209.31 38.3674C209.307 38.5568 209.305 38.7198 209.305 38.8562C209.305 38.9593 209.308 39.0777 209.314 39.2114C209.319 39.3423 209.332 39.4774 209.351 39.6167C209.374 39.7532 209.406 39.8883 209.447 40.022C209.489 40.1529 209.544 40.2699 209.61 40.3729C209.68 40.476 209.766 40.5596 209.869 40.6236C209.973 40.6877 210.097 40.7197 210.241 40.7197C210.422 40.7197 210.576 40.6738 210.701 40.5818C210.826 40.4899 210.929 40.3701 211.01 40.2225C211.094 40.0721 211.158 39.9036 211.202 39.717C211.25 39.5303 211.285 39.3437 211.307 39.1571C211.329 38.9677 211.342 38.7866 211.344 38.6139C211.35 38.4412 211.353 38.2936 211.353 38.171Z" fill="white"/>
<path d="M216.183 37.2017L215.481 37.2435L215.439 36.2992L213.96 36.3326L213.977 38.2379H215.222V38.8395L213.985 38.9147L214.002 40.6027L214.595 40.6362V41.3799L212.782 41.4216L212.757 40.6027H213.25L213.241 36.3326L212.723 36.3493L212.765 35.5388L216.141 35.497L216.183 37.2017Z" fill="white"/>
<path d="M219.847 40.5442L219.805 41.2963L218.084 41.3381L218.059 40.5609H218.552L218.543 36.2908L218.025 36.3076L218.067 35.497H219.722L219.788 36.2491L219.304 36.2908L219.262 40.5609L219.847 40.5442Z" fill="white"/>
<path d="M224.811 36.1655L224.326 36.2073L224.201 41.4049L223.474 41.4216L221.593 36.8758L221.635 40.5609L222.203 40.5442V41.2963L220.415 41.3381L220.39 40.5609H220.883L220.833 36.2908L220.315 36.3076L220.357 35.497H221.761L223.532 39.9342V36.2073L223.006 36.224L223.047 35.4134H224.752L224.811 36.1655Z" fill="white"/>
<path d="M228.993 38.4301C228.993 38.6724 228.976 38.9259 228.943 39.1905C228.912 39.4523 228.855 39.7072 228.772 39.9551C228.691 40.2002 228.579 40.4286 228.437 40.6403C228.298 40.852 228.118 41.0289 227.898 41.171C227.765 41.2601 227.62 41.3283 227.464 41.3757C227.311 41.423 227.155 41.4467 226.996 41.4467H226.971L225.291 41.4216L225.266 40.6529H225.759L225.751 36.2491L225.274 36.2658L225.233 35.4552C225.478 35.4385 225.72 35.4274 225.96 35.4218C226.202 35.4162 226.447 35.4134 226.695 35.4134H227.171C227.425 35.4134 227.646 35.4608 227.836 35.5555C228.025 35.6502 228.187 35.7769 228.32 35.9357C228.457 36.0945 228.568 36.2769 228.655 36.483C228.741 36.6892 228.809 36.905 228.859 37.1307C228.909 37.3535 228.944 37.5777 228.964 37.8033C228.983 38.0262 228.993 38.2351 228.993 38.4301ZM228.224 38.3298V38.2546C228.224 38.1599 228.217 38.0443 228.203 37.9078C228.192 37.7685 228.173 37.6223 228.145 37.4691C228.117 37.3159 228.078 37.1641 228.028 37.0137C227.978 36.8633 227.916 36.7282 227.844 36.6084C227.772 36.4858 227.684 36.3869 227.581 36.3117C227.481 36.2365 227.364 36.1989 227.23 36.1989H226.962C226.887 36.1989 226.812 36.1989 226.737 36.1989C226.662 36.1989 226.586 36.2017 226.511 36.2073L226.469 40.6946C226.525 40.7002 226.579 40.7044 226.632 40.7072C226.685 40.71 226.74 40.7114 226.795 40.7114C226.943 40.7114 227.088 40.703 227.23 40.6863C227.386 40.6612 227.518 40.6027 227.627 40.5108C227.738 40.4161 227.83 40.3019 227.903 40.1682C227.978 40.0317 228.036 39.8813 228.078 39.717C228.12 39.5526 228.152 39.3883 228.174 39.2239C228.196 39.0568 228.21 38.8952 228.216 38.7393C228.221 38.5833 228.224 38.4468 228.224 38.3298Z" fill="white"/>
<path d="M231.354 40.5442L231.312 41.2963L229.59 41.3381L229.565 40.5609H230.058L230.05 36.2908L229.532 36.3076L229.574 35.497H231.228L231.295 36.2491L230.811 36.2908L230.769 40.5609L231.354 40.5442Z" fill="white"/>
<path d="M235.649 40.6946L235.59 41.4885L233.894 41.4467L233.852 40.6362L234.37 40.6529L234.153 39.4328L233.05 39.483L232.875 40.5693L233.359 40.6111L233.292 41.3632H231.596L231.554 40.5526L232.072 40.5693L232.983 36.107L232.557 36.1237L232.515 35.4134L234.646 35.3716L234.604 36.0402L234.186 36.0569L235.131 40.6529L235.649 40.6946ZM234.036 38.781L233.585 36.2156L233.167 38.781H234.036Z" fill="white"/>
<path d="M178.801 21.079V21.3229H177.543V29.1268H177.286L176.028 28.408V25.9564H173.397C173.312 26.7694 172.957 27.1758 172.332 27.1758C171.972 27.1758 171.673 27.0175 171.433 26.7009C171.202 26.3757 171.048 26.0121 170.971 25.6099C170.92 25.3874 170.894 25.1649 170.894 24.9425C170.894 24.8227 170.899 24.7328 170.907 24.6729H171.908V23.8643C171.181 23.5733 170.578 23.2097 170.099 22.7733C169.628 22.3369 169.393 21.8449 169.393 21.2972C169.393 20.8523 169.542 20.5143 169.842 20.2832C170.141 20.0436 170.531 19.9238 171.01 19.9238C171.395 19.9238 171.771 19.9966 172.139 20.142C172.507 20.2789 172.811 20.51 173.051 20.8351C173.299 21.1603 173.423 21.5796 173.423 22.093V24.6729H176.028V21.3229H174.116L173.577 20.2832V20.0265H178.249L178.801 21.079ZM170.727 21.7208C170.727 22.0203 170.843 22.2941 171.074 22.5422C171.305 22.7818 171.605 22.9829 171.972 23.1455C172.015 22.9487 172.049 22.7134 172.075 22.4396C172.109 22.1657 172.127 21.9433 172.127 21.7721C172.127 21.5496 172.058 21.3528 171.921 21.1817C171.793 21.0106 171.634 20.925 171.446 20.925C171.232 20.925 171.057 20.9892 170.92 21.1175C170.792 21.2459 170.727 21.447 170.727 21.7208Z" fill="white"/>
<path d="M182.848 21.079V21.3229H181.603V29.1268H181.346L180.075 28.408L180.063 21.3229H178.792L178.253 20.2832V20.0265H182.296L182.848 21.079Z" fill="white"/>
<path d="M188.591 21.3486H186.55C186.61 21.6652 186.657 22.0074 186.691 22.3754C186.726 22.7433 186.743 23.0685 186.743 23.3509C186.743 23.9071 186.614 24.3991 186.358 24.8269C186.101 25.2548 185.78 25.6527 185.395 26.0206L188.09 28.6134L187.295 29.2038L184.343 25.8281C184.231 25.6912 184.171 25.6184 184.163 25.6099C183.949 25.3789 183.795 25.1906 183.701 25.0451C183.615 24.8997 183.572 24.7414 183.572 24.5702C183.572 24.3649 183.649 24.1638 183.803 23.967C183.966 23.7616 184.133 23.6076 184.304 23.5049L185.049 23.967C185.108 23.8472 185.168 23.6589 185.228 23.4022C185.288 23.1455 185.318 22.8931 185.318 22.6449C185.318 22.2599 185.284 21.8192 185.215 21.3229H182.828L182.289 20.2832V20.0265H188.039L188.591 21.079V21.3486Z" fill="white"/>
<path d="M196.771 21.3229H195.513V29.1268H195.269L193.998 28.408V24.0568H192.009C191.538 24.0568 191.191 24.1595 190.969 24.3649C190.755 24.5702 190.648 24.8911 190.648 25.3275C190.648 26.1918 191.281 27.2485 192.548 28.4978L192.06 29.0241C191.247 28.331 190.571 27.6379 190.032 26.9448C189.502 26.2431 189.236 25.5329 189.236 24.8141C189.236 24.1552 189.42 23.6418 189.788 23.2739C190.165 22.8974 190.798 22.7091 191.688 22.7091H193.998V21.3229H188.569L188.03 20.2832V20.0265H196.219L196.771 21.079V21.3229Z" fill="white"/>
<path d="M208.829 21.0918V21.3357H207.571V29.1396H207.314L206.043 28.4208V25.9308H206.018C205.65 26.0335 205.282 26.0848 204.914 26.0848C204.597 26.0848 204.259 25.9992 203.9 25.8281C203.541 25.657 203.203 25.4388 202.886 25.1735H202.847C202.659 25.4473 202.411 25.7297 202.103 26.0206L204.863 28.6134L204.054 29.2038L201.05 25.8281C200.768 25.5115 200.567 25.2719 200.447 25.1093C200.336 24.9382 200.28 24.7585 200.28 24.5702C200.28 24.3649 200.357 24.1638 200.511 23.967C200.674 23.7616 200.841 23.6076 201.012 23.5049L201.756 23.967C201.816 23.8472 201.876 23.6589 201.936 23.4022C201.996 23.1455 202.026 22.8931 202.026 22.6449C202.026 22.2855 201.996 21.8449 201.936 21.3229H199.562L199.022 20.2832V20.0265H208.277L208.829 21.0918ZM204.606 24.6472C205.188 24.6472 205.667 24.5574 206.043 24.3777V21.3357H203.258C203.387 22.0545 203.451 22.7262 203.451 23.3509C203.451 23.6846 203.395 24.0097 203.284 24.3264C203.489 24.429 203.712 24.5103 203.951 24.5702C204.191 24.6301 204.409 24.6601 204.606 24.6601V24.6472Z" fill="white"/>
<path d="M214.575 21.3486H212.534C212.594 21.6652 212.641 22.0074 212.675 22.3754C212.71 22.7433 212.727 23.0685 212.727 23.3509C212.727 23.9071 212.598 24.3991 212.342 24.8269C212.085 25.2548 211.764 25.6527 211.379 26.0206L214.075 28.6134L213.279 29.2038L210.327 25.8281C210.215 25.6912 210.155 25.6184 210.147 25.6099C209.933 25.3789 209.779 25.1906 209.685 25.0451C209.599 24.8997 209.557 24.7414 209.557 24.5702C209.557 24.3649 209.634 24.1638 209.788 23.967C209.95 23.7616 210.117 23.6076 210.288 23.5049L211.033 23.967C211.092 23.8472 211.152 23.6589 211.212 23.4022C211.272 23.1455 211.302 22.8931 211.302 22.6449C211.302 22.2599 211.268 21.8192 211.199 21.3229H208.812L208.273 20.2832V20.0265H214.023L214.575 21.079V21.3486Z" fill="white"/>
<path d="M221.189 21.2972V23.5306C221.771 23.0685 222.314 22.8375 222.819 22.8375C223.281 22.8375 223.687 22.953 224.038 23.184C224.398 23.4065 224.676 23.7145 224.872 24.1082C225.069 24.4932 225.168 24.9211 225.168 25.3917C225.168 25.7596 225.104 26.2046 224.975 26.7266C224.855 27.24 224.689 27.7192 224.475 28.1641L223.153 27.1886C223.418 26.8378 223.675 26.4314 223.923 25.9693C224.171 25.4987 224.295 25.1307 224.295 24.8654C224.295 24.6173 224.209 24.4162 224.038 24.2622C223.867 24.0996 223.636 24.0183 223.345 24.0183C223.003 24.0183 222.652 24.121 222.293 24.3264C221.942 24.5317 221.574 24.8013 221.189 25.135V29.1139H220.932L219.61 28.3695L219.713 26.3928L219.687 26.38C219.328 26.6538 218.99 26.8635 218.673 27.0089C218.365 27.1544 218.018 27.2271 217.633 27.2271C217.188 27.2271 216.782 27.1287 216.414 26.9319C216.046 26.7351 215.751 26.4485 215.528 26.072C215.314 25.6955 215.207 25.2505 215.207 24.7371C215.207 24.3435 215.284 23.9712 215.439 23.6204C215.601 23.261 215.836 22.9701 216.144 22.7476C216.453 22.5251 216.82 22.4139 217.248 22.4139C217.796 22.4139 218.258 22.5679 218.635 22.876C219.011 23.184 219.345 23.5905 219.636 24.0953V21.3229H214.553L214.014 20.2832V20.0265H225.206L225.745 21.079V21.3229L221.189 21.2972ZM217.158 25.9436C217.603 25.9436 218.036 25.8495 218.455 25.6612C218.874 25.4644 219.268 25.212 219.636 24.9039V24.8141C219.465 24.5916 219.191 24.382 218.814 24.1852C218.446 23.9798 218.074 23.8728 217.698 23.8643C217.424 23.8643 217.141 23.9071 216.85 23.9926C216.568 24.0782 216.328 24.2108 216.132 24.3905C215.935 24.5617 215.836 24.7756 215.836 25.0323C215.836 25.289 215.969 25.5029 216.234 25.6741C216.5 25.8452 216.803 25.9308 217.146 25.9308L217.158 25.9436Z" fill="white"/>
<path d="M229.777 21.079V21.3229H228.532V29.1268H228.275L227.005 28.408L226.992 21.3229H225.721L225.182 20.2832V20.0265H229.225L229.777 21.079Z" fill="white"/>
<path d="M235.52 21.3486H233.48C233.539 21.6652 233.586 22.0074 233.621 22.3754C233.655 22.7433 233.672 23.0685 233.672 23.3509C233.672 23.9071 233.544 24.3991 233.287 24.8269C233.03 25.2548 232.709 25.6527 232.324 26.0206L235.02 28.6134L234.224 29.2038L231.272 25.8281C231.161 25.6912 231.101 25.6184 231.092 25.6099C230.878 25.3789 230.724 25.1906 230.63 25.0451C230.544 24.8997 230.502 24.7414 230.502 24.5702C230.502 24.3649 230.579 24.1638 230.733 23.967C230.895 23.7616 231.062 23.6076 231.233 23.5049L231.978 23.967C232.038 23.8472 232.098 23.6589 232.157 23.4022C232.217 23.1455 232.247 22.8931 232.247 22.6449C232.247 22.2599 232.213 21.8192 232.145 21.3229H229.757L229.218 20.2832V20.0265H234.968L235.52 21.079V21.3486Z" fill="white"/>
<path d="M20.6034 55.2412H104.568C106.064 55.2412 107.277 56.454 107.277 57.95C107.277 59.4461 106.064 60.6589 104.568 60.6589H20.6034C19.1073 60.6589 17.8945 59.4461 17.8945 57.95C17.8945 56.454 19.1073 55.2412 20.6034 55.2412Z" fill="white" stroke="#263238"/>
<path d="M20.6034 65.9375H140.935C142.431 65.9375 143.644 67.1503 143.644 68.6463C143.644 70.1424 142.431 71.3552 140.935 71.3552H20.6034C19.1073 71.3552 17.8945 70.1424 17.8945 68.6463C17.8945 67.1503 19.1073 65.9375 20.6034 65.9375Z" fill="white" stroke="#263238"/>
<path d="M19.5338 80.9121H55.9006C56.8059 80.9121 57.5398 81.646 57.5398 82.5513C57.5398 83.4567 56.8059 84.1906 55.9006 84.1906H19.5338C18.6284 84.1906 17.8945 83.4567 17.8945 82.5513C17.8945 81.646 18.6284 80.9121 19.5338 80.9121Z" fill="white" stroke="#263238"/>
<path d="M21.6749 98.0254H85.8517C87.9385 98.0254 89.6302 99.7171 89.6302 101.804C89.6302 103.891 87.9385 105.582 85.8517 105.582H21.6749C19.5882 105.582 17.8965 103.891 17.8965 101.804C17.8965 99.7171 19.5882 98.0254 21.6749 98.0254Z" fill="white" stroke="#263238"/>
<path d="M25.9512 144.589C25.9512 139.048 42.3519 132.004 41.3337 127.923C40.061 122.823 24.9048 122.295 26.9048 127.923C28.9047 133.552 32.9864 143.995 36.259 140.125C39.5317 136.256 35.4661 131.265 35.4661 136.894C35.4661 142.522 44.1771 138.652 43.9953 136.894C43.8135 135.135 39.0863 133.684 43.9953 133.508C48.9043 133.332 52.6941 132.145 49.4214 135.662C46.1488 139.18 46.1567 131.649 48.3113 129.814C50.5315 127.923 53.0688 127.923 54.4961 129.814C56.8721 132.962 56.7223 135.662 55.6314 135.662C51.9587 135.662 53.0744 126.721 59.095 129.814C64.4868 132.584 68.7685 131.507 77.6491 123.196" stroke="white" stroke-linecap="round"/>
<path d="M129.832 41.6838C123.61 41.6838 118.566 36.64 118.566 30.4181C118.566 24.1962 123.61 19.1523 129.832 19.1523C136.054 19.1523 141.098 24.1962 141.098 30.4181C141.098 36.64 136.054 41.6838 129.832 41.6838Z" fill="white" stroke="#263238"/>
</svg>
