<svg width="339" height="257" viewBox="0 0 339 257" fill="none" xmlns="http://www.w3.org/2000/svg">
<path d="M58.8042 153.932C56.1722 160.411 53.4802 155.199 53.9076 128.039C54.1101 115.291 55.0024 89.2933 69.0849 95.0448C82.5824 100.541 64.7881 139.002 64.7881 139.002L58.8042 153.932ZM78.1357 157.786C78.1357 157.786 107.493 127.199 96.4849 117.601C85.027 107.613 75.7287 131.923 71.4019 143.899C62.1786 169.454 63.0335 175.258 67.6526 169.979L78.1357 157.786ZM84.3671 185.276C84.3671 185.276 111.242 166.14 104.216 157.209C96.8973 147.91 86.2718 165.15 81.2252 173.706C70.4721 191.905 70.2846 196.464 74.5589 193.097L84.3671 185.276ZM91.6408 212.639C91.6408 212.639 118.516 193.51 111.49 184.579C104.171 175.28 93.5455 192.52 88.5064 201.076C77.7458 219.275 77.5583 223.834 81.8326 220.467L91.6408 212.639ZM44.7067 157.614C44.7067 157.614 7.10851 138.042 0.989607 151.307C-5.37675 165.105 20.5686 167.197 33.2788 167.977C60.3939 169.649 65.7255 167.227 59.3666 164.28L44.7067 157.614ZM50.0008 179.165C50.0008 179.165 9.26062 167.452 5.90122 181.669C2.40685 196.457 28.2472 193.352 40.8599 191.59C67.7651 187.841 72.5042 184.376 65.6955 182.779L50.0008 179.165ZM59.3291 202.65C59.3291 202.65 24.6029 193.697 22.0908 205.792C19.4813 218.383 41.2649 215.151 51.8829 213.374C74.5514 209.579 78.4807 206.542 72.6842 205.35L59.3291 202.65ZM64.7281 222.019C64.7281 222.019 31.1267 209.414 27.3774 221.18C23.4406 233.417 45.4416 232.518 56.1947 231.88C79.1405 230.508 83.3623 227.906 77.7308 226.106L64.7281 222.019ZM42.2322 123.787C42.2322 123.787 26.8974 76.1482 9.50058 84.7941C-8.61616 93.7925 12.3276 115.269 22.7957 125.557C45.1342 147.498 52.0404 149.043 49.101 141.379L42.2322 123.787Z" fill="#005598"/>
<path opacity="0.8" d="M58.8042 153.932C56.1722 160.411 53.4802 155.199 53.9076 128.039C54.1101 115.291 55.0024 89.2933 69.0849 95.0448C82.5824 100.541 64.7881 139.002 64.7881 139.002L58.8042 153.932ZM78.1357 157.786C78.1357 157.786 107.493 127.199 96.4849 117.601C85.027 107.613 75.7287 131.923 71.4019 143.899C62.1786 169.454 63.0335 175.258 67.6526 169.979L78.1357 157.786ZM84.3671 185.276C84.3671 185.276 111.242 166.14 104.216 157.209C96.8973 147.91 86.2718 165.15 81.2252 173.706C70.4721 191.905 70.2846 196.464 74.5589 193.097L84.3671 185.276ZM91.6408 212.639C91.6408 212.639 118.516 193.51 111.49 184.579C104.171 175.28 93.5455 192.52 88.5064 201.076C77.7458 219.275 77.5583 223.834 81.8326 220.467L91.6408 212.639ZM44.7067 157.614C44.7067 157.614 7.10851 138.042 0.989607 151.307C-5.37675 165.105 20.5686 167.197 33.2788 167.977C60.3939 169.649 65.7255 167.227 59.3666 164.28L44.7067 157.614ZM50.0008 179.165C50.0008 179.165 9.26062 167.452 5.90122 181.669C2.40685 196.457 28.2472 193.352 40.8599 191.59C67.7651 187.841 72.5042 184.376 65.6955 182.779L50.0008 179.165ZM59.3291 202.65C59.3291 202.65 24.6029 193.697 22.0908 205.792C19.4813 218.383 41.2649 215.151 51.8829 213.374C74.5514 209.579 78.4807 206.542 72.6842 205.35L59.3291 202.65ZM64.7281 222.019C64.7281 222.019 31.1267 209.414 27.3774 221.18C23.4406 233.417 45.4416 232.518 56.1947 231.88C79.1405 230.508 83.3623 227.906 77.7308 226.106L64.7281 222.019ZM42.2322 123.787C42.2322 123.787 26.8974 76.1482 9.50058 84.7941C-8.61616 93.7925 12.3276 115.269 22.7957 125.557C45.1342 147.498 52.0404 149.043 49.101 141.379L42.2322 123.787Z" fill="white"/>
<path d="M83.5561 256.047C83.4366 256.048 83.3217 256.002 83.2351 255.919C83.1485 255.837 83.097 255.724 83.0912 255.605C81.6515 230.252 74.5428 199.148 64.0671 172.37C54.9863 149.192 16.8256 102.483 16.4282 102.01C16.3505 101.913 16.314 101.79 16.3267 101.666C16.3393 101.543 16.4 101.429 16.4957 101.35C16.5432 101.311 16.5981 101.281 16.6572 101.263C16.7163 101.245 16.7784 101.239 16.8398 101.246C16.9012 101.252 16.9608 101.27 17.015 101.3C17.0692 101.329 17.117 101.369 17.1556 101.418C17.5455 101.89 55.8111 148.719 64.9445 172.033C75.4426 198.855 82.5888 230.065 84.0286 255.515C84.0347 255.639 83.9917 255.761 83.9089 255.853C83.8261 255.946 83.7101 256.002 83.5861 256.01L83.5561 256.047Z" fill="#263238"/>
<path d="M56.8432 157.375H56.7907C56.6665 157.359 56.5533 157.296 56.4759 157.197C56.3986 157.099 56.3635 156.974 56.3783 156.85L61.7324 112.06C61.7374 111.997 61.7552 111.935 61.7847 111.879C61.8142 111.822 61.8547 111.772 61.904 111.732C61.9532 111.692 62.0101 111.662 62.0712 111.644C62.1323 111.626 62.1964 111.621 62.2596 111.628C62.3228 111.636 62.3838 111.656 62.439 111.688C62.4941 111.72 62.5423 111.762 62.5806 111.813C62.6189 111.864 62.6465 111.922 62.6619 111.984C62.6772 112.046 62.6798 112.11 62.6697 112.173L57.3157 156.962C57.2995 157.076 57.2428 157.18 57.1561 157.256C57.0694 157.332 56.9584 157.374 56.8432 157.375V157.375Z" fill="#263238"/>
<path d="M64.5117 172.707C64.4359 172.709 64.361 172.691 64.2942 172.655C64.2393 172.627 64.1904 172.589 64.1505 172.542C64.1105 172.495 64.0802 172.441 64.0614 172.382C64.0425 172.324 64.0355 172.262 64.0407 172.201C64.046 172.139 64.0633 172.08 64.0918 172.025L83.4608 134.374C83.4888 134.32 83.5274 134.271 83.5742 134.231C83.6211 134.191 83.6753 134.161 83.7338 134.143C83.7923 134.124 83.8539 134.117 83.9151 134.122C83.9764 134.127 84.036 134.144 84.0907 134.172C84.1453 134.2 84.1939 134.238 84.2336 134.285C84.2734 134.332 84.3035 134.386 84.3223 134.445C84.3411 134.503 84.3482 134.565 84.3432 134.626C84.3382 134.687 84.3212 134.747 84.2931 134.802L64.9241 172.452C64.8862 172.529 64.8274 172.594 64.7544 172.639C64.6815 172.684 64.5974 172.708 64.5117 172.707V172.707Z" fill="#263238"/>
<path d="M61.6738 167.129H61.5838L21.0236 158.88C20.9104 158.847 20.8138 158.772 20.753 158.671C20.6922 158.57 20.6715 158.449 20.695 158.333C20.7185 158.218 20.7846 158.115 20.8801 158.045C20.9756 157.976 21.0937 157.945 21.2111 157.958L61.7713 166.207C61.8813 166.235 61.9775 166.301 62.0424 166.394C62.1072 166.487 62.1364 166.601 62.1246 166.714C62.1127 166.827 62.0607 166.931 61.9779 167.009C61.8952 167.087 61.7872 167.132 61.6738 167.136V167.129Z" fill="#263238"/>
<path d="M72.1277 194.073C72.0148 194.075 71.9053 194.035 71.8202 193.961C71.7734 193.92 71.7351 193.87 71.7074 193.815C71.6798 193.759 71.6635 193.699 71.6593 193.637C71.6551 193.575 71.6632 193.512 71.6831 193.453C71.703 193.395 71.7343 193.34 71.7752 193.294L95.6134 166.126C95.6543 166.079 95.7039 166.041 95.7596 166.013C95.8152 165.985 95.8758 165.969 95.9378 165.965C95.9998 165.961 96.062 165.969 96.1209 165.989C96.1797 166.009 96.2341 166.04 96.2808 166.081C96.3244 166.124 96.3589 166.176 96.3825 166.232C96.406 166.289 96.4182 166.349 96.4182 166.411C96.4182 166.472 96.406 166.533 96.3825 166.59C96.3589 166.646 96.3244 166.698 96.2808 166.741L72.4351 193.916C72.3557 194.005 72.2461 194.061 72.1277 194.073Z" fill="#263238"/>
<path d="M68.7925 185.118L38.168 184.855C38.0441 184.853 37.9258 184.803 37.8388 184.714C37.7519 184.626 37.7031 184.507 37.7031 184.383C37.7031 184.321 37.7154 184.26 37.7392 184.203C37.7631 184.146 37.798 184.095 37.8419 184.052C37.8859 184.008 37.938 183.974 37.9953 183.951C38.0526 183.928 38.1139 183.917 38.1755 183.918V183.918L68.8 184.18C68.9234 184.184 69.0406 184.236 69.1271 184.324C69.2137 184.412 69.2631 184.529 69.265 184.653C69.265 184.715 69.2527 184.776 69.2289 184.833C69.205 184.889 69.1701 184.941 69.1261 184.984C69.0822 185.028 69.03 185.062 68.9728 185.085C68.9155 185.108 68.8542 185.119 68.7925 185.118V185.118Z" fill="#263238"/>
<path d="M51.2099 208.281C51.0958 208.267 50.9909 208.211 50.9149 208.125C50.8388 208.039 50.7969 207.928 50.7969 207.813C50.7969 207.698 50.8388 207.587 50.9149 207.5C50.9909 207.414 51.0958 207.358 51.2099 207.344L74.6957 206.414C74.7616 206.404 74.8291 206.407 74.8936 206.424C74.9581 206.442 75.0181 206.473 75.0698 206.515C75.1215 206.557 75.1637 206.61 75.1935 206.67C75.2233 206.73 75.2401 206.795 75.2428 206.862C75.2454 206.928 75.2339 206.995 75.209 207.057C75.184 207.119 75.1463 207.175 75.0981 207.221C75.0499 207.267 74.9925 207.303 74.9296 207.326C74.8667 207.348 74.7997 207.357 74.7332 207.352L51.2474 208.281H51.2099Z" fill="#263238"/>
<path d="M79.5153 221.54C79.4134 221.539 79.3142 221.508 79.2303 221.45C79.1312 221.374 79.0661 221.262 79.0493 221.139C79.0324 221.015 79.0651 220.89 79.1403 220.79L91.7156 204.023C91.7903 203.923 91.9017 203.856 92.0254 203.838C92.149 203.82 92.2749 203.851 92.3754 203.926C92.4745 204.002 92.5396 204.113 92.5565 204.237C92.5734 204.361 92.5406 204.486 92.4654 204.586L79.8677 221.353C79.8273 221.409 79.7745 221.455 79.7134 221.488C79.6523 221.52 79.5845 221.538 79.5153 221.54V221.54Z" fill="#263238"/>
<path d="M80.4379 227.779L52.9703 226.414C52.9093 226.412 52.8494 226.397 52.794 226.371C52.7387 226.345 52.6891 226.308 52.648 226.263C52.6069 226.217 52.5752 226.164 52.5546 226.107C52.5339 226.049 52.5249 225.988 52.5279 225.927C52.5287 225.864 52.5425 225.802 52.5682 225.745C52.594 225.688 52.6312 225.637 52.6776 225.595C52.724 225.552 52.7786 225.52 52.838 225.5C52.8974 225.48 52.9603 225.472 53.0228 225.477L80.4904 226.842C80.6144 226.85 80.7304 226.906 80.8132 226.999C80.896 227.091 80.939 227.213 80.9328 227.337C80.9251 227.461 80.8688 227.577 80.7762 227.66C80.6835 227.742 80.562 227.785 80.4379 227.779V227.779Z" fill="#263238"/>
<path d="M325.861 80.8591L112.266 5.50136C107.742 3.90524 102.774 6.29547 101.171 10.8401L57.1559 135.597C55.5526 140.142 57.9203 145.12 62.4443 146.716L276.04 222.074C280.564 223.67 285.531 221.28 287.134 216.735L331.15 91.9779C332.753 87.4333 330.385 82.4552 325.861 80.8591Z" fill="#005598" stroke="#263238" stroke-linecap="round" stroke-linejoin="round"/>
<path d="M323.474 72.4672L105.479 10.9858C100.862 9.68358 96.0587 12.388 94.7506 17.0262L58.8403 144.353C57.5322 148.991 60.2148 153.807 64.8321 155.109L282.827 216.591C287.444 217.893 292.248 215.189 293.556 210.55L329.466 83.2233C330.774 78.5851 328.092 73.7694 323.474 72.4672Z" fill="#6699C1"/>
<path opacity="0.1" fill-rule="evenodd" clip-rule="evenodd" d="M77.0088 79.9472L271.998 57.9481L323.478 72.4672C328.096 73.7694 330.778 78.5851 329.47 83.2233L325.084 98.776L63.0659 129.385L77.0088 79.9472Z" fill="white"/>
<path d="M296.74 154.422L255.879 141.738L240.658 190.772L281.52 203.455L296.74 154.422Z" fill="white"/>
<path opacity="0.2" d="M293.632 104.058L283.253 101.13C274.748 98.7316 265.909 103.682 263.51 112.186L260.583 122.566C258.184 131.071 263.134 139.91 271.639 142.308L282.019 145.236C290.524 147.634 299.363 142.684 301.761 134.18L304.689 123.8C307.087 115.295 302.137 106.456 293.632 104.058Z" fill="white"/>
<path opacity="0.2" d="M271.31 119.99C269.546 126.244 273.186 132.744 279.44 134.508C285.695 136.272 292.194 132.632 293.958 126.377C295.722 120.123 292.082 113.624 285.828 111.86C279.574 110.096 273.074 113.736 271.31 119.99Z" fill="white"/>
<path d="M280.565 187.995C280.023 187.2 279.42 186.449 278.762 185.748L278.603 185.563L278.393 185.316L278.107 184.973L277.94 184.766C277.781 184.572 277.619 184.373 277.452 184.157C275.143 181.215 271.736 175.678 271.736 175.678L269.649 175L269.683 174.875L267.963 174.449L266.273 173.896L266.22 174.013L264.083 173.497C264.083 173.497 258.262 176.391 254.75 177.673C254.514 177.761 254.289 177.84 254.066 177.916C252.168 178.566 251.022 178.831 250.203 179.287C250.18 179.338 249.978 180.087 249.66 181.21L279.873 189.877C280.129 189.127 280.346 188.485 280.565 187.995Z" fill="#263238"/>
<path d="M278.405 193.255L249.005 184.963C248.849 186.107 247.96 188.062 247.804 189.222L277.204 197.513C277.361 196.349 278.236 194.399 278.405 193.255Z" fill="#263238"/>
<path d="M265.626 182.183L263.658 189.438L265.465 189.956L266.861 182.427C266.861 182.427 265.941 181.84 265.626 182.183Z" fill="white"/>
<path d="M263.607 189.577C263.574 189.562 263.548 189.536 263.533 189.505C263.517 189.473 263.514 189.437 263.522 189.402L265.49 182.147C265.494 182.123 265.504 182.1 265.519 182.081C265.906 181.657 266.84 182.232 266.945 182.301C266.97 182.317 266.989 182.34 267.001 182.367C267.012 182.394 267.015 182.424 267.009 182.453L265.62 189.984C265.617 190.005 265.61 190.025 265.598 190.043C265.586 190.06 265.571 190.075 265.553 190.086C265.535 190.097 265.515 190.104 265.494 190.107C265.473 190.11 265.452 190.108 265.432 190.102L263.625 189.585L263.607 189.577ZM265.77 182.268L263.857 189.32L265.364 189.751L266.711 182.491C266.379 182.32 265.929 182.146 265.762 182.264L265.77 182.268Z" fill="#263238"/>
<path d="M265.947 184.543C265.958 184.505 265.961 184.466 265.956 184.427C265.952 184.388 265.94 184.35 265.921 184.316C265.902 184.282 265.876 184.252 265.846 184.228C265.815 184.203 265.78 184.185 265.742 184.175C265.686 184.159 265.626 184.16 265.57 184.178C265.514 184.196 265.465 184.23 265.429 184.276C265.393 184.322 265.371 184.378 265.366 184.436C265.361 184.495 265.374 184.553 265.402 184.604C265.431 184.656 265.474 184.697 265.526 184.724C265.578 184.751 265.637 184.762 265.695 184.755C265.753 184.749 265.808 184.725 265.853 184.687C265.898 184.649 265.93 184.599 265.947 184.543V184.543Z" fill="white"/>
<path d="M265.484 184.858C265.395 184.819 265.322 184.75 265.276 184.664C265.219 184.561 265.204 184.439 265.234 184.325C265.251 184.268 265.279 184.216 265.316 184.17C265.353 184.124 265.399 184.085 265.451 184.057C265.528 184.013 265.617 183.992 265.706 183.999C265.795 184.005 265.88 184.038 265.95 184.094C266.02 184.149 266.071 184.224 266.098 184.309C266.125 184.395 266.125 184.486 266.099 184.571C266.084 184.628 266.058 184.682 266.021 184.728C265.985 184.775 265.939 184.813 265.887 184.841C265.836 184.869 265.78 184.887 265.722 184.894C265.664 184.9 265.605 184.895 265.549 184.879L265.484 184.858ZM265.727 184.313L265.709 184.305C265.691 184.298 265.671 184.296 265.652 184.298C265.633 184.3 265.615 184.307 265.598 184.316C265.581 184.325 265.566 184.337 265.554 184.352C265.542 184.368 265.533 184.385 265.528 184.404C265.522 184.422 265.52 184.441 265.522 184.461C265.524 184.48 265.531 184.498 265.54 184.515C265.56 184.548 265.591 184.573 265.628 184.584C265.646 184.591 265.665 184.593 265.685 184.591C265.704 184.589 265.722 184.582 265.739 184.572C265.772 184.554 265.797 184.522 265.808 184.485C265.814 184.452 265.809 184.419 265.793 184.39C265.778 184.36 265.753 184.337 265.722 184.324L265.727 184.313Z" fill="#263238"/>
<path d="M265.24 188.096C265.255 188.058 265.261 188.017 265.259 187.976C265.257 187.935 265.246 187.895 265.227 187.858C265.209 187.821 265.183 187.789 265.151 187.763C265.12 187.737 265.083 187.717 265.044 187.706C265.004 187.695 264.963 187.692 264.922 187.698C264.882 187.703 264.843 187.717 264.808 187.738C264.773 187.76 264.742 187.788 264.719 187.822C264.695 187.856 264.679 187.894 264.671 187.934C264.66 187.971 264.656 188.01 264.66 188.049C264.664 188.088 264.676 188.125 264.695 188.159C264.713 188.194 264.739 188.224 264.769 188.248C264.8 188.272 264.835 188.29 264.872 188.3C264.91 188.311 264.949 188.315 264.988 188.31C265.027 188.306 265.064 188.294 265.099 188.275C265.133 188.256 265.163 188.23 265.187 188.2C265.212 188.169 265.23 188.134 265.24 188.096V188.096Z" fill="white"/>
<path d="M264.773 188.422C264.672 188.378 264.591 188.297 264.547 188.196C264.503 188.095 264.498 187.981 264.533 187.876C264.547 187.819 264.573 187.766 264.609 187.72C264.646 187.674 264.692 187.637 264.744 187.61C264.822 187.566 264.911 187.545 265 187.552C265.089 187.559 265.174 187.592 265.244 187.647C265.313 187.702 265.365 187.778 265.392 187.863C265.419 187.948 265.419 188.039 265.393 188.124C265.378 188.182 265.352 188.235 265.315 188.281C265.279 188.328 265.233 188.366 265.181 188.394C265.077 188.45 264.956 188.464 264.843 188.432L264.773 188.422ZM265.015 187.881L264.996 187.872C264.973 187.865 264.948 187.864 264.924 187.869C264.9 187.873 264.877 187.884 264.859 187.899C264.84 187.915 264.825 187.935 264.815 187.958C264.806 187.98 264.803 188.005 264.805 188.029C264.808 188.054 264.816 188.077 264.83 188.097C264.844 188.118 264.862 188.134 264.884 188.146C264.906 188.157 264.93 188.163 264.954 188.163C264.979 188.162 265.003 188.156 265.024 188.144C265.042 188.135 265.057 188.123 265.069 188.108C265.081 188.093 265.089 188.075 265.094 188.057V188.057C265.105 188.023 265.103 187.986 265.088 187.953C265.074 187.921 265.047 187.895 265.015 187.881V187.881Z" fill="#263238"/>
<path d="M265.305 171.556C265.305 171.556 264.009 171.509 262.867 173.247C261.726 174.986 259.908 179.783 259.291 180.799C258.675 181.815 258.919 182.104 259.806 182.035C260.694 181.966 262.001 180.819 263.206 181.16C264.239 181.525 265.232 181.991 266.173 182.552C266.173 182.552 268.398 181.995 269.606 182.329C270.815 182.662 271.682 185.312 272.166 185.449C272.649 185.586 273.295 181.122 273.404 178.096C273.513 175.07 272.174 173.29 270.067 172.687C267.96 172.084 265.305 171.556 265.305 171.556Z" fill="white"/>
<path d="M259.094 182.119C259.002 182.08 258.924 182.015 258.871 181.931C258.718 181.683 258.81 181.311 259.165 180.722C259.404 180.324 259.843 179.312 260.349 178.142C261.104 176.393 262.045 174.217 262.744 173.164C263.923 171.38 265.256 171.405 265.312 171.407L265.334 171.417C265.36 171.429 268.029 171.971 270.12 172.572C272.456 173.242 273.663 175.209 273.566 178.131C273.486 180.502 272.966 185.136 272.355 185.579C272.325 185.603 272.289 185.619 272.252 185.627C272.214 185.635 272.175 185.633 272.138 185.623C271.892 185.553 271.678 185.198 271.286 184.522C270.841 183.748 270.226 182.686 269.555 182.497C268.406 182.168 266.23 182.702 266.205 182.709C266.168 182.718 266.128 182.713 266.094 182.694C265.164 182.139 264.181 181.677 263.161 181.313C262.467 181.117 261.705 181.466 261.031 181.776C260.652 181.98 260.242 182.121 259.817 182.191C259.574 182.225 259.326 182.201 259.094 182.119V182.119ZM265.291 171.71C265.166 171.715 264.02 171.783 262.999 173.321C262.321 174.336 261.384 176.513 260.63 178.25C260.105 179.425 259.677 180.46 259.424 180.869C259.063 181.472 259.086 181.684 259.131 181.762C259.175 181.839 259.331 181.913 259.8 181.876C260.187 181.805 260.562 181.676 260.911 181.494C261.629 181.165 262.447 180.788 263.249 181.019C264.275 181.377 265.263 181.838 266.196 182.397C266.57 182.305 268.51 181.876 269.651 182.184C270.429 182.408 271.059 183.485 271.555 184.352C271.723 184.699 271.94 185.02 272.201 185.304C272.562 184.978 273.166 181.277 273.272 178.1C273.367 175.332 272.225 173.464 270.044 172.841C268.041 172.28 265.51 171.751 265.293 171.706L265.291 171.71Z" fill="#263238"/>
<path d="M251.659 181.316C251.491 179.598 250.724 179.475 250.089 179.736C249.653 181.272 248.221 186.267 247.202 189.796L247.308 189.844C248.232 190.116 249.459 190.466 250.893 190.874L250.97 190.869C251.364 187.676 251.835 183.231 251.659 181.316Z" fill="white"/>
<path d="M247.135 189.939C247.102 189.924 247.075 189.897 247.061 189.863C247.046 189.83 247.043 189.793 247.053 189.758C248.016 186.423 249.488 181.301 249.941 179.698C249.946 179.675 249.958 179.654 249.973 179.637C249.988 179.619 250.008 179.605 250.03 179.597C250.194 179.518 250.375 179.48 250.558 179.485C250.741 179.49 250.919 179.539 251.079 179.627C251.474 179.873 251.718 180.439 251.8 181.306C251.983 183.197 251.534 187.556 251.121 190.877C251.117 190.916 251.098 190.951 251.068 190.976C251.038 191.001 250.999 191.014 250.96 191.011L250.894 191.012L250.861 190.998C249.423 190.588 248.193 190.245 247.272 189.965L247.159 189.915L247.135 189.939ZM250.209 179.853C249.736 181.512 248.33 186.419 247.38 189.706L250.837 190.697C251.242 187.412 251.68 183.167 251.507 181.333C251.434 180.563 251.239 180.076 250.927 179.879C250.817 179.821 250.695 179.788 250.571 179.784C250.447 179.779 250.323 179.803 250.209 179.853V179.853Z" fill="#263238"/>
<path d="M273.929 197.418C275.083 197.675 276.222 197.993 277.342 198.371C278.248 195.214 279.37 191.257 280.213 188.897C277.442 188.819 275.186 193.837 273.929 197.418Z" fill="white"/>
<path d="M273.877 197.539C273.848 197.526 273.824 197.503 273.809 197.474C273.798 197.456 273.792 197.436 273.789 197.416C273.787 197.395 273.79 197.374 273.797 197.354C275.188 193.386 277.431 188.669 280.227 188.733C280.251 188.731 280.275 188.736 280.296 188.745C280.318 188.755 280.337 188.77 280.352 188.788C280.364 188.809 280.373 188.832 280.375 188.856C280.378 188.88 280.376 188.904 280.369 188.928C279.567 191.165 278.494 194.912 277.634 197.918L277.5 198.385C277.495 198.405 277.485 198.424 277.472 198.44C277.458 198.456 277.442 198.469 277.423 198.478C277.406 198.488 277.387 198.494 277.367 198.496C277.348 198.498 277.328 198.495 277.309 198.489C276.194 198.113 275.06 197.796 273.911 197.542L273.877 197.539ZM280.007 189.038C277.395 189.242 275.237 194.19 274.126 197.286C275.119 197.511 276.143 197.796 277.25 198.159L277.342 197.845C278.177 194.924 279.214 191.306 280.007 189.038Z" fill="#263238"/>
<path d="M276.987 165.299C276.987 165.299 278.498 162.311 279.011 165.066C279.524 167.821 275.499 169.927 275.387 169.245C275.275 168.562 276.987 165.299 276.987 165.299Z" fill="white"/>
<path d="M275.399 169.483C275.354 169.464 275.314 169.435 275.283 169.396C275.253 169.358 275.233 169.313 275.224 169.264C275.104 168.552 276.671 165.575 276.855 165.232C276.934 165.056 277.675 163.652 278.392 163.757C278.763 163.813 279.02 164.231 279.171 165.041C279.469 166.637 278.342 167.881 277.637 168.476C276.818 169.177 275.831 169.637 275.425 169.495L275.399 169.483ZM278.402 164.069L278.344 164.043C277.955 163.988 277.351 164.917 277.126 165.362C276.46 166.597 275.438 168.736 275.525 169.201C275.587 169.229 276.008 169.193 276.69 168.777C277.888 168.061 279.163 166.654 278.868 165.081C278.757 164.513 278.593 164.154 278.402 164.069V164.069Z" fill="#263238"/>
<path d="M276.376 167.139L276.351 167.128C276.334 167.117 276.32 167.102 276.309 167.086C276.298 167.069 276.291 167.05 276.287 167.031C276.284 167.011 276.284 166.991 276.289 166.971C276.293 166.952 276.301 166.934 276.313 166.918C276.512 166.629 277.547 165.189 278.086 165.122C278.16 165.108 278.238 165.112 278.31 165.134C278.383 165.155 278.45 165.195 278.504 165.248C278.573 165.34 278.621 165.446 278.647 165.558C278.672 165.67 278.674 165.786 278.653 165.898C278.645 165.937 278.622 165.971 278.589 165.994C278.556 166.016 278.516 166.024 278.477 166.017C278.457 166.015 278.438 166.008 278.421 165.997C278.405 165.987 278.39 165.973 278.379 165.957C278.368 165.941 278.36 165.923 278.356 165.903C278.352 165.884 278.352 165.864 278.356 165.845C278.37 165.755 278.381 165.544 278.298 165.463C278.298 165.463 278.251 165.411 278.139 165.427C277.84 165.465 277.042 166.426 276.576 167.096C276.553 167.126 276.521 167.147 276.484 167.155C276.447 167.162 276.409 167.157 276.376 167.139V167.139Z" fill="#263238"/>
<path d="M277.297 167.538C277.274 167.528 277.254 167.513 277.239 167.494C277.224 167.475 277.214 167.452 277.209 167.428C277.203 167.389 277.212 167.349 277.235 167.317C277.257 167.284 277.292 167.262 277.331 167.254C277.429 167.232 277.518 167.179 277.586 167.104C277.654 167.03 277.698 166.936 277.711 166.836C277.715 166.817 277.715 166.798 277.71 166.78C277.705 166.762 277.696 166.745 277.683 166.731C277.467 166.592 277.213 166.525 276.957 166.538C276.937 166.538 276.918 166.534 276.9 166.527C276.882 166.519 276.865 166.508 276.852 166.494C276.838 166.48 276.827 166.464 276.819 166.446C276.812 166.428 276.808 166.408 276.809 166.389C276.808 166.369 276.811 166.349 276.819 166.331C276.826 166.312 276.837 166.296 276.851 166.282C276.865 166.268 276.882 166.257 276.9 166.25C276.919 166.243 276.939 166.239 276.958 166.24C277.299 166.225 277.635 166.329 277.908 166.533C277.95 166.578 277.982 166.633 277.999 166.693C278.017 166.752 278.02 166.815 278.009 166.877C277.987 167.039 277.916 167.191 277.804 167.312C277.693 167.433 277.547 167.516 277.387 167.552C277.356 167.555 277.325 167.55 277.297 167.538V167.538Z" fill="#263238"/>
<path d="M265.005 161.869C265.005 161.869 265.306 158.53 263.413 160.596C261.519 162.662 263.815 166.578 264.29 166.065C264.765 165.553 265.005 161.869 265.005 161.869Z" fill="white"/>
<path d="M264.028 166.227C263.946 166.186 263.87 166.133 263.804 166.069C263.044 165.374 261.66 162.287 263.304 160.496C263.861 159.888 264.302 159.668 264.642 159.82C265.294 160.111 265.172 161.691 265.154 161.88C265.127 162.272 264.894 165.625 264.403 166.165C264.356 166.216 264.294 166.249 264.226 166.26C264.158 166.271 264.089 166.259 264.028 166.227V166.227ZM264.523 160.096C264.318 160.004 263.967 160.221 263.524 160.7C262.443 161.881 262.79 163.749 263.416 164.991C263.774 165.704 264.111 165.973 264.191 165.961C264.503 165.617 264.765 163.261 264.853 161.864C264.916 161.212 264.853 160.243 264.523 160.096Z" fill="#263238"/>
<path d="M264.515 163.742C264.489 163.73 264.467 163.711 264.451 163.688C264.436 163.665 264.426 163.637 264.425 163.609C264.382 162.791 264.213 161.556 263.979 161.363C263.891 161.293 263.843 161.303 263.832 161.298C263.72 161.322 263.617 161.505 263.583 161.59C263.568 161.627 263.539 161.657 263.502 161.672C263.466 161.688 263.424 161.689 263.387 161.674C263.369 161.667 263.352 161.657 263.337 161.643C263.323 161.629 263.312 161.613 263.304 161.594C263.296 161.576 263.292 161.556 263.292 161.537C263.292 161.517 263.296 161.497 263.303 161.479C263.341 161.372 263.401 161.275 263.479 161.193C263.557 161.112 263.652 161.047 263.757 161.005C263.83 160.987 263.908 160.987 263.981 161.007C264.054 161.027 264.122 161.065 264.176 161.118C264.599 161.46 264.713 163.229 264.739 163.565C264.74 163.604 264.726 163.643 264.7 163.672C264.674 163.701 264.637 163.719 264.598 163.722C264.573 163.736 264.544 163.743 264.515 163.742Z" fill="#263238"/>
<path d="M263.52 163.591C263.504 163.588 263.489 163.581 263.476 163.571C263.359 163.456 263.279 163.308 263.248 163.147C263.217 162.985 263.237 162.818 263.304 162.668C263.329 162.612 263.366 162.561 263.412 162.521C263.458 162.48 263.513 162.45 263.572 162.432C263.913 162.405 264.252 162.495 264.535 162.687C264.552 162.697 264.566 162.71 264.578 162.726C264.589 162.742 264.598 162.76 264.602 162.78C264.607 162.799 264.607 162.819 264.604 162.838C264.601 162.858 264.594 162.876 264.583 162.893C264.573 162.91 264.56 162.925 264.544 162.937C264.528 162.949 264.51 162.958 264.491 162.962C264.471 162.967 264.451 162.967 264.432 162.964C264.412 162.96 264.394 162.952 264.377 162.941C264.166 162.795 263.915 162.718 263.658 162.721C263.641 162.727 263.625 162.736 263.611 162.748C263.597 162.76 263.586 162.774 263.579 162.791C263.537 162.884 263.524 162.987 263.542 163.087C263.56 163.187 263.608 163.279 263.68 163.35C263.71 163.378 263.728 163.416 263.73 163.456C263.731 163.496 263.717 163.536 263.69 163.565C263.667 163.586 263.639 163.599 263.609 163.603C263.579 163.608 263.548 163.603 263.52 163.591V163.591Z" fill="#263238"/>
<path d="M265.312 169.276C265.312 169.276 264.421 175.528 264.27 176.691C264.101 178.052 264.955 181.881 266.248 181.928C267.541 181.974 269.219 178.757 269.804 177.842C270.389 176.926 272.534 171.348 272.534 171.348L265.312 169.276Z" fill="white"/>
<path d="M265.918 181.999C265.727 181.907 265.56 181.773 265.43 181.606C264.517 180.534 263.98 177.813 264.122 176.668C264.265 175.524 265.153 169.319 265.159 169.256C265.159 169.234 265.163 169.213 265.172 169.194C265.181 169.174 265.193 169.156 265.21 169.142C265.228 169.131 265.248 169.123 265.269 169.12C265.29 169.116 265.312 169.117 265.333 169.123L272.559 171.196C272.579 171.201 272.598 171.21 272.614 171.224C272.63 171.237 272.643 171.254 272.652 171.273C272.661 171.291 272.667 171.312 272.667 171.332C272.668 171.353 272.664 171.374 272.655 171.393C272.555 171.616 270.504 176.994 269.914 177.912C269.825 178.052 269.714 178.24 269.579 178.465C268.528 180.227 267.315 182.105 266.215 182.062C266.113 182.059 266.012 182.038 265.918 181.999ZM265.435 169.463C265.295 170.476 264.56 175.66 264.424 176.702C264.288 177.744 264.817 180.392 265.66 181.405C265.729 181.503 265.817 181.586 265.919 181.648C266.021 181.711 266.135 181.751 266.254 181.767C267.263 181.801 268.666 179.445 269.342 178.315C269.478 178.091 269.592 177.895 269.681 177.755C270.2 176.946 271.989 172.343 272.338 171.444L265.435 169.463Z" fill="#263238"/>
<path d="M267.166 154.828C267.166 154.828 265.118 160.269 264.553 164.51C263.989 168.751 265.968 173.229 267.733 173.899C269.498 174.569 274.773 171.514 275.661 168.994C276.55 166.475 279.711 160.539 279.54 157.717C279.369 154.895 277.93 153.673 274.358 152.485C270.786 151.298 267.599 152.179 267.166 154.828Z" fill="white"/>
<path d="M267.588 174C265.713 173.163 263.851 168.601 264.408 164.493C264.965 160.385 266.906 155.098 267.022 154.79C267.094 154.316 267.272 153.864 267.541 153.467C267.811 153.071 268.166 152.74 268.581 152.499C270.001 151.641 272.122 151.582 274.405 152.343C278.193 153.597 279.523 154.955 279.693 157.71C279.817 159.764 278.242 163.348 276.976 166.23C276.472 167.358 276.039 168.328 275.802 169.044C275.228 170.684 272.881 172.495 270.866 173.427C270.067 173.799 268.59 174.373 267.684 174.03L267.588 174ZM276.066 153.296C275.553 153.067 274.971 152.846 274.309 152.625C272.144 151.908 270.058 151.956 268.733 152.769C268.354 152.989 268.029 153.291 267.783 153.653C267.537 154.015 267.375 154.428 267.31 154.861C267.308 154.871 267.304 154.879 267.299 154.887C267.274 154.942 265.25 160.367 264.695 164.538C264.122 168.771 266.169 173.164 267.781 173.766C268.363 173.986 269.439 173.769 270.726 173.171C272.688 172.26 274.96 170.517 275.508 168.956C275.76 168.234 276.193 167.255 276.691 166.12C277.944 163.267 279.503 159.72 279.382 157.738C279.246 155.556 278.405 154.341 276.066 153.296V153.296Z" fill="#263238"/>
<path d="M264.861 161.335C264.861 161.335 265.535 161.39 265.83 160.367C266.124 159.343 266.179 158.669 266.623 158.591C267.067 158.512 267.671 158.545 268.112 157.499C268.553 156.453 267.508 155.253 268.269 154.297C268.707 153.811 269.297 153.488 269.943 153.384C270.589 153.279 271.252 153.399 271.82 153.723C273.003 154.409 272.482 156.469 274.013 158.361C275.544 160.253 278.053 160.9 278.053 160.9C277.871 161.02 277.733 161.197 277.662 161.403C277.59 161.61 277.589 161.833 277.657 162.041C277.777 162.447 277.773 162.879 277.647 163.283C277.647 163.283 276.896 165.416 277.281 165.527C277.666 165.638 279.583 160.867 279.802 160.1C280.022 159.333 281.468 156.452 279.683 154.469C277.899 152.485 274.566 151.343 272.35 151.122C270.134 150.9 268.658 151.519 267.429 153.1C266.2 154.681 264.861 161.335 264.861 161.335Z" fill="#263238"/>
<path d="M264.8 161.47C264.776 161.466 264.753 161.456 264.734 161.441C264.711 161.404 264.701 161.361 264.705 161.318C264.762 161.045 266.083 154.607 267.306 153.01C268.529 151.413 270.112 150.75 272.357 150.976C274.73 151.21 278.044 152.453 279.789 154.367C281.394 156.133 280.507 158.561 280.08 159.732C280.007 159.897 279.964 160.041 279.936 160.142C279.828 160.533 279.28 161.936 278.732 163.202C277.609 165.775 277.389 165.716 277.229 165.671C277.194 165.661 277.161 165.644 277.132 165.62C277.104 165.596 277.082 165.566 277.067 165.532C276.857 165.127 277.341 163.67 277.497 163.234C277.606 162.856 277.608 162.455 277.5 162.076C277.449 161.887 277.443 161.689 277.483 161.498C277.524 161.307 277.609 161.128 277.732 160.976C276.244 160.506 274.912 159.638 273.882 158.465C273.246 157.623 272.814 156.645 272.62 155.608C272.42 154.807 272.261 154.17 271.729 153.866C271.192 153.56 270.567 153.447 269.957 153.544C269.346 153.641 268.787 153.943 268.372 154.4C268.001 154.867 268.114 155.418 268.233 155.998C268.397 156.5 268.405 157.039 268.254 157.545C267.834 158.552 267.242 158.639 266.809 158.704L266.653 158.727C266.418 158.772 266.32 159.119 266.152 159.781C266.103 159.97 266.05 160.175 265.985 160.401C265.662 161.526 264.894 161.477 264.863 161.476C264.842 161.48 264.82 161.478 264.8 161.47V161.47ZM276.362 152.383C275.085 151.805 273.725 151.429 272.332 151.267C270.17 151.053 268.741 151.626 267.549 153.184C266.491 154.57 265.293 160.013 265.048 161.16C265.213 161.087 265.357 160.976 265.468 160.834C265.578 160.693 265.652 160.526 265.683 160.349C265.747 160.128 265.799 159.922 265.848 159.734C266.027 159.019 266.149 158.55 266.588 158.461L266.749 158.436C267.153 158.375 267.608 158.311 267.963 157.459C268.098 157.004 268.092 156.518 267.943 156.067C267.818 155.444 267.684 154.8 268.141 154.218C268.956 153.19 270.671 152.91 271.883 153.61C272.526 153.981 272.71 154.709 272.917 155.543C273.101 156.536 273.514 157.473 274.123 158.279C275.607 160.11 278.061 160.763 278.084 160.769C278.114 160.775 278.14 160.79 278.16 160.813C278.18 160.835 278.193 160.863 278.195 160.893C278.202 160.923 278.198 160.953 278.186 160.981C278.174 161.009 278.153 161.032 278.127 161.047C277.976 161.152 277.863 161.304 277.806 161.478C277.748 161.653 277.749 161.842 277.808 162.016C277.937 162.453 277.929 162.918 277.787 163.351C277.533 163.988 277.381 164.661 277.335 165.345C277.82 164.81 279.435 160.88 279.671 160.068C279.715 159.969 279.753 159.815 279.819 159.638C280.233 158.505 281.074 156.21 279.589 154.58C278.673 153.637 277.575 152.89 276.362 152.383Z" fill="#263238"/>
<path d="M267.005 164.93C266.308 164.62 265.758 164.051 265.472 163.343C265.186 162.635 265.187 161.844 265.473 161.137C265.759 160.429 266.309 159.861 267.007 159.551C267.704 159.241 268.495 159.214 269.212 159.476C269.929 159.738 270.516 160.268 270.849 160.955C271.183 161.641 271.237 162.431 270.999 163.156C270.762 163.881 270.252 164.486 269.577 164.843C268.903 165.2 268.116 165.281 267.383 165.068C267.254 165.031 267.128 164.985 267.005 164.93V164.93ZM269.295 159.804C269.179 159.752 269.06 159.708 268.938 159.671C268.347 159.501 267.716 159.541 267.152 159.785C266.588 160.029 266.126 160.46 265.845 161.006C265.563 161.552 265.48 162.179 265.609 162.78C265.738 163.38 266.071 163.918 266.552 164.3C267.033 164.683 267.631 164.886 268.246 164.877C268.86 164.867 269.452 164.645 269.921 164.248C270.389 163.851 270.706 163.303 270.816 162.699C270.926 162.095 270.824 161.471 270.526 160.934C270.248 160.439 269.817 160.047 269.298 159.818L269.295 159.804Z" fill="#263238"/>
<path d="M273.201 166.705C272.52 166.399 271.979 165.846 271.69 165.157C271.4 164.468 271.382 163.695 271.639 162.994C271.897 162.293 272.411 161.715 273.078 161.378C273.744 161.041 274.514 160.969 275.232 161.177C275.605 161.283 275.953 161.462 276.257 161.703C276.561 161.945 276.814 162.243 277.002 162.582C277.191 162.921 277.31 163.294 277.354 163.68C277.398 164.065 277.366 164.455 277.259 164.828V164.828C277.144 165.236 276.943 165.613 276.668 165.936C276.394 166.258 276.053 166.518 275.669 166.696C275.285 166.875 274.868 166.969 274.444 166.972C274.021 166.974 273.602 166.885 273.216 166.711L273.201 166.705ZM275.492 161.579C275.378 161.528 275.261 161.484 275.141 161.448C274.477 161.253 273.763 161.324 273.15 161.645C272.537 161.965 272.072 162.512 271.854 163.169C271.636 163.826 271.681 164.542 271.98 165.166C272.279 165.79 272.809 166.273 273.458 166.515C274.107 166.756 274.824 166.735 275.458 166.458C276.093 166.181 276.594 165.668 276.858 165.028C277.122 164.388 277.127 163.671 276.872 163.027C276.617 162.384 276.122 161.864 275.492 161.579V161.579Z" fill="#263238"/>
<path d="M268.791 162.565C268.665 163.005 268.378 163.312 268.149 163.245C267.92 163.177 267.836 162.766 267.962 162.326C268.088 161.887 268.378 161.581 268.608 161.649C268.837 161.716 268.917 162.125 268.791 162.565Z" fill="#263238"/>
<path d="M274.024 164.077C273.897 164.517 273.613 164.82 273.382 164.757C273.151 164.693 273.068 164.278 273.195 163.838C273.321 163.398 273.607 163.092 273.837 163.159C274.066 163.226 274.156 163.622 274.024 164.077Z" fill="#263238"/>
<path d="M272.188 161.567C271.616 162.846 271.124 164.159 270.717 165.499C270.429 166.733 270.342 167.528 269.571 167.316C268.801 167.103 269.363 165.874 269.363 165.874" fill="white"/>
<path d="M269.43 167.423C269.283 167.359 269.166 167.242 269.101 167.096C268.879 166.61 269.226 165.834 269.236 165.812C269.253 165.776 269.282 165.749 269.319 165.735C269.355 165.721 269.396 165.722 269.432 165.737V165.737C269.469 165.753 269.498 165.784 269.512 165.821C269.526 165.859 269.525 165.901 269.509 165.938C269.346 166.257 269.299 166.623 269.376 166.972C269.399 167.022 269.433 167.066 269.475 167.101C269.518 167.135 269.567 167.16 269.62 167.174C269.679 167.196 269.742 167.207 269.805 167.204C269.868 167.201 269.93 167.185 269.987 167.158C270.232 167.012 270.346 166.483 270.496 165.813L270.576 165.466C270.985 164.118 271.479 162.796 272.054 161.51C272.07 161.473 272.101 161.444 272.139 161.43C272.176 161.415 272.218 161.417 272.255 161.433C272.273 161.441 272.29 161.452 272.303 161.466C272.317 161.48 272.328 161.497 272.335 161.515C272.342 161.533 272.345 161.553 272.344 161.572C272.343 161.592 272.339 161.611 272.33 161.629C271.762 162.9 271.275 164.204 270.87 165.536L270.792 165.879C270.619 166.649 270.497 167.206 270.139 167.419C270.047 167.467 269.947 167.496 269.844 167.504C269.74 167.512 269.637 167.498 269.539 167.463L269.43 167.423Z" fill="#263238"/>
<path d="M267.112 167.23C267.112 167.23 268.596 169.522 272.093 168.656Z" fill="white"/>
<path d="M268.619 168.596C267.975 168.319 267.415 167.878 266.995 167.317C266.984 167.301 266.976 167.282 266.972 167.262C266.969 167.243 266.969 167.223 266.973 167.203C266.977 167.184 266.985 167.166 266.997 167.149C267.008 167.133 267.023 167.119 267.04 167.109C267.056 167.098 267.074 167.09 267.093 167.086C267.112 167.082 267.132 167.082 267.151 167.086C267.17 167.09 267.188 167.098 267.204 167.11C267.22 167.121 267.234 167.135 267.244 167.152C267.306 167.241 268.722 169.341 272.064 168.515C272.083 168.51 272.103 168.509 272.123 168.512C272.142 168.515 272.161 168.522 272.178 168.532C272.195 168.542 272.209 168.556 272.221 168.572C272.233 168.587 272.241 168.605 272.246 168.625C272.251 168.644 272.252 168.664 272.249 168.683C272.246 168.703 272.239 168.721 272.229 168.738C272.218 168.755 272.205 168.77 272.189 168.781C272.173 168.793 272.155 168.801 272.136 168.806C270.974 169.14 269.733 169.066 268.619 168.596Z" fill="#263238"/>
<path d="M271.024 162.908C270.99 162.894 270.963 162.868 270.947 162.835C270.932 162.802 270.929 162.765 270.94 162.73C270.946 162.711 270.955 162.694 270.967 162.678C270.979 162.663 270.995 162.65 271.012 162.641C271.029 162.631 271.048 162.625 271.068 162.623C271.088 162.621 271.107 162.623 271.126 162.629L271.904 162.853C271.924 162.858 271.943 162.866 271.959 162.879C271.975 162.891 271.989 162.906 271.999 162.924C272.009 162.941 272.015 162.961 272.017 162.981C272.018 163.001 272.016 163.022 272.009 163.041C271.998 163.079 271.972 163.11 271.937 163.129C271.902 163.148 271.862 163.153 271.824 163.142L271.045 162.918L271.024 162.908Z" fill="#263238"/>
<path d="M264.809 161.198C264.777 161.18 264.752 161.152 264.739 161.118C264.726 161.083 264.726 161.046 264.739 161.011C264.752 160.977 264.776 160.949 264.808 160.931C264.84 160.913 264.877 160.908 264.913 160.915L265.489 161.08C265.524 161.094 265.553 161.121 265.57 161.155C265.586 161.189 265.589 161.228 265.579 161.265C265.568 161.301 265.544 161.332 265.511 161.352C265.479 161.372 265.44 161.378 265.403 161.371L264.831 161.208L264.809 161.198Z" fill="#263238"/>
<path d="M277.132 164.727C277.1 164.712 277.073 164.686 277.058 164.654C277.043 164.621 277.04 164.584 277.049 164.55C277.06 164.511 277.086 164.478 277.121 164.458C277.156 164.439 277.198 164.434 277.237 164.444L277.813 164.61C277.848 164.624 277.877 164.651 277.893 164.685C277.91 164.719 277.913 164.758 277.902 164.794C277.891 164.831 277.867 164.862 277.835 164.881C277.803 164.901 277.764 164.908 277.727 164.901L277.154 164.737L277.132 164.727Z" fill="#263238"/>
<path d="M267.335 159.486C267.274 159.458 267.22 159.416 267.179 159.363C267.147 159.321 267.124 159.273 267.111 159.222C267.098 159.171 267.095 159.118 267.102 159.066C267.109 159.014 267.127 158.963 267.154 158.918C267.181 158.873 267.216 158.833 267.258 158.801C267.919 158.306 269.503 157.788 270.836 159.385C270.905 159.467 270.938 159.573 270.928 159.679C270.919 159.785 270.867 159.883 270.786 159.951C270.704 160.02 270.598 160.053 270.492 160.043C270.386 160.034 270.288 159.982 270.22 159.9C269.035 158.493 267.805 159.406 267.742 159.439C267.685 159.483 267.616 159.51 267.545 159.518C267.473 159.526 267.401 159.515 267.335 159.486V159.486Z" fill="#263238"/>
<path d="M273.468 161.242C273.404 161.213 273.349 161.169 273.308 161.113C273.267 161.057 273.241 160.991 273.232 160.922C273.224 160.852 273.234 160.782 273.262 160.718C273.289 160.654 273.333 160.598 273.388 160.556C274.049 160.06 275.637 159.544 276.966 161.14C277.031 161.221 277.062 161.325 277.052 161.429C277.041 161.533 276.991 161.629 276.911 161.696C276.831 161.764 276.728 161.797 276.624 161.79C276.52 161.782 276.423 161.734 276.353 161.657C275.168 160.249 273.939 161.162 273.872 161.194C273.815 161.237 273.748 161.264 273.677 161.273C273.606 161.281 273.534 161.27 273.468 161.242Z" fill="#263238"/>
<path d="M267.373 163.59C267.343 163.57 267.321 163.54 267.31 163.505C267.3 163.471 267.303 163.433 267.318 163.4C267.332 163.367 267.358 163.341 267.391 163.325C267.424 163.31 267.461 163.306 267.496 163.315L268.772 163.683C268.791 163.688 268.809 163.697 268.825 163.709C268.841 163.721 268.854 163.737 268.863 163.754C268.873 163.772 268.878 163.791 268.88 163.811C268.882 163.831 268.88 163.85 268.873 163.869C268.868 163.888 268.859 163.906 268.846 163.921C268.834 163.937 268.819 163.95 268.802 163.959C268.784 163.968 268.765 163.974 268.746 163.976C268.726 163.978 268.706 163.976 268.687 163.971L267.41 163.606L267.373 163.59Z" fill="#263238"/>
<path d="M272.608 165.091C272.575 165.076 272.548 165.05 272.533 165.017C272.518 164.985 272.515 164.948 272.525 164.913C272.536 164.874 272.562 164.841 272.597 164.822C272.632 164.802 272.674 164.797 272.713 164.808L273.989 165.176C274.027 165.187 274.059 165.212 274.078 165.246C274.097 165.28 274.102 165.32 274.092 165.358C274.081 165.397 274.055 165.43 274.02 165.449C273.985 165.469 273.943 165.474 273.904 165.463L272.628 165.095L272.608 165.091Z" fill="#263238"/>
<path d="M120.71 29.4842L119.5 29.1428L117.381 36.6537L117.122 36.5805L116.094 35.5438L118.017 28.7247L115.645 28.0558L113.527 35.5667L113.268 35.4935L112.252 34.4603L112.918 32.1008L112.881 32.0903C112.718 32.0979 112.543 32.075 112.353 32.0216C112.106 31.9519 111.88 31.8392 111.675 31.6836C111.481 31.5221 111.272 31.2854 111.048 30.9735L110.955 30.9738C110.988 31.2675 110.958 31.5791 110.865 31.9085C110.686 32.5427 110.348 32.9987 109.852 33.2766C109.366 33.5486 108.815 33.5975 108.197 33.4233C107.324 33.1771 106.651 32.6493 106.176 31.8399C105.713 31.0246 105.346 30.1031 105.076 29.0756L105.59 28.8605C105.856 29.6201 106.19 30.2789 106.593 30.837C106.995 31.3951 107.452 31.7462 107.963 31.8902C108.383 32.0087 108.763 31.9827 109.105 31.8123C109.449 31.6336 109.668 31.3754 109.763 31.0378C109.891 30.5848 109.873 30.1753 109.71 29.8091C109.128 29.8228 108.5 29.7791 107.826 29.678L107.554 28.4677L107.777 28.1972C108.198 28.2804 108.568 28.3402 108.887 28.3768C109.216 28.4074 109.5 28.3941 109.738 28.3368C110.194 28.2342 110.489 27.9617 110.622 27.5193C110.697 27.2557 110.662 27.0014 110.518 26.7562C110.373 26.5111 110.141 26.3432 109.819 26.2526C109.465 26.1527 109.113 26.1422 108.761 26.2209C108.421 26.2938 108.032 26.442 107.596 26.6657L107.28 25.1364C107.669 24.9881 108.088 24.8886 108.538 24.8377C108.996 24.7891 109.382 24.8089 109.695 24.8972C110.03 25.0007 110.355 25.2523 110.669 25.652C110.991 26.0541 111.229 26.5034 111.382 27.0001C111.546 27.4909 111.576 27.9215 111.471 28.2921C111.318 28.8357 110.981 29.2741 110.46 29.6073C110.676 29.8193 110.932 30.0159 111.227 30.1971C111.523 30.3783 111.803 30.506 112.066 30.5804C112.519 30.7081 112.943 30.7031 113.337 30.5654L114.17 27.613L112.465 27.1322L112.229 25.9852L112.298 25.7381L120.513 28.055L120.771 29.2213L120.71 29.4842Z" fill="white"/>
<path d="M128.974 31.788L127.763 31.4466L125.645 38.9575L125.398 38.8878L124.357 37.8476L124.84 36.2768L124.81 36.2417C124.54 36.3166 124.242 36.3658 123.915 36.3893C123.588 36.4127 123.269 36.3803 122.956 36.2921C122.239 36.09 121.662 35.6471 121.223 34.9633C120.793 34.2819 120.555 33.4411 120.508 32.441C121.135 32.4224 121.645 32.3349 122.035 32.1784C122.429 32.0137 122.676 31.7501 122.779 31.3878C122.841 31.1654 122.853 30.9509 122.813 30.7441C122.784 30.5315 122.701 30.2767 122.562 29.9798L120.684 29.4502L120.448 28.3033L120.517 28.0562L128.794 30.3905L129.04 31.5533L128.974 31.788ZM122.695 34.8984C123.148 35.0261 123.603 35.0522 124.06 34.9766C124.528 34.8951 124.942 34.7673 125.302 34.5933L126.293 31.032L123.625 30.2794L123.621 30.2918C123.799 30.6708 123.936 31.0342 124.034 31.3817C124.142 31.7234 124.167 31.9972 124.109 32.2031C124.004 32.5737 123.711 32.8732 123.229 33.1017C122.746 33.3302 122.236 33.4707 121.696 33.523C121.639 33.8535 121.708 34.1442 121.904 34.3951C122.11 34.64 122.374 34.8078 122.695 34.8984Z" fill="white"/>
<path d="M135.342 33.5574L134.736 35.7069C135.421 35.4202 136.007 35.3453 136.493 35.4823C136.937 35.6078 137.297 35.8293 137.572 36.1469C137.858 36.4585 138.042 36.8305 138.124 37.2628C138.209 37.6868 138.188 38.1253 138.06 38.5782C137.96 38.9324 137.778 39.3432 137.512 39.8107C137.258 40.2724 136.967 40.6883 136.64 41.0584L135.633 39.7607C135.983 39.4951 136.341 39.1736 136.705 38.7962C137.072 38.4106 137.291 38.0901 137.363 37.8348C137.43 37.596 137.402 37.3792 137.28 37.1845C137.159 36.9816 136.959 36.8407 136.679 36.7617C136.349 36.6688 135.984 36.6724 135.582 36.7725C135.189 36.8749 134.761 37.0344 134.3 37.2511L133.22 41.0807L132.973 41.011L131.903 39.9356L132.538 38.0611L132.517 38.0418C132.097 38.2078 131.714 38.3178 131.37 38.3718C131.034 38.4282 130.681 38.4042 130.31 38.2996C129.882 38.1789 129.518 37.9738 129.217 37.6845C128.916 37.3952 128.71 37.0392 128.598 36.6164C128.494 36.196 128.512 35.7387 128.651 35.2446C128.758 34.8657 128.933 34.5284 129.177 34.2325C129.431 33.9308 129.736 33.7146 130.093 33.5841C130.45 33.4536 130.835 33.4464 131.246 33.5626C131.773 33.7112 132.176 33.9849 132.455 34.3836C132.734 34.7823 132.945 35.264 133.088 35.8289L133.84 33.1606L128.948 31.7809L128.712 30.6339L128.781 30.3869L139.553 33.425L139.787 34.5843L139.72 34.819L135.342 33.5574ZM130.202 36.9354C130.63 37.0562 131.071 37.0829 131.526 37.0155C131.983 36.9399 132.43 36.8038 132.868 36.6072L132.893 36.5207C132.788 36.2601 132.582 35.984 132.273 35.6924C131.974 35.3949 131.645 35.1909 131.285 35.0805C131.021 35.0061 130.738 34.9707 130.435 34.974C130.14 34.9798 129.873 35.0424 129.635 35.1619C129.399 35.2732 129.246 35.4524 129.177 35.6994C129.107 35.9465 129.177 36.1884 129.385 36.4251C129.594 36.6618 129.863 36.8266 130.193 36.9196L130.202 36.9354Z" fill="white"/>
<path d="M145.237 36.4015L143.273 35.8475C143.244 36.1685 143.197 36.5107 143.13 36.8741C143.063 37.2375 142.991 37.5551 142.914 37.8269C142.763 38.3622 142.506 38.8009 142.143 39.143C141.78 39.4851 141.363 39.781 140.893 40.0306L142.783 43.2576L141.857 43.6099L139.932 39.5596C139.862 39.3976 139.824 39.3114 139.818 39.3008C139.675 39.0204 139.578 38.7974 139.527 38.6318C139.484 38.4686 139.486 38.3046 139.532 38.1399C139.588 37.9423 139.717 37.7696 139.918 37.622C140.131 37.4685 140.333 37.3655 140.526 37.3132L141.117 37.96C141.207 37.8609 141.315 37.696 141.443 37.4652C141.57 37.2344 141.668 36.9996 141.735 36.7607C141.839 36.3901 141.926 35.9567 141.995 35.4605L139.697 34.8124L139.461 33.6655L139.53 33.4184L145.065 34.9793L145.31 36.1421L145.237 36.4015Z" fill="white"/>
<path d="M152.746 33.8917C152.225 33.7536 151.765 33.7616 151.366 33.9158C150.966 34.0699 150.706 34.3788 150.584 34.8423C150.51 35.1058 150.473 35.3933 150.474 35.7048C150.484 36.0186 150.517 36.2947 150.574 36.5331L151.674 36.8432L151.919 38.006L151.853 38.2407L150.655 37.9028L148.536 45.4137L148.289 45.344L147.261 44.3073L149.172 37.4847L147.949 37.1397L147.713 35.9928L147.782 35.7457L149.672 36.2788C149.192 35.1744 149.041 34.2916 149.219 33.6304C149.326 33.2516 149.532 32.9453 149.838 32.7115C150.155 32.4718 150.543 32.3236 151.004 32.2668C151.473 32.2123 151.971 32.2593 152.498 32.408C153.379 32.6565 154.25 33.2712 155.112 34.2521C155.983 35.227 156.851 36.3742 157.715 37.6936L157.212 38.0585C156.447 36.9891 155.686 36.0767 154.93 35.3211C154.185 34.5597 153.452 34.082 152.734 33.8882L152.746 33.8917Z" fill="white"/>
<path d="M160.173 40.3473L160.107 40.582L158.896 40.2406L156.778 47.7515L156.543 47.6853L155.461 46.6064L156.033 44.8608L156.003 44.8256C155.464 45.0026 155.001 45.1164 154.613 45.1671C154.234 45.2201 153.842 45.1897 153.439 45.0759C153.01 44.9551 152.625 44.7443 152.283 44.4434C151.944 44.1342 151.697 43.7625 151.544 43.3281C151.402 42.8878 151.401 42.4165 151.543 41.9141C151.696 41.3706 151.937 40.9272 152.265 40.584C152.603 40.235 152.98 40.0033 153.394 39.8891C153.811 39.7666 154.217 39.7611 154.613 39.8726C155.082 40.005 155.498 40.2956 155.86 40.7446C156.225 41.1853 156.524 41.6697 156.757 42.1978L156.782 42.2048L157.455 39.8206L151.821 38.2318L151.585 37.0849L151.654 36.8378L159.956 39.1791L160.173 40.3473ZM153.15 43.781C153.62 43.9134 154.179 43.9021 154.827 43.7471C155.475 43.5921 156.043 43.3609 156.529 43.0537C156.36 42.677 156.126 42.3398 155.828 42.0423C155.529 41.7448 155.224 41.5519 154.911 41.4636C154.474 41.3405 154.047 41.3091 153.63 41.3692C153.213 41.4294 152.863 41.5529 152.579 41.7396C152.295 41.9262 152.12 42.139 152.052 42.3778C151.969 42.6743 152.028 42.9533 152.23 43.2147C152.44 43.4784 152.751 43.6684 153.163 43.7845L153.15 43.781Z" fill="white"/>
<path d="M169.811 43.0521L169.745 43.2869L168.534 42.9454L166.416 50.4563L166.169 50.3866L165.153 49.3534L165.819 46.9939L163.286 46.2797C162.983 47.0388 162.531 47.3336 161.93 47.1641C161.584 47.0665 161.339 46.8329 161.194 46.4631C161.06 46.0874 161.011 45.6956 161.046 45.2876C161.057 45.0596 161.092 44.8385 161.153 44.6243C161.185 44.509 161.214 44.4237 161.238 44.3684L162.202 44.6402L162.421 43.8619C161.8 43.3845 161.318 42.8707 160.976 42.3206C160.641 41.7728 160.548 41.2354 160.697 40.7083C160.818 40.2801 161.054 39.9954 161.404 39.8544C161.758 39.7051 162.165 39.6954 162.626 39.8255C162.997 39.93 163.339 40.1022 163.654 40.3421C163.971 40.5738 164.201 40.8786 164.343 41.2566C164.494 41.6369 164.499 42.0741 164.36 42.5682L163.66 45.0513L166.167 45.7585L167.077 42.5343L165.236 42.0152L164.999 40.8682L165.069 40.6211L169.566 41.8893L169.811 43.0521ZM161.867 41.4783C161.785 41.7666 161.822 42.0615 161.977 42.363C162.135 42.6563 162.368 42.9312 162.678 43.1875C162.773 43.0097 162.87 42.7925 162.969 42.536C163.076 42.2817 163.153 42.0722 163.199 41.9075C163.26 41.6934 163.247 41.4854 163.162 41.2835C163.085 41.084 162.956 40.9586 162.774 40.9075C162.569 40.8495 162.382 40.8636 162.216 40.95C162.057 41.0387 161.941 41.2148 161.867 41.4783Z" fill="white"/>
<path d="M173.706 44.1507L173.64 44.3854L172.442 44.0474L170.323 51.5583L170.076 51.4886L169.048 50.4519L170.959 43.6293L169.736 43.2844L169.5 42.1374L169.569 41.8904L173.461 42.9879L173.706 44.1507Z" fill="white"/>
<path d="M181.828 46.4413L181.762 46.676L180.539 46.3311L178.421 53.842L178.173 53.7723L177.133 52.7321L179.056 45.913L176.499 45.1918C176.233 46.7971 175.99 47.9909 175.769 48.7733C175.665 49.1439 175.487 49.4583 175.236 49.7166C174.988 49.9666 174.625 50.0243 174.147 49.8896C173.826 49.799 173.58 49.6318 173.409 49.3879C173.246 49.1463 173.144 48.8775 173.103 48.5814C173.07 48.2877 173.085 48.0296 173.148 47.8073C173.217 47.5602 173.299 47.3654 173.393 47.2228L174.57 47.7284L175.474 44.9026L173.621 44.38L173.384 43.233L173.454 42.986L181.57 45.275L181.828 46.4413Z" fill="white"/>
<path d="M102.567 44.3121L102.322 45.0246L100.654 44.5975L100.841 43.8427L101.316 43.9766L102.467 39.8645L101.964 39.74L102.224 38.9712L103.816 39.4203L103.676 40.1623L103.199 40.0709L101.999 44.1694L102.567 44.3121Z" fill="white"/>
<path d="M108.533 41.4451L108.055 41.3538L106.523 46.3222L105.819 46.141L105.243 41.2554L104.283 44.8136L104.835 44.9517L104.631 45.6756L102.898 45.2304L103.085 44.4756L103.56 44.6094L104.67 40.486L104.167 40.3615L104.427 39.5927L105.779 39.9738L106.279 44.7253L107.291 41.1383L106.78 41.0114L107.04 40.2427L108.681 40.7054L108.533 41.4451Z" fill="white"/>
<path d="M112.851 41.8034L112.184 43.8293L111.555 43.626C111.566 43.5277 111.572 43.4238 111.574 43.3143C111.579 43.2056 111.574 43.0974 111.561 42.9895C111.551 42.8824 111.531 42.7784 111.502 42.6775C111.473 42.5739 111.432 42.4798 111.377 42.395C111.324 42.3076 111.257 42.2322 111.176 42.169C111.097 42.1031 111 42.0542 110.888 42.0225C110.719 41.9748 110.561 41.9694 110.415 42.0063C110.271 42.0439 110.138 42.1105 110.015 42.2062C109.893 42.3019 109.78 42.4192 109.677 42.558C109.578 42.695 109.49 42.8393 109.412 42.9911C109.334 43.1429 109.267 43.296 109.209 43.4504C109.154 43.6028 109.109 43.7407 109.075 43.864C109.042 43.9793 109.009 44.1162 108.976 44.2747C108.944 44.4306 108.919 44.5944 108.903 44.7663C108.889 44.9389 108.886 45.1132 108.894 45.2891C108.903 45.4624 108.931 45.6238 108.979 45.7732C109.03 45.9207 109.104 46.05 109.2 46.161C109.296 46.272 109.424 46.3502 109.585 46.3956C109.781 46.4508 109.956 46.454 110.112 46.4053C110.27 46.3573 110.41 46.278 110.531 46.1674C110.652 46.0541 110.755 45.9196 110.84 45.764C110.927 45.6065 111.002 45.4465 111.062 45.284L111.697 45.4632C111.619 45.7394 111.509 45.9976 111.366 46.238C111.225 46.4791 111.056 46.6802 110.857 46.8412C110.658 47.0022 110.432 47.1134 110.177 47.1747C109.926 47.2341 109.65 47.2214 109.35 47.1367C109.119 47.0717 108.926 46.9666 108.77 46.8213C108.614 46.6761 108.489 46.5061 108.393 46.3113C108.301 46.1145 108.235 45.902 108.195 45.6737C108.156 45.4428 108.136 45.21 108.136 44.9755C108.136 44.7409 108.151 44.5123 108.182 44.2895C108.216 44.0648 108.259 43.8626 108.31 43.683C108.367 43.4793 108.44 43.2682 108.527 43.0498C108.618 42.8322 108.721 42.6227 108.839 42.4214C108.96 42.2182 109.095 42.0307 109.245 41.8588C109.398 41.6876 109.566 41.547 109.75 41.4369C109.935 41.3269 110.136 41.2548 110.354 41.2208C110.573 41.1841 110.807 41.2009 111.056 41.2712C111.308 41.3423 111.503 41.461 111.642 41.6273C111.78 41.7937 111.884 41.9996 111.954 42.245L112.148 41.5877L112.851 41.8034Z" fill="white"/>
<path d="M116.073 45.6033C116.011 45.8204 115.939 46.0504 115.856 46.2933C115.773 46.5361 115.675 46.7718 115.561 47.0002C115.451 47.2294 115.32 47.4445 115.171 47.6455C115.025 47.8446 114.857 48.0085 114.668 48.1373C114.481 48.2669 114.27 48.3535 114.034 48.3972C113.799 48.4408 113.538 48.4222 113.251 48.3413C113.026 48.2778 112.842 48.181 112.699 48.0511C112.556 47.9238 112.443 47.7747 112.361 47.604C112.282 47.434 112.228 47.2482 112.201 47.0467C112.174 46.8451 112.165 46.6414 112.174 46.4355C112.184 46.227 112.207 46.0209 112.244 45.8172C112.284 45.6143 112.328 45.427 112.377 45.2555C112.438 45.0383 112.512 44.806 112.599 44.5585C112.686 44.3111 112.789 44.0695 112.908 43.8338C113.026 43.5981 113.161 43.377 113.312 43.1707C113.465 42.9651 113.638 42.7938 113.83 42.657C114.025 42.5208 114.24 42.4296 114.476 42.3833C114.713 42.3343 114.973 42.3498 115.257 42.43C115.482 42.4935 115.666 42.5929 115.807 42.7283C115.952 42.8617 116.061 43.0184 116.134 43.1983C116.212 43.3764 116.26 43.5694 116.279 43.7775C116.301 43.9863 116.305 44.1987 116.291 44.4145C116.277 44.6277 116.248 44.8367 116.205 45.0415C116.165 45.2445 116.121 45.4317 116.073 45.6033ZM115.271 45.4292C115.297 45.3381 115.326 45.2247 115.358 45.0892C115.391 44.9509 115.419 44.8055 115.442 44.6527C115.466 44.4973 115.48 44.3392 115.485 44.1785C115.489 44.0178 115.475 43.869 115.441 43.7322C115.411 43.5934 115.356 43.4738 115.278 43.3734C115.202 43.2712 115.095 43.2004 114.956 43.161C114.779 43.1111 114.615 43.117 114.464 43.1788C114.317 43.2386 114.182 43.3349 114.057 43.4677C113.933 43.6005 113.82 43.7583 113.72 43.9412C113.62 44.1214 113.531 44.3076 113.454 44.4999C113.376 44.6923 113.309 44.8802 113.251 45.0637C113.197 45.2452 113.151 45.4016 113.114 45.533C113.086 45.6322 113.057 45.7469 113.026 45.8771C112.996 46.0046 112.971 46.138 112.952 46.2774C112.937 46.4148 112.931 46.5535 112.935 46.6935C112.939 46.8309 112.96 46.9582 112.996 47.0755C113.035 47.1936 113.096 47.2975 113.178 47.3871C113.259 47.4768 113.37 47.5412 113.509 47.5806C113.684 47.6297 113.844 47.6271 113.989 47.5726C114.135 47.5182 114.266 47.4309 114.384 47.3107C114.506 47.1886 114.613 47.0438 114.706 46.8763C114.803 46.7095 114.887 46.5394 114.959 46.3658C115.032 46.1895 115.093 46.0187 115.143 45.8532C115.195 45.6885 115.238 45.5472 115.271 45.4292Z" fill="white"/>
<path d="M122.566 44.6388L122.324 45.4041L121.808 45.2325L120.527 49.4643L120.938 49.58L120.738 50.3486L119.097 49.8859L119.329 49.1264L119.82 49.2647L120.913 45.449L118.729 49.3132L117.934 49.1151L118.321 44.7267L117.208 48.4587L117.682 48.5925L117.487 49.345L115.633 48.7786L115.837 48.0547L116.484 48.2545L117.672 44.1963L116.976 43.9565L117.196 43.2372L119.158 43.7907L118.698 47.9761L120.814 44.1707L122.566 44.6388Z" fill="white"/>
<path d="M125.91 47.249L125.304 47.1214L125.457 46.2703L123.984 45.8897L123.462 47.6786L124.685 48.0234L124.521 48.6025L123.27 48.3278L122.748 50.1168L124.268 50.4847L124.518 49.6L125.113 49.7678L124.702 51.3796L121.406 50.5369L121.59 49.7902L122.065 49.924L123.252 45.6833L122.749 45.5587L123.009 44.7899L126.31 45.6774L125.91 47.249Z" fill="white"/>
<path d="M129.637 48.4565L128.995 48.3623L129.261 47.2652L128.587 47.101L127.354 51.3201L127.921 51.4628L127.677 52.1753L126.009 51.7482L126.195 50.9935L126.67 51.1273L127.844 46.9348L127.106 46.7789L126.861 47.8036L126.193 47.6154L126.726 45.8815L130.049 46.6886L129.637 48.4565Z" fill="white"/>
<path d="M132.533 52.9197L132.261 53.6679L130.64 53.1672L130.82 52.3758L131.314 52.5325L131.436 51.2993L130.361 51.0481L129.897 52.046L130.352 52.2178L130.083 52.9235L128.451 52.463L128.631 51.6716L129.125 51.8283L131.213 47.7808L130.798 47.6812L130.95 46.9862L133.013 47.5244L132.791 48.1565L132.384 48.0592L132.046 52.7389L132.533 52.9197ZM131.5 50.6402L131.762 48.0486L130.664 50.4043L131.5 50.6402Z" fill="white"/>
<path d="M137.708 49.7169L137.198 49.6164L135.498 51.3945L135.919 53.8747L136.497 54.0116L136.244 54.7218L134.536 54.2834L134.721 53.5367L135.195 53.6705L134.919 51.9084L133.815 53.2379L134.353 53.3635L134.108 54.076L132.392 53.6353L132.576 52.8886L133.051 53.0224L134.711 51.1986L134.254 48.7863L133.751 48.6617L134.011 47.8929L135.644 48.3534L135.504 49.0954L135.026 49.004L135.281 50.7169L136.466 49.41L135.963 49.2855L136.223 48.5167L137.867 48.9369L137.708 49.7169Z" fill="white"/>
<path d="M142.489 53.3748C142.423 53.608 142.338 53.8475 142.234 54.0931C142.134 54.3367 142.01 54.5665 141.862 54.7825C141.718 54.9965 141.549 55.186 141.354 55.3512C141.163 55.5172 140.942 55.6386 140.692 55.7156C140.539 55.7651 140.381 55.7915 140.218 55.7947C140.057 55.7987 139.901 55.7792 139.748 55.7361L139.724 55.7293L138.114 55.2492L138.299 54.5025L138.773 54.6363L139.961 50.3956L139.498 50.2824L139.677 49.4909C139.918 49.5414 140.154 49.5964 140.386 49.6561C140.621 49.7165 140.858 49.7803 141.096 49.8476L141.555 49.9769C141.799 50.0457 141.999 50.1514 142.156 50.294C142.312 50.4365 142.433 50.6024 142.519 50.7915C142.607 50.9813 142.665 51.1872 142.692 51.409C142.719 51.6308 142.726 51.8571 142.713 52.0879C142.701 52.316 142.674 52.5412 142.631 52.7637C142.589 52.9834 142.542 53.1871 142.489 53.3748ZM141.776 53.0696L141.797 52.9972C141.823 52.9061 141.847 52.7929 141.871 52.6578C141.898 52.5207 141.919 52.3747 141.934 52.2197C141.948 52.0647 141.952 51.908 141.945 51.7496C141.937 51.5912 141.915 51.4446 141.878 51.3096C141.841 51.172 141.784 51.053 141.705 50.9527C141.629 50.8531 141.526 50.7851 141.398 50.7488L141.14 50.6762C141.068 50.6558 140.996 50.6354 140.923 50.615C140.851 50.5946 140.778 50.5768 140.704 50.5618L139.446 54.8693C139.498 54.8898 139.549 54.9086 139.599 54.9256C139.649 54.9427 139.701 54.9588 139.755 54.9739C139.897 55.0139 140.038 55.0452 140.18 55.0677C140.337 55.0859 140.48 55.0655 140.609 55.0065C140.742 54.9456 140.862 54.8607 140.968 54.7516C141.077 54.6407 141.174 54.5118 141.259 54.365C141.344 54.2182 141.419 54.0687 141.485 53.9166C141.552 53.7618 141.61 53.61 141.657 53.4614C141.705 53.3128 141.745 53.1822 141.776 53.0696Z" fill="white"/>
<path d="M146.757 53.1284L146.15 53.0007L146.303 52.1497L144.83 51.769L144.308 53.558L145.531 53.9028L145.368 54.4818L144.117 54.2072L143.595 55.9961L145.115 56.364L145.364 55.4793L145.959 55.6472L145.548 57.259L142.252 56.4162L142.437 55.6695L142.911 55.8033L144.099 51.5626L143.595 51.4381L143.856 50.6693L147.156 51.5568L146.757 53.1284Z" fill="white"/>
<path d="M150.745 54.3315C150.652 54.6639 150.519 54.9276 150.349 55.1226C150.178 55.3175 149.978 55.4565 149.749 55.5396C149.523 55.6234 149.272 55.6598 148.998 55.6489C148.726 55.636 148.44 55.5886 148.139 55.5066L147.914 55.4431L147.46 56.9908L148.028 57.1335L147.783 57.846L146.115 57.4189L146.302 56.6641L146.776 56.798L147.957 52.5814L147.494 52.4682L147.674 51.6767C147.978 51.748 148.278 51.8238 148.573 51.9043C148.87 51.9821 149.168 52.0634 149.468 52.1481C149.712 52.2169 149.93 52.3231 150.121 52.4667C150.313 52.6076 150.465 52.775 150.578 52.969C150.695 53.1611 150.77 53.3732 150.803 53.6053C150.835 53.8374 150.816 54.0795 150.745 54.3315ZM149.996 54.155C150.035 54.0183 150.045 53.8837 150.028 53.7514C150.013 53.6199 149.974 53.4991 149.913 53.3891C149.851 53.2791 149.768 53.1834 149.664 53.1018C149.56 53.0176 149.44 52.9562 149.303 52.9177L148.7 52.7476L148.115 54.7617L148.308 54.8162C148.493 54.8683 148.671 54.9071 148.844 54.9326C149.019 54.9561 149.182 54.9498 149.331 54.9137C149.48 54.8776 149.612 54.8004 149.726 54.6822C149.84 54.564 149.931 54.3882 149.996 54.155Z" fill="white"/>
<path d="M153.484 58.8286L153.212 59.5768L151.591 59.0761L151.771 58.2846L152.265 58.4413L152.387 57.2081L151.312 56.957L150.848 57.9549L151.303 58.1267L151.034 58.8323L149.402 58.3719L149.582 57.5804L150.076 57.7371L152.164 53.6896L151.749 53.59L151.901 52.8951L153.964 53.4333L153.742 54.0653L153.335 53.968L152.997 58.6477L153.484 58.8286ZM152.451 56.5491L152.713 53.9575L151.615 56.3132L152.451 56.5491Z" fill="white"/>
<path d="M157.328 59.7131L157.072 60.4658L155.583 60.1759L155.695 59.4087L156.001 59.4949L155.984 57.4587L155.438 57.3045L154.891 59.1819L155.38 59.2939L155.124 60.0466L153.588 59.6134L153.733 58.8553L154.207 58.9891L155.413 54.6841L154.95 54.5708L155.129 53.7794C155.433 53.8507 155.735 53.9269 156.033 54.0082C156.335 54.0875 156.637 54.1699 156.94 54.2553C157.179 54.3226 157.394 54.4196 157.587 54.5464C157.781 54.6704 157.937 54.8201 158.055 54.9953C158.176 55.1713 158.255 55.37 158.291 55.5914C158.327 55.8128 158.308 56.0535 158.235 56.3135C158.186 56.4851 158.114 56.6486 158.018 56.8038C157.923 56.9591 157.807 57.0959 157.673 57.2142C157.539 57.3298 157.389 57.4207 157.222 57.4866C157.056 57.5526 156.879 57.5808 156.691 57.5711L156.761 59.5704L157.328 59.7131ZM157.486 56.137C157.524 56.0003 157.534 55.8729 157.516 55.7547C157.499 55.6373 157.46 55.5307 157.397 55.4349C157.335 55.339 157.252 55.2578 157.149 55.1912C157.047 55.1219 156.931 55.0688 156.799 55.0317L156.156 54.8503L155.638 56.6231L155.831 56.6776C156.008 56.7275 156.182 56.7692 156.352 56.8026C156.525 56.8342 156.685 56.8373 156.831 56.8119C156.977 56.7865 157.106 56.7232 157.219 56.6218C157.335 56.5184 157.424 56.3569 157.486 56.137Z" fill="white"/>
<path d="M161.969 57.5749L161.327 57.4807L161.593 56.3836L160.918 56.2195L159.685 60.4385L160.252 60.5812L160.008 61.2937L158.34 60.8667L158.527 60.1119L159.001 60.2457L160.175 56.0533L159.438 55.8974L159.192 56.9221L158.524 56.7338L159.057 54.9999L162.38 55.807L161.969 57.5749Z" fill="white"/>
<path d="M168.079 57.4749L167.837 58.2402L167.321 58.0686L166.041 62.3005L166.451 62.4162L166.251 63.1847L164.611 62.722L164.842 61.9625L165.333 62.1009L166.426 58.2852L164.242 62.1494L163.447 61.9512L163.834 57.5628L162.721 61.2948L163.195 61.4286L163.001 62.1811L161.146 61.6147L161.35 60.8908L161.997 61.0907L163.185 57.0324L162.489 56.7926L162.709 56.0733L164.671 56.6268L164.212 60.8122L166.327 57.0068L168.079 57.4749Z" fill="white"/>
<path d="M171.423 60.0852L170.817 59.9575L170.97 59.1065L169.497 58.7258L168.975 60.5148L170.198 60.8595L170.034 61.4386L168.783 61.164L168.261 62.9529L169.781 63.3208L170.031 62.4361L170.626 62.6039L170.215 64.2158L166.919 63.373L167.103 62.6263L167.578 62.7601L168.765 58.5194L168.262 58.3948L168.522 57.6261L171.823 58.5136L171.423 60.0852Z" fill="white"/>
<path d="M176.42 60.5916L175.943 60.5002L174.411 65.4687L173.707 65.2874L173.131 60.4019L172.171 63.96L172.722 64.0982L172.518 64.822L170.786 64.3768L170.973 63.622L171.447 63.7559L172.558 59.6325L172.055 59.5079L172.315 58.7392L173.666 59.1202L174.167 63.8717L175.178 60.2847L174.667 60.1579L174.927 59.3891L176.568 59.8518L176.42 60.5916Z" fill="white"/>
<path d="M179.847 62.6173L179.205 62.5231L179.471 61.426L178.797 61.2618L177.564 65.4809L178.131 65.6236L177.887 66.3361L176.219 65.909L176.405 65.1543L176.88 65.2881L178.054 61.0956L177.316 60.9397L177.071 61.9644L176.403 61.7762L176.936 60.0423L180.259 60.8494L179.847 62.6173Z" fill="white"/>
<path d="M270.065 90.1097C269.991 90.3724 269.88 90.6232 269.731 90.8621C269.586 91.099 269.411 91.3013 269.204 91.4688C268.999 91.6336 268.768 91.7494 268.512 91.8161C268.258 91.8835 267.987 91.8764 267.697 91.7947C267.467 91.7297 267.273 91.6246 267.117 91.4793C266.962 91.3341 266.836 91.1641 266.74 90.9693C266.648 90.7725 266.582 90.56 266.543 90.3317C266.503 90.1008 266.484 89.868 266.483 89.6335C266.483 89.3989 266.498 89.1703 266.529 88.9475C266.564 88.7228 266.606 88.5206 266.657 88.341C266.712 88.1453 266.782 87.9392 266.866 87.7227C266.95 87.5063 267.048 87.2967 267.161 87.0939C267.276 86.8892 267.406 86.7001 267.551 86.5267C267.698 86.3513 267.861 86.2061 268.038 86.0911C268.219 85.9742 268.416 85.8966 268.629 85.8584C268.842 85.8202 269.074 85.8362 269.323 85.9065C269.452 85.9428 269.56 85.9907 269.647 86.0501C269.735 86.1068 269.81 86.1756 269.871 86.2565C269.933 86.3347 269.984 86.4244 270.025 86.5257C270.066 86.6269 270.104 86.7376 270.14 86.8576L270.334 86.2004L271.037 86.4161L270.37 88.442L269.742 88.2387C269.757 88.1012 269.765 87.9501 269.766 87.7852C269.769 87.6183 269.753 87.4604 269.717 87.3113C269.682 87.1595 269.618 87.0245 269.527 86.9062C269.44 86.7859 269.313 86.7024 269.146 86.6555C268.98 86.6086 268.826 86.6057 268.684 86.6468C268.546 86.6859 268.418 86.7554 268.3 86.8553C268.186 86.9532 268.081 87.0728 267.986 87.2139C267.892 87.3523 267.809 87.4995 267.736 87.6555C267.664 87.8088 267.602 87.9621 267.55 88.1153C267.499 88.2658 267.456 88.4014 267.422 88.522C267.389 88.6373 267.357 88.7742 267.323 88.9327C267.291 89.0886 267.267 89.2524 267.25 89.4243C267.236 89.5969 267.233 89.7712 267.241 89.9471C267.25 90.1204 267.279 90.2818 267.326 90.4312C267.377 90.5787 267.451 90.708 267.547 90.819C267.643 90.93 267.771 91.0082 267.932 91.0536C268.061 91.0899 268.183 91.0969 268.3 91.0747C268.416 91.0525 268.523 91.0104 268.622 90.9485C268.724 90.8846 268.816 90.8049 268.897 90.7094C268.982 90.6146 269.057 90.5128 269.123 90.4039C269.188 90.295 269.244 90.1835 269.291 90.0693C269.341 89.9532 269.379 89.8438 269.405 89.7412L269.428 89.6608L268.303 89.3088L268.459 88.7538L270.264 89.2194C270.237 89.368 270.206 89.5171 270.173 89.6668C270.142 89.8173 270.106 89.9649 270.065 90.1097Z" fill="white"/>
<path d="M274.392 90.2533C274.331 90.4705 274.258 90.7005 274.175 90.9434C274.092 91.1862 273.994 91.4219 273.881 91.6503C273.77 91.8795 273.64 92.0946 273.49 92.2955C273.344 92.4946 273.177 92.6586 272.987 92.7874C272.8 92.917 272.589 93.0036 272.354 93.0472C272.118 93.0909 271.857 93.0723 271.571 92.9914C271.345 92.9279 271.161 92.8311 271.019 92.7011C270.875 92.5738 270.762 92.4248 270.68 92.254C270.601 92.0841 270.548 91.8983 270.52 91.6967C270.493 91.4952 270.484 91.2915 270.493 91.0856C270.503 90.8771 270.526 90.6709 270.563 90.4673C270.603 90.2643 270.647 90.0771 270.696 89.9055C270.757 89.6884 270.831 89.4561 270.918 89.2086C271.005 88.9611 271.108 88.7195 271.227 88.4838C271.345 88.2481 271.48 88.0271 271.631 87.8207C271.784 87.6151 271.957 87.4439 272.149 87.307C272.344 87.1709 272.559 87.0797 272.795 87.0334C273.032 86.9843 273.292 86.9999 273.576 87.08C273.801 87.1436 273.985 87.243 274.126 87.3783C274.271 87.5118 274.38 87.6684 274.454 87.8484C274.531 88.0264 274.579 88.2195 274.598 88.4276C274.621 88.6364 274.624 88.8487 274.61 89.0646C274.596 89.2777 274.567 89.4867 274.524 89.6916C274.484 89.8945 274.44 90.0818 274.392 90.2533ZM273.59 90.0793C273.616 89.9882 273.645 89.8748 273.677 89.7392C273.71 89.601 273.738 89.4555 273.761 89.3028C273.785 89.1474 273.799 88.9893 273.804 88.8286C273.809 88.6679 273.794 88.5191 273.76 88.3822C273.73 88.2434 273.676 88.1239 273.597 88.0235C273.521 87.9212 273.414 87.8504 273.275 87.8111C273.098 87.7612 272.934 87.7671 272.783 87.8288C272.636 87.8887 272.501 87.985 272.376 88.1178C272.252 88.2506 272.14 88.4084 272.039 88.5913C271.939 88.7714 271.85 88.9577 271.773 89.15C271.695 89.3423 271.628 89.5302 271.57 89.7137C271.516 89.8953 271.471 90.0517 271.434 90.1831C271.406 90.2823 271.376 90.397 271.345 90.5272C271.315 90.6547 271.29 90.7881 271.271 90.9274C271.256 91.0648 271.25 91.2036 271.254 91.3436C271.259 91.4809 271.279 91.6083 271.315 91.7256C271.354 91.8437 271.415 91.9476 271.497 92.0372C271.578 92.1268 271.689 92.1913 271.828 92.2306C272.003 92.2798 272.163 92.2771 272.308 92.2227C272.454 92.1682 272.586 92.0809 272.703 91.9608C272.825 91.8387 272.932 91.6939 273.026 91.5264C273.122 91.3596 273.206 91.1894 273.278 91.0159C273.351 90.8396 273.412 90.6688 273.462 90.5033C273.514 90.3386 273.557 90.1973 273.59 90.0793Z" fill="white"/>
<path d="M279.1 89.5061L278.59 89.4057L276.119 94.196L275.224 93.8915L275.624 88.6559L275.121 88.5314L275.381 87.7626L277.013 88.2231L276.874 88.965L276.396 88.8737L275.92 93.1763L277.858 89.1993L277.355 89.0747L277.615 88.3059L279.259 88.7262L279.1 89.5061Z" fill="white"/>
<path d="M282.318 91.5165L281.676 91.4223L281.942 90.3252L281.268 90.161L280.035 94.3801L280.602 94.5228L280.358 95.2353L278.69 94.8082L278.877 94.0535L279.351 94.1873L280.525 89.9948L279.787 89.8389L279.542 90.8637L278.874 90.6754L279.407 88.9415L282.73 89.7486L282.318 91.5165Z" fill="white"/>
<path d="M282.502 95.4231C282.482 95.4928 282.45 95.5547 282.406 95.6088C282.362 95.6629 282.309 95.706 282.248 95.7379C282.189 95.7706 282.124 95.7913 282.052 95.8C281.983 95.8094 281.914 95.8043 281.844 95.7846C281.774 95.765 281.712 95.733 281.658 95.6888C281.604 95.6446 281.561 95.5933 281.528 95.5349C281.495 95.4765 281.474 95.4127 281.465 95.3434C281.455 95.2742 281.461 95.2047 281.48 95.135C281.5 95.0653 281.532 95.0034 281.576 94.9493C281.621 94.8926 281.673 94.8478 281.731 94.8151C281.79 94.7797 281.854 94.7573 281.924 94.7479C281.993 94.7384 282.062 94.7436 282.132 94.7632C282.202 94.7829 282.264 94.8148 282.318 94.859C282.375 94.904 282.419 94.957 282.451 95.0181C282.486 95.0773 282.508 95.1428 282.517 95.2147C282.526 95.284 282.521 95.3534 282.502 95.4231Z" fill="white"/>
<path d="M288.675 94.2818C288.614 94.4989 288.542 94.7289 288.459 94.9718C288.376 95.2147 288.278 95.4503 288.164 95.6787C288.053 95.9079 287.923 96.123 287.774 96.324C287.628 96.5231 287.46 96.687 287.271 96.8158C287.083 96.9454 286.872 97.032 286.637 97.0757C286.402 97.1193 286.141 97.1007 285.854 97.0198C285.629 96.9563 285.445 96.8596 285.302 96.7296C285.159 96.6023 285.046 96.4532 284.964 96.2825C284.884 96.1125 284.831 95.9267 284.804 95.7252C284.777 95.5236 284.768 95.3199 284.777 95.1141C284.786 94.9055 284.81 94.6994 284.847 94.4957C284.887 94.2928 284.931 94.1055 284.979 93.934C285.041 93.7168 285.115 93.4845 285.202 93.237C285.289 92.9896 285.392 92.748 285.511 92.5123C285.629 92.2766 285.764 92.0555 285.915 91.8492C286.068 91.6436 286.241 91.4723 286.433 91.3355C286.628 91.1994 286.843 91.1081 287.079 91.0618C287.315 91.0128 287.576 91.0283 287.86 91.1085C288.085 91.172 288.268 91.2714 288.41 91.4068C288.554 91.5402 288.664 91.6969 288.737 91.8768C288.814 92.0549 288.863 92.2479 288.882 92.456C288.904 92.6648 288.908 92.8772 288.893 93.093C288.88 93.3062 288.851 93.5152 288.808 93.72C288.768 93.923 288.724 94.1102 288.675 94.2818ZM287.874 94.1077C287.899 94.0166 287.928 93.9032 287.961 93.7677C287.994 93.6295 288.022 93.484 288.045 93.3312C288.068 93.1758 288.083 93.0177 288.087 92.857C288.092 92.6963 288.078 92.5475 288.044 92.4107C288.014 92.2719 287.959 92.1523 287.88 92.0519C287.805 91.9497 287.698 91.8789 287.558 91.8395C287.381 91.7896 287.218 91.7956 287.067 91.8573C286.92 91.9171 286.784 92.0134 286.66 92.1462C286.536 92.279 286.423 92.4368 286.322 92.6197C286.222 92.7999 286.134 92.9861 286.056 93.1785C285.979 93.3708 285.911 93.5587 285.854 93.7422C285.8 93.9237 285.754 94.0802 285.717 94.2115C285.689 94.3107 285.66 94.4254 285.629 94.5556C285.599 94.6831 285.574 94.8165 285.555 94.9559C285.539 95.0933 285.534 95.232 285.538 95.372C285.542 95.5094 285.563 95.6367 285.599 95.754C285.638 95.8721 285.699 95.976 285.78 96.0656C285.862 96.1553 285.973 96.2197 286.112 96.2591C286.286 96.3082 286.446 96.3056 286.592 96.2511C286.738 96.1967 286.869 96.1094 286.987 95.9892C287.108 95.8671 287.216 95.7223 287.309 95.5548C287.405 95.388 287.49 95.2179 287.562 95.0443C287.635 94.8681 287.696 94.6972 287.745 94.5317C287.798 94.367 287.84 94.2257 287.874 94.1077Z" fill="white"/>
<path d="M292.785 94.4859L292.098 94.3355L292.315 93.4154L290.882 93.0461L290.381 94.8843L291.579 95.2223L291.416 95.8014L290.205 95.538L289.763 97.1672L290.325 97.3604L290.123 98.0762L288.367 97.6242L288.565 96.8292L289.039 96.963L290.19 92.851L289.687 92.7265L289.947 91.9577L293.208 92.8338L292.785 94.4859Z" fill="white"/>
<path d="M295.405 98.6975L295.16 99.41L293.492 98.983L293.679 98.2282L294.154 98.362L295.305 94.25L294.801 94.1255L295.062 93.3567L296.654 93.8058L296.514 94.5478L296.037 94.4564L294.837 98.5549L295.405 98.6975Z" fill="white"/>
<path d="M301.371 95.8306L300.893 95.7392L299.361 100.708L298.657 100.526L298.081 95.6409L297.121 99.199L297.673 99.3372L297.469 100.061L295.736 99.6158L295.923 98.8611L296.398 98.9949L297.508 94.8715L297.005 94.747L297.265 93.9782L298.617 94.3592L299.117 99.1107L300.129 95.5237L299.618 95.3969L299.878 94.6281L301.518 95.0909L301.371 95.8306Z" fill="white"/>
<path d="M304.781 99.1454C304.715 99.3786 304.631 99.618 304.527 99.8637C304.426 100.107 304.302 100.337 304.154 100.553C304.01 100.767 303.841 100.957 303.646 101.122C303.455 101.288 303.234 101.409 302.984 101.486C302.831 101.536 302.673 101.562 302.51 101.565C302.35 101.569 302.193 101.55 302.04 101.507L302.016 101.5L300.406 101.02L300.591 100.273L301.065 100.407L302.253 96.1662L301.79 96.053L301.97 95.2615C302.21 95.3119 302.446 95.367 302.678 95.4267C302.913 95.4871 303.15 95.5509 303.388 95.6182L303.847 95.7475C304.091 95.8163 304.291 95.922 304.448 96.0646C304.604 96.2071 304.725 96.373 304.811 96.5621C304.899 96.7519 304.957 96.9578 304.984 97.1796C305.011 97.4014 305.018 97.6277 305.005 97.8585C304.993 98.0865 304.966 98.3118 304.923 98.5342C304.882 98.754 304.834 98.9577 304.781 99.1454ZM304.069 98.8402L304.089 98.7678C304.115 98.6767 304.139 98.5635 304.163 98.4284C304.19 98.2913 304.211 98.1453 304.226 97.9903C304.241 97.8352 304.244 97.6786 304.237 97.5202C304.229 97.3618 304.207 97.2151 304.17 97.0802C304.133 96.9426 304.076 96.8236 303.997 96.7232C303.921 96.6236 303.819 96.5557 303.69 96.5194L303.433 96.4468C303.36 96.4264 303.288 96.406 303.215 96.3856C303.143 96.3652 303.07 96.3474 302.996 96.3324L301.738 100.64C301.79 100.66 301.841 100.679 301.891 100.696C301.941 100.713 301.993 100.729 302.047 100.744C302.189 100.785 302.331 100.816 302.472 100.838C302.629 100.856 302.772 100.836 302.902 100.777C303.034 100.716 303.154 100.631 303.26 100.522C303.369 100.411 303.466 100.282 303.551 100.136C303.636 99.9887 303.712 99.8393 303.778 99.6871C303.844 99.5323 303.902 99.3806 303.949 99.232C303.997 99.0834 304.037 98.9528 304.069 98.8402Z" fill="white"/>
<path d="M306.479 101.821L306.235 102.533L304.567 102.106L304.754 101.352L305.228 101.485L306.379 97.3734L305.876 97.2489L306.136 96.4801L307.729 96.9292L307.589 97.6712L307.111 97.5798L305.912 101.678L306.479 101.821Z" fill="white"/>
<path d="M310.573 103.132L310.301 103.88L308.679 103.379L308.859 102.588L309.353 102.744L309.475 101.511L308.4 101.26L307.936 102.258L308.392 102.43L308.123 103.135L306.49 102.675L306.67 101.883L307.164 102.04L309.252 97.9926L308.837 97.893L308.99 97.1981L311.052 97.7363L310.831 98.3683L310.424 98.271L310.085 102.951L310.573 103.132ZM309.54 100.852L309.802 98.2605L308.703 100.616L309.54 100.852Z" fill="white"/>
<path d="M261.183 68.8219L261.117 69.0566L259.906 68.7152L257.788 76.2261L257.541 76.1564L256.525 75.1231L257.191 72.7636L254.658 72.0494C254.355 72.8086 253.903 73.1034 253.302 72.9338C252.956 72.8362 252.711 72.6026 252.566 72.2328C252.432 71.8572 252.382 71.4653 252.417 71.0574C252.428 70.8293 252.464 70.6082 252.524 70.3941C252.557 70.2788 252.586 70.1935 252.61 70.1381L253.574 70.4099L253.793 69.6316C253.172 69.1542 252.69 68.6404 252.347 68.0903C252.013 67.5426 251.92 67.0051 252.069 66.4781C252.189 66.0498 252.425 65.7652 252.776 65.6241C253.13 65.4748 253.537 65.4652 253.998 65.5952C254.369 65.6998 254.711 65.872 255.026 66.1118C255.343 66.3435 255.572 66.6483 255.715 67.0263C255.865 67.4066 255.871 67.8438 255.732 68.338L255.031 70.821L257.539 71.5283L258.448 68.304L256.608 67.7849L256.371 66.638L256.441 66.3909L260.937 67.6591L261.183 68.8219ZM253.238 67.2481C253.157 67.5363 253.194 67.8312 253.349 68.1328C253.506 68.4261 253.74 68.7009 254.05 68.9573C254.145 68.7795 254.241 68.5623 254.34 68.3057C254.448 68.0514 254.525 67.842 254.571 67.6773C254.631 67.4631 254.619 67.2551 254.534 67.0532C254.457 66.8537 254.327 66.7284 254.146 66.6773C253.94 66.6192 253.754 66.6334 253.587 66.7197C253.429 66.8084 253.313 66.9845 253.238 67.2481Z" fill="white"/>
<path d="M265.078 69.9204L265.012 70.1551L263.813 69.8172L261.695 77.328L261.448 77.2584L260.42 76.2217L262.331 69.3991L261.108 69.0541L260.871 67.9072L260.941 67.6601L264.832 68.7576L265.078 69.9204Z" fill="white"/>
<path d="M270.532 71.7388L268.568 71.1848C268.54 71.5058 268.492 71.848 268.425 72.2114C268.358 72.5748 268.287 72.8924 268.21 73.1642C268.059 73.6995 267.802 74.1382 267.439 74.4803C267.075 74.8224 266.659 75.1183 266.188 75.3679L268.079 78.5949L267.152 78.9472L265.227 74.8969C265.158 74.7349 265.12 74.6487 265.114 74.6381C264.971 74.3577 264.873 74.1347 264.822 73.9691C264.779 73.8059 264.781 73.6419 264.828 73.4772C264.883 73.2796 265.012 73.1069 265.214 72.9593C265.426 72.8058 265.628 72.7028 265.821 72.6505L266.412 73.2973C266.502 73.1982 266.611 73.0333 266.738 72.8025C266.866 72.5717 266.963 72.3369 267.03 72.098C267.135 71.7274 267.222 71.294 267.29 70.7978L264.993 70.1497L264.756 69.0028L264.826 68.7557L270.36 70.3165L270.606 71.4793L270.532 71.7388Z" fill="white"/>
<path d="M278.412 73.9343L277.201 73.5929L275.083 81.1038L274.848 81.0376L273.82 80.0009L275.001 75.8131L273.087 75.273C272.634 75.1453 272.272 75.15 272.002 75.2873C271.741 75.4269 271.551 75.7067 271.432 76.1267C271.198 76.9585 271.52 78.1475 272.4 79.6937L271.788 80.0677C271.193 79.18 270.731 78.3294 270.4 77.516C270.08 76.6967 270.017 75.9411 270.213 75.2493C270.391 74.6152 270.708 74.171 271.162 73.9167C271.626 73.6566 272.287 73.6473 273.143 73.8888L275.367 74.5159L275.743 73.1818L270.518 71.708L270.281 70.5611L270.351 70.314L278.232 72.5368L278.478 73.6996L278.412 73.9343Z" fill="white"/>
<path d="M290.08 76.9851L290.014 77.2198L288.803 76.8783L286.685 84.3892L286.438 84.3195L285.41 83.2828L286.086 80.8863L286.061 80.8793C285.679 80.8782 285.311 80.8278 284.957 80.7279C284.652 80.642 284.35 80.4679 284.05 80.2056C283.751 79.9433 283.485 79.6416 283.252 79.3003L283.215 79.2899C282.96 79.5023 282.644 79.7067 282.269 79.9031L284.221 83.1476L283.282 83.4964L281.308 79.4321C281.122 79.0508 280.994 78.7656 280.923 78.5766C280.862 78.3817 280.857 78.1936 280.908 78.0125C280.964 77.8148 281.093 77.6422 281.294 77.4946C281.507 77.341 281.709 77.2381 281.902 77.1857L282.493 77.8325C282.583 77.7335 282.692 77.5685 282.819 77.3377C282.946 77.1069 283.044 76.8721 283.111 76.6333C283.208 76.2874 283.299 75.8551 283.383 75.3365L281.098 74.6919L280.861 73.545L280.931 73.2979L289.838 75.8099L290.08 76.9851ZM285.05 79.2607C285.61 79.4186 286.096 79.4622 286.507 79.3915L287.333 76.4637L284.652 75.7077C284.581 76.4343 284.46 77.0982 284.291 77.6994C284.2 78.0206 284.058 78.3185 283.865 78.593C284.035 78.7476 284.227 78.8862 284.441 79.0089C284.656 79.1316 284.858 79.2196 285.047 79.2731L285.05 79.2607Z" fill="white"/>
<path d="M295.541 78.7919L293.577 78.238C293.548 78.559 293.501 78.9012 293.434 79.2646C293.367 79.628 293.295 79.9456 293.218 80.2174C293.067 80.7527 292.81 81.1914 292.447 81.5335C292.084 81.8756 291.667 82.1715 291.197 82.4211L293.087 85.6481L292.161 86.0004L290.236 81.9501C290.166 81.7881 290.128 81.7018 290.122 81.6913C289.979 81.4109 289.882 81.1879 289.831 81.0223C289.788 80.8591 289.79 80.6951 289.836 80.5304C289.892 80.3327 290.021 80.1601 290.222 80.0125C290.434 79.859 290.637 79.756 290.829 79.7036L291.421 80.3504C291.511 80.2514 291.619 80.0865 291.747 79.8557C291.874 79.6249 291.971 79.39 292.039 79.1512C292.143 78.7806 292.23 78.3472 292.299 77.8509L290.001 77.2029L289.764 76.0559L289.834 75.8089L295.368 77.3697L295.614 78.5325L295.541 78.7919Z" fill="white"/>
<path d="M301.92 80.5377L301.314 82.6872C301.999 82.4005 302.585 82.3256 303.071 82.4626C303.516 82.5881 303.875 82.8096 304.15 83.1272C304.436 83.4388 304.62 83.8108 304.703 84.2431C304.787 84.6671 304.766 85.1056 304.638 85.5586C304.538 85.9127 304.356 86.3235 304.091 86.7911C303.836 87.2527 303.545 87.6686 303.219 88.0388L302.211 86.741C302.562 86.4754 302.919 86.1539 303.283 85.7765C303.65 85.3909 303.869 85.0705 303.941 84.8151C304.008 84.5763 303.981 84.3596 303.858 84.1649C303.737 83.9619 303.537 83.821 303.257 83.742C302.927 83.6491 302.562 83.6527 302.16 83.7528C301.767 83.8552 301.34 84.0148 300.878 84.2314L299.798 88.061L299.551 87.9913L298.481 86.916L299.116 85.0414L299.095 85.0221C298.675 85.1881 298.293 85.2981 297.948 85.3522C297.612 85.4085 297.259 85.3845 296.889 85.28C296.46 85.1592 296.096 84.9541 295.795 84.6648C295.494 84.3755 295.288 84.0195 295.176 83.5968C295.072 83.1763 295.09 82.719 295.23 82.2249C295.336 81.8461 295.512 81.5087 295.755 81.2129C296.009 80.9111 296.315 80.695 296.671 80.5645C297.028 80.4339 297.413 80.4268 297.824 80.5429C298.352 80.6915 298.754 80.9652 299.033 81.3639C299.312 81.7626 299.523 82.2444 299.666 82.8092L300.418 80.1409L295.526 78.7612L295.29 77.6142L295.359 77.3672L306.132 80.4053L306.365 81.5646L306.299 81.7993L301.92 80.5377ZM296.78 83.9157C297.208 84.0365 297.65 84.0632 298.104 83.9958C298.561 83.9202 299.009 83.7841 299.446 83.5875L299.471 83.501C299.366 83.2404 299.16 82.9643 298.851 82.6727C298.552 82.3752 298.223 82.1712 297.863 82.0608C297.6 81.9864 297.316 81.951 297.013 81.9544C296.718 81.9601 296.451 82.0227 296.213 82.1422C295.977 82.2535 295.825 82.4327 295.755 82.6797C295.685 82.9268 295.755 83.1687 295.964 83.4054C296.172 83.6421 296.442 83.807 296.771 83.8999L296.78 83.9157Z" fill="white"/>
<path d="M310.245 82.659L310.179 82.8937L308.981 82.5557L306.862 90.0666L306.615 89.997L305.587 88.9602L307.498 82.1377L306.275 81.7927L306.039 80.6458L306.108 80.3987L310 81.4962L310.245 82.659Z" fill="white"/>
<path d="M315.7 84.4774L313.735 83.9234C313.707 84.2444 313.66 84.5866 313.593 84.95C313.526 85.3134 313.454 85.631 313.377 85.9028C313.226 86.4381 312.969 86.8768 312.606 87.2189C312.243 87.561 311.826 87.8569 311.355 88.1065L313.246 91.3335L312.32 91.6858L310.395 87.6355C310.325 87.4735 310.287 87.3873 310.281 87.3767C310.138 87.0963 310.041 86.8733 309.99 86.7077C309.947 86.5445 309.948 86.3805 309.995 86.2158C310.051 86.0182 310.179 85.8455 310.381 85.6979C310.593 85.5444 310.796 85.4414 310.988 85.3891L311.579 86.0359C311.67 85.9368 311.778 85.7719 311.906 85.5411C312.033 85.3103 312.13 85.0755 312.198 84.8366C312.302 84.466 312.389 84.0326 312.458 83.5363L310.16 82.8883L309.923 81.7413L309.993 81.4943L315.527 83.0551L315.773 84.2179L315.7 84.4774Z" fill="white"/>
<path d="M180.6 81.0708L99.7876 58.2792C98.0819 57.7982 96.3093 58.7909 95.8282 60.4966C95.3472 62.2022 96.3399 63.9749 98.0456 64.4559L178.858 87.2475C180.563 87.7286 182.336 86.7358 182.817 85.0302C183.298 83.3245 182.305 81.5518 180.6 81.0708Z" fill="#263238"/>
<path d="M212.699 101.236L96.8852 68.5732C95.1796 68.0921 93.4069 69.0849 92.9259 70.7905C92.4448 72.4962 93.4376 74.2688 95.1432 74.7499L210.957 107.413C212.662 107.894 214.435 106.901 214.916 105.196C215.397 103.49 214.404 101.717 212.699 101.236Z" fill="#263238"/>
<path d="M126.791 92.5674L91.7894 82.6959C90.6523 82.3752 89.4705 83.037 89.1498 84.1741C88.8291 85.3112 89.4909 86.493 90.628 86.8137L125.629 96.6852C126.767 97.0059 127.948 96.3441 128.269 95.207C128.59 94.0699 127.928 92.8881 126.791 92.5674Z" fill="#263238"/>
<path d="M150.971 117.168L89.2038 99.7473C86.9295 99.1059 84.566 100.43 83.9246 102.704C83.2832 104.978 84.6068 107.342 86.881 107.983L148.648 125.403C150.922 126.045 153.286 124.721 153.927 122.447C154.569 120.173 153.245 117.809 150.971 117.168Z" fill="#263238"/>
<path d="M80.5467 146.204C82.0507 140.872 99.7477 138.544 99.8754 134.34C100.035 129.086 85.5911 124.464 85.9882 130.424C86.3852 136.384 87.479 147.543 91.6791 144.707C95.8792 141.871 93.321 135.964 91.7932 141.381C90.2654 146.798 99.6997 145.438 100.002 143.696C100.305 141.954 96.1488 139.274 100.921 140.437C105.694 141.601 109.663 141.487 105.559 143.984C101.454 146.481 103.506 139.235 106.078 138.054C108.728 136.837 111.17 137.526 112.03 139.733C113.463 143.407 112.586 145.966 111.536 145.67C108.001 144.673 111.502 136.37 116.457 140.981C120.894 145.111 125.307 145.236 136.11 139.648" stroke="white" stroke-linecap="round"/>
</svg>
