<svg width="381" height="360" viewBox="0 0 381 360" fill="none" xmlns="http://www.w3.org/2000/svg">
<path d="M357.019 313.793C334.5 342.182 288.204 356.501 217.016 359.473C124.078 363.352 81.5434 345.878 38.5215 306.192H349.364L357.019 313.793Z" fill="#999999"/>
<path d="M1 306.171H345.77" stroke="#263238" stroke-linecap="round" stroke-linejoin="round"/>
<path d="M349.381 47.8965V306.165L372.173 329.118" stroke="#263238" stroke-linecap="round" stroke-linejoin="round"/>
<path d="M281.305 63.1867V18.2812" stroke="#263238" stroke-linecap="round" stroke-linejoin="round"/>
<path d="M262.049 82.5686C261.996 79.9902 262.454 77.4271 263.398 75.0294C264.341 72.6318 265.75 70.4478 267.542 68.6054C269.334 66.763 271.473 65.2993 273.834 64.3001C276.195 63.3008 278.73 62.7861 281.291 62.7861C283.852 62.7861 286.387 63.3008 288.748 64.3001C291.109 65.2993 293.248 66.763 295.04 68.6054C296.832 70.4478 298.241 72.6318 299.184 75.0294C300.127 77.4271 300.585 79.9902 300.532 82.5686H262.049Z" stroke="#263238" stroke-linecap="round" stroke-linejoin="round"/>
<path d="M38.511 306.171H22.7539" stroke="#263238" stroke-linecap="round" stroke-linejoin="round"/>
<path d="M102.385 202.746H85.8594V306.177H102.385V202.746Z" stroke="#263238" stroke-linecap="round" stroke-linejoin="round"/>
<path d="M79.9431 210.426H13.1699V235.543H79.9431V210.426Z" stroke="#263238" stroke-linecap="round" stroke-linejoin="round"/>
<path d="M79.9431 238.283H13.1699V263.4H79.9431V238.283Z" stroke="#263238" stroke-linecap="round" stroke-linejoin="round"/>
<path d="M79.9431 266.146H13.1699V291.263H79.9431V266.146Z" stroke="#263238" stroke-linecap="round" stroke-linejoin="round"/>
<path d="M39.5312 212.238C39.5312 212.98 39.8239 213.692 40.3448 214.216C40.8658 214.741 41.5723 215.035 42.309 215.035H50.7993C51.1648 215.037 51.5268 214.965 51.8648 214.825C52.2028 214.685 52.51 214.479 52.7688 214.219C53.0276 213.959 53.2329 213.651 53.3731 213.311C53.5132 212.971 53.5853 212.606 53.5853 212.238" stroke="#263238" stroke-linecap="round" stroke-linejoin="round"/>
<path d="M39.5312 240.089C39.5378 240.828 39.833 241.534 40.353 242.054C40.873 242.575 41.5758 242.868 42.309 242.87H50.7993C51.5382 242.87 52.2468 242.574 52.7693 242.048C53.2918 241.522 53.5853 240.809 53.5853 240.064" stroke="#263238" stroke-linecap="round" stroke-linejoin="round"/>
<path d="M39.5313 267.957C39.5312 268.7 39.8236 269.412 40.3443 269.938C40.865 270.464 41.5715 270.76 42.309 270.763H50.7993C51.1651 270.763 51.5274 270.69 51.8654 270.549C52.2035 270.408 52.5106 270.201 52.7693 269.941C53.028 269.68 53.2332 269.371 53.3732 269.031C53.5132 268.69 53.5853 268.325 53.5853 267.957" stroke="#263238" stroke-linecap="round" stroke-linejoin="round"/>
<path d="M83.1492 306.177H7.76172V202.746H83.1492" stroke="#263238" stroke-linecap="round" stroke-linejoin="round"/>
<path d="M147.556 255.96V295.088L167.902 302.306C168.155 302.395 168.375 302.562 168.53 302.783C168.686 303.003 168.769 303.267 168.77 303.538V304.753C168.77 304.955 168.724 305.155 168.634 305.336C168.545 305.516 168.414 305.674 168.254 305.795C168.093 305.916 167.907 305.998 167.709 306.034C167.512 306.07 167.309 306.059 167.116 306.002L146.217 299.825L145.837 304.878C145.814 305.23 145.658 305.56 145.401 305.8C145.144 306.039 144.806 306.171 144.456 306.169H143.381C143.032 306.167 142.696 306.034 142.441 305.795C142.185 305.556 142.028 305.229 142.001 304.878L141.621 299.825L120.73 306.002C120.537 306.057 120.335 306.067 120.138 306.03C119.941 305.993 119.755 305.911 119.595 305.791C119.435 305.67 119.305 305.513 119.215 305.333C119.125 305.153 119.077 304.955 119.076 304.753V303.538C119.076 303.267 119.16 303.003 119.316 302.783C119.471 302.562 119.691 302.395 119.944 302.306L140.298 295.088V255.96" stroke="#263238" stroke-linecap="round" stroke-linejoin="round"/>
<path d="M138.273 241.783V230.444" stroke="#263238" stroke-linecap="round" stroke-linejoin="round"/>
<path d="M133.496 230.444V241.783" stroke="#263238" stroke-linecap="round" stroke-linejoin="round"/>
<path d="M117.627 228.437C114.237 228.304 111.84 226.089 111.84 222.26V202.404C111.895 201.203 112.295 200.043 112.992 199.066C113.689 198.089 114.653 197.337 115.767 196.901" stroke="#263238" stroke-linecap="round" stroke-linejoin="round"/>
<path d="M116.703 199.889V222.175C116.703 226.021 119.754 228.144 123.598 227.461C131.984 225.905 140.611 226.286 148.829 228.577C152.615 229.609 155.591 227.744 155.591 223.915V201.629C155.543 200.656 155.22 199.717 154.658 198.923C154.097 198.129 153.322 197.514 152.425 197.15C141.95 193.578 130.682 193.079 119.936 195.709C119.031 195.978 118.232 196.526 117.652 197.276C117.073 198.025 116.741 198.939 116.703 199.889V199.889Z" stroke="#263238" stroke-linecap="round" stroke-linejoin="round"/>
<path d="M132.309 243.438H121.314C120.387 243.436 119.469 243.619 118.613 243.976C117.756 244.332 116.978 244.855 116.322 245.514C115.667 246.174 115.146 246.957 114.791 247.819C114.437 248.681 114.254 249.606 114.254 250.539V250.539C114.254 251.402 114.594 252.23 115.201 252.841C115.807 253.451 116.629 253.794 117.486 253.794H130.276" stroke="#263238" stroke-linecap="round" stroke-linejoin="round"/>
<path d="M134.023 253.794H170.332C171.19 253.794 172.012 253.451 172.618 252.841C173.224 252.23 173.565 251.402 173.565 250.539C173.565 249.606 173.382 248.681 173.027 247.819C172.672 246.957 172.152 246.174 171.497 245.514C170.841 244.855 170.062 244.332 169.206 243.976C168.349 243.619 167.432 243.436 166.505 243.438H137.851C136.924 243.436 136.006 243.619 135.15 243.976C134.293 244.332 133.515 244.855 132.859 245.514C132.204 246.174 131.684 246.957 131.329 247.819C130.974 248.681 130.791 249.606 130.791 250.539V250.539C130.791 251.402 131.132 252.23 131.738 252.841C132.344 253.451 133.166 253.794 134.023 253.794V253.794Z" stroke="#263238" stroke-linecap="round" stroke-linejoin="round"/>
<path d="M304.977 185.3C305.409 185.291 305.823 185.125 306.144 184.833C306.464 184.541 306.669 184.142 306.721 183.709L310.342 149.768C310.369 149.568 310.353 149.364 310.295 149.17C310.237 148.976 310.137 148.798 310.004 148.646C309.87 148.495 309.705 148.375 309.521 148.294C309.337 148.213 309.137 148.174 308.937 148.178" stroke="#263238" stroke-linecap="round" stroke-linejoin="round"/>
<path d="M215.417 216.536L331.934 216.536V205.647H215.417V216.536Z" stroke="#263238" stroke-linecap="round" stroke-linejoin="round"/>
<path d="M173.941 205.642V216.531H213.615" stroke="#263238" stroke-linecap="round" stroke-linejoin="round"/>
<path d="M335.681 204.472V197.662H222.066" stroke="#263238" stroke-linecap="round" stroke-linejoin="round"/>
<path d="M170.188 204.479H220.254V197.669H170.188V204.479Z" stroke="#263238" stroke-linecap="round" stroke-linejoin="round"/>
<path d="M325.605 218.353V306.174H328.127L329.036 218.353" stroke="#263238" stroke-linecap="round" stroke-linejoin="round"/>
<path d="M322.188 218.353L323.089 306.174H325.61V218.353" stroke="#263238" stroke-linecap="round" stroke-linejoin="round"/>
<path d="M292.293 218.353V306.174H294.814L295.716 218.353" stroke="#263238" stroke-linecap="round" stroke-linejoin="round"/>
<path d="M288.867 218.353L289.768 306.174H292.29V218.353" stroke="#263238" stroke-linecap="round" stroke-linejoin="round"/>
<path d="M213.572 218.353V306.174H216.102L217.003 218.353" stroke="#263238" stroke-linecap="round" stroke-linejoin="round"/>
<path d="M210.146 218.353L211.048 306.174H213.569V218.353" stroke="#263238" stroke-linecap="round" stroke-linejoin="round"/>
<path d="M180.26 218.353V306.174H182.781L183.682 218.353" stroke="#263238" stroke-linecap="round" stroke-linejoin="round"/>
<path d="M176.83 218.353L177.731 306.174H180.253V218.353" stroke="#263238" stroke-linecap="round" stroke-linejoin="round"/>
<path d="M265.567 195.549H241.055V197.663H265.567V195.549Z" stroke="#263238" stroke-linecap="round" stroke-linejoin="round"/>
<path d="M310.609 197.662H304.921C304.542 197.662 304.178 197.51 303.91 197.24C303.642 196.97 303.491 196.604 303.491 196.222V194.407H312.039V196.222C312.039 196.604 311.888 196.97 311.62 197.24C311.352 197.51 310.988 197.662 310.609 197.662Z" stroke="#263238" stroke-linecap="round" stroke-linejoin="round"/>
<path d="M312.041 194.419C312.041 193.187 310.123 192.18 307.758 192.18C305.394 192.18 303.484 193.187 303.484 194.419H312.041Z" stroke="#263238" stroke-linecap="round" stroke-linejoin="round"/>
<path d="M303.484 194.419C303.484 193.187 305.402 192.18 307.758 192.18V194.419H303.484Z" stroke="#263238" stroke-linecap="round" stroke-linejoin="round"/>
<path d="M303.198 185.299H255.415C255.214 185.304 255.014 185.264 254.83 185.183C254.646 185.102 254.481 184.982 254.348 184.831C254.214 184.68 254.114 184.501 254.056 184.308C253.998 184.114 253.982 183.91 254.009 183.709L257.63 149.768C257.684 149.336 257.889 148.939 258.209 148.647C258.529 148.355 258.943 148.189 259.375 148.178H307.167C307.367 148.175 307.566 148.216 307.749 148.297C307.933 148.378 308.097 148.498 308.23 148.649C308.364 148.8 308.463 148.978 308.522 149.171C308.581 149.364 308.598 149.568 308.572 149.768L304.951 183.709C304.899 184.143 304.693 184.543 304.371 184.835C304.048 185.128 303.632 185.292 303.198 185.299Z" stroke="#263238" stroke-linecap="round" stroke-linejoin="round"/>
<path d="M286.217 186.201L287.035 193.844H288.837L288.019 186.201" stroke="#263238" stroke-linecap="round" stroke-linejoin="round"/>
<path d="M274.492 186.201L275.311 193.844H287.033L286.215 186.201" stroke="#263238" stroke-linecap="round" stroke-linejoin="round"/>
<path d="M301.208 182.845H257.938C257.763 182.849 257.59 182.815 257.429 182.745C257.269 182.674 257.126 182.57 257.009 182.439C256.893 182.307 256.806 182.152 256.755 181.983C256.704 181.815 256.691 181.637 256.715 181.463L259.856 152.017C259.902 151.641 260.081 151.294 260.36 151.04C260.64 150.786 261.001 150.642 261.377 150.635H304.647C304.822 150.631 304.996 150.665 305.156 150.735C305.316 150.806 305.46 150.91 305.576 151.041C305.692 151.173 305.779 151.328 305.83 151.497C305.881 151.665 305.895 151.843 305.871 152.017L302.729 181.463C302.683 181.839 302.504 182.186 302.225 182.44C301.945 182.694 301.584 182.838 301.208 182.845V182.845Z" stroke="#263238" stroke-linecap="round" stroke-linejoin="round"/>
<path d="M290.645 193.846H266.877V197.667H290.645V193.846Z" stroke="#263238" stroke-linecap="round" stroke-linejoin="round"/>
<path d="M297.599 193.846H290.646V197.667H297.599V193.846Z" stroke="#263238" stroke-linecap="round" stroke-linejoin="round"/>
<path d="M320.165 157.837H242.33V175.494H320.165V157.837Z" fill="white" stroke="#263238" stroke-linecap="round" stroke-linejoin="round"/>
<path d="M251.733 168.518L250.477 167.552L250.683 169.101C250.701 169.203 250.697 169.308 250.67 169.408C250.644 169.508 250.596 169.602 250.53 169.681C250.463 169.76 250.381 169.824 250.287 169.868C250.194 169.911 250.092 169.934 249.989 169.933V169.933C249.886 169.934 249.784 169.911 249.69 169.868C249.597 169.824 249.514 169.76 249.448 169.681C249.382 169.602 249.334 169.508 249.307 169.408C249.28 169.308 249.276 169.203 249.294 169.101L249.501 167.552L248.236 168.518C248.157 168.578 248.066 168.619 247.97 168.641C247.874 168.663 247.774 168.664 247.677 168.644C247.581 168.625 247.489 168.585 247.409 168.527C247.329 168.47 247.261 168.396 247.211 168.31V168.31C247.161 168.224 247.13 168.128 247.119 168.029C247.109 167.93 247.12 167.83 247.151 167.735C247.182 167.64 247.234 167.554 247.301 167.48C247.368 167.407 247.45 167.35 247.542 167.311L248.988 166.703L247.542 166.096C247.45 166.056 247.368 165.998 247.3 165.924C247.233 165.85 247.182 165.762 247.151 165.667C247.119 165.572 247.109 165.471 247.119 165.371C247.129 165.271 247.161 165.175 247.211 165.088C247.26 165.002 247.327 164.927 247.407 164.868C247.488 164.81 247.58 164.77 247.677 164.75C247.774 164.73 247.874 164.732 247.97 164.754C248.067 164.776 248.158 164.819 248.236 164.88L249.493 165.846L249.286 164.297C249.268 164.195 249.272 164.09 249.299 163.99C249.325 163.89 249.373 163.797 249.44 163.717C249.506 163.638 249.589 163.574 249.682 163.53C249.776 163.487 249.877 163.464 249.98 163.465V163.465C250.083 163.464 250.185 163.487 250.279 163.53C250.372 163.574 250.455 163.638 250.521 163.717C250.588 163.797 250.636 163.89 250.662 163.99C250.689 164.09 250.693 164.195 250.675 164.297L250.468 165.846L251.725 164.88C251.803 164.819 251.894 164.776 251.991 164.754C252.087 164.732 252.187 164.73 252.284 164.75C252.381 164.77 252.473 164.81 252.554 164.868C252.634 164.927 252.701 165.002 252.75 165.088V165.088C252.8 165.175 252.832 165.271 252.842 165.371C252.852 165.471 252.842 165.572 252.81 165.667C252.779 165.762 252.728 165.85 252.661 165.924C252.593 165.998 252.511 166.056 252.419 166.096L250.973 166.703L252.419 167.311C252.511 167.35 252.593 167.407 252.66 167.48C252.727 167.554 252.779 167.64 252.81 167.735C252.841 167.83 252.852 167.93 252.842 168.029C252.831 168.128 252.8 168.224 252.75 168.31C252.7 168.394 252.633 168.467 252.553 168.524C252.473 168.581 252.383 168.62 252.287 168.64C252.191 168.659 252.093 168.659 251.997 168.638C251.902 168.617 251.812 168.576 251.733 168.518V168.518Z" fill="#263238"/>
<path d="M262.95 168.518L261.694 167.552L261.9 169.101C261.918 169.203 261.914 169.308 261.888 169.408C261.861 169.508 261.813 169.602 261.747 169.681C261.68 169.76 261.598 169.824 261.504 169.868C261.411 169.911 261.309 169.934 261.206 169.933V169.933C261.103 169.934 261.001 169.912 260.908 169.868C260.815 169.824 260.733 169.76 260.667 169.681C260.601 169.601 260.554 169.508 260.529 169.408C260.503 169.307 260.5 169.203 260.52 169.101L260.726 167.552L259.47 168.518C259.39 168.578 259.299 168.62 259.202 168.641C259.105 168.663 259.005 168.664 258.907 168.645C258.81 168.625 258.718 168.585 258.637 168.528C258.555 168.47 258.487 168.396 258.436 168.31V168.31C258.388 168.223 258.358 168.127 258.349 168.028C258.34 167.929 258.352 167.828 258.384 167.734C258.416 167.64 258.467 167.553 258.535 167.48C258.602 167.408 258.684 167.35 258.775 167.311L260.214 166.703L258.775 166.096C258.684 166.056 258.602 165.997 258.534 165.924C258.467 165.85 258.415 165.763 258.383 165.668C258.351 165.573 258.34 165.472 258.349 165.372C258.358 165.273 258.388 165.176 258.436 165.088V165.088C258.486 165.001 258.554 164.926 258.635 164.868C258.716 164.809 258.809 164.769 258.906 164.749C259.004 164.73 259.105 164.731 259.202 164.754C259.299 164.776 259.39 164.819 259.47 164.88L260.726 165.846L260.52 164.297C260.5 164.196 260.503 164.091 260.529 163.991C260.554 163.89 260.601 163.797 260.667 163.718C260.733 163.638 260.815 163.574 260.908 163.53C261.001 163.487 261.103 163.464 261.206 163.465V163.465C261.309 163.464 261.411 163.487 261.504 163.53C261.598 163.574 261.68 163.638 261.747 163.717C261.813 163.797 261.861 163.89 261.888 163.99C261.914 164.09 261.918 164.195 261.9 164.297L261.694 165.846L262.95 164.88C263.029 164.819 263.119 164.776 263.216 164.754C263.312 164.732 263.413 164.73 263.51 164.75C263.607 164.77 263.699 164.81 263.779 164.868C263.859 164.927 263.926 165.002 263.975 165.088V165.088C264.026 165.175 264.057 165.271 264.067 165.371C264.078 165.471 264.067 165.572 264.036 165.667C264.004 165.762 263.953 165.85 263.886 165.924C263.818 165.998 263.736 166.056 263.645 166.096L262.206 166.703L263.645 167.311C263.736 167.35 263.818 167.407 263.885 167.48C263.953 167.554 264.004 167.64 264.035 167.735C264.067 167.83 264.077 167.93 264.067 168.029C264.057 168.128 264.025 168.224 263.975 168.31V168.31C263.925 168.396 263.858 168.47 263.777 168.527C263.697 168.585 263.606 168.625 263.509 168.644C263.412 168.664 263.312 168.663 263.216 168.641C263.12 168.619 263.029 168.578 262.95 168.518V168.518Z" fill="#263238"/>
<path d="M274.172 168.518L272.915 167.553L273.122 169.101C273.141 169.203 273.138 169.307 273.113 169.408C273.087 169.508 273.04 169.601 272.974 169.681C272.909 169.761 272.826 169.824 272.733 169.868C272.64 169.912 272.538 169.934 272.436 169.934C272.332 169.935 272.23 169.914 272.135 169.871C272.041 169.828 271.958 169.764 271.891 169.684C271.825 169.604 271.777 169.511 271.751 169.41C271.725 169.309 271.721 169.203 271.741 169.101L271.948 167.553L270.691 168.518C270.612 168.578 270.521 168.62 270.425 168.641C270.329 168.663 270.229 168.664 270.133 168.644C270.036 168.625 269.944 168.585 269.864 168.527C269.784 168.47 269.716 168.396 269.666 168.31V168.31C269.616 168.224 269.585 168.128 269.574 168.029C269.564 167.93 269.575 167.83 269.606 167.735C269.638 167.64 269.689 167.554 269.756 167.481C269.823 167.407 269.905 167.35 269.997 167.311L271.435 166.703L269.997 166.096C269.905 166.056 269.823 165.998 269.756 165.924C269.688 165.85 269.637 165.762 269.606 165.667C269.575 165.572 269.564 165.471 269.574 165.371C269.585 165.271 269.616 165.175 269.666 165.088V165.088C269.715 165.002 269.782 164.927 269.863 164.868C269.943 164.81 270.035 164.77 270.132 164.75C270.229 164.73 270.329 164.732 270.425 164.754C270.522 164.777 270.613 164.82 270.691 164.88L271.948 165.846L271.741 164.297C271.721 164.195 271.725 164.09 271.751 163.989C271.777 163.888 271.825 163.794 271.891 163.714C271.958 163.635 272.041 163.571 272.135 163.528C272.23 163.484 272.332 163.463 272.436 163.465V163.465C272.538 163.464 272.64 163.487 272.733 163.53C272.826 163.574 272.909 163.638 272.974 163.718C273.04 163.797 273.087 163.891 273.113 163.991C273.138 164.091 273.141 164.196 273.122 164.297L272.915 165.846L274.172 164.88C274.25 164.82 274.341 164.777 274.437 164.754C274.534 164.732 274.634 164.73 274.731 164.75C274.828 164.77 274.92 164.81 275 164.868C275.081 164.927 275.148 165.002 275.197 165.088V165.088C275.245 165.176 275.275 165.273 275.284 165.372C275.294 165.472 275.282 165.573 275.25 165.668C275.218 165.763 275.166 165.85 275.099 165.924C275.031 165.997 274.949 166.056 274.858 166.096L273.419 166.703L274.858 167.311C274.949 167.35 275.031 167.407 275.099 167.481C275.166 167.554 275.217 167.64 275.248 167.735C275.28 167.83 275.291 167.93 275.28 168.029C275.27 168.128 275.239 168.224 275.189 168.31C275.138 168.394 275.071 168.467 274.992 168.524C274.912 168.581 274.821 168.62 274.726 168.64C274.63 168.66 274.531 168.659 274.436 168.638C274.341 168.617 274.251 168.576 274.172 168.518Z" fill="#263238"/>
<path d="M285.44 168.518L284.175 167.552L284.382 169.101C284.401 169.203 284.398 169.307 284.373 169.408C284.347 169.508 284.3 169.601 284.234 169.681C284.168 169.76 284.086 169.824 283.993 169.868C283.9 169.912 283.798 169.934 283.695 169.933C283.592 169.934 283.49 169.911 283.397 169.868C283.304 169.824 283.221 169.76 283.155 169.681C283.088 169.602 283.04 169.508 283.014 169.408C282.987 169.308 282.983 169.203 283.001 169.101L283.208 167.552L281.951 168.518C281.872 168.578 281.781 168.619 281.685 168.641C281.589 168.663 281.489 168.664 281.392 168.644C281.296 168.625 281.204 168.585 281.124 168.527C281.043 168.47 280.976 168.396 280.926 168.31C280.876 168.224 280.844 168.128 280.834 168.029C280.824 167.93 280.835 167.83 280.866 167.735C280.897 167.64 280.948 167.554 281.016 167.48C281.083 167.407 281.165 167.35 281.257 167.311L282.703 166.703L281.257 166.096C281.165 166.056 281.083 165.998 281.015 165.924C280.948 165.85 280.897 165.762 280.866 165.667C280.834 165.572 280.824 165.471 280.834 165.371C280.844 165.271 280.876 165.175 280.926 165.088V165.088C280.975 165.002 281.042 164.927 281.122 164.868C281.203 164.81 281.294 164.77 281.391 164.75C281.489 164.73 281.589 164.732 281.685 164.754C281.782 164.776 281.872 164.819 281.951 164.88L283.208 165.846L283.001 164.297C282.983 164.195 282.987 164.09 283.014 163.99C283.04 163.89 283.088 163.797 283.155 163.717C283.221 163.638 283.304 163.574 283.397 163.53C283.49 163.487 283.592 163.464 283.695 163.465V163.465C283.798 163.464 283.9 163.487 283.993 163.53C284.086 163.574 284.168 163.638 284.234 163.718C284.3 163.797 284.347 163.89 284.373 163.991C284.398 164.091 284.401 164.196 284.382 164.297L284.175 165.846L285.44 164.88C285.518 164.819 285.609 164.776 285.705 164.754C285.802 164.732 285.902 164.73 285.999 164.75C286.096 164.77 286.188 164.81 286.268 164.868C286.349 164.927 286.416 165.002 286.465 165.088V165.088C286.514 165.175 286.544 165.272 286.554 165.371C286.563 165.47 286.552 165.571 286.521 165.666C286.49 165.761 286.439 165.848 286.373 165.922C286.306 165.996 286.225 166.055 286.134 166.096L284.687 166.703L286.126 167.311C286.217 167.35 286.299 167.408 286.367 167.48C286.434 167.553 286.485 167.64 286.517 167.734C286.549 167.828 286.561 167.929 286.552 168.028C286.543 168.127 286.513 168.223 286.465 168.31V168.31C286.415 168.396 286.347 168.47 286.267 168.527C286.187 168.585 286.095 168.625 285.998 168.644C285.902 168.664 285.802 168.663 285.706 168.641C285.609 168.619 285.519 168.578 285.44 168.518V168.518Z" fill="#263238"/>
<path d="M296.615 168.518L295.359 167.552L295.566 169.101C295.584 169.203 295.579 169.308 295.553 169.408C295.526 169.508 295.478 169.602 295.412 169.681C295.346 169.76 295.263 169.824 295.169 169.868C295.076 169.911 294.974 169.934 294.871 169.933V169.933C294.768 169.934 294.666 169.911 294.573 169.868C294.479 169.824 294.397 169.76 294.33 169.681C294.264 169.602 294.216 169.508 294.189 169.408C294.163 169.308 294.159 169.203 294.177 169.101L294.383 167.552L293.127 168.518C293.048 168.578 292.957 168.619 292.861 168.641C292.765 168.663 292.665 168.664 292.568 168.644C292.471 168.625 292.38 168.585 292.3 168.527C292.219 168.47 292.152 168.396 292.102 168.31C292.052 168.224 292.02 168.128 292.01 168.029C292 167.93 292.01 167.83 292.042 167.735C292.073 167.64 292.124 167.554 292.191 167.48C292.259 167.407 292.341 167.35 292.432 167.311L293.879 166.703L292.432 166.096C292.341 166.056 292.258 165.998 292.191 165.924C292.124 165.85 292.073 165.762 292.041 165.667C292.01 165.572 291.999 165.471 292.01 165.371C292.02 165.271 292.051 165.175 292.102 165.088V165.088C292.151 165.002 292.218 164.927 292.298 164.868C292.378 164.81 292.47 164.77 292.567 164.75C292.664 164.73 292.765 164.732 292.861 164.754C292.958 164.776 293.048 164.819 293.127 164.88L294.383 165.846L294.177 164.297C294.159 164.195 294.163 164.09 294.189 163.99C294.216 163.89 294.264 163.797 294.33 163.717C294.397 163.638 294.479 163.574 294.573 163.53C294.666 163.487 294.768 163.464 294.871 163.465V163.465C294.974 163.464 295.076 163.487 295.169 163.53C295.263 163.574 295.346 163.638 295.412 163.717C295.478 163.797 295.526 163.89 295.553 163.99C295.579 164.09 295.584 164.195 295.566 164.297L295.359 165.788L296.615 164.822C296.694 164.761 296.785 164.718 296.881 164.696C296.978 164.673 297.078 164.672 297.175 164.692C297.272 164.711 297.364 164.752 297.444 164.81C297.524 164.868 297.591 164.943 297.641 165.03V165.03C297.691 165.117 297.722 165.213 297.733 165.313C297.743 165.413 297.732 165.513 297.701 165.609C297.67 165.704 297.619 165.791 297.551 165.865C297.484 165.939 297.402 165.998 297.31 166.037L295.863 166.645L297.31 167.253C297.401 167.291 297.483 167.349 297.551 167.422C297.618 167.495 297.669 167.582 297.701 167.677C297.732 167.771 297.743 167.872 297.732 167.971C297.722 168.07 297.691 168.166 297.641 168.252V168.252C297.596 168.342 297.532 168.422 297.454 168.485C297.376 168.548 297.285 168.594 297.188 168.62C297.091 168.645 296.99 168.649 296.891 168.631C296.792 168.614 296.698 168.575 296.615 168.518V168.518Z" fill="#263238"/>
<path d="M315.374 166.665C315.374 166.665 313.084 169.537 310.265 169.537C307.446 169.537 305.164 166.665 305.164 166.665C305.164 166.665 307.446 163.784 310.24 163.784C313.034 163.784 315.374 166.665 315.374 166.665Z" fill="white" stroke="#263238" stroke-linecap="round" stroke-linejoin="round"/>
<path d="M312.022 166.671C312.023 167.022 311.922 167.366 311.729 167.659C311.537 167.951 311.262 168.18 310.94 168.315C310.619 168.451 310.265 168.487 309.922 168.42C309.58 168.352 309.266 168.184 309.019 167.936C308.772 167.689 308.603 167.373 308.534 167.029C308.466 166.684 308.5 166.327 308.633 166.003C308.766 165.678 308.992 165.401 309.282 165.206C309.571 165.01 309.912 164.906 310.261 164.906C310.492 164.905 310.721 164.95 310.934 165.038C311.148 165.126 311.342 165.256 311.506 165.42C311.669 165.584 311.799 165.779 311.888 165.994C311.976 166.209 312.022 166.439 312.022 166.671V166.671Z" fill="#999999" stroke="#263238" stroke-linecap="round" stroke-linejoin="round"/>
<path d="M295.689 243.594C295.689 243.594 286.223 263.283 277.907 253.293C269.59 243.302 283.644 239.556 283.644 239.556C283.644 239.556 266.713 241.571 266.713 232.33C266.713 223.089 278.766 228.867 278.766 228.867C278.766 228.867 263.108 216.571 270.731 211.384C276.038 207.771 288.803 220.816 288.803 220.816C288.803 220.816 283.925 208.062 289.629 207.771C295.334 207.48 299.103 225.978 299.103 225.978C299.103 225.978 302.253 212.35 307.99 216.271C313.728 220.192 303.485 235.327 303.485 235.327C303.485 235.327 310.859 227.993 312.868 233.196C314.877 238.399 303.485 241.862 303.485 241.862C303.485 241.862 303.402 260.935 297.094 258.621C290.787 256.306 295.689 243.594 295.689 243.594Z" fill="#005598"/>
<path d="M315.868 286.343C315.868 286.343 315.868 242.437 289.926 229.142" stroke="#263238" stroke-linecap="round" stroke-linejoin="round"/>
<path d="M299.213 236.158C299.213 236.158 291.971 237.457 283.795 246.415" stroke="#263238" stroke-linecap="round" stroke-linejoin="round"/>
<path d="M294.127 231.727C294.127 231.727 286.141 234.182 278.42 233.292" stroke="#263238" stroke-linecap="round" stroke-linejoin="round"/>
<path d="M296.383 233.478C300.113 230.963 303.057 227.432 304.873 223.297" stroke="#263238" stroke-linecap="round" stroke-linejoin="round"/>
<path d="M344.897 256.539C344.897 256.539 352.883 273.147 359.902 264.722C366.921 256.297 355.058 253.125 355.058 253.125C355.058 253.125 369.343 254.832 369.343 247.031C369.343 239.231 359.175 244.101 359.175 244.101C359.175 244.101 372.402 233.728 365.954 229.349C361.473 226.31 350.701 237.308 350.701 237.308C350.701 237.308 354.835 226.552 349.982 226.31C345.129 226.069 341.987 241.67 341.987 241.67C341.987 241.67 339.325 230.165 334.489 233.478C329.653 236.792 338.292 249.562 338.292 249.562C338.292 249.562 332.067 243.368 330.372 247.764C328.677 252.16 338.292 255.074 338.292 255.074C338.292 255.074 338.358 271.158 343.682 269.226C349.006 267.295 344.897 256.539 344.897 256.539Z" fill="#005598"/>
<path opacity="0.1" d="M344.903 256.536C344.903 256.536 352.889 273.144 359.908 264.719C366.927 256.294 355.064 253.123 355.064 253.123C355.064 253.123 369.349 254.829 369.349 247.029C369.349 239.228 359.181 244.098 359.181 244.098C359.181 244.098 372.408 233.725 365.96 229.346C361.479 226.307 350.707 237.305 350.707 237.305C350.707 237.305 354.84 226.549 349.988 226.307C345.135 226.066 341.993 241.667 341.993 241.667C341.993 241.667 339.331 230.162 334.495 233.475C329.659 236.789 338.298 249.559 338.298 249.559C338.298 249.559 332.073 243.366 330.378 247.761C328.683 252.157 338.298 255.071 338.298 255.071C338.298 255.071 338.364 271.155 343.688 269.223C349.012 267.292 344.903 256.536 344.903 256.536Z" fill="black"/>
<path d="M343.934 247.381C332.649 255.581 331.037 284.011 331.037 284.011" stroke="#263238" stroke-linecap="round" stroke-linejoin="round"/>
<path d="M340.613 250.677C345.167 252.443 349.267 255.221 352.609 258.802" stroke="#263238" stroke-linecap="round" stroke-linejoin="round"/>
<path d="M347.588 233.481C347.588 239.692 343.934 247.384 343.934 247.384L346.612 248.217" stroke="#263238" stroke-linecap="round" stroke-linejoin="round"/>
<path d="M348.82 248.889C348.82 248.889 355.624 250.42 360.783 248.889" stroke="#263238" stroke-linecap="round" stroke-linejoin="round"/>
<path d="M320.632 213.736C320.632 213.736 301.527 214.568 302.726 204.262C303.726 195.653 317.251 201.406 317.251 201.406C317.251 201.406 306.157 188.377 313.779 183.232C321.401 178.088 325.965 193.073 325.965 193.073C325.965 193.073 330.826 171.427 339.349 174.882C345.285 177.313 335.621 195.254 335.621 195.254C335.621 195.254 346.856 187.537 350.295 192.174C353.734 196.811 337.117 206.767 337.117 206.767C337.117 206.767 350.113 201.814 350.072 208.799C350.03 215.783 331.843 215.642 331.843 215.642C331.843 215.642 342.003 217.732 338.828 222.302C335.654 226.873 326.428 219.28 326.428 219.28C326.428 219.28 313.986 228.346 312.374 221.778C310.762 215.209 320.632 213.736 320.632 213.736Z" fill="#005598"/>
<path opacity="0.2" d="M320.646 213.736C320.646 213.736 301.541 214.568 302.74 204.262C303.74 195.653 317.265 201.406 317.265 201.406C317.265 201.406 306.171 188.377 313.793 183.232C321.415 178.088 325.978 193.073 325.978 193.073C325.978 193.073 330.839 171.427 339.363 174.882C345.299 177.313 335.634 195.254 335.634 195.254C335.634 195.254 346.869 187.537 350.308 192.174C353.748 196.811 337.131 206.767 337.131 206.767C337.131 206.767 350.127 201.814 350.085 208.799C350.044 215.783 331.856 215.642 331.856 215.642C331.856 215.642 342.017 217.732 338.842 222.302C335.667 226.873 326.441 219.28 326.441 219.28C326.441 219.28 313.999 228.346 312.387 221.778C310.775 215.209 320.646 213.736 320.646 213.736Z" fill="white"/>
<path d="M323.254 286.347C323.254 286.347 320.204 232.001 331.017 195.604" stroke="#263238" stroke-linecap="round" stroke-linejoin="round"/>
<path d="M310 205.524C310 205.524 318.052 204.841 327.568 210.103" stroke="#263238" stroke-linecap="round" stroke-linejoin="round"/>
<path d="M316.701 188.406C316.701 188.406 324.753 196.348 328.035 207.762" stroke="#263238" stroke-linecap="round" stroke-linejoin="round"/>
<path d="M328.756 204.409C328.756 204.409 333.989 198.582 340.611 197.083" stroke="#263238" stroke-linecap="round" stroke-linejoin="round"/>
<path d="M343.751 280.974H302.605L305.912 318.545C305.947 318.94 306.128 319.308 306.419 319.576C306.709 319.844 307.089 319.993 307.483 319.993V319.993L308.31 329.276C308.347 329.672 308.529 330.04 308.821 330.307C309.113 330.575 309.494 330.724 309.889 330.724H336.467C336.862 330.724 337.241 330.575 337.532 330.307C337.822 330.039 338.003 329.671 338.038 329.276L338.865 319.993C339.26 319.993 339.641 319.844 339.933 319.576C340.225 319.309 340.407 318.941 340.444 318.545L343.751 280.974Z" fill="white" stroke="#263238" stroke-linecap="round" stroke-linejoin="round"/>
<path d="M344.035 284.046H302.361C301.581 284.043 300.834 283.73 300.282 283.175C299.731 282.62 299.42 281.867 299.418 281.082C299.42 280.297 299.731 279.544 300.282 278.989C300.834 278.433 301.581 278.12 302.361 278.118H344.035C344.815 278.12 345.561 278.434 346.111 278.989C346.661 279.545 346.97 280.297 346.97 281.082V281.082C346.97 281.867 346.661 282.619 346.111 283.175C345.561 283.73 344.815 284.043 344.035 284.046V284.046Z" fill="#263238" stroke="#263238" stroke-linecap="round" stroke-linejoin="round"/>
<path d="M331.291 320.095H334.019" stroke="#263238" stroke-linecap="round" stroke-linejoin="round"/>
<path d="M312.355 320.095H328.551" stroke="#263238" stroke-linecap="round" stroke-linejoin="round"/>
<path d="M231.903 11.2061H220.635V228.224H231.903C233.697 228.222 235.417 227.503 236.685 226.224C237.953 224.946 238.665 223.213 238.665 221.406V18.0243C238.665 16.2174 237.953 14.4844 236.685 13.206C235.417 11.9276 233.697 11.2083 231.903 11.2061V11.2061Z" fill="#999999" stroke="#263238" stroke-linecap="round" stroke-linejoin="round"/>
<path d="M228.867 11.2061H130.812C127.387 11.2061 124.611 14.0015 124.611 17.4499V221.98C124.611 225.429 127.387 228.224 130.812 228.224H228.867C232.292 228.224 235.068 225.429 235.068 221.98V17.4499C235.068 14.0015 232.292 11.2061 228.867 11.2061Z" fill="#263238" stroke="#263238" stroke-linecap="round" stroke-linejoin="round"/>
<path d="M198.97 20.7582C198.811 22.0879 198.174 23.3129 197.179 24.2024C196.185 25.0918 194.902 25.5842 193.572 25.5867H165.182C163.851 25.588 162.564 25.0972 161.568 24.2072C160.571 23.3173 159.934 22.09 159.776 20.7582V20.7582C159.609 19.4353 158.968 18.2192 157.974 17.338C156.981 16.4567 155.702 15.9708 154.377 15.9713H134.412C132.974 15.9713 131.594 16.545 130.575 17.5669C129.555 18.5888 128.979 19.9757 128.973 21.4242V217.988C128.975 219.44 129.549 220.832 130.568 221.859C131.588 222.885 132.97 223.463 134.412 223.466H225.276C226.719 223.466 228.102 222.888 229.122 221.861C230.143 220.834 230.716 219.44 230.716 217.988V21.4242C230.717 20.7045 230.577 19.9917 230.304 19.3266C230.031 18.6615 229.63 18.0572 229.125 17.5483C228.619 17.0394 228.019 16.6359 227.359 16.361C226.698 16.0861 225.991 15.9452 225.276 15.9463H204.368C203.04 15.9465 201.758 16.436 200.764 17.3223C199.77 18.2087 199.131 19.4308 198.97 20.7582V20.7582Z" fill="#CCDDEA"/>
<path opacity="0.4" d="M158.943 237.265H125.742L205.776 0H238.976L158.943 237.265Z" fill="white"/>
<path opacity="0.4" d="M182.15 237.265H173.32L253.362 0H262.191L182.15 237.265Z" fill="white"/>
<path d="M198.97 20.7582C198.811 22.0879 198.174 23.3129 197.179 24.2024C196.185 25.0918 194.902 25.5842 193.572 25.5867H165.182C163.851 25.588 162.564 25.0972 161.568 24.2072C160.571 23.3173 159.934 22.09 159.776 20.7582V20.7582C159.609 19.4353 158.968 18.2192 157.974 17.338C156.981 16.4567 155.702 15.9708 154.377 15.9713H134.412C132.974 15.9713 131.594 16.545 130.575 17.5669C129.555 18.5888 128.979 19.9757 128.973 21.4242V217.988C128.975 219.44 129.549 220.832 130.568 221.859C131.588 222.885 132.97 223.463 134.412 223.466H225.276C226.719 223.466 228.102 222.888 229.122 221.861C230.143 220.834 230.716 219.44 230.716 217.988V21.4242C230.717 20.7045 230.577 19.9917 230.304 19.3266C230.031 18.6615 229.63 18.0572 229.125 17.5483C228.619 17.0394 228.019 16.6359 227.359 16.361C226.698 16.0861 225.991 15.9452 225.276 15.9463H204.368C203.04 15.9465 201.758 16.436 200.764 17.3223C199.77 18.2087 199.131 19.4308 198.97 20.7582V20.7582Z" stroke="#263238" stroke-linecap="round" stroke-linejoin="round"/>
<path d="M170.075 18.7866C170.075 19.2805 169.93 19.7634 169.658 20.1741C169.385 20.5849 168.998 20.905 168.544 21.094C168.091 21.283 167.593 21.3325 167.112 21.2361C166.63 21.1397 166.189 20.9019 165.842 20.5526C165.495 20.2033 165.259 19.7583 165.163 19.2738C165.067 18.7894 165.116 18.2872 165.304 17.8308C165.492 17.3745 165.81 16.9844 166.217 16.71C166.625 16.4355 167.105 16.2891 167.595 16.2891C168.253 16.2891 168.884 16.5522 169.349 17.0206C169.814 17.4889 170.075 18.1242 170.075 18.7866Z" fill="#CCDDEA" stroke="#263238" stroke-linecap="round" stroke-linejoin="round"/>
<path d="M189.678 16.3564H177.128C176.49 16.3564 175.878 16.6117 175.427 17.066C174.976 17.5203 174.723 18.1365 174.723 18.779C174.723 19.4216 174.976 20.0378 175.427 20.4921C175.878 20.9464 176.49 21.2016 177.128 21.2016H189.678C190.316 21.2016 190.928 20.9464 191.379 20.4921C191.83 20.0378 192.084 19.4216 192.084 18.779C192.084 18.1365 191.83 17.5203 191.379 17.066C190.928 16.6117 190.316 16.3564 189.678 16.3564V16.3564Z" fill="#999999" stroke="#263238" stroke-linecap="round" stroke-linejoin="round"/>
<path d="M191.189 212.786H167.066C166.408 212.786 165.777 213.049 165.312 213.518C164.847 213.986 164.586 214.621 164.586 215.284C164.586 215.946 164.847 216.581 165.312 217.05C165.777 217.518 166.408 217.781 167.066 217.781H191.189C191.847 217.781 192.478 217.518 192.943 217.05C193.408 216.581 193.67 215.946 193.67 215.284C193.67 214.621 193.408 213.986 192.943 213.518C192.478 213.049 191.847 212.786 191.189 212.786V212.786Z" fill="#999999" stroke="#263238" stroke-linecap="round" stroke-linejoin="round"/>
<path d="M239.906 66.4405V50.2066C239.906 49.8467 239.764 49.5015 239.511 49.2471C239.259 48.9926 238.916 48.8496 238.558 48.8496C238.201 48.8496 237.858 48.9926 237.606 49.2471C237.353 49.5015 237.211 49.8467 237.211 50.2066V66.4405C237.211 66.8004 237.353 67.1456 237.606 67.4C237.858 67.6545 238.201 67.7975 238.558 67.7975C238.916 67.7975 239.259 67.6545 239.511 67.4C239.764 67.1456 239.906 66.8004 239.906 66.4405Z" fill="#263238"/>
<path d="M239.906 78.4856V73.0826C239.906 72.7227 239.764 72.3775 239.511 72.123C239.259 71.8686 238.916 71.7256 238.558 71.7256C238.201 71.7256 237.858 71.8686 237.606 72.123C237.353 72.3775 237.211 72.7227 237.211 73.0826V78.4856C237.211 78.8454 237.353 79.1906 237.606 79.4451C237.858 79.6996 238.201 79.8425 238.558 79.8425C238.916 79.8425 239.259 79.6996 239.511 79.4451C239.764 79.1906 239.906 78.8454 239.906 78.4856Z" fill="#263238"/>
<path d="M242.406 90.4668H120.789V118.056H242.406V90.4668Z" fill="white" stroke="#263238" stroke-linecap="round" stroke-linejoin="round"/>
<path d="M135.498 107.168L133.531 105.662L133.853 108.084C133.874 108.239 133.862 108.397 133.818 108.547C133.774 108.697 133.698 108.835 133.597 108.954C133.495 109.072 133.369 109.167 133.228 109.232C133.087 109.298 132.934 109.332 132.778 109.333V109.333C132.622 109.333 132.468 109.3 132.326 109.235C132.184 109.17 132.057 109.075 131.954 108.957C131.852 108.838 131.776 108.699 131.731 108.549C131.686 108.398 131.674 108.24 131.695 108.084L132.018 105.662L130.017 107.168C129.894 107.263 129.753 107.33 129.603 107.365C129.452 107.401 129.296 107.404 129.144 107.374C128.993 107.344 128.849 107.282 128.723 107.192C128.597 107.102 128.492 106.986 128.413 106.852V106.802C128.335 106.667 128.287 106.517 128.271 106.361C128.256 106.206 128.273 106.049 128.322 105.901C128.371 105.753 128.452 105.617 128.557 105.502C128.663 105.388 128.791 105.297 128.934 105.237L131.191 104.288L128.934 103.331C128.791 103.27 128.663 103.179 128.557 103.065C128.452 102.951 128.371 102.815 128.322 102.667C128.273 102.518 128.256 102.361 128.271 102.206C128.287 102.051 128.335 101.9 128.413 101.765V101.724C128.486 101.584 128.587 101.462 128.71 101.366C128.834 101.269 128.976 101.2 129.128 101.164C129.281 101.128 129.439 101.125 129.592 101.155C129.745 101.186 129.89 101.249 130.017 101.341L131.985 102.848L131.662 100.425C131.641 100.27 131.653 100.112 131.698 99.9616C131.742 99.8114 131.819 99.6728 131.922 99.5551C132.024 99.4373 132.151 99.3433 132.293 99.2794C132.435 99.2154 132.59 99.1831 132.745 99.1846V99.1846C132.9 99.1843 133.053 99.2175 133.195 99.282C133.336 99.3464 133.461 99.4406 133.563 99.5582C133.665 99.6758 133.741 99.814 133.785 99.9636C133.829 100.113 133.841 100.27 133.82 100.425L133.498 102.848L135.465 101.341C135.588 101.247 135.73 101.18 135.881 101.145C136.032 101.11 136.188 101.108 136.34 101.139C136.491 101.17 136.635 101.232 136.761 101.323C136.886 101.414 136.991 101.531 137.069 101.665V101.707C137.147 101.842 137.195 101.992 137.211 102.148C137.227 102.303 137.209 102.46 137.16 102.608C137.111 102.756 137.031 102.892 136.925 103.007C136.82 103.121 136.691 103.212 136.548 103.272L134.291 104.23L136.548 105.179C136.691 105.239 136.82 105.33 136.925 105.444C137.031 105.559 137.111 105.694 137.16 105.843C137.209 105.991 137.227 106.148 137.211 106.303C137.195 106.458 137.147 106.609 137.069 106.744V106.794C136.995 106.928 136.895 107.045 136.774 107.137C136.653 107.229 136.514 107.295 136.366 107.331C136.218 107.366 136.064 107.37 135.915 107.342C135.766 107.314 135.624 107.255 135.498 107.168V107.168Z" fill="#263238"/>
<path d="M153.026 107.165L151.058 105.658L151.381 108.081C151.4 108.236 151.387 108.394 151.342 108.544C151.297 108.694 151.221 108.832 151.118 108.95C151.016 109.068 150.89 109.163 150.748 109.229C150.607 109.294 150.453 109.328 150.298 109.329V109.329C150.142 109.328 149.989 109.294 149.848 109.229C149.707 109.163 149.581 109.068 149.479 108.95C149.377 108.832 149.302 108.693 149.258 108.543C149.214 108.393 149.202 108.235 149.223 108.081L149.537 105.658L147.578 107.165C147.455 107.259 147.314 107.326 147.163 107.362C147.013 107.397 146.857 107.4 146.705 107.37C146.553 107.34 146.41 107.278 146.284 107.188C146.158 107.098 146.052 106.983 145.974 106.848V106.798C145.896 106.663 145.847 106.513 145.832 106.358C145.816 106.202 145.833 106.045 145.883 105.897C145.932 105.749 146.012 105.613 146.118 105.499C146.223 105.384 146.352 105.294 146.495 105.233L148.743 104.284L146.495 103.327C146.352 103.266 146.223 103.176 146.118 103.061C146.012 102.947 145.932 102.811 145.883 102.663C145.833 102.515 145.816 102.358 145.832 102.202C145.847 102.047 145.896 101.897 145.974 101.762V101.72C146.051 101.585 146.156 101.469 146.282 101.378C146.408 101.287 146.551 101.224 146.703 101.194C146.855 101.163 147.011 101.165 147.162 101.2C147.313 101.235 147.454 101.301 147.578 101.395L149.537 102.902L149.223 100.48C149.202 100.325 149.213 100.168 149.258 100.018C149.302 99.8687 149.378 99.7305 149.479 99.6129C149.581 99.4953 149.707 99.4011 149.848 99.3366C149.989 99.2722 150.143 99.239 150.298 99.2393V99.2393C150.453 99.2391 150.606 99.2724 150.748 99.3368C150.889 99.4011 151.015 99.4952 151.118 99.6126C151.22 99.73 151.297 99.8681 151.342 100.018C151.387 100.167 151.401 100.325 151.381 100.48L151.058 102.902L153.026 101.395C153.148 101.301 153.289 101.235 153.439 101.2C153.59 101.165 153.745 101.163 153.896 101.194C154.047 101.225 154.19 101.288 154.315 101.378C154.44 101.469 154.545 101.586 154.621 101.72V101.762C154.699 101.897 154.748 102.047 154.763 102.202C154.779 102.358 154.762 102.515 154.712 102.663C154.663 102.811 154.583 102.947 154.477 103.061C154.372 103.176 154.243 103.266 154.1 103.327L151.843 104.284L154.1 105.233C154.243 105.294 154.372 105.384 154.477 105.499C154.583 105.613 154.663 105.749 154.712 105.897C154.762 106.045 154.779 106.202 154.763 106.358C154.748 106.513 154.699 106.663 154.621 106.798V106.848C154.544 106.982 154.439 107.098 154.314 107.188C154.188 107.278 154.045 107.34 153.894 107.37C153.743 107.4 153.588 107.397 153.438 107.362C153.288 107.326 153.148 107.259 153.026 107.165V107.165Z" fill="#263238"/>
<path d="M170.521 107.165L168.562 105.658L168.885 108.08C168.904 108.236 168.891 108.394 168.846 108.544C168.801 108.694 168.725 108.832 168.622 108.95C168.52 109.068 168.394 109.163 168.252 109.229C168.111 109.294 167.957 109.328 167.802 109.329V109.329C167.646 109.328 167.492 109.294 167.351 109.229C167.209 109.163 167.083 109.068 166.981 108.95C166.879 108.832 166.802 108.694 166.757 108.544C166.712 108.394 166.699 108.236 166.719 108.08L167.041 105.658L165.115 107.165C164.992 107.259 164.851 107.326 164.7 107.362C164.55 107.397 164.394 107.4 164.242 107.37C164.091 107.34 163.947 107.278 163.821 107.188C163.695 107.098 163.589 106.983 163.511 106.848V106.798C163.433 106.663 163.385 106.513 163.369 106.358C163.353 106.202 163.371 106.045 163.42 105.897C163.469 105.749 163.549 105.613 163.655 105.499C163.76 105.384 163.889 105.294 164.032 105.233L166.289 104.284L164.032 103.327C163.889 103.266 163.76 103.176 163.655 103.061C163.549 102.947 163.469 102.811 163.42 102.663C163.371 102.515 163.353 102.358 163.369 102.202C163.385 102.047 163.433 101.897 163.511 101.762V101.72C163.589 101.585 163.694 101.469 163.819 101.378C163.945 101.287 164.088 101.224 164.24 101.194C164.392 101.163 164.548 101.165 164.699 101.2C164.85 101.235 164.992 101.301 165.115 101.395L167.074 102.902L166.752 100.48C166.732 100.325 166.745 100.167 166.79 100.018C166.835 99.8681 166.912 99.73 167.014 99.6126C167.117 99.4952 167.243 99.4011 167.384 99.3368C167.526 99.2724 167.679 99.2391 167.835 99.2393V99.2393C167.99 99.2391 168.143 99.2724 168.285 99.3368C168.426 99.4011 168.552 99.4952 168.655 99.6126C168.758 99.73 168.834 99.8681 168.879 100.018C168.925 100.167 168.938 100.325 168.918 100.48L168.595 102.902L170.521 101.337C170.645 101.243 170.786 101.176 170.937 101.142C171.088 101.107 171.244 101.105 171.396 101.135C171.548 101.166 171.691 101.229 171.817 101.32C171.943 101.41 172.048 101.527 172.125 101.662V101.703C172.205 101.838 172.255 101.988 172.272 102.143C172.289 102.298 172.272 102.455 172.224 102.604C172.175 102.752 172.095 102.888 171.99 103.003C171.885 103.118 171.756 103.208 171.613 103.269L169.356 104.226L171.604 105.175C171.747 105.236 171.876 105.326 171.982 105.441C172.087 105.555 172.167 105.691 172.216 105.839C172.266 105.987 172.283 106.144 172.267 106.299C172.252 106.455 172.203 106.605 172.125 106.74V106.79C172.052 106.929 171.95 107.05 171.826 107.146C171.703 107.242 171.56 107.31 171.408 107.345C171.256 107.381 171.098 107.383 170.945 107.352C170.792 107.321 170.648 107.257 170.521 107.165Z" fill="#263238"/>
<path d="M188.094 107.165L186.126 105.658L186.449 108.081C186.47 108.236 186.458 108.393 186.414 108.543C186.37 108.693 186.294 108.832 186.192 108.95C186.091 109.068 185.965 109.163 185.824 109.229C185.683 109.294 185.53 109.328 185.374 109.329V109.329C185.218 109.33 185.064 109.296 184.922 109.231C184.78 109.166 184.653 109.072 184.55 108.953C184.448 108.835 184.371 108.696 184.327 108.545C184.282 108.395 184.27 108.236 184.291 108.081L184.614 105.658L182.646 107.165C182.523 107.259 182.382 107.326 182.232 107.362C182.081 107.397 181.925 107.4 181.773 107.37C181.622 107.34 181.478 107.278 181.352 107.188C181.226 107.098 181.12 106.983 181.042 106.848V106.798C180.964 106.663 180.916 106.513 180.9 106.358C180.884 106.202 180.902 106.045 180.951 105.897C181 105.749 181.08 105.613 181.186 105.499C181.291 105.384 181.42 105.294 181.563 105.233L183.82 104.284L181.563 103.327C181.42 103.266 181.291 103.176 181.186 103.061C181.08 102.947 181 102.811 180.951 102.663C180.902 102.515 180.884 102.358 180.9 102.203C180.916 102.047 180.964 101.897 181.042 101.762V101.72C181.12 101.585 181.225 101.469 181.351 101.378C181.476 101.287 181.62 101.224 181.771 101.194C181.923 101.163 182.079 101.165 182.23 101.2C182.381 101.235 182.523 101.301 182.646 101.396L184.614 102.902L184.291 100.48C184.27 100.324 184.282 100.166 184.327 100.016C184.371 99.8661 184.448 99.7275 184.551 99.6098C184.653 99.492 184.78 99.398 184.922 99.3341C185.064 99.2701 185.219 99.2378 185.374 99.2393V99.2393C185.529 99.239 185.682 99.2722 185.823 99.3367C185.965 99.4011 186.09 99.4953 186.192 99.6129C186.294 99.7305 186.37 99.8687 186.414 100.018C186.458 100.168 186.47 100.325 186.449 100.48L186.126 102.902L188.094 101.396C188.217 101.301 188.359 101.235 188.51 101.2C188.661 101.165 188.817 101.163 188.969 101.194C189.12 101.224 189.264 101.287 189.389 101.378C189.515 101.469 189.62 101.585 189.698 101.72V101.762C189.776 101.897 189.824 102.047 189.84 102.203C189.856 102.358 189.838 102.515 189.789 102.663C189.74 102.811 189.66 102.947 189.554 103.061C189.449 103.176 189.32 103.266 189.177 103.327L186.928 104.284L189.177 105.233C189.32 105.294 189.449 105.384 189.554 105.499C189.66 105.613 189.74 105.749 189.789 105.897C189.838 106.045 189.856 106.202 189.84 106.358C189.824 106.513 189.776 106.663 189.698 106.798V106.848C189.62 106.983 189.514 107.098 189.388 107.188C189.262 107.278 189.118 107.34 188.967 107.37C188.815 107.4 188.659 107.397 188.508 107.362C188.358 107.326 188.217 107.259 188.094 107.165Z" fill="#263238"/>
<path d="M205.604 107.165L203.636 105.658L203.959 108.081C203.979 108.236 203.965 108.394 203.92 108.544C203.875 108.694 203.799 108.832 203.696 108.95C203.594 109.068 203.468 109.163 203.326 109.229C203.185 109.294 203.031 109.328 202.876 109.329V109.329C202.72 109.328 202.567 109.294 202.426 109.229C202.285 109.163 202.159 109.068 202.057 108.95C201.956 108.832 201.88 108.693 201.836 108.543C201.792 108.393 201.78 108.235 201.801 108.081L202.115 105.658L200.156 107.165C200.033 107.259 199.892 107.326 199.741 107.362C199.591 107.397 199.435 107.4 199.283 107.37C199.132 107.34 198.988 107.278 198.862 107.188C198.736 107.098 198.63 106.983 198.552 106.848V106.798C198.474 106.663 198.426 106.513 198.41 106.358C198.394 106.202 198.412 106.045 198.461 105.897C198.51 105.749 198.59 105.613 198.696 105.499C198.801 105.384 198.93 105.294 199.073 105.233L201.321 104.284L199.073 103.327C198.93 103.266 198.801 103.176 198.696 103.061C198.59 102.947 198.51 102.811 198.461 102.663C198.412 102.515 198.394 102.358 198.41 102.202C198.426 102.047 198.474 101.897 198.552 101.762V101.72C198.63 101.585 198.735 101.469 198.86 101.378C198.986 101.287 199.13 101.224 199.281 101.194C199.433 101.163 199.589 101.165 199.74 101.2C199.891 101.235 200.033 101.301 200.156 101.395L202.115 102.902L201.801 100.48C201.78 100.325 201.792 100.168 201.836 100.018C201.88 99.8687 201.956 99.7305 202.058 99.6129C202.159 99.4953 202.285 99.4011 202.426 99.3366C202.567 99.2722 202.721 99.239 202.876 99.2393V99.2393C203.031 99.2391 203.184 99.2724 203.326 99.3368C203.467 99.4011 203.594 99.4952 203.696 99.6126C203.799 99.73 203.875 99.8681 203.92 100.018C203.966 100.167 203.979 100.325 203.959 100.48L203.636 102.902L205.604 101.395C205.726 101.301 205.867 101.235 206.018 101.2C206.168 101.165 206.324 101.163 206.475 101.194C206.626 101.225 206.768 101.288 206.893 101.378C207.018 101.469 207.123 101.586 207.199 101.72V101.762C207.277 101.897 207.326 102.047 207.341 102.202C207.357 102.358 207.34 102.515 207.29 102.663C207.241 102.811 207.161 102.947 207.056 103.061C206.95 103.176 206.822 103.266 206.679 103.327L204.422 104.284L206.679 105.233C206.822 105.294 206.95 105.384 207.056 105.499C207.161 105.613 207.241 105.749 207.29 105.897C207.34 106.045 207.357 106.202 207.341 106.358C207.326 106.513 207.277 106.663 207.199 106.798V106.848C207.122 106.982 207.017 107.098 206.892 107.188C206.766 107.278 206.624 107.34 206.473 107.37C206.322 107.4 206.166 107.397 206.016 107.362C205.866 107.326 205.726 107.259 205.604 107.165V107.165Z" fill="#263238"/>
<path d="M234.924 104.253C234.924 104.253 231.352 108.741 226.946 108.741C222.54 108.741 218.977 104.253 218.977 104.253C218.977 104.253 222.54 99.7578 226.946 99.7578C231.352 99.7578 234.924 104.253 234.924 104.253Z" fill="white" stroke="#263238" stroke-linecap="round" stroke-linejoin="round"/>
<path d="M229.694 104.261C229.694 104.808 229.533 105.342 229.232 105.797C228.93 106.251 228.502 106.605 228 106.815C227.499 107.024 226.947 107.078 226.414 106.972C225.882 106.865 225.393 106.602 225.009 106.215C224.625 105.829 224.364 105.336 224.258 104.8C224.152 104.264 224.206 103.708 224.414 103.203C224.622 102.698 224.974 102.267 225.425 101.963C225.876 101.659 226.407 101.497 226.95 101.497C227.678 101.497 228.376 101.788 228.891 102.307C229.405 102.825 229.694 103.528 229.694 104.261V104.261Z" fill="#999999" stroke="#263238" stroke-linecap="round" stroke-linejoin="round"/>
<path d="M144.472 131.829H137.221C135.409 131.829 133.939 133.309 133.939 135.134V144.541C133.939 146.367 135.409 147.847 137.221 147.847H144.472C146.284 147.847 147.754 146.367 147.754 144.541V135.134C147.754 133.309 146.284 131.829 144.472 131.829Z" fill="#CCDDEA" stroke="#263238" stroke-linecap="round" stroke-linejoin="round"/>
<path d="M159.864 131.829H152.614C150.801 131.829 149.332 133.309 149.332 135.134V144.541C149.332 146.367 150.801 147.847 152.614 147.847H159.864C161.677 147.847 163.146 146.367 163.146 144.541V135.134C163.146 133.309 161.677 131.829 159.864 131.829Z" fill="#CCDDEA" stroke="#263238" stroke-linecap="round" stroke-linejoin="round"/>
<path d="M175.28 131.829H168.03C166.217 131.829 164.748 133.309 164.748 135.134V144.541C164.748 146.367 166.217 147.847 168.03 147.847H175.28C177.093 147.847 178.562 146.367 178.562 144.541V135.134C178.562 133.309 177.093 131.829 175.28 131.829Z" fill="#CCDDEA" stroke="#263238" stroke-linecap="round" stroke-linejoin="round"/>
<path d="M190.671 131.829H183.421C181.608 131.829 180.139 133.309 180.139 135.134V144.541C180.139 146.367 181.608 147.847 183.421 147.847H190.671C192.484 147.847 193.953 146.367 193.953 144.541V135.134C193.953 133.309 192.484 131.829 190.671 131.829Z" fill="#CCDDEA" stroke="#263238" stroke-linecap="round" stroke-linejoin="round"/>
<path d="M206.089 131.829H198.839C197.026 131.829 195.557 133.309 195.557 135.134V144.541C195.557 146.367 197.026 147.847 198.839 147.847H206.089C207.902 147.847 209.371 146.367 209.371 144.541V135.134C209.371 133.309 207.902 131.829 206.089 131.829Z" fill="#CCDDEA" stroke="#263238" stroke-linecap="round" stroke-linejoin="round"/>
<path d="M221.48 131.829H214.229C212.417 131.829 210.947 133.309 210.947 135.134V144.541C210.947 146.367 212.417 147.847 214.229 147.847H221.48C223.292 147.847 224.762 146.367 224.762 144.541V135.134C224.762 133.309 223.292 131.829 221.48 131.829Z" fill="#CCDDEA" stroke="#263238" stroke-linecap="round" stroke-linejoin="round"/>
<path d="M152.169 150.388H144.919C143.106 150.388 141.637 151.867 141.637 153.693V163.1C141.637 164.925 143.106 166.405 144.919 166.405H152.169C153.982 166.405 155.451 164.925 155.451 163.1V153.693C155.451 151.867 153.982 150.388 152.169 150.388Z" fill="#CCDDEA" stroke="#263238" stroke-linecap="round" stroke-linejoin="round"/>
<path d="M167.56 150.388H160.309C158.497 150.388 157.027 151.867 157.027 153.693V163.1C157.027 164.925 158.497 166.405 160.309 166.405H167.56C169.372 166.405 170.842 164.925 170.842 163.1V153.693C170.842 151.867 169.372 150.388 167.56 150.388Z" fill="#CCDDEA" stroke="#263238" stroke-linecap="round" stroke-linejoin="round"/>
<path d="M182.978 150.388H175.727C173.915 150.388 172.445 151.867 172.445 153.693V163.1C172.445 164.925 173.915 166.405 175.727 166.405H182.978C184.79 166.405 186.26 164.925 186.26 163.1V153.693C186.26 151.867 184.79 150.388 182.978 150.388Z" fill="#CCDDEA" stroke="#263238" stroke-linecap="round" stroke-linejoin="round"/>
<path d="M198.368 150.388H191.118C189.305 150.388 187.836 151.867 187.836 153.693V163.1C187.836 164.925 189.305 166.405 191.118 166.405H198.368C200.181 166.405 201.65 164.925 201.65 163.1V153.693C201.65 151.867 200.181 150.388 198.368 150.388Z" fill="#CCDDEA" stroke="#263238" stroke-linecap="round" stroke-linejoin="round"/>
<path d="M213.784 150.388H206.534C204.721 150.388 203.252 151.867 203.252 153.693V163.1C203.252 164.925 204.721 166.405 206.534 166.405H213.784C215.597 166.405 217.066 164.925 217.066 163.1V153.693C217.066 151.867 215.597 150.388 213.784 150.388Z" fill="#CCDDEA" stroke="#263238" stroke-linecap="round" stroke-linejoin="round"/>
<path d="M144.472 168.96H137.221C135.409 168.96 133.939 170.44 133.939 172.265V181.672C133.939 183.498 135.409 184.977 137.221 184.977H144.472C146.284 184.977 147.754 183.498 147.754 181.672V172.265C147.754 170.44 146.284 168.96 144.472 168.96Z" fill="#CCDDEA" stroke="#263238" stroke-linecap="round" stroke-linejoin="round"/>
<path d="M159.864 168.96H152.614C150.801 168.96 149.332 170.44 149.332 172.265V181.672C149.332 183.498 150.801 184.977 152.614 184.977H159.864C161.677 184.977 163.146 183.498 163.146 181.672V172.265C163.146 170.44 161.677 168.96 159.864 168.96Z" fill="#CCDDEA" stroke="#263238" stroke-linecap="round" stroke-linejoin="round"/>
<path d="M175.28 168.96H168.03C166.217 168.96 164.748 170.44 164.748 172.265V181.672C164.748 183.498 166.217 184.977 168.03 184.977H175.28C177.093 184.977 178.562 183.498 178.562 181.672V172.265C178.562 170.44 177.093 168.96 175.28 168.96Z" fill="#CCDDEA" stroke="#263238" stroke-linecap="round" stroke-linejoin="round"/>
<path d="M190.671 168.96H183.421C181.608 168.96 180.139 170.44 180.139 172.265V181.672C180.139 183.498 181.608 184.977 183.421 184.977H190.671C192.484 184.977 193.953 183.498 193.953 181.672V172.265C193.953 170.44 192.484 168.96 190.671 168.96Z" fill="#CCDDEA" stroke="#263238" stroke-linecap="round" stroke-linejoin="round"/>
<path d="M206.089 168.96H198.839C197.026 168.96 195.557 170.44 195.557 172.265V181.672C195.557 183.498 197.026 184.977 198.839 184.977H206.089C207.902 184.977 209.371 183.498 209.371 181.672V172.265C209.371 170.44 207.902 168.96 206.089 168.96Z" fill="#CCDDEA" stroke="#263238" stroke-linecap="round" stroke-linejoin="round"/>
<path d="M221.48 168.96H214.229C212.417 168.96 210.947 170.44 210.947 172.265V181.672C210.947 183.498 212.417 184.977 214.229 184.977H221.48C223.292 184.977 224.762 183.498 224.762 181.672V172.265C224.762 170.44 223.292 168.96 221.48 168.96Z" fill="#CCDDEA" stroke="#263238" stroke-linecap="round" stroke-linejoin="round"/>
<path d="M152.169 187.52H144.919C143.106 187.52 141.637 188.999 141.637 190.825V200.232C141.637 202.057 143.106 203.537 144.919 203.537H152.169C153.982 203.537 155.451 202.057 155.451 200.232V190.825C155.451 188.999 153.982 187.52 152.169 187.52Z" fill="#CCDDEA" stroke="#263238" stroke-linecap="round" stroke-linejoin="round"/>
<path d="M167.56 187.52H160.309C158.497 187.52 157.027 188.999 157.027 190.825V200.232C157.027 202.057 158.497 203.537 160.309 203.537H167.56C169.372 203.537 170.842 202.057 170.842 200.232V190.825C170.842 188.999 169.372 187.52 167.56 187.52Z" fill="#CCDDEA" stroke="#263238" stroke-linecap="round" stroke-linejoin="round"/>
<path d="M182.978 187.52H175.727C173.915 187.52 172.445 188.999 172.445 190.825V200.232C172.445 202.057 173.915 203.537 175.727 203.537H182.978C184.79 203.537 186.26 202.057 186.26 200.232V190.825C186.26 188.999 184.79 187.52 182.978 187.52Z" fill="#CCDDEA" stroke="#263238" stroke-linecap="round" stroke-linejoin="round"/>
<path d="M198.368 187.52H191.118C189.305 187.52 187.836 188.999 187.836 190.825V200.232C187.836 202.057 189.305 203.537 191.118 203.537H198.368C200.181 203.537 201.65 202.057 201.65 200.232V190.825C201.65 188.999 200.181 187.52 198.368 187.52Z" fill="#CCDDEA" stroke="#263238" stroke-linecap="round" stroke-linejoin="round"/>
<path d="M213.784 187.52H206.534C204.721 187.52 203.252 188.999 203.252 190.825V200.232C203.252 202.057 204.721 203.537 206.534 203.537H213.784C215.597 203.537 217.066 202.057 217.066 200.232V190.825C217.066 188.999 215.597 187.52 213.784 187.52Z" fill="#CCDDEA" stroke="#263238" stroke-linecap="round" stroke-linejoin="round"/>
<path d="M199.488 68.2882C205.454 56.9749 201.183 42.9334 189.948 36.9257C178.714 30.9179 164.77 35.2188 158.804 46.5321C152.838 57.8454 157.109 71.8869 168.344 77.8946C179.578 83.9024 193.522 79.6015 199.488 68.2882Z" fill="white" stroke="#263238" stroke-linecap="round" stroke-linejoin="round"/>
<path d="M179.125 80.5951C184.158 80.6058 189.055 78.9437 193.055 75.8665C187.656 73.8485 181.948 72.8003 176.19 72.7695C172.065 72.8015 167.977 73.5477 164.104 74.9757C168.278 78.6049 173.61 80.5996 179.125 80.5951V80.5951Z" fill="#CCDDEA" stroke="#263238" stroke-linecap="round" stroke-linejoin="round"/>
<path d="M172.933 67.7497C172.933 67.7497 172.735 60.1905 170.627 54.6627C168.519 49.1348 167.32 40.9679 175.364 39.8357C183.408 38.7035 186.59 40.0438 191.195 39.6775C200.041 38.9866 190.294 49.2181 190.294 49.2181L178.447 53.8884C178.447 53.8884 174.339 68.116 172.933 67.7497Z" fill="#263238" stroke="#263238" stroke-linecap="round" stroke-linejoin="round"/>
<path d="M172.407 69.9503L174.498 61.3838L180.285 63.1487L182.029 70.1251C182.193 70.7927 182.499 71.4161 182.928 71.9512C183.356 72.4863 183.896 72.9202 184.51 73.2221C185.382 73.6302 186.213 74.1238 186.99 74.6956C186.99 74.6956 180.095 83.5951 166.859 74.6956C167.735 74.0534 168.684 73.5196 169.687 73.1055C170.355 72.8334 170.951 72.4056 171.423 71.8572C171.896 71.3087 172.233 70.6552 172.407 69.9503V69.9503Z" fill="white"/>
<path d="M190.475 49.4766L191.235 54.5798C191.311 55.1186 191.266 55.6678 191.103 56.1866L190.665 57.5769L190.921 60.9069C190.933 61.0787 190.933 61.2512 190.921 61.4231C190.805 63.0881 189.987 71.2633 185.134 71.6379C180.81 71.9709 176.495 67.4754 174.966 65.3442C174.583 64.8128 174.303 64.2143 174.139 63.5793L173.486 60.9902C172.87 60.986 172.271 60.7856 171.775 60.4177C171.279 60.0498 170.911 59.5333 170.725 58.9422C170.072 56.8526 168.989 55.5039 171.088 54.4633C173.188 53.4227 173.916 56.3781 173.916 56.3781C173.916 56.3781 174.461 52.9398 175.04 51.9575C175.619 50.9751 177.404 50.0427 177.95 49.2018C178.258 48.5344 178.507 47.8407 178.694 47.1289C178.694 47.1289 185.085 48.3693 189.937 47.3787L190.475 49.4766Z" fill="#263238" stroke="#263238" stroke-linecap="round" stroke-linejoin="round"/>
<path d="M172.407 69.9503L174.498 61.3838L180.285 63.1487L182.029 70.1251C182.193 70.7927 182.499 71.4161 182.928 71.9512C183.356 72.4863 183.896 72.9202 184.51 73.2221C185.382 73.6302 186.213 74.1238 186.99 74.6956C186.99 74.6956 180.095 83.5951 166.859 74.6956C167.735 74.0534 168.684 73.5196 169.687 73.1055C170.355 72.8334 170.951 72.4056 171.423 71.8572C171.896 71.3087 172.233 70.6552 172.407 69.9503V69.9503Z" stroke="#263238" stroke-linecap="round" stroke-linejoin="round"/>
<path d="M190.478 48.5806L191.238 53.6839C191.314 54.2227 191.269 54.7717 191.106 55.2906L190.668 56.6809L190.924 60.0109C190.936 60.1855 190.936 60.3608 190.924 60.5354C190.808 62.2004 189.99 70.3757 185.137 70.7503C180.813 71.0833 176.498 66.5877 174.968 64.4565C174.588 63.9242 174.308 63.326 174.142 62.6916L173.489 60.1025C172.87 60.1018 172.267 59.9031 171.768 59.5349C171.269 59.1668 170.899 58.6484 170.711 58.0545C170.058 55.9649 168.975 54.6163 171.075 53.5757C173.175 52.535 173.919 55.4738 173.919 55.4738C173.919 55.4738 174.464 52.0355 175.043 51.0532C175.622 50.0708 177.407 49.1384 177.953 48.2976C178.261 47.6301 178.51 46.9364 178.697 46.2246C178.697 46.2246 185.087 47.465 189.94 46.4744L190.478 48.5806Z" fill="white" stroke="#263238" stroke-linecap="round" stroke-linejoin="round"/>
<path d="M187.04 57.0918L188.628 60.9546C188.685 61.0804 188.711 61.2186 188.702 61.3569C188.694 61.4952 188.651 61.6291 188.578 61.7465C188.505 61.8639 188.404 61.9611 188.284 62.0293C188.164 62.0974 188.029 62.1344 187.892 62.1368L185.916 62.27" stroke="#263238" stroke-width="0.75" stroke-linecap="round" stroke-linejoin="round"/>
<path d="M182.135 63.7148C182.293 64.0438 182.522 64.3337 182.804 64.5639C183.086 64.7941 183.415 64.9592 183.768 65.0473C184.12 65.1355 184.488 65.1446 184.844 65.074C185.2 65.0034 185.537 64.8549 185.83 64.6389" stroke="#263238" stroke-width="0.75" stroke-linecap="round" stroke-linejoin="round"/>
<path d="M182.085 42.4866C173.52 41.5042 171.941 44.9091 171.941 44.9091" stroke="#7F7F7F" stroke-width="0.75" stroke-linecap="round" stroke-linejoin="round"/>
<path d="M191.489 41.5371C189.031 42.1561 186.509 42.483 183.975 42.5111" stroke="#7F7F7F" stroke-width="0.75" stroke-linecap="round" stroke-linejoin="round"/>
<path d="M183.734 44.9606C186.173 44.9606 191.1 44.5027 193.068 42.2383" stroke="#7F7F7F" stroke-width="0.75" stroke-linecap="round" stroke-linejoin="round"/>
<path d="M180.139 44.5498C180.771 44.6954 181.411 44.801 182.057 44.8662" stroke="#7F7F7F" stroke-width="0.75" stroke-linecap="round" stroke-linejoin="round"/>
<path d="M183.606 56.5328C183.606 57.1988 183.342 57.7316 183.011 57.7316C182.681 57.7316 182.416 57.1988 182.416 56.5328C182.416 55.8668 182.689 55.334 183.011 55.334C183.334 55.334 183.606 55.8751 183.606 56.5328Z" fill="#263238"/>
<path d="M189.209 56.3805C189.209 56.9549 188.978 57.4211 188.697 57.4211C188.416 57.4211 188.176 56.9549 188.176 56.3805C188.176 55.806 188.407 55.3398 188.697 55.3398C188.986 55.3398 189.209 55.7977 189.209 56.3805Z" fill="#263238"/>
<path d="M181.076 54.7709C181.076 54.7709 181.787 52.6314 183.019 52.6896C183.399 52.7259 183.764 52.8598 184.078 53.0784C184.392 53.297 184.645 53.5931 184.813 53.9384" stroke="#263238" stroke-width="0.75" stroke-linecap="round" stroke-linejoin="round"/>
<path d="M189.599 53.8861C189.367 53.3116 189.012 52.6623 188.54 52.6956C187.714 52.7455 187.309 53.9443 187.309 53.9443" stroke="#263238" stroke-width="0.75" stroke-linecap="round" stroke-linejoin="round"/>
<path d="M61.4919 154.964C63.1453 150.918 59.1027 138.68 57.2922 133.66C57.187 133.37 57.0126 133.11 56.7844 132.903C56.5562 132.696 56.2811 132.549 55.9833 132.474C55.6854 132.399 55.3739 132.399 55.076 132.474C54.7781 132.549 54.503 132.696 54.2747 132.902C52.6213 134.376 50.6455 137.24 50.3148 142.551C50.3148 142.551 37.6992 164.921 37.6992 175.127C37.6992 184.693 56.482 204.615 56.482 204.615C58.5998 203.952 60.3899 202.507 61.4919 200.569C61.4919 200.569 54.4731 183.086 49.0251 175.593C49.0169 175.602 59.6318 159.443 61.4919 154.964Z" fill="#263238"/>
<path opacity="0.2" d="M59.3887 161.516C59.3887 161.516 53.3785 148.62 51.1216 149.778C48.8647 150.935 43.0116 172.68 45.252 176.143C47.4924 179.606 59.7111 204.057 62.7699 203.566C65.8287 203.075 59.3887 161.516 59.3887 161.516Z" fill="black"/>
<path d="M61.4919 154.964C63.1453 150.918 59.1027 138.68 57.2922 133.66C57.187 133.37 57.0126 133.11 56.7844 132.903C56.5562 132.696 56.2811 132.549 55.9833 132.474C55.6854 132.399 55.3739 132.399 55.076 132.474C54.7781 132.549 54.503 132.696 54.2747 132.902C52.6213 134.376 50.6455 137.24 50.3148 142.551C50.3148 142.551 37.6992 164.921 37.6992 175.127C37.6992 184.693 56.482 204.615 56.482 204.615C58.5998 203.952 60.3899 202.507 61.4919 200.569C61.4919 200.569 54.4731 183.086 49.0251 175.593C49.0169 175.602 59.6318 159.443 61.4919 154.964Z" stroke="#263238" stroke-linecap="round" stroke-linejoin="round"/>
<path d="M59.8817 198.989L62.7173 203.56C62.7173 203.56 71.5465 206.34 72.4642 209.279C73.3818 212.218 68.8597 216.314 66.1729 215.49C63.4861 214.665 59.1046 206.507 59.1046 206.507L55.5332 202.344L59.8817 198.989Z" fill="white" stroke="#263238" stroke-linecap="round" stroke-linejoin="round"/>
<path d="M54.3438 203.46L56.2534 205.674C58.939 204.918 61.2347 203.154 62.6687 200.746L61.5113 197.974C61.5113 197.974 59.8827 201.82 54.3438 203.46Z" fill="#005598" stroke="#263238" stroke-linecap="round" stroke-linejoin="round"/>
<path d="M65.646 326.001L63.1658 336.366C63.0834 336.713 63.0802 337.075 63.1564 337.424C63.2326 337.772 63.3863 338.099 63.6058 338.38C63.8254 338.66 64.1051 338.887 64.4241 339.043C64.7431 339.198 65.093 339.28 65.4476 339.28H79.9315C80.2745 339.28 80.6135 339.205 80.9246 339.059C81.2357 338.914 81.5115 338.701 81.7327 338.437C81.954 338.173 82.1153 337.864 82.2054 337.531C82.2955 337.197 82.3123 336.848 82.2545 336.508C82.1425 335.729 81.8698 334.982 81.4541 334.315C81.0384 333.648 80.4887 333.077 79.8405 332.636C76.5337 330.472 74.963 323.695 74.963 323.695L65.646 326.001Z" fill="#263238" stroke="#263238" stroke-linecap="round" stroke-linejoin="round"/>
<path d="M101.337 327.733C101.337 327.733 98.9976 331.121 98.6173 337.165C98.605 337.439 98.6479 337.712 98.7433 337.968C98.8387 338.224 98.9848 338.458 99.1725 338.655C99.3603 338.853 99.586 339.01 99.8358 339.118C100.086 339.225 100.355 339.28 100.626 339.28H126.312C126.813 339.283 127.303 339.128 127.713 338.838C128.123 338.548 128.434 338.136 128.601 337.66C128.768 337.184 128.784 336.668 128.646 336.182C128.509 335.697 128.225 335.266 127.833 334.951C126.74 334.132 125.445 333.631 124.088 333.502C117.789 332.67 112.208 329.756 111.2 326.01L101.337 327.733Z" fill="#263238" stroke="#263238" stroke-linecap="round" stroke-linejoin="round"/>
<path d="M61.4794 200.571C61.4794 200.571 58.5694 212.693 59.7185 238.867L60.4625 268.504C60.4625 268.504 56.2794 289.317 64.3067 326.996C64.3067 326.996 66.7868 332.574 76.7817 325.597L77.9391 268.113L88.397 204.617L61.4794 200.571Z" fill="#999999"/>
<path opacity="0.2" d="M82.2834 227.331C82.2834 227.331 78.0176 244.456 76.298 254.463C74.5784 264.469 64.3521 263.703 63.1203 270.28C61.8885 276.857 73.8675 269.123 72.7018 292.758C71.5362 316.393 67.3447 329.313 73.9253 329.122C80.5059 328.93 80.6961 310.307 80.6961 310.307L84.7056 253.547V245.655L85.6646 230.669L82.2834 227.331Z" fill="black"/>
<path d="M61.4794 200.571C61.4794 200.571 58.5694 212.693 59.7185 238.867L60.4625 268.504C60.4625 268.504 56.2794 289.317 64.3067 326.996C64.3067 326.996 66.7868 332.574 76.7817 325.597L77.9391 268.113L88.397 204.617L61.4794 200.571Z" stroke="#263238" stroke-linecap="round" stroke-linejoin="round"/>
<path d="M63.1244 274.933C62.6797 275.525 62.2684 276.142 61.8926 276.781" stroke="#263238" stroke-linecap="round" stroke-linejoin="round"/>
<path d="M63.6426 268.41C63.6426 268.41 73.2324 266.104 73.8855 268.41C74.4477 270.416 69.2642 268.06 64.1469 273.688" stroke="#263238" stroke-linecap="round" stroke-linejoin="round"/>
<path d="M80.2751 231.491C87.7155 243.588 98.1899 267.389 98.1899 267.389C98.1899 267.389 96.6109 270.145 98.1899 274.765C98.1899 274.765 94.0564 290.841 100.05 329.278C100.05 329.278 105.209 332.608 112.666 326.78C112.666 326.78 116.386 269.004 114.956 261.212C113.525 253.42 100.075 201.954 100.075 201.954H70.5117" fill="#999999"/>
<path opacity="0.2" d="M78.6074 232.335C78.6074 232.335 83.113 234.641 91.7521 232.335C100.391 230.029 93.2319 239.828 96.0923 250.517C98.9527 261.206 106.988 266.11 105.699 270.722C104.409 275.334 100.59 276.5 99.7712 288.912C98.9527 301.325 109.766 324.252 105.509 328.948C101.251 333.643 90.9336 322.537 90.9336 322.537L82.3028 263.687L78.6074 232.335Z" fill="black"/>
<path d="M80.2751 231.491C87.7155 243.588 98.1899 267.389 98.1899 267.389C98.1899 267.389 96.6109 270.145 98.1899 274.765C98.1899 274.765 94.0564 290.841 100.05 329.278C100.05 329.278 105.209 332.608 112.666 326.78C112.666 326.78 116.386 269.004 114.956 261.212C113.525 253.42 100.075 201.954 100.075 201.954H70.5117" stroke="#263238" stroke-linecap="round" stroke-linejoin="round"/>
<path d="M103.673 269.418C107.07 268.902 111.411 268.585 111.237 270.134C110.956 272.731 104.896 270.092 101.209 274.463" stroke="#263238" stroke-linecap="round" stroke-linejoin="round"/>
<path d="M99.7578 270.135C99.7578 270.135 100.353 270.002 101.271 269.827" stroke="#263238" stroke-linecap="round" stroke-linejoin="round"/>
<path d="M123.408 120.251L123.946 114.757C123.946 114.757 122.871 109.038 123.408 107.098C123.946 105.158 128.658 92.8619 130.154 93.4031C131.651 93.9442 127.906 100.629 128.013 102.561C128.013 102.561 130.005 102.669 130.493 103.959C130.493 103.959 132.386 104.284 132.494 106.007C132.956 106.304 133.329 106.722 133.574 107.216C133.819 107.711 133.925 108.262 133.883 108.813C133.676 110.644 130.03 115.606 130.03 115.606L130.245 122.724L123.408 120.251Z" fill="white" stroke="#263238" stroke-linecap="round" stroke-linejoin="round"/>
<path d="M91.7316 110.968C91.7316 110.968 89.6235 106.805 89.3176 105.24C89.0944 104.15 89.5408 101.91 89.3176 100.811C88.805 98.2721 85.275 91.2873 85.275 91.2873C85.1334 90.9871 84.9169 90.729 84.6467 90.5381L82.5799 93.1022H76.9749L68.4102 104.491L72.6264 114.714L71.3946 116.188C72.1469 116.937 72.6264 117.37 72.6264 117.37L71.3946 124.787L83.4645 126.02L83.7456 121.316H87.4162C87.9117 121.316 88.3869 121.118 88.7373 120.765C89.0877 120.412 89.2845 119.933 89.2845 119.434V112.991L90.9379 112.508C91.0975 112.471 91.2472 112.399 91.3766 112.298C91.506 112.197 91.612 112.069 91.6875 111.922C91.7629 111.776 91.806 111.615 91.8136 111.45C91.8212 111.285 91.7932 111.121 91.7316 110.968V110.968Z" fill="white" stroke="#263238" stroke-linecap="round" stroke-linejoin="round"/>
<path d="M62.5449 107.267C67.4059 114.476 72.6307 117.373 72.6307 117.373L74.6892 112.22C74.6892 112.22 70.5557 111.779 71.1757 107.733C72.143 101.764 76.9627 107.134 76.9627 107.134L78.0043 102.521C78.0043 102.521 80.5754 99.7409 80.3935 98.7668C80.2558 98.0594 80.0736 97.3614 79.8479 96.6772C79.8479 96.6772 89.1483 87.7611 88.1646 82.791C88.1646 82.791 80.4183 84.3728 71.1757 86.121C59.9242 88.169 57.0555 99.1415 62.5449 107.267Z" fill="#263238" stroke="#263238" stroke-linecap="round" stroke-linejoin="round"/>
<path d="M87.4465 121.324C87.4465 121.324 80.9734 120.217 78.5016 117.162C76.0297 114.106 77.9973 117.378 79.1546 119.251C81.6348 123.256 83.7429 121.324 87.4465 121.324Z" fill="#263238"/>
<path d="M83.4512 111.939C83.8976 112.449 84.461 112.84 85.0922 113.079C85.7234 113.319 86.4031 113.399 87.0722 113.313" stroke="#263238" stroke-width="0.75" stroke-linecap="round" stroke-linejoin="round"/>
<path d="M88.1645 103.976C88.1645 104.558 87.9496 105.025 87.6768 105.025C87.4039 105.025 87.1973 104.558 87.1973 103.976C87.1973 103.393 87.4122 102.927 87.6768 102.927C87.9413 102.927 88.1645 103.401 88.1645 103.976Z" fill="#263238"/>
<path d="M88.0705 100.916C87.401 100.768 86.7012 100.865 86.0956 101.188C85.49 101.511 85.018 102.04 84.7637 102.681" stroke="#263238" stroke-width="0.75" stroke-linecap="round" stroke-linejoin="round"/>
<path d="M65.0879 128.032C65.0879 128.032 65.0879 122.337 74.8348 123.22C86.6815 124.302 91.4599 130.413 91.4599 130.413L65.0879 128.032Z" fill="#005598" stroke="#263238" stroke-linecap="round" stroke-linejoin="round"/>
<path d="M84.1825 127.003C91.565 127.836 104.437 129.626 103.668 149.614C102.899 169.603 100.039 201.929 100.039 201.929C100.039 201.929 63.118 217.813 58.9266 203.078C58.9266 203.078 60.8445 186.428 54.7269 160.512C48.6093 134.596 51.3787 123.399 84.1825 127.003Z" fill="#263238"/>
<path opacity="0.2" d="M105.554 183.074C105.554 183.074 100.734 184.24 85.9692 176.148C62.8214 163.435 60.2255 144.779 53.7276 147.842C47.2297 150.906 60.1511 211.071 60.1511 211.071L84.1256 212.586H106.348L105.554 183.074Z" fill="black"/>
<path d="M84.1825 127.003C91.565 127.836 104.437 129.626 103.668 149.614C102.899 169.603 100.039 201.929 100.039 201.929C100.039 201.929 63.118 217.813 58.9266 203.078C58.9266 203.078 60.8445 186.428 54.7269 160.512C48.6093 134.596 51.3787 123.399 84.1825 127.003Z" stroke="#263238" stroke-linecap="round" stroke-linejoin="round"/>
<path d="M41.5664 174.767C41.1531 174.867 40.7149 174.991 40.252 175.141" stroke="#7F7F7F" stroke-width="0.75" stroke-linecap="round" stroke-linejoin="round"/>
<path d="M47.6634 175.145C47.6634 175.145 46.1092 174.029 42.7031 174.546" stroke="#7F7F7F" stroke-width="0.75" stroke-linecap="round" stroke-linejoin="round"/>
<path d="M87.0371 127.371C87.0371 127.371 99.8263 127.455 105.555 130.918C105.555 130.918 115.683 129.186 119.7 130.918L123.33 117.256C123.33 117.256 128.108 114.942 130.398 118.405C130.398 118.405 132.118 139.218 129.257 140.924C126.397 142.631 103.679 147.851 103.679 147.851C103.679 147.851 89.17 143.455 87.0371 127.371Z" fill="#263238"/>
<path opacity="0.2" d="M103.586 144.326C103.586 144.326 102.916 138.973 112.68 139.664C122.443 140.355 130.041 140.546 131.008 135.926C131.975 131.306 142.681 123.314 139.275 138.274L135.828 153.259L115.292 154.624L103.586 144.326Z" fill="black"/>
<path d="M87.0371 127.371C87.0371 127.371 99.8263 127.455 105.555 130.918C105.555 130.918 115.683 129.186 119.7 130.918L123.33 117.256C123.33 117.256 128.108 114.942 130.398 118.405C130.398 118.405 132.118 139.218 129.257 140.924C126.397 142.631 103.679 147.851 103.679 147.851C103.679 147.851 89.17 143.455 87.0371 127.371Z" stroke="#263238" stroke-linecap="round" stroke-linejoin="round"/>
<path d="M122.086 131.949C123.19 132.856 124.14 133.939 124.897 135.154" stroke="#7F7F7F" stroke-width="0.75" stroke-linecap="round" stroke-linejoin="round"/>
<path d="M120.01 131.05C120.321 131.049 120.629 131.117 120.911 131.25" stroke="#7F7F7F" stroke-width="0.75" stroke-linecap="round" stroke-linejoin="round"/>
<path d="M54.4575 154.624C54.011 150.312 52.804 142.395 53.2753 136.917" stroke="#7F7F7F" stroke-width="0.75" stroke-linecap="round" stroke-linejoin="round"/>
<path d="M51.0742 144.318C51.0742 144.318 53.3063 157.638 54.3811 157.638" stroke="#7F7F7F" stroke-width="0.75" stroke-linecap="round" stroke-linejoin="round"/>
<path d="M59.1035 193.791V201.267" stroke="#7F7F7F" stroke-width="0.75" stroke-linecap="round" stroke-linejoin="round"/>
<path d="M71.7168 212.598C71.7168 212.598 72.9155 221.048 76.6026 226.267Z" fill="#999999"/>
<path d="M71.7168 212.598C71.7168 212.598 72.9155 221.048 76.6026 226.267" stroke="#263238" stroke-linecap="round" stroke-linejoin="round"/>
<path d="M122.301 115.682L121.475 118.779C121.475 118.779 127.063 117.447 132.007 120.119L131.503 116.498C131.503 116.498 128.303 114.092 122.301 115.682Z" fill="#005598" stroke="#263238" stroke-linecap="round" stroke-linejoin="round"/>
<path d="M91.7592 195.518C87.7331 197.316 79.7471 198.898 64.0645 197.341" stroke="#7F7F7F" stroke-width="0.75" stroke-linecap="round" stroke-linejoin="round"/>
<path d="M95.8138 192.209C95.471 192.974 94.9208 193.626 94.2266 194.09" stroke="#7F7F7F" stroke-width="0.75" stroke-linecap="round" stroke-linejoin="round"/>
<path d="M106.895 131.309L113.417 135.371" stroke="#7F7F7F" stroke-width="0.75" stroke-linecap="round" stroke-linejoin="round"/>
<path d="M96.6992 165.497C100.869 160.556 103.462 154.463 104.14 148.015" stroke="#7F7F7F" stroke-width="0.75" stroke-linecap="round" stroke-linejoin="round"/>
<path d="M92.9064 164.296C87.6061 170.46 80.9861 175.333 73.5449 178.548" stroke="#7F7F7F" stroke-width="0.75" stroke-linecap="round" stroke-linejoin="round"/>
<path d="M96.1351 160.063C95.515 160.963 94.8619 161.837 94.1758 162.694" stroke="#7F7F7F" stroke-width="0.75" stroke-linecap="round" stroke-linejoin="round"/>
<path d="M98.122 157.053C97.8079 157.586 97.4772 158.102 97.1465 158.618" stroke="#7F7F7F" stroke-width="0.75" stroke-linecap="round" stroke-linejoin="round"/>
<path d="M62.3945 188.75C70.7612 192.6 80.0688 193.883 89.1551 192.438" stroke="#7F7F7F" stroke-width="0.75" stroke-linecap="round" stroke-linejoin="round"/>
<path d="M84.7637 85.3658C85.6176 84.9914 86.4319 84.5312 87.1942 83.9922" stroke="#7F7F7F" stroke-width="0.75" stroke-linecap="round" stroke-linejoin="round"/>
<path d="M64.6212 105.025C64.6212 105.025 60.0329 96.55 65.3321 91.9296C69.3747 88.4164 76.5836 88.0834 82.3541 86.2686" stroke="#7F7F7F" stroke-width="0.75" stroke-linecap="round" stroke-linejoin="round"/>
<path d="M68.4881 99.0143C68.2303 98.2439 68.188 97.4169 68.3659 96.624C68.5438 95.831 68.935 95.1027 69.4967 94.5187C72.6464 91.505 81.8394 91.1887 86.4194 86.6016" stroke="#7F7F7F" stroke-width="0.75" stroke-linecap="round" stroke-linejoin="round"/>
<path d="M70.368 102.924C69.9882 102.397 69.651 101.84 69.3594 101.259" stroke="#7F7F7F" stroke-width="0.75" stroke-linecap="round" stroke-linejoin="round"/>
</svg>
