<svg width="374" height="360" viewBox="0 0 374 360" fill="none" xmlns="http://www.w3.org/2000/svg">
<path d="M243.222 29.6898L85.4355 47.3164L109.845 267.503L267.632 249.877L243.222 29.6898Z" fill="white" stroke="#263238" stroke-linecap="round" stroke-linejoin="round"/>
<path d="M243.222 29.6898L85.4355 47.3164L88.8129 77.7817L246.6 60.1551L243.222 29.6898Z" fill="#BFBFBF" stroke="#263238" stroke-linecap="round" stroke-linejoin="round"/>
<path d="M199.386 43.7249L131.27 51.3314C130.954 51.3472 130.644 51.4277 130.359 51.5678C130.075 51.708 129.822 51.9049 129.615 52.1465C129.409 52.3881 129.254 52.6694 129.16 52.9731C129.066 53.2769 129.034 53.5967 129.067 53.9131C129.1 54.2295 129.197 54.5358 129.352 54.8133C129.507 55.0908 129.717 55.3337 129.969 55.5271C130.22 55.7206 130.509 55.8605 130.816 55.9383C131.123 56.0161 131.443 56.0302 131.756 55.9798L199.871 48.3733C200.467 48.2829 201.005 47.9642 201.372 47.4842C201.739 47.0043 201.907 46.4003 201.84 45.799C201.773 45.1977 201.476 44.6458 201.013 44.2591C200.549 43.8724 199.954 43.681 199.353 43.7249H199.386Z" fill="white"/>
<path d="M183.41 55.1652L149.36 58.9684C149.208 58.9836 149.061 59.029 148.926 59.102C148.792 59.1751 148.674 59.2743 148.578 59.3938C148.482 59.5134 148.411 59.6509 148.369 59.7983C148.327 59.9457 148.314 60.1001 148.332 60.2524C148.365 60.5605 148.518 60.8429 148.758 61.0379C148.997 61.2329 149.304 61.3245 149.611 61.2926L183.669 57.4894C183.967 57.4442 184.236 57.2848 184.419 57.0449C184.603 56.8049 184.687 56.5029 184.653 56.2022C184.62 55.9016 184.472 55.6256 184.24 55.4323C184.008 55.2389 183.711 55.1432 183.41 55.1652V55.1652Z" fill="white"/>
<path opacity="0.3" d="M208.861 81.5152L119.608 91.4784C119.38 91.5043 119.171 91.6203 119.027 91.8009C118.884 91.9815 118.818 92.2119 118.843 92.4414C118.869 92.6709 118.985 92.8808 119.165 93.0248C119.344 93.1688 119.574 93.2352 119.803 93.2094L209.031 83.2462C209.26 83.2203 209.469 83.1044 209.613 82.9238C209.756 82.7432 209.822 82.5128 209.796 82.2832C209.771 82.0537 209.655 81.8438 209.475 81.6998C209.295 81.5558 209.066 81.4894 208.837 81.5152H208.861Z" fill="black"/>
<path opacity="0.3" d="M209.551 87.7273L106.933 99.1857C106.704 99.2116 106.495 99.3276 106.351 99.5082C106.208 99.6888 106.142 99.9192 106.168 100.149C106.193 100.378 106.309 100.588 106.489 100.732C106.669 100.876 106.898 100.943 107.127 100.917L209.745 89.4582C209.862 89.4512 209.976 89.4205 210.081 89.3679C210.186 89.3153 210.279 89.242 210.354 89.1524C210.43 89.0628 210.487 88.9587 210.521 88.8465C210.556 88.7342 210.567 88.6161 210.555 88.4993C210.542 88.3813 210.506 88.2672 210.448 88.1638C210.39 88.0604 210.311 87.9699 210.218 87.8978C210.124 87.8256 210.016 87.7733 209.902 87.744C209.787 87.7147 209.668 87.709 209.551 87.7273Z" fill="black"/>
<path opacity="0.3" d="M183.459 96.937L107.62 105.405C107.391 105.431 107.182 105.547 107.039 105.727C106.895 105.908 106.829 106.138 106.855 106.368C106.881 106.597 106.996 106.807 107.176 106.951C107.356 107.095 107.586 107.162 107.814 107.136L183.645 98.668C183.762 98.6609 183.876 98.6302 183.981 98.5776C184.085 98.5251 184.178 98.4518 184.254 98.3622C184.33 98.2725 184.386 98.1685 184.421 98.0562C184.455 97.944 184.467 97.8259 184.455 97.709C184.442 97.5919 184.405 97.4785 184.348 97.3757C184.29 97.2729 184.213 97.1829 184.12 97.1108C184.027 97.0387 183.921 96.9862 183.807 96.9564C183.693 96.9265 183.575 96.9199 183.459 96.937Z" fill="black"/>
<path opacity="0.3" d="M231.49 78.2094L222.439 79.2205C221.221 79.3565 220.344 80.4576 220.48 81.6798L221.487 90.7661C221.622 91.9883 222.719 92.8689 223.937 92.7328L232.988 91.7217C234.206 91.5857 235.083 90.4846 234.948 89.2624L233.94 80.1761C233.805 78.9539 232.708 78.0733 231.49 78.2094Z" stroke="#263238" stroke-linecap="round" stroke-linejoin="round"/>
<path d="M224.051 85.1941L227.03 88.014L230.948 81.9922" stroke="#005598" stroke-width="3" stroke-linecap="round" stroke-linejoin="round"/>
<path opacity="0.3" d="M212.124 110.959L122.895 120.922C122.667 120.948 122.458 121.064 122.314 121.244C122.171 121.425 122.105 121.655 122.13 121.885C122.156 122.114 122.272 122.324 122.452 122.468C122.632 122.612 122.861 122.679 123.09 122.653L212.318 112.69C212.432 112.677 212.541 112.642 212.641 112.586C212.741 112.531 212.829 112.457 212.9 112.367C212.971 112.278 213.023 112.175 213.055 112.065C213.087 111.955 213.096 111.84 213.083 111.727C213.071 111.613 213.036 111.503 212.981 111.403C212.926 111.303 212.851 111.214 212.762 111.143C212.673 111.072 212.571 111.019 212.461 110.987C212.352 110.955 212.237 110.946 212.124 110.959V110.959Z" fill="black"/>
<path opacity="0.3" d="M212.817 117.179L110.198 128.638C110.085 128.651 109.975 128.686 109.876 128.741C109.776 128.796 109.688 128.871 109.617 128.96C109.546 129.05 109.493 129.152 109.462 129.262C109.43 129.372 109.42 129.487 109.433 129.601C109.446 129.714 109.481 129.824 109.536 129.925C109.591 130.025 109.665 130.113 109.754 130.184C109.843 130.255 109.946 130.308 110.055 130.34C110.165 130.372 110.279 130.382 110.393 130.369L213.011 118.91C213.24 118.884 213.449 118.768 213.592 118.588C213.736 118.407 213.802 118.177 213.776 117.947C213.75 117.718 213.635 117.508 213.455 117.364C213.275 117.22 213.045 117.153 212.817 117.179Z" fill="black"/>
<path opacity="0.3" d="M186.719 126.39L110.88 134.858C110.651 134.884 110.442 135 110.299 135.18C110.155 135.361 110.089 135.591 110.115 135.821C110.141 136.051 110.256 136.26 110.436 136.404C110.616 136.548 110.845 136.615 111.074 136.589L186.905 128.121C187.022 128.114 187.136 128.083 187.24 128.031C187.345 127.978 187.438 127.905 187.514 127.815C187.589 127.726 187.646 127.622 187.681 127.509C187.715 127.397 187.727 127.279 187.714 127.162C187.701 127.045 187.665 126.932 187.608 126.829C187.55 126.726 187.473 126.636 187.38 126.564C187.287 126.492 187.18 126.439 187.067 126.409C186.953 126.38 186.835 126.373 186.719 126.39Z" fill="black"/>
<path opacity="0.3" d="M234.758 107.657L225.707 108.668C224.489 108.804 223.612 109.905 223.747 111.127L224.755 120.213C224.89 121.436 225.987 122.316 227.204 122.18L236.256 121.169C237.474 121.033 238.351 119.932 238.215 118.71L237.208 109.623C237.072 108.401 235.976 107.521 234.758 107.657Z" stroke="#263238" stroke-linecap="round" stroke-linejoin="round"/>
<path d="M227.32 114.647L230.291 117.467L234.21 111.445" stroke="#005598" stroke-width="3" stroke-linecap="round" stroke-linejoin="round"/>
<path opacity="0.3" d="M215.388 140.413L126.159 150.376C125.945 150.417 125.754 150.538 125.625 150.715C125.496 150.891 125.438 151.11 125.463 151.327C125.487 151.545 125.592 151.745 125.758 151.888C125.923 152.031 126.136 152.106 126.354 152.099L215.582 142.119C215.695 142.106 215.805 142.071 215.905 142.016C216.004 141.961 216.092 141.886 216.163 141.797C216.234 141.707 216.287 141.605 216.319 141.495C216.35 141.385 216.36 141.27 216.347 141.156C216.334 141.043 216.3 140.933 216.244 140.832C216.189 140.732 216.115 140.644 216.026 140.573C215.937 140.502 215.835 140.449 215.725 140.417C215.616 140.385 215.501 140.375 215.388 140.388V140.413Z" fill="black"/>
<path opacity="0.3" d="M216.08 146.63L113.454 158.088C113.34 158.099 113.23 158.133 113.13 158.188C113.03 158.242 112.942 158.316 112.871 158.406C112.8 158.495 112.747 158.598 112.717 158.708C112.686 158.818 112.678 158.934 112.693 159.047C112.705 159.161 112.739 159.271 112.794 159.371C112.848 159.472 112.922 159.56 113.011 159.632C113.099 159.704 113.201 159.757 113.311 159.789C113.42 159.821 113.535 159.832 113.648 159.819L216.266 148.361C216.384 148.353 216.498 148.321 216.603 148.267C216.707 148.214 216.8 148.14 216.876 148.05C216.951 147.959 217.008 147.855 217.042 147.742C217.077 147.629 217.088 147.511 217.076 147.394C217.063 147.277 217.027 147.164 216.969 147.061C216.912 146.959 216.834 146.869 216.741 146.798C216.648 146.726 216.541 146.675 216.428 146.646C216.314 146.617 216.196 146.611 216.08 146.63V146.63Z" fill="black"/>
<path opacity="0.3" d="M189.98 155.839L114.142 164.307C113.913 164.333 113.704 164.449 113.56 164.63C113.417 164.81 113.351 165.041 113.377 165.27C113.402 165.5 113.518 165.71 113.698 165.854C113.878 165.998 114.107 166.064 114.336 166.038L190.166 157.562C190.395 157.537 190.605 157.422 190.749 157.243C190.893 157.063 190.96 156.833 190.936 156.603C190.911 156.374 190.796 156.163 190.617 156.019C190.438 155.874 190.209 155.806 189.98 155.831V155.839Z" fill="black"/>
<path opacity="0.3" d="M238.022 137.1L228.97 138.111C227.753 138.247 226.875 139.348 227.011 140.57L228.018 149.657C228.154 150.879 229.251 151.759 230.468 151.623L239.52 150.612C240.737 150.476 241.614 149.375 241.479 148.153L240.472 139.067C240.336 137.845 239.239 136.964 238.022 137.1Z" stroke="#263238" stroke-linecap="round" stroke-linejoin="round"/>
<path d="M230.584 144.099L233.555 146.919L237.481 140.889" stroke="#005598" stroke-width="3" stroke-linecap="round" stroke-linejoin="round"/>
<path opacity="0.3" d="M218.646 169.865L129.417 179.828C129.203 179.87 129.012 179.991 128.883 180.167C128.754 180.344 128.696 180.563 128.72 180.78C128.745 180.998 128.85 181.198 129.015 181.341C129.181 181.484 129.393 181.559 129.611 181.551L218.84 171.588C218.959 171.584 219.077 171.555 219.184 171.503C219.292 171.451 219.388 171.378 219.466 171.287C219.544 171.196 219.602 171.09 219.637 170.976C219.673 170.861 219.684 170.74 219.67 170.621C219.657 170.502 219.619 170.387 219.559 170.283C219.5 170.18 219.419 170.089 219.323 170.018C219.226 169.948 219.117 169.897 219 169.871C218.884 169.845 218.763 169.843 218.646 169.865V169.865Z" fill="black"/>
<path opacity="0.3" d="M219.346 176.083L116.719 187.542C116.606 187.553 116.496 187.587 116.396 187.641C116.296 187.696 116.207 187.77 116.136 187.859C116.065 187.949 116.013 188.052 115.982 188.162C115.952 188.272 115.944 188.387 115.958 188.501C115.97 188.614 116.005 188.725 116.059 188.825C116.114 188.925 116.188 189.014 116.276 189.086C116.365 189.157 116.467 189.211 116.576 189.243C116.686 189.275 116.8 189.285 116.913 189.273L219.532 177.814C219.762 177.788 219.971 177.671 220.115 177.49C220.259 177.309 220.326 177.078 220.301 176.847C220.275 176.619 220.159 176.411 219.98 176.268C219.801 176.124 219.573 176.058 219.346 176.083V176.083Z" fill="black"/>
<path opacity="0.3" d="M193.279 185.291L117.44 193.759C117.326 193.77 117.216 193.804 117.116 193.858C117.016 193.913 116.928 193.987 116.857 194.077C116.786 194.166 116.734 194.269 116.703 194.379C116.673 194.489 116.664 194.605 116.679 194.718C116.691 194.832 116.725 194.942 116.78 195.042C116.835 195.143 116.908 195.231 116.997 195.303C117.086 195.375 117.188 195.428 117.297 195.46C117.406 195.492 117.521 195.502 117.634 195.49L193.465 187.022C193.578 187.01 193.688 186.976 193.788 186.921C193.888 186.866 193.976 186.792 194.047 186.703C194.119 186.614 194.172 186.511 194.204 186.402C194.236 186.292 194.246 186.177 194.234 186.063C194.223 185.949 194.189 185.838 194.135 185.737C194.081 185.637 194.007 185.547 193.918 185.476C193.829 185.404 193.727 185.35 193.617 185.319C193.507 185.287 193.392 185.278 193.279 185.291V185.291Z" fill="black"/>
<path opacity="0.3" d="M241.289 166.551L232.238 167.562C231.02 167.698 230.143 168.799 230.279 170.022L231.286 179.108C231.421 180.33 232.518 181.211 233.736 181.075L242.787 180.063C244.005 179.927 244.882 178.826 244.747 177.604L243.739 168.518C243.604 167.296 242.507 166.415 241.289 166.551Z" stroke="#263238" stroke-linecap="round" stroke-linejoin="round"/>
<path d="M233.85 173.538L236.821 176.358L240.747 170.336" stroke="#005598" stroke-width="3" stroke-linecap="round" stroke-linejoin="round"/>
<path opacity="0.3" d="M221.919 199.309L132.69 209.272C132.577 209.284 132.467 209.319 132.367 209.374C132.267 209.429 132.179 209.503 132.108 209.592C132.036 209.681 131.983 209.783 131.951 209.893C131.919 210.002 131.909 210.117 131.921 210.231C131.933 210.345 131.968 210.455 132.022 210.555C132.077 210.656 132.151 210.744 132.239 210.816C132.328 210.887 132.43 210.941 132.539 210.973C132.649 211.005 132.763 211.015 132.876 211.003L222.105 201.04C222.218 201.028 222.328 200.993 222.428 200.939C222.528 200.884 222.616 200.81 222.688 200.721C222.759 200.632 222.812 200.529 222.844 200.419C222.876 200.31 222.886 200.195 222.874 200.081C222.848 199.852 222.733 199.643 222.554 199.499C222.375 199.354 222.147 199.286 221.919 199.309Z" fill="black"/>
<path opacity="0.3" d="M222.611 205.506L119.984 216.965C119.865 216.969 119.748 216.998 119.64 217.05C119.532 217.101 119.437 217.175 119.359 217.266C119.281 217.357 119.222 217.463 119.187 217.577C119.152 217.692 119.141 217.812 119.154 217.932C119.167 218.051 119.205 218.166 119.265 218.269C119.325 218.373 119.405 218.463 119.502 218.534C119.598 218.605 119.708 218.656 119.824 218.682C119.941 218.708 120.061 218.71 120.179 218.688L222.797 207.229C222.917 207.226 223.035 207.198 223.144 207.147C223.252 207.096 223.349 207.023 223.428 206.933C223.507 206.842 223.566 206.736 223.603 206.621C223.639 206.507 223.651 206.386 223.638 206.266C223.625 206.146 223.587 206.031 223.527 205.926C223.468 205.822 223.387 205.731 223.29 205.66C223.194 205.588 223.084 205.538 222.967 205.511C222.85 205.485 222.729 205.483 222.611 205.506Z" fill="black"/>
<path opacity="0.3" d="M196.517 214.74L120.679 223.208C120.45 223.234 120.241 223.35 120.097 223.531C119.954 223.711 119.888 223.942 119.914 224.171C119.939 224.401 120.055 224.611 120.235 224.755C120.415 224.899 120.644 224.965 120.873 224.939L196.712 216.471C196.94 216.443 197.147 216.326 197.29 216.145C197.432 215.964 197.498 215.734 197.473 215.504C197.461 215.391 197.426 215.281 197.372 215.181C197.317 215.081 197.243 214.993 197.154 214.922C197.065 214.851 196.963 214.798 196.854 214.767C196.745 214.736 196.63 214.727 196.517 214.74V214.74Z" fill="black"/>
<path opacity="0.3" d="M244.553 196.004L235.501 197.015C234.284 197.151 233.407 198.253 233.542 199.475L234.55 208.561C234.685 209.783 235.782 210.664 236.999 210.528L246.051 209.517C247.268 209.381 248.146 208.28 248.01 207.057L247.003 197.971C246.867 196.749 245.771 195.868 244.553 196.004Z" stroke="#263238" stroke-linecap="round" stroke-linejoin="round"/>
<path d="M237.109 202.991L240.08 205.811L244.007 199.789" stroke="#005598" stroke-width="3" stroke-linecap="round" stroke-linejoin="round"/>
<path opacity="0.3" d="M224.409 221.765L135.181 231.744C134.952 231.77 134.743 231.886 134.599 232.067C134.456 232.247 134.39 232.478 134.416 232.707C134.441 232.937 134.557 233.147 134.737 233.291C134.917 233.435 135.146 233.501 135.375 233.475L224.604 223.512C224.717 223.501 224.827 223.467 224.927 223.413C225.027 223.358 225.115 223.284 225.186 223.194C225.257 223.105 225.31 223.002 225.34 222.892C225.371 222.782 225.379 222.666 225.365 222.553C225.354 222.438 225.322 222.326 225.268 222.224C225.214 222.121 225.141 222.031 225.052 221.958C224.963 221.884 224.86 221.829 224.75 221.796C224.64 221.763 224.524 221.752 224.409 221.765V221.765Z" fill="black"/>
<path opacity="0.3" d="M225.093 228.004L122.474 239.463C122.354 239.466 122.237 239.494 122.128 239.545C122.019 239.596 121.923 239.669 121.844 239.759C121.765 239.85 121.705 239.956 121.669 240.071C121.633 240.185 121.621 240.306 121.634 240.426C121.647 240.546 121.684 240.661 121.744 240.766C121.804 240.87 121.885 240.961 121.981 241.032C122.078 241.103 122.188 241.154 122.305 241.18C122.422 241.207 122.543 241.209 122.661 241.186L225.287 229.727C225.501 229.686 225.692 229.565 225.821 229.388C225.95 229.212 226.009 228.993 225.984 228.776C225.959 228.558 225.854 228.358 225.689 228.215C225.524 228.072 225.311 227.997 225.093 228.004Z" fill="black"/>
<path opacity="0.3" d="M198.993 237.201L123.163 245.669C123.05 245.681 122.94 245.715 122.84 245.77C122.74 245.825 122.652 245.899 122.58 245.988C122.509 246.077 122.455 246.179 122.424 246.289C122.392 246.399 122.381 246.514 122.394 246.628C122.42 246.858 122.536 247.068 122.717 247.213C122.897 247.358 123.128 247.425 123.357 247.4L199.188 238.932C199.301 238.919 199.411 238.884 199.51 238.829C199.61 238.773 199.698 238.699 199.769 238.609C199.84 238.52 199.893 238.417 199.924 238.307C199.956 238.197 199.966 238.082 199.953 237.969C199.94 237.855 199.905 237.745 199.85 237.645C199.795 237.545 199.721 237.457 199.632 237.385C199.542 237.314 199.44 237.261 199.331 237.229C199.221 237.198 199.107 237.188 198.993 237.201V237.201Z" fill="black"/>
<path opacity="0.3" d="M247.045 218.467L237.994 219.478C236.776 219.614 235.899 220.715 236.034 221.938L237.042 231.024C237.177 232.246 238.274 233.127 239.492 232.991L248.543 231.979C249.761 231.843 250.638 230.742 250.502 229.52L249.495 220.434C249.36 219.212 248.263 218.331 247.045 218.467Z" stroke="#263238" stroke-linecap="round" stroke-linejoin="round"/>
<path d="M239.592 225.46L242.563 228.28L246.489 222.258" stroke="#005598" stroke-width="3" stroke-linecap="round" stroke-linejoin="round"/>
<path d="M150.223 164.286C150.301 163.352 150.07 162.418 149.567 161.629L148.571 159.857L146.596 160.979L147.673 162.88C148.207 163.831 147.988 164.416 147.324 164.79C146.661 165.164 146.045 165.067 145.511 164.116L143.204 160.004L140.727 160.491L143.366 165.164C144.572 167.301 146.321 167.911 148.369 166.789C148.694 166.602 148.996 166.375 149.267 166.115C149.152 165.847 149.132 165.548 149.21 165.267C149.288 164.986 149.46 164.74 149.696 164.571C149.855 164.448 150.033 164.352 150.223 164.286Z" fill="#005598"/>
<path d="M139.451 158.25L139.92 159.063H142.648L141.458 156.95C140.924 155.999 141.135 155.398 141.798 155.024C142.462 154.65 143.086 154.764 143.62 155.723L144.429 157.145L146.397 156.024L145.668 154.731C144.462 152.602 142.713 151.985 140.665 153.155C140.195 153.409 139.777 153.751 139.435 154.163C139.9 154.313 140.387 154.381 140.876 154.366L138.933 155.097C138.79 155.629 138.763 156.186 138.852 156.73C138.942 157.274 139.146 157.792 139.451 158.25V158.25Z" fill="#005598"/>
<path d="M154.581 149.572C154.84 149.442 155.111 149.336 155.39 149.256C156.435 148.784 156.669 147.273 156.58 146.208L155.504 144.867L152.605 146.492L154.419 149.694C154.466 149.646 154.521 149.604 154.581 149.572V149.572Z" fill="#005598"/>
<path d="M166.93 155.939L168.897 154.817L161.377 141.506L159.506 142.562C160.106 142.709 160.535 142.993 160.551 143.432C159.968 143.513 159.256 143.432 158.624 143.546L162.413 153.403L157.62 147.406C157.633 147.539 157.613 147.673 157.563 147.796C157.512 147.919 157.431 148.028 157.329 148.113C157.11 148.267 156.794 148.267 156.624 148.47C156.454 148.673 156.479 148.917 156.333 149.096C156.187 149.275 155.961 149.324 155.783 149.454C155.604 149.584 155.41 149.917 155.208 150.136C155.11 150.239 154.987 150.315 154.852 150.356L160.178 159.782L161.992 158.742L156.673 149.332L163.506 157.881L165.481 156.759L161.49 146.414L166.93 155.939Z" fill="#005598"/>
<path d="M171.909 144.352C172.053 144.424 172.181 144.525 172.285 144.648C172.389 144.77 172.468 144.913 172.516 145.067C172.686 144.063 172.469 143.031 171.909 142.182L170.929 140.443C169.723 138.314 168.047 137.737 165.959 138.923L162.891 140.671L170.419 153.99L172.37 152.877C171.739 152.479 171.035 152.137 170.436 151.706C170.154 151.526 169.923 151.277 169.764 150.983C169.688 150.835 169.657 150.667 169.674 150.501C169.691 150.336 169.756 150.178 169.861 150.049C169.998 149.933 170.165 149.858 170.343 149.834C170.521 149.809 170.702 149.836 170.865 149.911L169.675 147.798L170.662 147.237C171.205 146.941 171.678 146.531 172.047 146.034C171.634 145.376 170.913 143.978 171.909 144.352ZM169.586 145.376L168.598 145.937L166.048 141.426L167.036 140.866C167.699 140.492 168.234 140.589 168.768 141.54L169.901 143.539C170.436 144.449 170.249 144.961 169.586 145.376Z" fill="#005598"/>
<path d="M183.069 146.785L182.001 144.883L178.568 146.834L173.549 137.952L173.322 138.13C173.176 138.267 172.998 138.364 172.804 138.415C172.707 138.437 172.604 138.423 172.517 138.375C172.429 138.327 172.361 138.249 172.326 138.155C172.299 138.029 172.299 137.899 172.326 137.773C172.328 137.017 172.09 136.279 171.646 135.668L170.027 136.611L177.548 149.922L183.069 146.785Z" fill="#005598"/>
<path d="M182.137 142.13C182.363 141.536 183.068 141.317 183.464 140.781C183.5 140.725 183.532 140.669 183.562 140.61L182.752 139.245L184.8 138.083C184.763 137.953 184.696 137.833 184.606 137.733C184.312 137.589 183.998 137.49 183.675 137.441C183.625 137.34 183.6 137.228 183.601 137.115C183.603 137.002 183.632 136.892 183.685 136.792C183.738 136.693 183.814 136.607 183.907 136.544C183.999 136.48 184.106 136.439 184.217 136.425C184.355 136.425 184.517 136.425 184.622 136.36C184.696 136.271 184.734 136.158 184.727 136.043L184.541 135.718L181.675 137.343L179.587 133.637L183.181 131.581L182.104 129.68L176.438 132.93L182.007 142.788C182.017 142.563 182.061 142.341 182.137 142.13V142.13Z" fill="#005598"/>
<path d="M189.67 143.031L188.593 141.129L184.991 143.177L183.914 141.316L182.586 142.567L182.125 143.014L183.987 146.306L189.67 143.031Z" fill="#005598"/>
<path d="M186.989 127.564C186.989 127.848 186.787 128.165 186.512 128.19C186.372 128.188 186.233 128.166 186.099 128.125C185.848 128.129 185.599 128.105 185.354 128.052C185.301 128.03 185.252 128 185.208 127.962L182.828 129.319L183.905 131.229L186.083 129.986L192.559 141.363L194.639 140.176L188.163 128.799L190.349 127.556L189.272 125.654L187.038 126.922C186.997 127.133 187.013 127.353 186.989 127.564Z" fill="#005598"/>
<path d="M196.085 135.625L197.704 138.494L199.89 137.251C199.941 137.107 200.006 136.968 200.084 136.836C200.565 136.13 201.213 135.555 201.97 135.162L202.974 134.536L202.31 133.35L198.708 135.406L196.506 131.505L199.371 129.88L198.295 127.978L195.429 129.603L193.34 125.873L196.943 123.825L195.866 121.924L190.199 125.174L194.287 132.415C195.275 131.887 195.769 133.789 196.085 135.625Z" fill="#005598"/>
<path d="M154.158 161.919C154.498 161.976 154.7 162.317 154.967 162.545C155.064 162.635 155.177 162.706 155.299 162.756C155.454 162.694 155.606 162.624 155.753 162.545C157.793 161.383 158.222 159.53 157.024 157.392L156.902 157.181L154.101 157.108L155.016 158.733C155.55 159.684 155.34 160.285 154.676 160.659C154.012 161.033 153.389 160.911 152.854 159.96L148.807 152.768C148.264 151.818 148.483 151.224 149.147 150.842C149.811 150.46 150.426 150.591 150.968 151.541L153.713 156.417C154.555 156.208 155.419 156.099 156.287 156.092L153.122 150.493C151.923 148.364 150.118 147.787 148.07 148.949C146.022 150.111 145.593 151.972 146.799 154.101L150.709 161.025C150.956 161.559 151.326 162.026 151.787 162.389C152.249 162.752 152.789 163 153.364 163.114C153.36 163.065 153.36 163.016 153.364 162.967C153.267 162.439 153.656 161.821 154.158 161.919Z" fill="#005598"/>
<path d="M182.104 123.698L188.459 120.082C186.637 120.586 185.034 122.114 183.156 121.902C182.817 121.813 182.46 121.813 182.12 121.902C181.908 122.04 181.755 122.252 181.692 122.498C181.629 122.743 181.66 123.004 181.78 123.227C181.862 123.401 181.971 123.56 182.104 123.698Z" fill="#005598"/>
<path d="M166.168 132.782C166.154 132.641 166.182 132.5 166.249 132.375C166.405 132.43 166.57 132.457 166.735 132.457L168.929 131.213C169.272 130.823 169.664 130.479 170.095 130.189C170.51 129.966 170.95 129.791 171.406 129.669L171.892 129.523L175.94 127.231C175.982 127.148 176.04 127.074 176.11 127.012C176.172 126.97 176.24 126.937 176.312 126.914L172.135 125.646L171.009 126.28L170.888 127.174L166.071 129.759C165.594 130.057 165.063 130.259 164.509 130.352C164.302 130.376 164.092 130.376 163.885 130.352L157.02 134.261C157.075 134.587 157.167 134.906 157.296 135.211C156.893 135.136 156.51 134.978 156.17 134.748L154.762 135.561C155.766 136.227 156.753 136.91 157.717 137.633L166.168 132.782Z" fill="#005598"/>
<path d="M195.556 116.057L192.237 114.188L190.666 115.081C191.591 116.037 192.787 116.684 194.09 116.934L195.556 116.057Z" fill="#005598"/>
<path d="M213.412 135.727L200.88 113.55C200.393 112.692 199.587 112.063 198.639 111.8C197.691 111.536 196.678 111.66 195.821 112.144L194.315 113.005L194.89 113.566C195.489 114.167 196.104 114.777 196.663 115.419L197.424 114.988C197.529 114.929 197.653 114.914 197.77 114.946C197.887 114.978 197.986 115.054 198.047 115.159L210.587 137.344C210.645 137.451 210.659 137.577 210.626 137.694C210.592 137.811 210.514 137.91 210.409 137.97L193.352 147.722C194.825 147.811 196.315 147.6 197.788 147.771C198.319 147.838 198.846 147.933 199.367 148.055L212.012 140.855C212.441 140.613 212.818 140.287 213.122 139.898C213.425 139.508 213.648 139.062 213.779 138.585C213.909 138.108 213.944 137.61 213.881 137.119C213.818 136.629 213.659 136.155 213.412 135.727V135.727Z" fill="#005598"/>
<path d="M136.609 163.953L130.715 153.502C130.685 153.449 130.665 153.391 130.657 153.33C130.649 153.27 130.653 153.209 130.669 153.15C130.685 153.091 130.712 153.036 130.749 152.987C130.786 152.939 130.833 152.899 130.885 152.868L147.886 143.181C147.829 143.051 147.756 142.921 147.708 142.791C147.948 142.781 148.188 142.809 148.42 142.873L155.293 138.964C155.067 138.891 154.848 138.801 154.629 138.72L151.391 137.428L148.801 138.907L151.618 140.638C150.638 140.036 148.639 139.955 146.914 139.979L129.323 150.032C128.467 150.52 127.839 151.329 127.576 152.281C127.314 153.233 127.438 154.251 127.922 155.111L133.039 164.164C133.273 164.099 133.516 164.042 133.751 164.002C134.4 163.908 135.056 163.875 135.71 163.904C136.01 163.902 136.311 163.918 136.609 163.953V163.953Z" fill="#005598"/>
<path d="M157.61 168.035C157.898 168.294 158.226 168.506 158.581 168.661C158.946 168.823 159.431 169.213 159.148 169.473C157.836 170.075 156.217 169.628 154.93 170.286C154.226 170.627 153.546 171.302 152.793 171.099C153.704 171.654 154.523 172.347 155.222 173.155L187.369 154.854C187.369 154.724 187.409 154.594 187.434 154.455C187.434 154.2 187.493 153.947 187.606 153.718C187.718 153.488 187.881 153.288 188.083 153.131C188.284 152.974 188.518 152.866 188.768 152.814C189.017 152.761 189.275 152.767 189.522 152.83C189.939 152.812 190.357 152.856 190.761 152.96L194.768 150.677C194.218 149.725 193.567 148.837 192.825 148.027L157.61 168.035Z" fill="#005598"/>
<path d="M152.41 173.403C151.634 173.15 150.92 172.738 150.313 172.192L143.901 175.849C143.849 175.879 143.792 175.899 143.732 175.907C143.672 175.914 143.612 175.91 143.554 175.894C143.496 175.878 143.442 175.851 143.394 175.814C143.347 175.777 143.307 175.731 143.278 175.678L137.611 165.707C137.068 165.518 136.49 165.452 135.919 165.512C135.263 165.642 134.688 166.406 135.045 166.966C135.379 166.975 135.706 167.073 135.99 167.25C136.275 167.427 136.507 167.677 136.664 167.974C136.315 168.253 135.931 168.485 135.522 168.665L140.38 177.287C140.621 177.723 140.947 178.105 141.337 178.412C141.728 178.72 142.176 178.946 142.655 179.077C143.134 179.208 143.634 179.241 144.126 179.175C144.618 179.109 145.092 178.945 145.52 178.693L153.923 173.906L153.826 173.849C153.362 173.675 152.889 173.526 152.41 173.403V173.403Z" fill="#005598"/>
<g opacity="0.2">
<path d="M150.221 164.284C150.299 163.35 150.068 162.416 149.565 161.627L148.569 159.855L146.594 160.977L147.671 162.879C148.205 163.829 147.986 164.414 147.322 164.788C146.659 165.162 146.043 165.065 145.509 164.114L143.202 160.002L140.725 160.489L143.364 165.162C144.57 167.299 146.319 167.909 148.367 166.787C148.692 166.6 148.994 166.373 149.265 166.113C149.15 165.845 149.13 165.546 149.208 165.265C149.286 164.984 149.458 164.738 149.694 164.569C149.853 164.446 150.031 164.35 150.221 164.284Z" fill="black"/>
<path d="M139.449 158.244L139.918 159.057H142.647L141.456 156.944C140.922 155.993 141.133 155.392 141.796 155.018C142.46 154.644 143.084 154.758 143.618 155.717L144.428 157.139L146.395 156.018L145.666 154.726C144.46 152.596 142.711 151.979 140.663 153.149C140.193 153.403 139.775 153.745 139.433 154.157C139.898 154.307 140.385 154.375 140.874 154.36L138.931 155.091C138.788 155.624 138.761 156.18 138.85 156.724C138.94 157.268 139.144 157.786 139.449 158.244V158.244Z" fill="black"/>
<path d="M154.577 149.571C154.836 149.44 155.107 149.334 155.386 149.254C156.431 148.782 156.666 147.271 156.576 146.206L155.5 144.865L152.602 146.491L154.415 149.692C154.462 149.644 154.517 149.602 154.577 149.571V149.571Z" fill="black"/>
<path d="M166.924 155.937L168.891 154.815L161.371 141.504L159.501 142.56C160.1 142.707 160.529 142.991 160.545 143.43C159.962 143.511 159.25 143.43 158.618 143.544L162.407 153.401L157.614 147.404C157.627 147.537 157.608 147.671 157.557 147.794C157.506 147.917 157.426 148.026 157.323 148.111C157.104 148.265 156.789 148.265 156.619 148.468C156.449 148.672 156.473 148.915 156.327 149.094C156.181 149.273 155.955 149.322 155.777 149.452C155.599 149.582 155.404 149.915 155.202 150.134C155.104 150.237 154.982 150.313 154.846 150.354L160.173 159.781L161.986 158.74L156.667 149.33L163.5 157.879L165.475 156.757L161.484 146.412L166.924 155.937Z" fill="black"/>
<path d="M171.907 144.35C172.051 144.422 172.179 144.523 172.283 144.646C172.387 144.768 172.466 144.911 172.514 145.065C172.685 144.061 172.467 143.029 171.907 142.18L170.928 140.441C169.721 138.312 168.046 137.735 165.957 138.921L162.889 140.669L170.417 153.988L172.369 152.875C171.737 152.477 171.033 152.135 170.434 151.705C170.152 151.524 169.921 151.275 169.762 150.981C169.686 150.833 169.655 150.665 169.672 150.5C169.689 150.334 169.754 150.176 169.859 150.047C169.996 149.931 170.163 149.856 170.341 149.832C170.519 149.807 170.7 149.834 170.863 149.909L169.673 147.796L170.66 147.235C171.203 146.94 171.676 146.529 172.045 146.032C171.632 145.374 170.911 143.976 171.907 144.35ZM169.584 145.374L168.596 145.935L166.046 141.424L167.034 140.864C167.697 140.49 168.232 140.587 168.766 141.538L169.899 143.537C170.434 144.448 170.247 144.959 169.584 145.374Z" fill="black"/>
<path d="M183.067 146.781L181.999 144.88L178.566 146.83L173.547 137.948L173.32 138.126C173.174 138.263 172.996 138.361 172.802 138.411C172.705 138.433 172.603 138.419 172.515 138.371C172.427 138.323 172.359 138.245 172.325 138.151C172.297 138.025 172.297 137.895 172.325 137.769C172.326 137.013 172.088 136.276 171.644 135.664L170.025 136.607L177.546 149.918L183.067 146.781Z" fill="black"/>
<path d="M182.133 142.124C182.359 141.53 183.064 141.311 183.46 140.775C183.496 140.72 183.528 140.663 183.558 140.604L182.748 139.239L184.796 138.077C184.759 137.947 184.692 137.827 184.602 137.727C184.308 137.583 183.994 137.484 183.671 137.435C183.621 137.334 183.596 137.222 183.598 137.109C183.599 136.996 183.628 136.886 183.681 136.786C183.734 136.687 183.81 136.602 183.903 136.538C183.995 136.474 184.102 136.433 184.213 136.419C184.351 136.419 184.513 136.419 184.618 136.354C184.692 136.265 184.73 136.152 184.723 136.037L184.537 135.712L181.671 137.337L179.583 133.631L183.177 131.575L182.1 129.674L176.434 132.924L182.003 142.782C182.013 142.557 182.057 142.335 182.133 142.124V142.124Z" fill="black"/>
<path d="M189.67 143.027L188.593 141.125L184.991 143.173L183.914 141.312L182.586 142.563L182.125 143.01L183.987 146.302L189.67 143.027Z" fill="black"/>
<path d="M186.987 127.562C186.987 127.847 186.785 128.163 186.51 128.188C186.37 128.186 186.231 128.164 186.097 128.123C185.847 128.127 185.597 128.103 185.352 128.05C185.299 128.028 185.25 127.998 185.206 127.96L182.826 129.317L183.903 131.227L186.081 129.984L192.557 141.361L194.638 140.175L188.161 128.797L190.347 127.554L189.27 125.652L187.036 126.92C186.995 127.131 187.012 127.351 186.987 127.562Z" fill="black"/>
<path d="M196.081 135.623L197.7 138.492L199.886 137.249C199.937 137.105 200.002 136.966 200.08 136.834C200.561 136.128 201.209 135.553 201.966 135.16L202.97 134.534L202.306 133.348L198.704 135.404L196.502 131.503L199.368 129.878L198.291 127.976L195.425 129.601L193.336 125.871L196.939 123.823L195.862 121.922L190.195 125.172L194.284 132.413C195.271 131.885 195.765 133.787 196.081 135.623Z" fill="black"/>
<path d="M154.15 161.917C154.49 161.974 154.692 162.315 154.96 162.543C155.057 162.633 155.169 162.704 155.291 162.754C155.446 162.692 155.598 162.622 155.745 162.543C157.785 161.381 158.214 159.528 157.016 157.39L156.894 157.179L154.093 157.106L155.008 158.731C155.542 159.682 155.332 160.284 154.668 160.657C154.004 161.031 153.381 160.909 152.847 159.958L148.799 152.766C148.256 151.816 148.475 151.222 149.139 150.84C149.803 150.459 150.418 150.589 150.96 151.539L153.705 156.415C154.547 156.206 155.411 156.097 156.279 156.09L153.114 150.491C151.916 148.362 150.11 147.785 148.062 148.947C146.014 150.109 145.585 151.97 146.791 154.099L150.701 161.023C150.948 161.557 151.318 162.024 151.779 162.387C152.241 162.75 152.781 162.998 153.357 163.112C153.352 163.063 153.352 163.014 153.357 162.965C153.259 162.437 153.648 161.819 154.15 161.917Z" fill="black"/>
<path d="M182.102 123.694L188.457 120.078C186.635 120.582 185.033 122.11 183.154 121.898C182.815 121.809 182.458 121.809 182.118 121.898C181.906 122.036 181.753 122.248 181.69 122.494C181.627 122.74 181.658 123 181.778 123.223C181.86 123.397 181.97 123.556 182.102 123.694Z" fill="black"/>
<path d="M166.16 132.778C166.146 132.637 166.175 132.496 166.241 132.371C166.398 132.426 166.562 132.453 166.727 132.453L168.921 131.209C169.264 130.819 169.656 130.475 170.087 130.185C170.503 129.962 170.943 129.787 171.398 129.665L171.884 129.519L175.932 127.227C175.974 127.144 176.032 127.07 176.102 127.008C176.164 126.966 176.232 126.933 176.304 126.91L172.127 125.643L171.002 126.276L170.88 127.17L166.063 129.755C165.586 130.054 165.056 130.255 164.501 130.348C164.294 130.372 164.085 130.372 163.878 130.348L157.013 134.257C157.067 134.583 157.16 134.902 157.288 135.208C156.885 135.132 156.502 134.975 156.163 134.744L154.754 135.557C155.758 136.223 156.745 136.906 157.709 137.629L166.16 132.778Z" fill="black"/>
<path d="M195.556 116.055L192.237 114.186L190.666 115.079C191.591 116.035 192.787 116.682 194.09 116.932L195.556 116.055Z" fill="black"/>
<path d="M213.402 135.727L200.871 113.55C200.383 112.692 199.578 112.063 198.63 111.8C197.682 111.536 196.668 111.66 195.811 112.144L194.305 113.005L194.88 113.566C195.479 114.167 196.094 114.777 196.653 115.419L197.414 114.988C197.519 114.929 197.644 114.914 197.76 114.946C197.877 114.978 197.976 115.054 198.037 115.159L210.577 137.344C210.635 137.451 210.649 137.577 210.616 137.694C210.583 137.811 210.505 137.91 210.399 137.97L193.342 147.722C194.815 147.811 196.305 147.6 197.778 147.771C198.309 147.838 198.836 147.933 199.357 148.055L212.002 140.855C212.431 140.613 212.809 140.287 213.112 139.898C213.415 139.508 213.639 139.062 213.769 138.585C213.899 138.108 213.934 137.61 213.871 137.119C213.808 136.629 213.649 136.155 213.402 135.727V135.727Z" fill="black"/>
<path d="M136.609 163.949L130.715 153.498C130.685 153.445 130.665 153.387 130.657 153.327C130.649 153.266 130.653 153.205 130.669 153.146C130.685 153.087 130.712 153.032 130.749 152.983C130.786 152.935 130.833 152.895 130.885 152.864L147.886 143.177C147.829 143.047 147.756 142.917 147.708 142.787C147.948 142.777 148.188 142.805 148.42 142.869L155.293 138.96C155.067 138.887 154.848 138.797 154.629 138.716L151.391 137.424L148.801 138.903L151.618 140.634C150.638 140.032 148.639 139.951 146.914 139.976L129.323 150.028C128.467 150.516 127.839 151.325 127.576 152.277C127.314 153.229 127.438 154.247 127.922 155.107L133.039 164.16C133.273 164.095 133.516 164.038 133.751 163.998C134.4 163.904 135.056 163.871 135.71 163.9C136.01 163.898 136.311 163.914 136.609 163.949V163.949Z" fill="black"/>
<path d="M157.61 168.031C157.898 168.29 158.226 168.502 158.581 168.657C158.946 168.819 159.431 169.209 159.148 169.469C157.836 170.071 156.217 169.624 154.93 170.282C154.226 170.623 153.546 171.298 152.793 171.095C153.704 171.65 154.523 172.343 155.222 173.151L187.369 154.85C187.369 154.72 187.409 154.59 187.434 154.452C187.434 154.196 187.493 153.944 187.606 153.714C187.718 153.485 187.881 153.284 188.083 153.127C188.284 152.97 188.518 152.862 188.768 152.81C189.017 152.758 189.275 152.763 189.522 152.826C189.939 152.808 190.357 152.852 190.761 152.956L194.768 150.673C194.218 149.721 193.567 148.833 192.825 148.023L157.61 168.031Z" fill="black"/>
<path d="M152.408 173.403C151.632 173.15 150.918 172.738 150.311 172.192L143.899 175.849C143.847 175.879 143.79 175.899 143.73 175.907C143.671 175.914 143.61 175.91 143.552 175.894C143.494 175.878 143.44 175.851 143.392 175.814C143.345 175.777 143.305 175.731 143.276 175.678L137.609 165.707C137.066 165.518 136.488 165.452 135.917 165.512C135.261 165.642 134.687 166.406 135.043 166.966C135.377 166.975 135.704 167.073 135.988 167.25C136.273 167.427 136.505 167.677 136.662 167.974C136.313 168.253 135.929 168.485 135.52 168.665L140.378 177.287C140.619 177.723 140.945 178.105 141.335 178.412C141.726 178.72 142.174 178.946 142.653 179.077C143.132 179.208 143.632 179.241 144.124 179.175C144.616 179.109 145.09 178.945 145.518 178.693L153.921 173.906L153.824 173.849C153.36 173.675 152.887 173.526 152.408 173.403V173.403Z" fill="black"/>
</g>
<path opacity="0.3" d="M115.944 144.383C120.882 148.024 125.011 165.512 125.383 181.546C125.756 197.579 133.479 224.616 134.402 229.045C135.325 233.474 134.985 239.862 140.716 230.971C146.448 222.081 163.214 206.649 170.2 211.776C177.186 216.904 165.424 234.141 159.053 243.421C152.681 252.702 152.034 269.044 144.4 279.276C136.766 289.507 129.868 304.955 122.388 304.72C114.908 304.484 65.3633 341.379 65.3633 341.379L66.3347 290.88L110.86 217.741L115.944 144.383Z" fill="black" fill-opacity="0.7"/>
<path d="M174.268 214.256C174.017 215.84 165.298 227.437 160.174 236.116C155.049 244.795 150.249 259.903 148.962 262.121C147.674 264.34 131.961 278.196 127.654 283.99C123.347 289.784 115.657 292.344 107.974 297.805C103.036 301.316 87.6462 319.43 77.2758 331.936C71.5118 338.885 67.2941 344.126 67.2941 344.126L1 326.776C1 326.776 6.48875 322.233 13.7099 316.106H13.7585L13.8314 316.049C25.6994 305.931 42.2385 291.653 46.8044 286.265C54.1632 277.586 64.4121 267.273 64.4121 267.273C63.7887 255.222 65.0597 243.804 63.9345 239.464C63.3516 237.197 62.3154 224.3 61.5058 220.334C59.5386 210.201 50.9816 199.701 50.0183 195.565C49.0549 191.428 37.7617 173.818 43.2747 170.567C44.277 169.934 45.4683 169.672 46.6425 169.828C54.0903 170.86 60.2267 188.917 64.4526 193.517C66.2633 195.694 67.9035 198.009 69.3584 200.441C72.6938 205.747 75.9644 211.712 75.9644 211.712C77.2435 206.568 67.9579 188.243 65.3916 170.884C62.8254 153.526 55.4666 144.205 65.3916 143.132C66.2071 143.04 67.0327 143.112 67.8203 143.343C74.8067 145.391 77.8344 159.962 82.0117 174.102C82.4003 175.403 85.5818 184.74 88.0591 191.94C89.6782 196.654 90.9734 200.449 90.9734 200.449C91.2892 191.607 88.5448 183.383 88.0914 175.37C87.8971 172.16 88.901 159.296 87.6381 146.44C86.5533 135.591 87.0471 131.194 91.273 130.341C92.1782 130.177 93.1008 130.134 94.0173 130.211C101.344 130.674 103.942 150.218 103.942 157.841C103.942 162.27 104.695 170.917 105.327 177.402C105.788 182.091 106.185 185.65 106.185 185.65C106.185 185.65 107.464 174.883 106.509 151.657C106.29 146.57 106.622 142.929 108.614 141.458C109.706 140.645 111.285 140.507 113.552 141.125C119.955 142.864 122.036 166.683 122.036 175.687C122.036 184.691 127.16 200.116 128.124 212.257C129.087 224.398 133.281 239.318 133.281 239.318C133.281 239.318 135.653 240.285 137.247 239.968C138.842 239.651 149.901 223.252 149.901 223.252C155.049 212.029 165.072 208.624 170.528 209.884C173.038 210.461 174.657 212.013 174.268 214.256Z" fill="white"/>
<path opacity="0.4" d="M174.268 214.255C174.017 215.84 165.298 227.436 160.173 236.115C155.049 244.795 150.248 259.902 148.961 262.12C147.674 264.339 131.961 278.195 127.654 283.989C123.347 289.783 115.656 292.343 107.974 297.804C103.035 301.315 87.6457 319.429 77.2754 331.936C78.4169 327.401 80.975 321.607 87.6619 316.04C99.2709 306.361 99.9671 298.771 106.209 292.343C112.45 285.915 123.444 287.841 127.395 280.153C131.345 272.465 145.124 265.363 148.006 258.61C150.888 251.856 145.124 250.426 150.248 242.3C155.373 234.173 160.343 232.198 159.615 229.013C158.886 225.827 156.733 221 161.177 216.977C163.954 214.474 167.216 211.329 170.552 209.883C173.037 210.46 174.656 212.012 174.268 214.255Z" fill="#005598"/>
<path opacity="0.4" d="M91.2089 252.403C89.0797 251.33 90.7879 249.193 89.2902 247.413C87.7926 245.634 84.3763 257.124 83.6234 257.165C82.8705 257.206 80.5795 251.322 79.6728 250.737C78.7661 250.152 78.2318 252.614 76.9446 257.165C75.6574 261.716 70.9296 264.024 68.1852 267.275C65.4409 270.525 48.9341 288.2 44.8783 294.84C40.8224 301.479 15.775 314.62 13.832 316.034C25.7 305.933 42.2392 291.654 46.805 286.266C54.1638 277.587 64.4127 267.275 64.4127 267.275C63.7894 255.223 65.0604 243.805 63.9351 239.465C63.3522 237.198 62.316 224.301 61.5065 220.336C59.5392 210.202 50.9823 199.702 50.0189 195.566C49.0556 191.429 37.7623 173.819 43.2754 170.568C44.2776 169.935 45.469 169.674 46.6431 169.829C45.3883 170.723 44.1659 172.007 45.3074 173.892C47.3393 177.192 49.5737 180.662 49.5737 184.311C49.5737 187.959 55.7667 193.095 58.1711 196.5C60.5755 199.905 58.333 198.703 59.9359 203.367C61.5388 208.032 63.4575 207.057 64.4127 211.77C65.368 216.484 70.711 219.49 69.861 225.366C69.011 231.241 72.4192 239.417 72.4192 239.417C72.4192 239.417 75.196 231.493 74.184 227.227C73.1721 222.96 74.3459 217.581 73.3745 216.134C72.5649 214.834 70.3467 206.008 69.3267 200.523C72.6621 205.83 75.9326 211.795 75.9326 211.795C77.2117 206.65 67.9262 188.325 65.3599 170.967C62.7936 153.608 55.4348 144.287 65.3599 143.214C66.1754 143.123 67.001 143.195 67.7886 143.426C72.0225 151.365 69.0758 157.241 68.1367 160.687C67.1085 164.441 73.2287 174.079 74.1354 180.719C74.945 186.919 76.6127 186.277 76.8312 186.163C76.6451 186.334 75.0664 187.951 76.0217 192.551C77.0174 197.427 84.1172 209.007 84.1172 212.241C84.1172 215.476 83.5343 220.799 83.5343 222.375C83.5343 223.952 89.2012 234.5 89.8812 237.263C90.5612 240.026 89.614 231.94 91.1603 229.137C92.7065 226.333 93.5242 216.549 93.7266 217.077C96.39 223.871 93.3461 253.459 91.2089 252.403Z" fill="#005598"/>
<path opacity="0.4" d="M95.7981 179.781C93.9847 182.535 94.0332 204.038 90.9408 204.111C89.4431 204.111 88.7145 198.707 88.1073 191.922C89.7264 196.635 91.0217 200.43 91.0217 200.43C91.3374 191.588 88.5931 183.364 88.1397 175.352C87.9454 172.142 88.9493 159.277 87.6864 146.421C86.6016 135.572 87.0954 131.176 91.3213 130.322C92.2118 133.215 94.3976 136.628 94.9561 139.798C95.7171 144.17 94.2275 147.786 92.9485 148.331C91.6694 148.875 91.4508 151.695 93.0537 152.11C94.6566 152.524 93.0537 173.044 93.7985 175.677C94.5433 178.31 97.6196 177.066 95.7981 179.781Z" fill="#005598"/>
<path opacity="0.4" d="M112.438 155.709C109.111 157.18 108.933 159.813 107.937 163.592C106.941 167.371 109.362 172.889 107.937 181.56C106.512 190.231 111.71 195.822 107.937 205.525C104.165 215.228 105.938 197.399 105.306 189.272C105.089 185.314 105.105 181.347 105.355 177.391C105.816 182.08 106.213 185.639 106.213 185.639C106.213 185.639 107.492 174.872 106.537 151.646C106.318 146.559 106.65 142.918 108.642 141.447C112.058 144.56 115.272 154.458 112.438 155.709Z" fill="#005598"/>
<path d="M67.2974 344.132C67.2974 344.132 100.287 303.304 107.977 297.81C115.668 292.317 123.359 289.773 127.658 283.995C131.956 278.217 147.686 264.378 148.965 262.127C150.244 259.876 155.053 244.768 160.177 236.122C165.302 227.475 174.02 215.805 174.271 214.261C175.389 207.183 157.457 206.866 149.928 223.265C149.928 223.265 138.878 239.657 137.275 239.982C135.672 240.307 133.308 239.332 133.308 239.332C133.308 239.332 129.115 224.419 128.151 212.27C127.188 200.121 122.064 184.68 122.064 175.701C122.064 166.721 119.983 142.877 113.579 141.138C107.176 139.399 106.204 143.804 106.536 151.703C107.492 174.929 106.213 185.696 106.213 185.696C106.213 185.696 103.97 165.518 103.97 157.887C103.97 150.256 101.371 130.712 94.045 130.257C87.3176 129.826 86.3785 133.621 87.6657 146.51C88.9529 159.399 87.9248 172.231 88.1191 175.441C88.5967 183.478 91.3573 191.694 91.0011 200.519C91.0011 200.519 82.6708 176.31 82.0312 174.157C77.3925 158.375 74.1786 142.122 65.3707 143.097C55.4456 144.17 62.8125 153.491 65.3707 170.849C67.9289 188.207 77.2225 206.533 75.9434 211.677C75.9434 211.677 68.2608 197.675 64.4316 193.482C59.5743 188.207 52.2398 165.226 43.27 170.532C37.7569 173.783 49.0825 191.45 50.0378 195.586C50.9931 199.723 59.5581 210.214 61.5253 220.356C62.3349 224.322 63.3468 237.219 63.954 239.486C65.0793 243.826 63.8083 255.243 64.4316 267.295C64.4316 267.295 54.1827 277.583 46.8239 286.262C39.4651 294.942 1.01953 326.773 1.01953 326.773" stroke="#263238" stroke-linecap="round" stroke-linejoin="round"/>
<path d="M133.305 239.328C134.782 242.99 134.782 247.085 133.305 250.746" stroke="#263238" stroke-linecap="round" stroke-linejoin="round"/>
<path d="M136 240.008C136.919 240.685 137.6 241.638 137.945 242.729C138.29 243.82 138.28 244.993 137.919 246.078" stroke="#263238" stroke-linecap="round" stroke-linejoin="round"/>
<path d="M106.209 185.641C106.209 185.641 108.775 203.803 107.65 207.176" stroke="#263238" stroke-linecap="round" stroke-linejoin="round"/>
<path d="M90.9961 200.432C91.2719 202.187 91.2719 203.975 90.9961 205.73" stroke="#263238" stroke-linecap="round" stroke-linejoin="round"/>
<path d="M75.9531 211.682C75.9531 211.682 76.4326 214.42 75.9531 215.062" stroke="#263238" stroke-linecap="round" stroke-linejoin="round"/>
<path d="M157.131 227.113C157.131 227.113 160.029 228.69 160.976 230.973" stroke="#263238" stroke-linecap="round" stroke-linejoin="round"/>
<path d="M91.1035 151.648C92.0429 151.874 93.024 151.86 93.9563 151.606C94.8887 151.352 95.7423 150.866 96.4385 150.193" stroke="#263238" stroke-linecap="round" stroke-linejoin="round"/>
<path d="M92.0859 177.764C92.0859 177.764 97.8499 179.69 99.9386 177.764" stroke="#263238" stroke-linecap="round" stroke-linejoin="round"/>
<path d="M110.855 183.395C110.855 183.395 114.693 181.949 117.259 182.753" stroke="#263238" stroke-linecap="round" stroke-linejoin="round"/>
<path d="M74.1797 188.535C74.1797 188.535 77.2236 184.512 79.628 185.641" stroke="#263238" stroke-linecap="round" stroke-linejoin="round"/>
<path d="M61.6895 200.432C61.6895 200.432 58.9694 201.716 58.168 203.081" stroke="#263238" stroke-linecap="round" stroke-linejoin="round"/>
<path d="M64.416 267.273C65.0833 266.522 65.6745 265.705 66.1808 264.835C66.6585 263.868 66.0189 253.58 66.1808 246.957" stroke="#263238" stroke-linecap="round" stroke-linejoin="round"/>
<path d="M98.011 307.771C94.2385 312.014 82.67 319.701 78.0312 324.358" stroke="#263238" stroke-linecap="round" stroke-linejoin="round"/>
<path d="M113.255 211.682C111.337 217.151 113.417 224.058 113.255 227.122C113.093 230.186 112.446 244.188 112.446 244.188" stroke="#263238" stroke-linecap="round" stroke-linejoin="round"/>
<path d="M95.7987 211.682C93.2405 216.021 94.042 221.807 94.8434 224.684C95.6449 227.561 94.9325 239.312 94.9325 239.312" stroke="#263238" stroke-linecap="round" stroke-linejoin="round"/>
<path d="M68.2587 225.502C68.0467 228.332 68.6064 231.167 69.8778 233.702" stroke="#263238" stroke-linecap="round" stroke-linejoin="round"/>
<path d="M84.1118 216.982C82.6708 222.289 84.5975 224.695 84.7594 225.499" stroke="#263238" stroke-linecap="round" stroke-linejoin="round"/>
<path opacity="0.3" d="M214.179 181.938L211.451 166.042C211.33 165.336 211.354 164.613 211.519 163.916C211.684 163.219 211.988 162.562 212.412 161.986C212.836 161.41 213.372 160.926 213.987 160.563C214.603 160.2 215.285 159.966 215.993 159.874L222.105 159.061C222.105 159.061 220.065 154.909 226.63 142.808C233.195 130.708 264.76 98.5672 288.69 152.56C312.62 206.553 334.486 316.578 334.486 316.578C334.486 316.578 269.892 241.066 267.836 237.198C265.78 233.33 246.116 235.646 241.574 225.268C237.033 214.891 227.496 185.278 227.496 185.278L220.113 186.293C218.755 186.478 217.378 186.127 216.272 185.315C215.166 184.503 214.416 183.293 214.179 181.938V181.938Z" fill="black" fill-opacity="0.7"/>
<path d="M271.108 145.465L258.714 147.724L241.486 150.869L218.924 154.989C218.491 155.069 218.047 155.062 217.617 154.969C217.187 154.876 216.779 154.699 216.418 154.448C216.056 154.196 215.747 153.876 215.509 153.504C215.271 153.133 215.108 152.718 215.03 152.283L210.076 124.937C209.92 124.06 210.116 123.157 210.621 122.425C211.126 121.692 211.899 121.19 212.772 121.028L225.894 118.59L244.984 115.112L264.955 111.463C265.388 111.384 265.832 111.39 266.262 111.483C266.692 111.576 267.1 111.754 267.462 112.005C267.823 112.256 268.132 112.577 268.37 112.948C268.608 113.32 268.771 113.735 268.849 114.169L273.804 141.515C273.889 141.953 273.887 142.403 273.797 142.839C273.707 143.276 273.531 143.69 273.281 144.057C273.03 144.425 272.708 144.739 272.335 144.981C271.962 145.222 271.545 145.387 271.108 145.465V145.465Z" fill="#005598"/>
<path opacity="0.3" d="M262.337 127.315L258.71 147.729L241.483 150.874C236.496 148.672 228.271 144.836 226.627 142.747C224.668 140.31 224.943 125.942 225.891 118.595L244.98 115.117C251.707 119.774 262.337 127.315 262.337 127.315Z" fill="black" fill-opacity="0.7"/>
<path opacity="0.3" d="M222.35 154.373L218.926 154.999C218.493 155.078 218.049 155.072 217.619 154.979C217.189 154.886 216.781 154.708 216.42 154.457C216.058 154.206 215.749 153.885 215.511 153.514C215.273 153.142 215.11 152.727 215.032 152.293L210.078 124.947C209.922 124.07 210.118 123.167 210.623 122.434C211.128 121.702 211.901 121.2 212.773 121.038L216.19 120.412C215.318 120.574 214.545 121.076 214.041 121.809C213.538 122.542 213.344 123.445 213.502 124.321L218.457 151.667C218.535 152.102 218.697 152.516 218.935 152.888C219.173 153.259 219.482 153.58 219.844 153.831C220.206 154.083 220.613 154.26 221.043 154.353C221.474 154.446 221.918 154.453 222.35 154.373V154.373Z" fill="black" fill-opacity="0.7"/>
<path d="M271.108 145.465L258.714 147.724L241.486 150.869L218.924 154.989C218.491 155.069 218.047 155.062 217.617 154.969C217.187 154.876 216.779 154.699 216.418 154.448C216.056 154.196 215.747 153.876 215.509 153.504C215.271 153.133 215.108 152.718 215.03 152.283L210.076 124.937C209.92 124.06 210.116 123.157 210.621 122.425C211.126 121.692 211.899 121.19 212.772 121.028L225.894 118.59L244.984 115.112L264.955 111.463C265.388 111.384 265.832 111.39 266.262 111.483C266.692 111.576 267.1 111.754 267.462 112.005C267.823 112.256 268.132 112.577 268.37 112.948C268.608 113.32 268.771 113.735 268.849 114.169L273.804 141.515C273.889 141.953 273.887 142.403 273.797 142.839C273.707 143.276 273.531 143.69 273.281 144.057C273.03 144.425 272.708 144.739 272.335 144.981C271.962 145.222 271.545 145.387 271.108 145.465V145.465Z" stroke="#263238" stroke-linecap="round" stroke-linejoin="round"/>
<path d="M267.423 110.021L215.451 119.603C213.637 119.938 212.436 121.685 212.769 123.506L217.751 150.735C218.085 152.556 219.825 153.761 221.639 153.427L273.612 143.844C275.426 143.509 276.627 141.762 276.293 139.941L271.311 112.712C270.978 110.891 269.237 109.686 267.423 110.021Z" stroke="#263238" stroke-width="0.996394" stroke-linecap="round" stroke-linejoin="round"/>
<path d="M265.976 113.312L216.999 122.247C216.119 122.407 215.536 123.253 215.696 124.136L220.574 151.081C220.734 151.965 221.577 152.55 222.456 152.39L271.433 143.455C272.313 143.295 272.897 142.449 272.737 141.565L267.859 114.62C267.699 113.737 266.856 113.151 265.976 113.312Z" stroke="#263238" stroke-linecap="round" stroke-linejoin="round"/>
<path d="M274.53 144.842L271.13 145.459C271.998 145.295 272.767 144.793 273.267 144.062C273.768 143.331 273.96 142.431 273.802 141.558L268.847 114.213C268.769 113.778 268.606 113.363 268.368 112.991C268.13 112.62 267.821 112.299 267.46 112.048C267.098 111.797 266.69 111.619 266.26 111.526C265.83 111.433 265.386 111.427 264.953 111.506L268.378 110.881C269.251 110.724 270.151 110.921 270.88 111.428C271.61 111.935 272.11 112.711 272.271 113.587L277.226 140.933C277.382 141.809 277.186 142.713 276.681 143.445C276.176 144.177 275.403 144.679 274.53 144.842V144.842Z" stroke="#263238" stroke-linecap="round" stroke-linejoin="round"/>
<path d="M372.998 232.438L339.475 322.708C339.475 322.708 325.453 295.89 312.501 271.072C302.155 251.227 292.489 232.617 291.185 229.878C288.263 223.71 278.281 210.789 278.281 210.789C278.281 210.789 268.04 204.905 263.353 194.658C258.666 184.41 253.509 147.751 253.509 147.751C253.509 147.751 240.046 142.664 236.832 140.437C233.618 138.211 230.688 117.634 230.688 115.286C230.688 112.937 233.926 108.232 233.926 108.232C233.926 108.232 233.205 104.786 237.318 101.308C238.662 100.2 240.152 99.2843 241.746 98.5857H241.827C241.827 98.5857 241.293 90.8086 245.324 88.5413C245.517 88.432 245.717 88.3369 245.923 88.2569C249.518 86.8672 261.305 85.0713 261.305 85.0713C262.971 83.6015 264.911 82.4773 267.012 81.7637C269.101 81.1868 280.564 83.8604 286.967 85.4451C289.542 86.0789 291.299 86.534 291.299 86.534C291.299 86.534 302.13 87.0298 304.178 88.2569C305.607 89.1972 306.913 90.3138 308.064 91.5806V91.5806L308.267 91.8163C308.267 91.8163 317.925 93.8317 319.973 97.383C322.021 100.934 322.895 118.553 321.438 130.003C319.981 141.453 322.596 160.884 322.596 160.884C322.596 160.884 325.615 175.894 327.955 181.59C330.295 187.287 372.998 232.438 372.998 232.438Z" fill="white"/>
<path opacity="0.4" d="M312.501 271.07C302.155 251.225 292.489 232.615 291.185 229.876C288.263 223.708 278.281 210.787 278.281 210.787C278.281 210.787 268.04 204.903 263.353 194.656C258.666 184.408 253.509 147.749 253.509 147.749C253.509 147.749 240.046 142.662 236.832 140.435C233.618 138.209 230.688 117.632 230.688 115.284C230.688 112.935 233.926 108.23 233.926 108.23C233.926 108.23 233.205 104.784 237.318 101.306C237.318 102.232 237.318 103.793 237.318 106.247C237.221 110.903 242.685 138.981 244.037 138.127C245.389 137.274 247.478 135.218 246.927 133.406C246.927 133.406 244.28 122.508 241.778 98.5835H241.859C241.859 98.5835 241.325 90.8064 245.357 88.5391C244.663 90.2231 244.218 92 244.037 93.8132C243.948 97.6002 248.433 130.05 250.19 130.87C251.946 131.691 256.399 127.368 256.399 127.368C256.399 127.368 254.877 118.16 255.419 114.235C255.419 114.235 268.963 122.524 269.368 131.935C269.408 132.967 272.007 147.717 272.007 147.717C272.007 147.717 260.358 169.983 272.25 190.3C272.25 190.3 266.202 186.659 264.761 180.873C264.761 180.873 263.005 197.89 275.496 206.878C275.496 206.878 284.458 198.044 293.306 196.923C293.306 196.923 293.468 197.508 287.542 202.197C281.616 206.886 280.815 208.975 280.815 208.975C280.815 208.975 287.227 202.473 292.351 202.197C292.351 202.197 287.065 208.333 287.226 209.617C287.388 210.901 302.341 236.564 307.781 254.467C309.999 261.944 311.513 267.34 312.501 271.07Z" fill="#005598"/>
<path opacity="0.4" d="M270.521 100.75C270.521 100.75 274.836 104 276.115 100.75C276.85 99.0101 277.317 97.1688 277.5 95.2885C277.5 95.2885 279.159 94.5246 280.738 98.5391C282.317 102.554 298.143 103.578 301.851 105.634C305.559 107.69 307.032 105.634 307.032 105.634C307.896 106.346 308.488 107.336 308.709 108.436C308.931 109.536 308.767 110.679 308.247 111.672C306.449 115.402 311.541 115.735 313.517 112.988C315.492 110.241 313.962 120.847 309.08 121.927C309.08 121.927 309.218 126.56 306.077 129.737H308.74C308.74 129.737 301.649 135.385 299.762 135.694C297.876 136.003 306.781 139.164 305.13 139.83C303.478 140.497 298.799 140.44 298.799 140.44C298.799 140.44 301.827 142.544 301.851 143.934C301.875 145.324 300.418 146.372 299.762 145.21C299.107 144.048 293.877 127.405 291.27 121.253C288.664 115.101 277.896 110.233 270.521 100.75Z" fill="#005598"/>
<path opacity="0.4" d="M308.06 91.5262C298.977 89.0313 286.793 85.48 286.793 85.48L286.963 85.3906C289.537 86.0245 291.294 86.4796 291.294 86.4796C291.294 86.4796 302.126 86.9753 304.174 88.2024C305.603 89.1427 306.908 90.2594 308.06 91.5262V91.5262Z" fill="#005598"/>
<path d="M295.28 105.865C287.379 104.24 281.736 111.017 281.736 111.017C281.736 111.017 289.589 118.152 291.33 121.216C293.07 124.28 295.96 134.609 295.96 134.609C299.271 135.145 305.375 131.716 306.84 122.614C308.306 113.512 303.141 107.482 295.28 105.865Z" fill="#005598"/>
<path d="M339.475 322.706C339.475 322.706 294.14 236.045 291.185 229.877C288.23 223.709 278.281 210.787 278.281 210.787C278.281 210.787 268.04 204.904 263.353 194.656C258.666 184.409 253.509 147.75 253.509 147.75C253.509 147.75 240.046 142.663 236.832 140.436C233.618 138.209 230.688 117.633 230.688 115.284C230.688 112.936 233.926 108.23 233.926 108.23C233.926 108.23 232.76 102.664 241.827 98.5434C241.827 98.5434 241.244 90.0187 245.923 88.2146C249.518 86.8249 261.305 85.029 261.305 85.029C262.971 83.5592 264.911 82.4351 267.012 81.7215C269.934 80.9088 291.299 86.4918 291.299 86.4918C291.299 86.4918 302.13 86.9875 304.178 88.2146C305.676 89.2064 307.04 90.3893 308.234 91.7334C308.234 91.7334 317.892 93.7488 319.94 97.3001C321.989 100.851 322.863 118.47 321.406 129.92C319.949 141.37 322.563 160.801 322.563 160.801C322.563 160.801 325.583 175.811 327.923 181.507C330.262 187.204 372.998 232.437 372.998 232.437" stroke="#263238" stroke-linecap="round" stroke-linejoin="round"/>
<path d="M301.1 146.554C301.1 146.554 299.052 146.116 296.421 136.421C293.79 126.726 293.094 122.191 287.638 116.445C283.768 112.382 274.911 105.743 270.524 100.753C266.136 95.7634 261.287 91.7326 257.498 94.8207C254.47 97.2587 252.495 103.589 255.158 113.357C258.583 125.905 269.382 131.878 269.382 131.878L272.021 147.66C272.021 147.66 260.566 170.69 273.479 192.429" stroke="#263238" stroke-linecap="round" stroke-linejoin="round"/>
<path d="M281.699 111.019C281.699 111.019 287.366 104.25 295.243 105.867C303.12 107.484 308.236 113.506 306.803 122.616C305.37 131.726 299.234 135.147 295.923 134.61" stroke="#263238" stroke-linecap="round" stroke-linejoin="round"/>
<path d="M261.281 85.0098C260.098 87.9953 259.187 91.0825 258.561 94.2334" stroke="#263238" stroke-linecap="round" stroke-linejoin="round"/>
<path d="M256.486 116.836C256.486 116.836 257.166 126.872 258.575 129.952C259.984 133.032 262.323 135.535 263.343 139.501C264.363 143.467 264.517 149.635 264.809 150.521C265.1 151.406 266.792 151.634 266.792 151.634C269.221 151.691 270.2 150.423 271.601 148.489" stroke="#263238" stroke-linecap="round" stroke-linejoin="round"/>
<path d="M241.854 98.5293C241.854 98.5293 244.047 119.967 245.804 129.077C247.561 138.187 250.661 139.503 255.754 142.445C260.846 145.387 263.655 151.384 264.1 152.286C264.545 153.189 266.213 153.286 266.213 153.286C267.193 153.204 268.137 152.878 268.96 152.338C269.782 151.797 270.458 151.059 270.924 150.19" stroke="#263238" stroke-linecap="round" stroke-linejoin="round"/>
<path d="M233.935 108.207C233.385 109.06 238.08 130.831 240.525 137.146C242.97 143.46 243.245 144.46 249.713 146.247C256.182 148.035 261.096 151.01 262.844 149.961" stroke="#263238" stroke-linecap="round" stroke-linejoin="round"/>
<path d="M278.855 96.1719C278.855 96.1719 282.215 104.25 279.997 109.564" stroke="#263238" stroke-linecap="round" stroke-linejoin="round"/>
<path d="M291.293 86.4727C296.799 88.6576 302.463 90.4154 308.237 91.7305" stroke="#263238" stroke-linecap="round" stroke-linejoin="round"/>
<path d="M313.537 114.391C313.537 114.391 310.963 119.112 307.061 120.128" stroke="#263238" stroke-linecap="round" stroke-linejoin="round"/>
<path d="M307.051 109.246C307.051 109.246 306.128 111.684 305.148 112.359" stroke="#263238" stroke-linecap="round" stroke-linejoin="round"/>
<path d="M310.292 128.635C310.292 128.635 304.439 133.08 298.82 134.234" stroke="#263238" stroke-linecap="round" stroke-linejoin="round"/>
<path d="M296.422 136.432C296.422 136.432 298.851 139.512 305.157 139.804" stroke="#263238" stroke-linecap="round" stroke-linejoin="round"/>
<path d="M277.471 122.946C277.471 122.946 283.202 117.42 286.473 118.184" stroke="#263238" stroke-linecap="round" stroke-linejoin="round"/>
<path d="M288.695 124.07C288.695 124.07 284.356 127.321 283.562 127.321" stroke="#263238" stroke-linecap="round" stroke-linejoin="round"/>
<path d="M244.01 141.305C244.01 141.305 245.451 141.573 246.576 139.826" stroke="#263238" stroke-linecap="round" stroke-linejoin="round"/>
<path d="M249.135 133.391C249.135 133.391 252.616 131.229 254.891 130.814" stroke="#263238" stroke-linecap="round" stroke-linejoin="round"/>
<path d="M279.811 206.693C280.531 206.051 287.258 200.59 291.419 198.656" stroke="#263238" stroke-linecap="round" stroke-linejoin="round"/>
<path d="M288.529 204.105C288.052 203.959 284.231 207.974 282.215 209.583" stroke="#263238" stroke-linecap="round" stroke-linejoin="round"/>
<path d="M290.43 216.01C290.43 216.01 303.245 240.389 306.127 250.141" stroke="#263238" stroke-linecap="round" stroke-linejoin="round"/>
<path d="M327.957 181.539C329.042 187.528 332.563 191.941 334.49 194.33" stroke="#263238" stroke-linecap="round" stroke-linejoin="round"/>
<path opacity="0.4" d="M287.561 108.214C285.699 109.368 287.658 113.138 288.695 115.064C289.731 116.99 294.361 120.054 295.325 122.947C296.288 125.84 302.376 125.759 304.23 122.947C306.084 120.135 305.849 114.52 300.797 110.245C295.746 105.971 290.208 106.588 287.561 108.214Z" fill="white"/>
<path d="M252.018 270.17C243.773 268.763 235.297 270.202 227.972 274.252C220.646 278.301 214.903 284.723 211.68 292.47C208.457 300.216 207.944 308.83 210.224 316.907C212.503 324.984 217.442 332.048 224.234 336.946" stroke="#263238" stroke-linecap="round" stroke-linejoin="round"/>
<path d="M267.439 276.646C264.007 274.158 260.173 272.283 256.105 271.104" stroke="#263238" stroke-linecap="round" stroke-linejoin="round"/>
<path d="M263.713 339.255C268.702 336.482 272.985 332.588 276.226 327.878C279.468 323.167 281.579 317.767 282.396 312.101C283.213 306.435 282.713 300.656 280.935 295.216C279.157 289.777 276.15 284.823 272.148 280.744" stroke="#263238" stroke-linecap="round" stroke-linejoin="round"/>
<path d="M265.504 350.973L267.706 352.923L264.273 341.115" stroke="#263238" stroke-linecap="round" stroke-linejoin="round"/>
<path d="M239.604 343.384C245.046 344.321 250.63 344.018 255.94 342.498L262.91 348.674" stroke="#263238" stroke-linecap="round" stroke-linejoin="round"/>
<path d="M231.117 340.863C232.499 341.461 233.916 341.974 235.359 342.399" stroke="#263238" stroke-linecap="round" stroke-linejoin="round"/>
<path d="M248.732 288.715C253.317 289.502 257.443 291.983 260.297 295.67C263.151 299.358 264.527 303.984 264.154 308.639C263.781 313.294 261.685 317.639 258.28 320.821C254.874 324.002 250.406 325.789 245.754 325.829C241.103 325.869 236.604 324.16 233.145 321.038C229.686 317.916 227.516 313.607 227.063 308.959C226.61 304.312 227.906 299.662 230.697 295.926C233.488 292.19 237.571 289.638 242.142 288.772" stroke="#263238" stroke-linecap="round" stroke-linejoin="round"/>
<path d="M242.144 327.548C236.752 326.626 231.945 323.592 228.781 319.113C225.618 314.634 224.356 309.077 225.273 303.664" stroke="#263238" stroke-linecap="round" stroke-linejoin="round"/>
<path d="M265 314.18C263.73 317.704 261.532 320.817 258.64 323.187C255.747 325.557 252.269 327.095 248.574 327.637" stroke="#263238" stroke-linecap="round" stroke-linejoin="round"/>
<path d="M226.854 298.5C228.944 293.938 232.614 290.294 237.182 288.246C241.749 286.198 246.902 285.886 251.682 287.368C256.461 288.85 260.542 292.025 263.163 296.302C265.784 300.579 266.768 305.666 265.93 310.617" stroke="#263238" stroke-linecap="round" stroke-linejoin="round"/>
<path d="M257.984 299.68L258.223 299.426" stroke="#263238" stroke-width="2" stroke-linecap="round" stroke-linejoin="round"/>
<path d="M254.68 303.252L256.323 301.473" stroke="#263238" stroke-width="2" stroke-linecap="round" stroke-linejoin="round"/>
<path d="M234.52 305.881L242.461 316.478L253.244 304.816" stroke="#263238" stroke-width="2" stroke-linecap="round" stroke-linejoin="round"/>
</svg>
